<svg width="90" height="44" viewBox="0 0 90 44" fill="none" xmlns="http://www.w3.org/2000/svg">
    <g clip-path="url(#clip0_205_10921)">
        <path fill-rule="evenodd" clip-rule="evenodd" d="M11.2148 16.8296C11.2172 15.0076 12.0335 13.2607 13.4846 11.9723C14.9357 10.6839 16.9031 9.95915 18.9553 9.95703H24.9749V12.8578H18.9553C17.7693 12.859 16.6322 13.2778 15.7936 14.0224C14.9549 14.767 14.4832 15.7766 14.4819 16.8296V21.5414H11.2148V16.8296ZM27.7716 9.97072H31.0078V12.8441H27.7716V9.97072ZM33.6868 29.9232C34.5253 29.1787 34.9969 28.1693 34.9983 27.1164V22.4046H38.2653V27.1164C38.264 28.939 37.4483 30.6866 35.9972 31.9756C34.5462 33.2648 32.5783 33.9899 30.5256 33.9921H24.5053V31.0876H30.5256C31.7114 31.0864 32.8483 30.6677 33.6868 29.9232ZM18.4723 33.9754H21.7085V31.102H18.4723V33.9754ZM29.5611 21.9796C29.5611 24.3437 27.4026 26.2601 24.7401 26.2601C22.0775 26.2601 19.9191 24.3437 19.9191 21.9796C19.9191 19.6155 22.0775 17.699 24.7401 17.699C27.4026 17.699 29.5611 19.6155 29.5611 21.9796Z" fill="url(#paint0_linear_205_10921)"/>
        <path fill-rule="evenodd" clip-rule="evenodd" d="M47.7574 21.2651L45.6448 21.1126C45.9637 17.4252 48.028 15.3086 51.7632 15.3086C55.1277 15.3086 57.0714 16.7269 57.0714 19.2798C57.0714 21.7231 55.0317 22.9236 51.4689 23.7308C48.396 24.5598 47.5604 25.1516 47.4623 26.8942C48.5684 26.8724 50.0424 26.8507 51.124 26.8507H57.2922V28.6399H45.2999C45.2754 28.2665 45.2754 27.8763 45.2754 27.4836C45.2754 24.4073 46.8728 23.1632 50.5583 22.2472C53.7777 21.4617 54.785 20.6981 54.785 19.2599C54.785 18.0376 53.8268 17.0779 51.738 17.0779C49.453 17.0761 48.0518 18.2977 47.7574 21.2651ZM62.1826 28.6399H59.9214V15.5488H62.1826V28.6399ZM65.4995 15.5488V28.6399H71.3453C76.0885 28.6399 78.7422 25.9339 78.7422 22.0069C78.7422 18.0799 76.2847 15.5488 71.2471 15.5488H65.4995ZM71.1252 26.9378H67.7607L67.7586 17.2503H70.9527C74.7616 17.2503 76.5069 18.9742 76.5069 22.0069C76.5069 25.0614 74.885 26.9378 71.1252 26.9378Z" fill="#070707"/>
    </g>
    <defs>
        <linearGradient id="paint0_linear_205_10921" x1="11.231" y1="21.9683" x2="38.2681" y2="21.9683" gradientUnits="userSpaceOnUse">
            <stop stop-color="#7349FF"/>
            <stop offset="0.33" stop-color="#02BEFE"/>
            <stop offset="0.66" stop-color="#02BEFE"/>
            <stop offset="1" stop-color="#7349FF"/>
        </linearGradient>
        <clipPath id="clip0_205_10921">
            <rect width="90" height="44" fill="white"/>
        </clipPath>
    </defs>
</svg>
