<svg width="25" height="24" viewBox="0 0 25 24" fill="none" xmlns="http://www.w3.org/2000/svg">
    <path d="M2 11V16.1834C2 18.7848 3.03841 19.401 4.29731 17.5428L4.3044 17.533C4.88762 16.6821 5.77666 16.7506 6.28164 17.6797L7 19" stroke="#97CEF8" stroke-width="1.5" stroke-linecap="round" stroke-linejoin="round"/>
    <path d="M17.2908 6.17589L10.0246 13.4405C9.73721 13.7278 9.47033 14.2613 9.40875 14.6512L9.01874 17.4216C8.87506 18.4272 9.57297 19.1249 10.5788 18.9813L13.3498 18.5913C13.7398 18.5298 14.294 18.263 14.5609 17.9757L21.8272 10.7112C23.0793 9.45936 23.6745 8.00234 21.8272 6.15542C20.0003 4.32901 18.5429 4.92409 17.2908 6.17589Z" stroke="#97CEF8" stroke-width="1.5" stroke-miterlimit="10" stroke-linecap="round" stroke-linejoin="round"/>
    <path d="M16.4668 6.86719C17.0974 9.13746 18.8632 10.9032 21.1335 11.5339" stroke="#97CEF8" stroke-width="1.5" stroke-miterlimit="10" stroke-linecap="round" stroke-linejoin="round"/>
</svg>
