<svg width="107" height="78" viewBox="0 0 107 78" fill="none" xmlns="http://www.w3.org/2000/svg">
    <ellipse cx="53.5" cy="56" rx="53.5" ry="22" fill="#F5F7FA"/>
    <path d="M54.6941 49.8973C55.3809 50.0571 55.4439 50.9567 54.7749 51.1797V51.1797L50.8249 52.4797C40.8999 55.6797 35.6749 53.0047 32.4499 43.0797L29.2499 33.2047C26.0499 23.2797 28.6999 18.0297 38.6249 14.8297L39.9349 14.3959C40.942 14.0623 41.9222 15.0725 41.6362 16.0941C41.4944 16.6006 41.3581 17.1291 41.2249 17.6797L38.7749 28.1547C36.0249 39.9297 40.0499 46.4297 51.8249 49.2297L54.6941 49.8973Z" fill="#DEEFFF"/>
    <path d="M65.9254 8.02136L61.7504 7.04636C53.4004 5.07136 48.4254 6.69636 45.5004 12.7464C44.7504 14.2714 44.1504 16.1214 43.6504 18.2464L41.2004 28.7214C38.7504 39.1714 41.9754 44.3214 52.4004 46.7964L56.6004 47.7964C58.0504 48.1464 59.4004 48.3714 60.6504 48.4714C68.4504 49.2214 72.6004 45.5714 74.7004 36.5464L77.1504 26.0964C79.6004 15.6464 76.4004 10.4714 65.9254 8.02136ZM61.2254 33.3214C61.0004 34.1714 60.2505 34.7214 59.4005 34.7214C59.2505 34.7214 59.1004 34.6964 58.9254 34.6714L51.6504 32.8214C50.6504 32.5714 50.0504 31.5464 50.3004 30.5464C50.5504 29.5464 51.5754 28.9464 52.5754 29.1964L59.8504 31.0464C60.8754 31.2964 61.4754 32.3214 61.2254 33.3214ZM68.5504 24.8714C68.3254 25.7214 67.5754 26.2714 66.7254 26.2714C66.5754 26.2714 66.4254 26.2464 66.2504 26.2214L54.1254 23.1464C53.1254 22.8964 52.5254 21.8714 52.7754 20.8714C53.0254 19.8714 54.0504 19.2714 55.0504 19.5214L67.1754 22.5964C68.2004 22.8214 68.8004 23.8464 68.5504 24.8714Z" fill="#97CEF8"/>
</svg>
