<svg width="20" height="20" viewBox="0 0 20 20" fill="none" xmlns="http://www.w3.org/2000/svg">
    <path d="M7.5026 8.33333C8.42308 8.33333 9.16927 7.58714 9.16927 6.66667C9.16927 5.74619 8.42308 5 7.5026 5C6.58213 5 5.83594 5.74619 5.83594 6.66667C5.83594 7.58714 6.58213 8.33333 7.5026 8.33333Z" stroke="#97CEF8" stroke-width="1.5" stroke-linecap="round" stroke-linejoin="round"/>
    <path d="M10.8307 1.67188H7.49739C3.33073 1.67188 1.66406 3.33854 1.66406 7.50521V12.5052C1.66406 16.6719 3.33073 18.3385 7.49739 18.3385H12.4974C16.6641 18.3385 18.3307 16.6719 18.3307 12.5052V8.33854" stroke="#97CEF8" stroke-width="1.5" stroke-linecap="round" stroke-linejoin="round"/>
    <path d="M15 6.67187V1.67188L16.6667 3.33854" stroke="#97CEF8" stroke-width="1.5" stroke-linecap="round" stroke-linejoin="round"/>
    <path d="M15.0026 1.67188L13.3359 3.33854" stroke="#97CEF8" stroke-width="1.5" stroke-linecap="round" stroke-linejoin="round"/>
    <path d="M2.22461 15.7898L6.33294 13.0315C6.99128 12.5898 7.94128 12.6398 8.53294 13.1482L8.80794 13.3898C9.45794 13.9482 10.5079 13.9482 11.1579 13.3898L14.6246 10.4148C15.2746 9.85651 16.3246 9.85651 16.9746 10.4148L18.3329 11.5815" stroke="#97CEF8" stroke-width="1.5" stroke-linecap="round" stroke-linejoin="round"/>
</svg>
