<svg width="20" height="20" viewBox="0 0 20 20" fill="none" xmlns="http://www.w3.org/2000/svg">
    <path d="M5.63217 18.3385H14.3655C16.6655 18.3385 17.5822 16.9302 17.6905 15.2135L18.1238 8.33021C18.2405 6.53021 16.8072 5.00521 14.9988 5.00521C14.4905 5.00521 14.0238 4.71354 13.7905 4.26354L13.1905 3.05521C12.8072 2.29687 11.8072 1.67188 10.9572 1.67188H9.04884C8.1905 1.67188 7.1905 2.29687 6.80717 3.05521L6.20717 4.26354C5.97384 4.71354 5.50717 5.00521 4.99884 5.00521C3.1905 5.00521 1.75717 6.53021 1.87384 8.33021L2.30717 15.2135C2.40717 16.9302 3.33217 18.3385 5.63217 18.3385Z" stroke="white" stroke-width="1.5" stroke-linecap="round" stroke-linejoin="round"/>
    <path d="M8.75 6.67188H11.25" stroke="white" stroke-width="1.5" stroke-linecap="round" stroke-linejoin="round"/>
    <path d="M10.0052 14.9948C11.4969 14.9948 12.7135 13.7781 12.7135 12.2865C12.7135 10.7948 11.4969 9.57812 10.0052 9.57812C8.51354 9.57812 7.29688 10.7948 7.29688 12.2865C7.29688 13.7781 8.51354 14.9948 10.0052 14.9948Z" stroke="white" stroke-width="1.5" stroke-linecap="round" stroke-linejoin="round"/>
</svg>
