<svg width="40" height="41" viewBox="0 0 40 41" fill="none" xmlns="http://www.w3.org/2000/svg">
    <rect y="0.5" width="40" height="40" rx="14" fill="#F5F7FA"/>
    <path d="M27 16.5C28.6569 16.5 30 15.1569 30 13.5C30 11.8431 28.6569 10.5 27 10.5C25.3431 10.5 24 11.8431 24 13.5C24 15.1569 25.3431 16.5 27 16.5Z" stroke="#36A4F8" stroke-width="1.5" stroke-linecap="round" stroke-linejoin="round"/>
    <path d="M15 21.5H20" stroke="#36A4F8" stroke-width="1.5" stroke-linecap="round" stroke-linejoin="round"/>
    <path d="M15 25.5H24" stroke="#36A4F8" stroke-width="1.5" stroke-linecap="round" stroke-linejoin="round"/>
    <path d="M22 10.5H17C12 10.5 10 12.5 10 17.5V23.5C10 28.5 12 30.5 17 30.5H23C28 30.5 30 28.5 30 23.5V18.5" stroke="#36A4F8" stroke-width="1.5" stroke-linecap="round" stroke-linejoin="round"/>
</svg>
