<svg width="187" height="187" viewBox="0 0 187 187" fill="none" xmlns="http://www.w3.org/2000/svg">
    <g clip-path="url(#clip0_217_14571)">
        <path d="M169.139 96.6011C168.075 97.138 166.79 96.8887 165.285 95.8725C165.295 96.8408 165.007 97.4544 164.403 97.6941L164.451 99.8129C161.383 104.674 130.656 114.194 133.13 99.4581C134.222 92.7087 133.81 85.5086 133.36 78.6633C132.89 71.5208 129.994 69.0952 122.919 72.4508C120.148 74.6558 112.622 80.6095 110.551 74.7613C110.082 73.4382 110.992 71.9139 111.635 70.8593C114.022 66.986 118.758 62.4225 122.286 59.5175C123.005 56.9002 124.501 55.1649 126.764 54.3212L127.214 53.5926C127.933 52.49 129.544 53.1036 129.764 54.3212C130.081 54.3883 130.388 54.5513 130.426 54.8581C130.579 56.0948 119.88 65.3466 117.742 66.7176C117.646 67.0435 117.771 67.1586 118.106 67.0819C122.804 62.432 127.54 58.0602 132.324 53.9569C132.228 52.8639 134.405 51.2341 135.239 52.1353C136.217 51.5217 139.678 49.3933 140.588 49.9206C140.761 50.0261 140.924 50.1603 141.068 50.3041C144.145 51.5121 150.789 52.2791 151.988 48.2524L152.726 47.7539C159.351 47.984 164.825 49.2112 168.468 55.1553C171.575 60.227 174.048 78.0018 173.511 84.0322C173.176 87.8383 170.702 93.073 169.12 96.5915L169.139 96.6011Z" fill="#F0F2F1"/>
        <path d="M92.222 5.46552C94.523 5.81067 96.1911 8.67727 96.4979 10.844C97.2553 16.1362 96.1336 22.6364 96.5938 28.0628C96.6609 29.2899 94.312 30.5746 93.315 29.8843C92.711 29.7981 92.4329 29.5871 92.4905 29.0119L92.7206 18.9932C92.6439 16.0691 92.4521 11.8027 88.4734 12.9628L30.2786 46.5183C27.4599 48.3782 25.5808 51.3599 24.8138 54.6291L24.7755 171.134C25.0151 174.451 25.7054 177.203 29.6841 175.669L76.5276 148.68L77.285 149.093C76.8536 152.908 75.032 157.098 72.5489 160.032L29.617 184.719C27.2394 185.774 24.1235 186.186 22.2444 184.086L20.5091 182.571C19.5312 150.78 19.2628 118.893 19.7134 86.9287L19.1094 62.2318C19.234 48.0618 22.6087 42.9614 34.6791 35.6463C52.128 25.9152 69.4522 16.0211 86.6422 5.96406C88.5309 4.99575 90.2566 4.34381 92.2316 5.46552H92.222Z" fill="#DCE8FD"/>
        <path d="M92.2191 5.46644C90.3304 5.18841 88.1349 5.92663 86.5051 6.86619C68.5768 18.5914 47.5903 27.7377 29.9113 39.578C24.0439 43.5088 20.487 49.5488 20.0268 56.6625C19.3749 66.6429 20.372 76.9684 20.4295 86.92C20.5925 118.558 19.8159 150.349 20.9568 181.892C21.2828 182.601 21.7142 183.512 22.2319 184.078C18.6079 182.112 14.6867 180.914 14.2169 176.235C13.2007 166.053 14.3224 152.89 14.2265 142.325C13.9485 112.125 13.6609 81.81 13.8334 51.5621C14.3991 45.5796 17.7738 40.4409 22.2607 36.6539L80.676 2.84912C85.8531 0.519405 88.0103 2.69572 92.2287 5.46644H92.2191Z" fill="#6A94D2"/>
        <path d="M100.61 114.464C101.051 114.733 101.895 114.79 102.307 115.318L123.016 137.445C125.297 140.954 122.325 146.15 119.325 148.307C105.807 155.335 92.8445 164.452 79.3456 171.394C77.2939 172.448 75.9996 173.599 73.7275 172.496C73.2193 172.256 73.0468 171.777 72.9029 171.691C71.5799 170.521 71.7908 168.364 72.3948 166.811C79.1634 150.196 87.0058 133.485 94.8866 117.187C95.5577 115.787 98.9899 113.065 100.61 114.455V114.464Z" fill="#AFC3FE"/>
        <path d="M149.092 110.81C149.658 112.373 148.872 115.585 148.249 117.32C147.97 118.116 147.577 118.863 147.156 119.592C143.905 123.676 142.41 127.377 142.793 132.612C140.876 135.353 140.147 138.508 140.607 142.065C138.642 146.676 137.549 151.652 137.319 156.973C134.663 163.463 134.884 170.97 137.07 177.528C136.753 179.292 132.755 178.851 131.346 178.305C129.937 177.758 127.454 176.032 128.69 174.613C128.844 162.294 128.422 149.878 129.036 137.597C129.553 127.329 131.001 117.08 131.605 106.812L132.679 106.793C137.041 110.331 142.966 110.302 148.296 110.12L149.102 110.82L149.092 110.81Z" fill="#285293"/>
        <path d="M116.65 18.5881C117.168 18.8565 118.031 19.1441 118.29 19.681C119.086 21.3108 119.066 32.1349 118.836 34.4358C118.597 36.8518 117.647 38.6159 115.682 40.0348C111.138 43.3137 104.772 45.8351 99.9972 48.951C98.5687 50.878 97.8593 53.4282 96.6033 55.4032C96.6225 57.2536 94.5229 59.4203 94.4174 56.8605C94.4941 54.7225 94.5708 50.6096 93.7559 55.0773L92.9602 55.4032C92.2315 55.4895 92.1548 55.154 92.2315 54.5308C91.0715 55.1635 88.7418 55.1923 88.9527 53.5816C88.387 53.0831 88.0707 52.6804 87.8693 51.9614C87.3037 49.8714 87.4571 39.5938 88.0419 37.3695C88.5596 35.4042 89.6621 33.8318 91.3112 32.643C99.4508 27.696 107.638 22.9407 115.883 18.3867L116.65 18.5976V18.5881Z" fill="#AFC3FE"/>
        <path d="M159.657 108.987C160.74 110.022 160.99 112.937 161.086 114.586C161.172 116.062 161.172 117.117 160.951 118.593C159.858 121.92 159.389 125.362 159.552 128.909C158.478 131.555 158.401 134.47 159.302 137.634C158.305 144.786 157.673 151.957 157.404 159.147C157.826 160.461 157.845 161.477 157.471 162.206C155.304 164.286 150.722 160.135 152.735 157.834C152.026 153.5 152.15 148.678 151.594 144.21C150.913 138.746 149.686 133.271 148.363 127.941C148.862 121.968 150.559 115.87 153.099 110.444C154.547 109.15 157.778 108.517 159.657 108.987Z" fill="#285293"/>
        <path d="M127.214 53.582C127.214 53.7258 127.761 54.1764 127.425 54.6749C127.051 55.2214 125.374 55.5378 124.654 56.3048C123.734 57.2923 123.686 58.97 122.852 59.9671C122.066 60.8971 119.985 62.0763 119.008 63.0446C117.349 64.6841 112.488 69.9283 111.731 71.8074C109.785 76.601 113.735 77.5214 117.493 75.3835C120.609 73.6098 122.603 70.7624 126.668 70.3405C134.309 69.564 134.098 76.3901 134.136 81.8165C134.175 85.8719 134.75 90.1287 134.52 94.2321C134.271 98.6135 131.72 104.558 137.847 106.178C144.826 108.019 158.517 104.04 163.943 99.2654C164.605 98.6806 164.442 98.508 164.384 97.6835C165.937 98.019 165.937 101.662 165.477 103.148C165.305 103.465 164.068 106.523 164.02 106.791C163.541 108.153 160.914 109.84 159.648 108.977C157.548 109.744 155.305 110.137 153.09 110.435C152.563 111.623 149.802 111.921 149.083 110.799C143.168 111.048 136.092 111.134 131.586 106.791C131.96 100.483 132.622 92.3625 132.334 86.1787C132.123 81.6727 130.992 76.9749 130.321 72.5169L129.026 72.3155C125.489 73.7057 117.943 79.7744 114.607 80.1579C109.631 80.7236 107.033 75.4026 110.091 71.6157C115.412 66.7645 119.87 58.807 125.028 54.1093C125.671 53.5244 126.572 53.3998 127.224 52.8438C127.914 53.0451 127.914 53.3615 127.224 53.5724L127.214 53.582Z" fill="#D3D5D7"/>
        <path d="M153.1 110.447C151.624 116.305 149.994 122.134 148.364 127.944C143.858 144.012 141.068 159.342 139.611 176.062C139.381 177.405 138.077 178.632 137.06 177.52C136.188 177.711 136.303 177.079 136.035 176.561C134.664 173.905 134.501 165.516 134.903 162.42C135.124 160.723 136.236 158.69 136.591 156.821C137.415 152.497 137.166 149.036 138.604 144.616C138.901 143.696 139.716 142.737 139.889 141.893C140.32 139.832 139.438 138.193 140.148 135.949C140.579 134.569 141.854 133.457 142.084 132.421C142.381 131.089 142.017 129.497 142.161 128.126C142.707 123.169 145.871 121.262 147.443 117.369C148.287 115.289 148.201 112.882 149.083 110.802C150.559 110.744 151.643 110.629 153.09 110.438L153.1 110.447Z" fill="#263966"/>
        <path d="M152.373 44.1118C152.603 46.5278 147.253 46.2019 146.544 44.4762C145.556 44.457 145.393 44.016 146.179 43.3832L145.422 42.9326L145.47 38.2924C145.153 35.512 144.53 35.9627 142.67 37.324C137.809 38.5704 138.95 30.6417 139.334 27.9764C138.289 27.7272 137.771 27.2766 137.79 26.6246C136.975 27.3149 136.611 26.9506 136.697 25.5317C136.371 24.9948 136.045 24.3429 135.969 23.7101L136.534 23.0486C139.228 22.8664 141.865 22.2241 144.463 21.1407C149.046 20.1532 151.999 20.7956 153.657 25.6563C160.752 31.8785 156.754 37.9664 152.373 44.131V44.1118Z" fill="#353437"/>
        <path d="M164.029 106.803C163.77 108.404 164.135 110.724 164.049 112.469C163.214 128.211 163.119 144.212 162.572 160.022C162.61 162.351 158.651 164.087 157.472 162.207C157.194 161.556 156.858 160.894 156.772 160.175C155.966 153.541 158.334 144.308 158.584 137.626C158.66 135.43 157.692 133.494 157.817 131.777C157.893 130.684 158.67 129.822 158.852 128.767C159.149 127.06 158.804 125.181 158.986 123.427C159.188 121.442 160.204 119.391 160.405 117.55C160.731 114.587 159.734 111.893 159.677 108.979C161.354 108.365 162.486 107.493 164.049 106.793L164.029 106.803Z" fill="#263966"/>
        <path d="M96.966 113.007C99.056 112.796 99.219 113.611 100.609 114.464C98.2986 114.502 96.9372 116.017 95.5087 117.561C88.7688 133.159 79.9965 149.065 73.9373 164.884C73.4579 166.12 72.6814 167.741 72.643 169.054C72.6143 170.042 73.3333 170.943 72.9115 171.691C72.1541 171.24 71.1666 171.115 70.553 170.224C68.7218 167.578 71.4254 162.669 72.5472 160.023C74.0907 156.409 75.711 152.65 77.2833 149.084L77.3791 147.655C81.7414 136.103 86.861 125.125 92.738 114.742L93.6775 114.819C93.8693 113.352 95.7867 111.818 96.9564 112.997L96.966 113.007Z" fill="#92B1F8"/>
        <path d="M96.9675 113.005C95.8937 113.12 94.4652 114.098 93.6886 114.826C92.8162 114.213 92.6244 111.768 92.5957 110.598C92.2314 93.6961 92.2697 76.8225 92.5573 59.8913C92.5573 59.3257 92.6916 58.76 92.8258 58.1944C92.96 57.6287 93.1326 57.0631 93.3339 56.507C93.6695 55.4045 94.5035 55.7784 94.4268 56.8713C94.5802 56.9097 94.8103 57.5808 95.5294 57.0727C95.6444 56.996 96.3922 55.7496 96.6127 55.4141L96.9771 113.005H96.9675Z" fill="#DCE8FD"/>
        <path d="M128.67 174.605C129.801 178.143 133.943 178.555 137.049 177.52C138.152 177.156 138.718 176.868 139.6 176.063C139.475 177.491 139.724 179.006 139.6 180.435C138.909 181.949 137.529 182.553 135.448 182.227C132.093 181.614 129.054 182.007 125.717 182.63C121.671 183.033 113.8 181.777 114.807 176.427C116.743 174.855 121.585 176.37 124.423 176.024C126.005 175.833 127.184 175.037 128.651 174.605H128.67Z" fill="#F4AE7C"/>
        <path d="M116.65 18.5886C116.036 19.4035 114.867 19.9596 113.975 20.4773C107.225 24.4177 97.8107 28.847 91.7324 33.2284C89.9971 34.4843 88.8179 36.2676 88.5782 38.4535C88.1947 41.8665 88.3673 48.0503 88.5686 51.5976C88.6069 52.2879 88.7412 52.9303 88.9425 53.5822C87.5427 54.5122 86.4977 52.9111 86.028 51.588C85.4911 50.0828 85.6445 37.7248 86.1047 35.8841C86.5073 34.3022 86.9771 33.5639 88.1468 32.4614C89.2109 31.4643 92.0008 29.8824 93.3143 29.892C94.2634 29.3168 95.529 28.7032 96.5932 28.0704C102.365 24.6478 108.395 21.6278 114.071 18.0229C115.518 17.5628 115.605 18.0517 116.64 18.5886H116.65Z" fill="#92B1F8"/>
        <path d="M152.735 157.836C153.291 161.221 153.847 161.815 157.471 162.208C159.666 162.448 161.22 161.921 162.571 160.022C162.495 162.16 162.993 166.34 162.207 168.037C159.043 170.415 155.87 167.73 153.751 165.305C149.178 164.03 143.071 160.358 145.803 154.912C148.152 153.637 150.721 156.849 152.725 157.827L152.735 157.836Z" fill="#F4AE7C"/>
        <path d="M152.737 44.1104C152.631 44.4268 152.516 44.4268 152.372 44.1104C151.74 44.0241 152.535 43.0174 152.679 42.7777C154.769 39.2976 156.974 37.5335 156.763 32.9891C156.552 28.416 154.74 28.6461 152.938 25.8754C152.085 24.5619 152.315 23.2964 150.675 22.2993C145.939 19.4231 140.848 24.4948 135.968 23.699C135.403 19.0588 137.723 21.5227 140.427 21.4173C144.281 21.2639 146.927 18.0905 151.577 19.2122C154.683 19.96 154.069 21.3885 155.498 23.3156C156.111 24.1305 157.07 24.7345 157.636 25.5494C159.448 28.1475 159.755 32.3276 158.652 35.2709C157.827 37.4664 153.053 42.7682 152.737 44.12V44.1104Z" fill="#29282B"/>
        <path d="M134.872 41.5515C135.496 42.0788 135.985 42.8937 136.339 43.9962C137.567 44.3606 138.42 44.8879 138.88 45.559C139.11 45.7315 139.436 46 139.359 46.1917C138.746 47.8312 136.675 51.4456 135.237 52.1167C134.767 52.2605 133.281 53.5164 132.322 53.9383C131.488 54.9353 130.251 56.0762 129.772 54.3026C128.88 54.0917 128.161 53.5452 127.222 53.5739C127.231 53.3343 127.193 53.0754 127.222 52.8453C127.768 49.0104 129.734 40.7462 134.872 41.5419V41.5515Z" fill="#F4AE7C"/>
        <path d="M152.733 47.7527C152.705 48.1554 152.762 48.5293 152.657 48.9415C151.698 52.7093 141.612 52.8052 141.066 50.3125C139.723 50.2166 140.068 46.027 141.066 45.5764C141.507 44.6656 144.833 44.052 146.041 43.9657C146.271 43.9466 146.434 44.2438 146.53 44.4834C148.246 44.7135 150.471 45.9119 152.359 44.1191H152.724C152.513 45.0395 152.81 46.6789 152.724 47.7623L152.733 47.7527Z" fill="#F4AE7C"/>
        <path d="M139.608 180.431C139.186 185.292 134.383 183.298 131.411 183.317C126.637 183.346 121.364 185.56 116.762 182.684C114.796 181.457 112.591 178.226 114.825 176.414C115.822 181.582 121.574 182.157 125.937 181.879C127.432 181.783 129.148 181.217 130.663 181.141C133.789 180.978 137.135 182.454 139.608 180.431Z" fill="#ED7D5B"/>
        <path d="M162.209 168.045C161.049 170.547 156.965 169.761 155.105 168.409C154.194 167.748 153.485 166.492 152.497 165.917C150.982 165.025 149.094 164.91 147.445 163.673C145.077 161.9 142.421 156.761 145.805 154.93C145.326 158.908 146.927 161.526 150.407 163.271C151.615 163.875 153.235 164.057 154.319 164.824C155.402 165.591 155.929 166.923 157.368 167.604C158.882 168.314 160.608 168.524 162.2 168.055L162.209 168.045Z" fill="#ED7D5B"/>
        <path d="M136.696 25.5117C136.926 25.876 137.424 26.3842 137.789 26.6047C136.638 31.6955 136.36 36.8343 136.954 42.0114C138.249 44.2453 143.263 43.2674 145.372 42.8168L146.177 43.3728C146.206 43.6413 146.57 44.0919 146.542 44.4658C145.612 44.3411 142.678 45.4916 141.077 45.5587C140.684 46.6517 139.361 46.6325 138.891 45.5587C135.9 45.1944 135.075 44.4754 134.884 41.5512C134.51 35.9523 135.219 30.871 136.705 25.5117H136.696Z" fill="#ED7D5B"/>
        <path d="M169.138 96.6C167.806 99.572 166.914 100.627 165.495 103.158L164.402 97.6929V94.4141C165.821 95.5645 167.461 96.0247 169.138 96.6Z" fill="#F4AE7C"/>
        <path d="M141.069 45.5703C141.27 46.9701 140.791 49.0313 141.069 50.3064C139.161 50.7091 137.464 51.6774 135.7 52.4348C135.202 52.6553 135.259 52.1184 135.23 52.128L138.874 45.5703C139.497 45.647 140.398 45.5991 141.06 45.5703H141.069Z" fill="#FEFDFD"/>
        <path d="M118.106 67.0742C117.598 67.5536 117.406 67.3522 117.742 66.7099C121.5 63.2105 125.421 59.577 128.863 55.7804C129.275 55.3298 129.774 55.0326 129.764 54.3135C131.337 54.6874 130.896 54.5724 132.315 53.9492C131.778 55.3873 130.167 56.7199 129.036 57.7841C125.575 61.0438 121.778 64.0734 118.097 67.0742H118.106Z" fill="#D4D6D8"/>
        <path d="M164.394 92.2219C163.876 92.1739 163.761 90.6016 163.713 90.1702C163.243 85.9901 163.147 82.021 164.576 78.0039C165.247 82.7592 164.231 87.4761 164.394 92.2219Z" fill="#FCFCFC"/>
        <path d="M118.106 67.0713C117.253 67.7712 116.351 69.0559 115.191 69.2572C115.786 68.1739 116.879 67.5124 117.742 66.707L118.106 67.0713Z" fill="#DDDFE0"/>
        <path d="M93.3129 29.8924C93.2074 29.9595 93.0444 30.3622 92.7185 30.5635C90.2641 32.0975 87.3208 32.8165 86.7744 36.2967C86.4484 38.4059 86.3909 49.5943 86.7648 51.5788C86.9757 52.6909 88.059 53.1224 88.9411 53.5922C90.8969 54.6372 90.9161 54.3495 92.9486 53.2278V55.4137C93.9265 55.5384 94.1086 55.8356 93.3129 56.5067C93.1307 73.946 92.498 92.9863 93.2937 110.291C93.3608 111.816 93.8785 113.273 93.6772 114.826C92.2199 116.197 91.3283 118.373 90.4463 120.166C85.9211 129.36 81.4246 139.696 77.2733 149.091L29.9697 176.338C25.4349 178.102 24.3036 175.063 24.0352 171.161L24.0831 54.5317C24.898 50.9173 27.0456 47.6384 30.1998 45.7018L88.0111 12.3764C89.6889 11.667 91.3379 11.9833 92.3925 13.5077C94.5017 16.5469 92.7185 25.9712 93.3225 29.8924H93.3129Z" fill="#FEFEFE"/>
        <path d="M99.4201 126.187C100.609 126.014 101.577 127.04 101.683 128.152C100.954 132.476 102.469 141.412 99.6789 144.691C98.5668 145.994 95.9399 147.202 95.5181 144.882C94.7894 140.913 95.4414 136.235 94.8086 132.17C95.0387 130.051 97.1671 126.523 99.4201 126.187Z" fill="#DCE8FD"/>
        <path d="M99.0475 147.681C102.834 146.905 100.035 155.006 96.852 154.134C94.4072 153.463 96.6219 148.18 99.0475 147.681Z" fill="#DCE8FD"/>
        <path d="M99.5175 41.9271C99.412 41.8217 99.5846 40.815 99.5175 40.4699C96.8235 41.0355 99.3066 44.276 96.603 44.113V42.2915C95.788 42.7516 95.0306 43.1639 94.0527 43.0201C94.0144 41.9751 93.9281 40.978 94.6184 40.1247C96.2003 38.1593 103.036 35.705 105.241 33.7971C105.903 31.3715 109.738 25.7821 112.633 28.2748C115.682 30.9018 110.313 40.0576 106.545 38.3798C106.018 38.1402 105.567 37.2485 104.973 37.3444C104.771 37.3732 101.694 39.166 101.502 39.3577C101.061 39.7988 100.668 43.0872 99.5175 41.9367V41.9271Z" fill="#5789DB"/>
        <path d="M92.9494 55.4031C92.9494 55.2689 93.4288 52.9583 93.4959 52.8433C93.6684 52.5461 94.9531 51.9133 95.1353 52.1243C95.1161 53.2747 95.1737 54.4444 95.1353 55.6044C95.1161 56.3043 95.5092 57.0713 94.4067 56.8604C94.0807 56.7741 93.726 56.4673 93.3137 56.4961C93.3137 56.3331 92.9398 55.8441 92.9494 55.4031Z" fill="#94B3F8"/>
        <path d="M137.79 26.6133C138.212 26.8626 139.871 27.0831 139.995 27.5912C140.446 29.4128 138.528 33.7175 140.532 36.0855C142.181 38.0317 143.456 35.3569 144.472 35.4336C147.109 35.6445 145.949 41.5407 146.169 43.391C143.696 44.043 137.426 45.1743 136.237 42.2022C135.355 39.9875 136.112 30.6495 136.86 28.0705C137.033 27.4857 137.109 26.8626 137.781 26.6229L137.79 26.6133Z" fill="#F4AE7C"/>
        <path d="M34.6312 107.531C34.0751 106.735 33.6533 105.843 33.5574 104.846C33.7395 90.4271 33.6437 76.2571 33.2602 62.3459C33.0493 55.9608 36.1268 51.7999 41.5052 48.4827C53.6619 41.369 65.9049 34.3031 78.167 27.3715C79.0874 26.8538 80.6118 26.8346 81.6568 26.9689C85.9807 29.0014 84.3796 32.9801 84.5617 37.0067C85.0699 48.7703 85.9615 64.436 84.9548 76.0078C84.6193 79.8523 82.1553 83.9077 78.934 86.0265C66.2692 92.0665 53.4318 102.45 40.8437 108.087C38.0922 109.324 36.9896 109.544 34.6312 107.521V107.531Z" fill="#AFC3FE"/>
        <path d="M84.2057 99.7C83.9756 100.831 82.4416 102.231 81.3966 102.73C66.7664 110.275 52.7594 120.217 38.1483 127.647C36.2597 128.606 34.8983 129.641 34.6011 126.698C34.3038 123.755 34.1792 119.728 36.8349 117.954L81.8664 91.9056C82.3553 91.3878 84.1961 91.3591 84.1961 92.0494C84.1961 94.0723 84.5412 97.9839 84.1961 99.7H84.2057Z" fill="#DCE8FD"/>
        <path d="M82.2876 107.615C82.9492 107.443 83.8887 107.347 84.1476 108.133C84.4352 108.996 84.2818 115.304 83.9271 116.186C83.649 116.886 82.6999 117.529 82.2013 118.104L35.9043 144.709C35.5304 144.709 35.1853 144.488 34.9648 144.201C34.1978 143.194 34.2362 135.505 36.1153 134.354L82.2876 107.615Z" fill="#DCE8FD"/>
        <path d="M71.7212 131.297C74.444 130.981 75.5178 133.416 75.4794 135.784C75.4315 138.411 73.3606 142.399 71.4527 144.183C69.5449 145.966 51.6071 156.387 48.9226 157.375C40.6871 160.404 43.4099 148.9 47.5516 145.065C50.6004 142.236 64.3581 134.739 68.6437 132.62C69.4873 132.199 70.8392 131.393 71.7212 131.288V131.297Z" fill="#DCE8FD"/>
        <path d="M81.6564 26.9797L78.4926 28.0056C66.5564 35.8384 52.6644 41.9263 40.8625 49.7879C32.0614 55.6553 34.1897 61.7912 34.2856 70.8799C34.4007 82.1833 34.1802 93.5059 34.2569 104.809L34.6308 107.532C33.3748 106.458 33.0201 106.267 32.8092 104.435C31.9272 96.7081 32.8955 85.932 32.8284 77.8115C32.7421 67.7928 29.3865 55.6457 39.0409 49.0593C50.7662 41.0539 65.2526 35.0139 77.16 27.0373C79.087 26.2128 79.7485 26.0785 81.6564 26.9797Z" fill="#92B1F8"/>
        <path d="M107.531 35.3569C106.629 34.4748 108.7 29.9017 110.445 30.7741C112.995 32.0492 108.863 36.6607 107.531 35.3569Z" fill="#AEC2FD"/>
        <path d="M80.4362 81.5291L39.1534 105.344C37.4468 105.584 37.2838 104.366 37.1592 102.995C35.8745 88.7388 38.1755 72.5842 37.1592 58.1266C37.2359 54.7902 40.6777 53.563 43.1321 52.0674C53.7164 45.596 66.8127 37.4564 77.7613 32.0204C78.9885 31.4164 80.417 30.218 81.4716 31.7136L81.6634 78.931L80.4362 81.5291Z" fill="#DCE8FD"/>
        <path d="M57.2372 110.446L58.6849 109.353C59.078 110.359 57.6974 110.963 57.6303 111.404C57.5344 112.037 59.5765 114.242 56.5086 112.631L55.4156 114.453L55.7704 112.267C55.617 112.104 54.7733 112.756 54.687 112.631C53.8146 111.491 55.9813 111.299 56.0963 111.126C56.4606 110.561 55.5211 109.362 57.0551 108.988L57.2372 110.446Z" fill="#6492DE"/>
        <path d="M79.4594 96.2361V97.6934C79.8621 97.703 80.7249 96.3895 80.9167 96.6005C81.722 97.4633 78.4144 98.3933 80.5524 99.6972C79.8813 100.991 78.9321 99.3616 78.7404 99.515C78.6157 99.6109 78.4815 101.432 77.82 101.691C76.6599 101.087 78.4528 99.9848 78.0022 99.515C77.8296 99.3328 76.6791 99.956 76.9092 98.9685C79.306 98.5083 77.542 96.5142 79.4594 96.2266V96.2361Z" fill="#6291DE"/>
        <path d="M62.6999 107.168C62.882 107.111 64.5886 105.385 64.5119 106.622C64.4927 106.861 63.16 107.686 63.0929 108.127C63.0162 108.606 63.8695 109.038 63.7928 109.527C63.6202 110.706 62.326 109.028 61.9712 109.354C61.8274 110.016 61.9808 111.444 60.8783 111.176L61.6069 108.99L60.1496 109.354C59.5648 107.676 61.559 108.395 61.9137 107.839C62.1726 107.437 61.6836 106.162 62.5177 105.711L62.6999 107.168Z" fill="#6190DE"/>
        <path d="M40.4579 118.833V120.291L42.2794 119.198C42.5479 120.185 40.9276 120.358 40.8222 120.856C40.7263 121.307 41.6371 121.796 41.5604 122.285C41.3878 123.397 40.3524 122.141 40.2853 122.141C39.5471 122.198 39.7868 124.279 38.6459 123.934C38.6171 123.512 39.2211 122.333 39.0102 122.112C38.828 121.93 37.6871 122.553 37.9172 121.566C38.2336 121.029 39.3074 121.048 39.5662 120.665C40.0648 119.926 39.1444 118.536 40.4579 118.824V118.833Z" fill="#5E8EDD"/>
        <path d="M73.6401 100.975L75.4616 99.8821C74.7234 101.838 73.6688 101.176 74.733 103.525L73.2853 102.797C73.1607 103.554 72.8443 104.733 71.8185 104.618L72.5471 102.806L71.0898 102.624C71.3295 101.253 72.7197 101.876 72.9114 101.713C73.0457 101.589 72.643 99.9012 73.4675 99.5273L73.6496 100.985L73.6401 100.975Z" fill="#5E8EDD"/>
        <path d="M68.1648 102.794V104.252C72.1244 101.462 68.6058 104.932 68.6154 105.162C68.625 105.392 69.3345 105.805 69.2673 106.255C69.0852 107.367 68.0689 106.111 67.9922 106.111C67.2732 106.131 67.5129 108.23 66.3528 107.904C67.5225 106.025 65.6529 105.814 65.6338 105.536C65.5858 104.951 67.3691 105.038 67.4362 104.971C67.7813 104.635 66.7651 102.411 68.184 102.794H68.1648Z" fill="#5C8CDC"/>
        <path d="M51.399 113.725L53.2206 112.632C53.4986 113.456 51.7729 114.329 51.7729 114.635C51.7729 114.818 52.8467 115.546 52.8562 115.728C52.9042 117.023 51.1305 115.489 51.0442 115.546C50.9484 115.613 50.4019 117.818 50.1334 117.732C48.9542 117.339 50.7183 115.968 50.3156 115.546L49.2227 115C51.3031 114.357 50.2197 113.715 51.2264 112.258L51.4086 113.715L51.399 113.725Z" fill="#5E8DDD"/>
        <path d="M46.6599 117.377C46.6791 117.425 46.4106 117.684 46.4681 117.914C46.5544 118.278 47.0817 118.652 47.0338 119.007C46.8516 120.157 45.8354 118.844 45.7587 118.844C45.2506 118.844 45.2506 120.953 44.1193 120.656L44.8479 118.834H43.3906C43.5057 117.252 45.0301 117.904 45.2122 117.741C45.3273 117.636 45.1259 116.006 45.2122 115.555C46.0751 115.316 46.0271 116.332 46.3052 117.013C46.8325 116.514 47.0434 116.725 46.6695 117.377H46.6599Z" fill="#5C8DDD"/>
        <path d="M46.2969 117.013C46.6324 116.438 47.0255 115.786 47.7541 115.92C47.8884 116.649 47.2364 117.042 46.6612 117.377C46.6133 117.205 46.3352 117.099 46.2969 117.013Z" fill="#6B96E0"/>
        <path d="M79.4597 112.267L79.6418 113.36C82.4413 111.394 79.8911 114.098 79.8527 114.319C79.776 114.798 80.6485 115.249 80.5526 115.718C80.3129 117.013 78.8173 115.479 78.731 115.546C78.5872 115.661 78.4434 117.703 77.2642 117.367C78.9611 114.74 77.1587 115.824 76.8999 115.546C76.8615 115.507 76.8615 114.491 76.8999 114.453C77.0341 114.328 78.2325 114.587 78.3667 114.453C78.5297 114.29 77.9257 112.008 79.4597 112.257V112.267Z" fill="#6290DE"/>
        <path d="M57.2281 125.029V126.486C57.5829 126.534 58.5224 125.173 58.6854 125.393C59.3757 126.304 57.65 126.803 57.5924 127.042C57.5445 127.244 59.6249 130.264 56.5091 128.308C56.4228 130.849 54.2848 131.127 55.7804 128.308L54.6875 127.761C57.0843 127.301 55.3203 125.307 57.2377 125.02L57.2281 125.029Z" fill="#6290DE"/>
        <path d="M45.9245 131.587V133.045L47.7461 131.587C48.1104 132.594 46.8353 133.102 46.7394 133.629C46.6723 133.984 47.3626 135.614 46.471 135.585C46.3367 135.585 45.9341 134.885 45.7423 134.895C45.0233 134.914 45.263 137.014 44.1029 136.688C44.0741 136.266 44.6781 135.087 44.4672 134.866C44.2851 134.684 43.1442 135.307 43.3743 134.32C43.6906 133.783 44.7644 133.802 45.0233 133.418C45.5218 132.68 44.6014 131.29 45.9149 131.578L45.9245 131.587Z" fill="#5E8EDD"/>
        <path d="M73.6323 115.545V117.002L75.4538 115.545C75.8181 116.552 74.543 117.06 74.4472 117.587C74.3801 117.951 75.0799 119.543 74.1787 119.543C74.0253 119.543 73.6035 118.824 73.4501 118.824C72.942 118.824 72.942 120.933 71.8107 120.636L72.175 118.814L71.082 118.632C71.3313 117.251 72.7119 117.894 72.9036 117.721C73.2104 117.443 72.2133 115.152 73.6323 115.535V115.545Z" fill="#608FDD"/>
        <path d="M40.4694 135.965C40.6515 135.908 42.3581 134.182 42.2814 135.419C42.2622 135.658 40.92 136.512 40.92 136.866C40.92 137.087 41.6966 137.557 41.5623 138.324C41.3514 139.503 40.1051 137.815 39.7408 138.151C39.5969 138.813 39.7503 140.241 38.6478 139.973L39.3764 137.787L37.9192 138.151C37.3343 136.473 39.3285 137.192 39.6832 136.636C39.9421 136.234 39.4531 134.958 40.2872 134.508L40.4694 135.965Z" fill="#608FDD"/>
        <path d="M51.3957 129.764C54.8759 127.262 52.3161 129.764 52.2011 130.349C52.1052 130.867 52.6613 131.672 52.4791 132.314L51.0314 131.586C50.9068 132.343 50.5904 133.522 49.5646 133.407L50.2932 131.595L48.8359 131.413C49.0756 130.042 50.4658 130.665 50.6575 130.502C50.7917 130.378 50.3891 128.69 51.2136 128.316L51.3957 129.774V129.764Z" fill="#6291DE"/>
        <path d="M62.7026 123.205C62.8847 123.148 64.5913 121.422 64.5146 122.659C64.4954 122.898 63.1532 123.742 63.1532 124.106C63.1532 124.212 64.1886 125.401 63.4216 126.12L61.9739 125.391L60.881 127.213L61.6096 125.027L60.1523 124.298C62.6834 124.164 61.4754 123.33 62.5204 121.738L62.7026 123.196V123.205Z" fill="#6190DE"/>
        <path d="M65.6164 121.748C65.5302 121.048 67.2367 120.818 67.3805 120.588C67.6585 120.147 67.16 118.929 67.9941 118.469L68.1762 119.926L69.9978 118.833C70.2567 119.706 68.6364 120.367 68.6269 120.827C68.6269 121.048 69.413 121.527 69.2692 122.284C69.0679 123.397 68.0708 122.141 67.9941 122.141C67.438 122.141 67.1696 123.847 67.0737 123.934C66.0862 124.873 66.5272 122.956 66.719 122.476C66.6423 122.102 66.278 121.863 65.626 121.748H65.6164Z" fill="#5F8EDD"/>
        <path d="M65.6172 121.75H67.0745C67.2758 122.421 66.7389 122.402 66.7101 122.479C66.4513 122.162 65.6651 122.153 65.6172 121.75Z" fill="#B0C9F2"/>
        <path d="M48.8471 148.727C49.1444 148.832 49.1348 148.957 48.8471 149.091C49.1156 150.443 49.2019 152.283 48.3007 153.463C48.0898 152.744 47.9459 149.043 48.176 148.765C48.3103 148.602 48.7609 148.784 48.8567 148.727H48.8471Z" fill="#DCE8FD"/>
        <path d="M52.1253 147.261C51.9431 147.846 51.4925 149.83 51.7801 150.166C51.8856 150.29 52.5663 150.137 52.8539 150.185C53.4675 149.984 53.5825 150.003 53.2182 150.549C50.4571 151.949 50.8118 148.967 51.761 147.27C51.876 147.098 51.9911 147.107 52.1253 147.27V147.261Z" fill="#DCE8FD"/>
        <path d="M60.143 143.252C60.2484 143.769 59.9608 145.15 60.1813 145.418C60.3731 145.648 61.5523 144.968 61.2359 146.166C60.6224 146.185 59.7211 146.348 59.4623 145.572C59.2897 145.025 59.3281 142.178 60.1334 143.252H60.143Z" fill="#DCE8FD"/>
        <path d="M63.0571 142.525V145.075H61.9642C61.9642 144.069 61.6094 142.467 63.0571 142.525Z" fill="#DCE8FD"/>
        <path d="M69.258 137.059C69.5744 138.305 69.5648 139.781 69.258 141.066C68.6061 141.852 68.9225 141.076 68.8937 140.529C68.8458 139.618 68.9225 138.698 68.8937 137.787L67.8008 137.969L69.258 137.059Z" fill="#DCE8FD"/>
        <path d="M56.1328 144.711C55.9698 145.698 56.0848 145.996 56.8614 146.533C56.6217 146.705 56.3341 146.686 56.2095 147.137C56.0273 147.769 56.4587 149.035 55.778 149.083C55.778 147.453 55.5863 146.245 56.1424 144.711H56.1328Z" fill="#DCE8FD"/>
        <path d="M67.0726 138.88C67.3027 139.388 67.3123 139.8 66.7083 139.609C66.4015 139.014 65.4715 139.263 64.8867 139.244C65.5195 138.727 66.0276 137.825 67.0726 138.88Z" fill="#DCE8FD"/>
        <path d="M60.8789 141.795C61.2624 140.789 62.5279 140.798 63.0552 141.613C62.5279 142.524 61.8472 141.613 60.8789 141.795Z" fill="#DCE8FD"/>
        <path d="M67.0733 141.433C66.5652 141.184 66.6323 140.12 66.709 139.611C66.7282 139.487 67.1021 139.161 67.0733 138.883C67.8307 139.64 67.4185 140.589 67.0733 141.433Z" fill="#DCE8FD"/>
        <path d="M58.3194 145.074C58.5974 145.927 59.4507 147.318 58.3194 147.624C58.5303 146.963 58.0893 146.579 57.9551 146.167C57.5524 144.921 57.9647 145.64 58.3194 145.074Z" fill="#DCE8FD"/>
        <path d="M69.2578 141.066V137.059L69.5934 137.27C69.5167 138.449 70.0248 140.098 69.2578 141.076V141.066Z" fill="#DCE8FD"/>
        <path d="M57.2266 143.619C57.7059 143.437 58.0798 143.121 58.6838 143.255C58.7989 144.118 58.7318 144.415 58.3195 145.077C58.0798 144.338 58.7318 144.089 57.2266 143.619Z" fill="#DCE8FD"/>
        <path d="M54.675 148.365C54.1765 148.164 54.2436 147.339 54.3107 146.908C53.7355 146.179 53.7642 146.064 54.675 146.179C55.5666 147.109 54.8955 147.617 54.675 148.365Z" fill="#DCE8FD"/>
        <path d="M65.6146 143.254C64.8092 143.887 64.4161 144.5 63.793 143.254C63.793 142.928 63.8217 142.774 64.1573 142.89L65.6146 143.254Z" fill="#DCE8FD"/>
        <path d="M64.1587 142.889C64.13 143.062 63.967 143.215 63.7944 143.253C63.5547 142.764 63.6506 141.211 63.7944 140.703C64.3217 141.02 64.2546 142.304 64.1587 142.889Z" fill="#DCE8FD"/>
        <path d="M53.5833 146.169L52.126 147.262H51.7617C52.0302 146.773 52.6917 145.939 53.219 145.805C53.497 145.776 53.6121 145.901 53.5833 146.169Z" fill="#DCE8FD"/>
        <path d="M54.676 146.169C54.7048 146.447 54.3309 146.782 54.3117 146.897C54.2062 146.475 53.8419 146.389 53.5831 146.169C53.4488 146.063 53.3338 145.929 53.2188 145.804C53.7556 145.67 54.2638 145.737 54.676 146.169Z" fill="#DCE8FD"/>
        <path d="M48.8477 149.09V148.726C49.2599 148.467 49.7009 147.94 50.1228 147.633L50.3049 147.815C50.3337 148.572 49.4229 148.793 48.8477 149.09Z" fill="#DCE8FD"/>
        <path d="M54.3127 149.457C53.9868 149.994 53.795 150.253 53.2198 150.55C53.076 150.483 52.9226 150.195 52.8555 150.186L54.3127 149.457Z" fill="#DCE8FD"/>
        <path d="M64.0715 49.3084C74.3011 47.8223 75.3749 58.1287 73.5245 65.693C71.3482 74.5996 61.9815 88.2711 51.5792 87.1302C45.0695 86.4112 44.36 78.6838 44.8777 73.5067C45.7502 64.8398 54.8964 50.6506 64.0619 49.318L64.0715 49.3084Z" fill="#FEFEFE"/>
        <path d="M62.2311 63.8802C66.6125 63.142 69.5558 66.325 68.4916 70.5051C66.2577 71.5884 51.5125 81.1182 50.4962 80.9264C49.6717 80.7731 50.3332 78.242 50.4771 77.6284C51.6851 72.528 56.6896 64.8102 62.2407 63.8802H62.2311Z" fill="#5789DB"/>
        <path d="M60.4171 55.4624C65.067 54.705 61.4238 64.8292 57.5793 63.6404C54.4155 62.6625 57.3588 55.9609 60.4171 55.4624Z" fill="#5889DB"/>
    </g>
    <defs>
        <clipPath id="clip0_217_14571">
            <rect width="187" height="187" fill="white"/>
        </clipPath>
    </defs>
</svg>
