<svg width="195" height="173" viewBox="0 0 195 173" fill="none" xmlns="http://www.w3.org/2000/svg">
    <path d="M108.235 0C108.016 1.25464 108.866 0.650698 109.592 0.763694C135.094 4.74581 153.33 20.8691 167.764 41.2083C166.672 41.2512 165.947 40.5264 164.859 40.4173C152.324 39.1627 137.606 41.2044 124.759 40.4446C123.897 40.3939 123.098 40.1173 122.247 40.0394C111.117 15.2583 76.2156 13.2283 62.3316 36.5404L40.1562 36.1508C56.1267 21.2003 68.1505 4.9757 91.3399 0.787072C92.0614 0.654595 92.896 1.23126 92.6736 0H108.235Z" fill="#E8EEF7"/>
    <path d="M57.6571 67.2539C57.6415 69.1943 57.6688 71.1464 57.6571 73.0868H49.6816C48.6793 73.0868 46.6981 75.0233 46.4563 76.0831C46.1521 77.4352 46.2067 84.663 46.6708 85.8163C47.5288 87.9399 50.0794 87.7061 50.251 87.8775C50.4577 88.084 50.2588 92.8415 50.2666 93.6949L48.8392 97.2094L3.36522 97.1743L0.853616 97.9731L0.0736161 95.2534C0.249116 92.4753 -0.168184 89.44 0.0736161 86.7008C0.650816 80.1237 3.42762 73.3167 6.68802 67.6513L57.6571 67.2617V67.2539Z" fill="#E8EEF7"/>
    <path d="M191.498 131.013C190.851 142.386 176.53 157.282 167.107 162.815C135.716 181.257 98.7404 170.012 67.2908 158.128C62.7356 156.405 58.0751 154.648 53.7695 152.392C80.348 153.105 107.051 151.925 133.642 152.31C134.698 152.073 136.321 150.456 136.559 149.396C136.855 148.091 136.824 143.138 136.648 141.693C136.2 137.972 133.099 138.244 132.799 137.372C132.374 136.129 132.764 130.167 132.748 128.289L191.128 128.468C191.904 128.983 191.128 129.824 191.163 130.448C191.186 130.779 191.498 130.981 191.498 131.013Z" fill="#E7EDF6"/>
    <path d="M190.722 87.0831C194.618 100.732 196.12 113.006 192.867 127.13C192.578 128.385 192.411 130.06 191.502 131.015C191.502 130.984 191.19 130.781 191.167 130.45C191.128 129.83 191.904 128.989 191.131 128.471L132.752 128.291C132.667 117.755 132.83 107.208 132.733 96.6682C137.791 94.7667 142.99 90.7028 145.591 85.9141C146.239 86.3583 146.972 86.2921 147.713 86.3194C160.649 86.7713 176.148 84.9829 188.604 86.2843C189.466 86.3739 189.938 86.9116 190.726 87.0831H190.722Z" fill="#E7EDF6"/>
    <path d="M122.243 40.0432C123.815 43.5421 125.067 47.4502 124.965 51.3194C142.73 51.1284 154.126 70.2052 145.589 85.9193C142.987 90.7041 137.792 94.7681 132.73 96.6734C132.828 107.209 132.664 117.761 132.75 128.297C132.765 130.175 132.375 136.136 132.8 137.379C133.101 138.252 136.201 137.975 136.65 141.7C136.825 143.142 136.853 148.098 136.56 149.403C136.322 150.467 134.7 152.08 133.643 152.318C107.053 151.932 80.3494 153.113 53.7709 152.4C50.7406 152.318 46.8717 153.031 46.3803 148.901C46.2009 147.385 46.1619 141.607 46.5558 140.329C47.2266 138.139 50.019 138.377 50.2764 137.048C50.2881 131.799 50.2453 126.543 50.2726 121.299C50.3155 112.107 50.3467 102.888 50.2726 93.6966C50.2648 92.8432 50.4636 88.0857 50.2569 87.8792C50.0853 87.7078 47.5348 87.9455 46.6768 85.818C46.2127 84.6647 46.158 77.4369 46.4622 76.0849C46.704 75.0211 48.6853 73.0885 49.6876 73.0885H57.6631C57.6748 71.1481 57.6475 69.196 57.6631 67.2556C57.7566 56.2522 56.4346 46.4411 62.3314 36.5442C76.2154 13.2321 111.116 15.2621 122.247 40.0432H122.243ZM79.0546 25.6577C70.6891 27.2279 60.3775 42.1044 60.3775 50.3453V73.0885H68.548V50.7349C68.548 47.8048 71.8707 41.5667 73.7973 39.26C87.5253 22.8094 114.049 32.5777 114.463 53.6494C114.736 53.9494 118.425 52.2935 119.131 52.0947C119.732 51.9272 122.208 51.7713 122.259 51.4869C121.412 30.6373 97.8721 16.4544 79.0585 25.6577H79.0546ZM102.01 73.0885C102.143 67.9803 104.592 62.4358 108.035 58.6991C109.268 57.3627 111.514 56.4353 111.756 54.643C112.205 51.2921 110.239 45.615 108.394 42.7979C100.813 31.2101 84.1791 30.7035 75.5602 41.4108C73.9573 43.4019 71.2701 48.6425 71.2701 51.1206V73.0846H102.006L102.01 73.0885ZM120.687 54.8144C115.122 55.095 109.365 60.2031 106.924 64.9723C98.9212 80.5969 112.544 98.4463 129.649 94.6785C131.978 94.1641 136.271 92.4263 137.808 90.5833C148.213 83.0399 148.322 67.2089 138.592 58.894C134.048 55.0131 126.393 52.5467 120.691 54.8183L120.687 54.8144ZM49.0986 78.1421C48.9934 79.3461 48.8607 83.5503 49.083 84.4855C49.1376 84.7193 49.9371 85.1401 50.0697 85.1401H104.346C103.445 82.8996 102.431 80.5345 102.01 78.1421C101.889 77.4486 102.1 76.5446 102.01 75.8082L51.2125 75.7887C49.2079 75.7498 49.2312 76.5563 49.0947 78.1421H49.0986ZM52.9869 91.7484C52.7295 107.007 53.1312 122.308 53.0415 137.566L55.1085 138.03C78.3876 137.808 101.69 138.267 124.961 138.01C126.642 137.991 128.339 138.022 130.02 138.01V97.1916C128.362 97.7254 126.681 97.593 124.961 97.5813C118.913 97.5423 113.913 95.8824 109.4 91.7484C108.745 91.1483 106.347 87.8598 106.093 87.8598H52.9869C52.9713 89.1495 53.0103 90.4548 52.9869 91.7484ZM49.0986 142.678C48.9934 143.89 48.8607 148.079 49.083 149.029C49.2 149.528 50.3818 149.586 50.8459 149.676C77.0968 148.328 105.157 151.476 131.194 149.676C131.81 149.633 133.916 149.664 133.916 148.706V141.318C133.916 141.252 133.315 140.633 133.132 140.547L50.8302 140.329C49.044 140.566 49.2273 141.201 49.0986 142.678Z" fill="#5789DB"/>
    <path d="M167.767 41.2069C177.646 55.1288 186.034 70.6637 190.722 87.0792C189.934 86.9078 189.463 86.3701 188.601 86.2805C176.144 84.9791 160.645 86.7675 147.709 86.3155C146.968 86.2882 146.235 86.3545 145.588 85.9103C154.125 70.1961 142.729 51.1194 124.964 51.3103C125.066 47.4412 123.814 43.5331 122.242 40.0341C123.092 40.1121 123.892 40.3887 124.754 40.4394C137.6 41.1992 152.323 39.1535 164.854 40.4121C165.946 40.5212 166.671 41.2459 167.759 41.203L167.767 41.2069Z" fill="#E7EDF6"/>
    <path d="M50.2685 93.6914C50.3426 102.883 50.3114 112.102 50.2685 121.293L48.7241 122.661C37.34 123.585 25.2266 122.077 13.8776 122.844C12.77 122.918 13.472 123.807 13.3043 124.403C7.15787 116.762 1.84607 108.03 0.855469 97.9657L3.36707 97.167L48.8411 97.2021L50.2685 93.6875V93.6914Z" fill="#E7EDF6"/>
    <path d="M50.265 121.293C50.2416 126.538 50.2806 131.794 50.2689 137.042C50.0115 138.371 47.2152 138.129 46.5483 140.323C46.1583 141.601 46.1934 147.379 46.3728 148.895C39.5712 146.382 32.7774 142.131 26.9625 137.775C21.3426 133.563 17.5635 129.701 13.3047 124.406C13.4685 123.81 12.7665 122.922 13.878 122.848C25.227 122.08 37.3404 123.584 48.7245 122.665L50.2689 121.297L50.265 121.293Z" fill="#E8EEF7"/>
    <path d="M62.3249 36.5459C56.4281 46.4466 57.7502 56.2539 57.6566 67.2573L6.6875 67.6469C14.7215 53.6822 28.6952 46.8752 40.1456 36.1562L62.321 36.5459H62.3249Z" fill="#E7EDF6"/>
    <path d="M109.406 91.75C113.918 95.8841 118.918 97.5439 124.967 97.5829V138.016C101.691 138.269 78.3928 137.809 55.1137 138.035L53.0467 137.572C53.1364 122.313 52.7386 107.008 52.9921 91.7539H109.406V91.75ZM117.833 123.498C118.454 122.906 119.035 121.608 119.144 120.724C119.514 117.677 119.51 108.98 119.144 105.933C118.945 104.296 117.939 102.73 116.433 102.033L67.578 101.849C66.096 101.904 64.6453 103.264 64.0837 104.581C63.1711 106.732 63.2256 117.205 63.5415 119.894C63.8145 122.212 64.7155 123.794 66.9892 124.612C83.2912 124.865 99.6907 125.021 115.954 124.53C116.566 124.238 117.35 123.962 117.837 123.494L117.833 123.498Z" fill="#FCFCFD"/>
    <path d="M102.013 73.0904H71.2773V51.1264C71.2773 48.6483 73.9605 43.4076 75.5673 41.4166C84.1863 30.7093 100.82 31.2158 108.401 42.8037C110.246 45.6208 112.212 51.2978 111.763 54.6487C111.521 56.445 109.275 57.3684 108.043 58.7049C104.599 62.4415 102.146 67.9861 102.017 73.0943L102.013 73.0904Z" fill="#E7EFF5"/>
    <path d="M120.689 54.8134C126.777 54.5056 133.559 57.7007 137.409 62.4075C138.255 63.4439 139.405 64.6908 139.366 66.0896C138.707 66.1909 137.892 66.9156 137.818 66.8689C137.639 66.7481 136.176 64.1804 135.291 63.3582C128.15 56.746 116.243 59.0644 112.125 67.8352C111.665 68.8093 110.584 70.8705 111.314 71.755C113.424 74.3149 114.442 68.821 115.311 67.5157C119.242 61.6087 127.737 60.5061 133.146 65.1155C133.762 65.6415 135.275 67.1494 135.47 67.8469C135.728 68.7664 134.55 68.2989 133.93 68.6223C130.759 70.2665 137.467 72.6628 138.715 72.2732C139.889 71.9069 139.811 68.8171 140.923 68.0378C143.192 75.8306 143.309 83.9935 137.81 90.5862C136.274 92.4292 131.984 94.167 129.652 94.6814C112.546 98.4492 98.9234 80.5998 106.926 64.9752C109.368 60.206 115.124 55.0979 120.689 54.8173V54.8134ZM114.461 80.4751C115.697 80.4985 117.394 80.818 117.211 79.1114C117.09 77.997 112.55 76.5592 111.345 77.1632C109.746 77.9658 108.042 86.1755 112.511 82.0298C117.117 91.9149 132.093 91.8487 137.494 82.6883C138.017 81.8038 139.959 77.6619 138.926 77.0229C136.239 76.3293 136.613 78.71 135.681 80.4868C131.297 88.8562 118.65 89.0121 114.461 80.4751Z" fill="#AFC3FE"/>
    <path d="M119.132 52.0933C118.427 52.292 114.741 53.948 114.464 53.6479C114.055 32.5762 87.5268 22.808 73.7988 39.2585C71.8761 41.5652 68.5494 47.8033 68.5494 50.7334V73.0871H60.3789V50.3438C60.3789 42.1029 70.6866 27.2265 79.056 25.6562C82.1643 25.0718 88.3068 24.873 91.6569 25.3133C105.377 27.1096 116.976 38.4481 119.132 52.0933Z" fill="#FCFCFD"/>
    <path d="M131.192 149.674C105.156 151.474 77.0955 148.326 50.8446 149.674C50.3805 149.584 49.1988 149.526 49.0818 149.027C48.8595 148.076 48.9921 143.888 49.0974 142.676H127.487C132.429 143.178 131.048 145.695 131.189 149.674H131.192Z" fill="#AFC3FE"/>
    <path d="M102.013 78.1406C102.43 80.533 103.448 82.8981 104.349 85.1386H50.0724C49.9398 85.1386 49.1403 84.7177 49.0857 84.484C48.8634 83.5488 48.996 79.3485 49.1013 78.1406H102.017H102.013Z" fill="#AFC3FE"/>
    <path d="M131.193 149.672C131.052 145.693 132.433 143.176 127.492 142.678H49.1016C49.2303 141.193 49.047 140.558 50.8332 140.32L133.135 140.539C133.318 140.624 133.919 141.244 133.919 141.31V148.698C133.919 149.656 131.813 149.625 131.197 149.668L131.193 149.672Z" fill="#92B1F8"/>
    <path d="M109.406 91.748H52.9921C53.0155 90.4583 52.9765 89.153 52.9921 87.8594H106.098C106.352 87.8594 108.75 91.1479 109.406 91.748Z" fill="#CFD9F0"/>
    <path d="M124.969 97.581C126.689 97.5927 128.37 97.7252 130.027 97.1914V138.01C128.346 138.022 126.65 137.991 124.969 138.01V97.5771V97.581Z" fill="#CFD9F0"/>
    <path d="M79.0547 25.6563C97.8722 16.453 121.413 30.6359 122.255 51.4855C122.204 51.77 119.728 51.9258 119.127 52.0934C116.97 38.4482 105.376 27.1097 91.6517 25.3134C88.3055 24.8731 82.1591 25.0719 79.0508 25.6563H79.0547Z" fill="#CFD9F0"/>
    <path d="M137.805 90.5832C143.304 83.9905 143.187 75.8276 140.917 68.0348C140.753 67.4698 140.866 66.6983 140.46 66.145C140.265 66.0048 139.645 66.0476 139.361 66.0905C139.4 64.6956 138.253 63.4448 137.403 62.4084C133.554 57.7015 126.771 54.5104 120.684 54.8143C126.389 52.5427 134.045 55.013 138.585 58.8899C148.315 67.201 148.206 83.0359 137.801 90.5793L137.805 90.5832Z" fill="#93B1E6"/>
    <path d="M49.1016 78.1441C49.2381 76.5544 49.2147 75.7478 51.2193 75.7907L102.017 75.8102C102.103 76.5466 101.892 77.4506 102.017 78.1441H49.1016Z" fill="#92B1F8"/>
    <path d="M117.834 123.496C117.347 123.964 116.567 124.24 115.95 124.532C99.6874 125.023 83.2879 124.868 66.9859 124.614C64.7122 123.796 63.8152 122.214 63.5383 119.896C63.2185 117.207 63.1678 106.734 64.0804 104.583C64.6381 103.27 66.0889 101.906 67.5749 101.852L116.43 102.035C117.936 102.732 118.946 104.299 119.141 105.935C119.507 108.986 119.511 117.679 119.141 120.726C119.035 121.61 118.45 122.908 117.83 123.5L117.834 123.496ZM66.2176 106.519C65.9251 108.674 65.855 118.326 66.2294 120.309C66.3737 121.076 66.9703 121.661 67.6645 121.984L114.855 122.066C116.43 121.871 116.699 120.508 116.82 119.167C117.07 116.409 117.187 108.924 116.777 106.344C116.625 105.389 116.196 104.684 115.268 104.353L68.7449 104.174C67.2239 104.236 66.4243 105.031 66.2215 106.512L66.2176 106.519Z" fill="#5789DB"/>
    <path d="M140.917 68.0359C139.805 68.8151 139.883 71.905 138.709 72.2712C137.461 72.6609 130.753 70.2646 133.924 68.6203C134.54 68.3008 135.722 68.7645 135.465 67.8449C135.266 67.1436 133.756 65.6357 133.14 65.1136C127.727 60.5041 119.233 61.6068 115.305 67.5138C114.44 68.819 113.422 74.313 111.308 71.753C110.579 70.8685 111.663 68.8074 112.119 67.8333C116.238 59.0664 128.144 56.748 135.285 63.3563C136.17 64.1784 137.633 66.7462 137.812 66.8669C137.886 66.9176 138.702 66.1929 139.361 66.0877C139.645 66.0448 140.265 66.0019 140.46 66.1422C140.866 66.6955 140.753 67.467 140.917 68.032V68.0359Z" fill="#5789DB"/>
    <path d="M114.461 80.4778C118.649 89.0148 131.297 88.859 135.68 80.4895C136.613 78.7127 136.238 76.332 138.925 77.0256C139.959 77.6646 138.017 81.8065 137.494 82.691C132.096 91.8514 117.116 91.9176 112.511 82.0325C108.037 86.1821 109.742 77.9685 111.344 77.1659C112.55 76.5619 117.089 77.9997 117.21 79.1141C117.393 80.8207 115.701 80.5012 114.461 80.4778Z" fill="#5789DB"/>
    <path d="M114.851 122.07L67.6614 121.988C66.9672 121.661 66.3705 121.08 66.2262 120.313C65.8557 118.33 65.9259 108.678 66.2145 106.523L113.018 106.605C113.475 106.738 113.989 107.311 114.247 107.708C115.826 110.155 114.313 118.789 114.847 122.074L114.851 122.07ZM77.1267 110.798C77.0058 110.708 76.569 108.289 75.4029 108.483C74.2368 108.678 74.4786 110.704 74.385 110.802C74.1315 111.074 72.7626 110.022 71.8344 110.763C70.2627 112.013 72.435 113.081 72.435 113.327C72.435 113.607 68.652 116.841 74.3811 115.466C74.3694 116.412 74.1198 117.714 75.3639 117.827C77.037 117.975 76.8186 116.124 77.1657 115.914C77.9145 115.458 80.3325 116.674 79.6734 114.269C79.455 113.475 78.5814 113.51 78.6672 113.33C78.9324 112.789 80.0673 112.524 79.7943 111.46C79.3497 109.742 77.2554 110.895 77.1267 110.798ZM92.676 110.802C92.4576 110.552 93.222 108.203 90.5895 108.834C89.9967 108.974 90.0513 110.708 89.946 110.802C89.829 110.907 87.7113 109.73 87.2667 111.46C87.0405 112.337 87.879 112.801 88.3938 113.33C88.4835 113.549 86.5374 113.619 87.4188 115.47C88.0662 116.826 89.5404 115.602 89.9265 115.871C90.0786 115.976 90.1137 117.472 90.9834 117.753C92.6643 118.298 92.8515 116.771 92.6799 115.466C98.4129 116.837 94.626 113.607 94.626 113.327C94.626 113.046 96.2718 112.45 95.6127 111.187C94.8249 109.68 92.8203 110.961 92.6799 110.802H92.676ZM108.631 110.802C108.409 110.548 109.177 108.203 106.544 108.834C105.952 108.978 106.014 110.696 105.901 110.802C105.694 110.993 100.846 109.208 104.345 113.327C101.821 114.456 103.717 117.352 105.897 115.462C105.655 118.493 109.2 118.848 108.627 115.462C109.161 116.019 111.15 116.494 111.373 115.598C111.653 114.453 110.71 113.65 110.713 113.323C110.713 113.069 111.263 112.625 111.345 112.134C111.825 109.266 108.76 110.95 108.627 110.798L108.631 110.802Z" fill="#F9D8CC"/>
    <path d="M114.852 122.072C114.314 118.787 115.827 110.153 114.251 107.706C113.994 107.309 113.475 106.736 113.023 106.603L66.2188 106.521C66.4176 105.037 67.2172 104.246 68.7421 104.184L115.265 104.363C116.193 104.694 116.622 105.399 116.774 106.354C117.184 108.933 117.067 116.418 116.817 119.177C116.696 120.517 116.431 121.881 114.852 122.076V122.072Z" fill="#E7B8B6"/>
    <path d="M92.6747 110.802C92.8151 110.961 94.8197 109.679 95.6075 111.187C96.2666 112.45 94.6208 113.05 94.6208 113.326C94.6208 113.603 98.4077 116.837 92.6747 115.466C92.8463 116.771 92.6591 118.298 90.9782 117.753C90.1124 117.472 90.0734 115.976 89.9213 115.871C89.5352 115.602 88.061 116.825 87.4136 115.469C86.5322 113.623 88.4744 113.548 88.3886 113.33C87.8738 112.8 87.0353 112.337 87.2615 111.46C87.71 109.734 89.8277 110.907 89.9408 110.802C90.0422 110.708 89.9915 108.978 90.5843 108.834C93.2168 108.203 92.4524 110.552 92.6708 110.802H92.6747Z" fill="#5789DB"/>
    <path d="M108.63 110.802C108.763 110.954 111.828 109.267 111.349 112.138C111.267 112.629 110.721 113.073 110.717 113.327C110.717 113.658 111.657 114.457 111.376 115.602C111.154 116.498 109.165 116.023 108.63 115.466C109.2 118.852 105.659 118.497 105.9 115.466C103.716 117.356 101.825 114.461 104.348 113.331C100.846 109.208 105.698 110.997 105.904 110.806C106.014 110.701 105.951 108.982 106.548 108.838C109.18 108.207 108.412 110.549 108.634 110.806L108.63 110.802Z" fill="#5789DB"/>
    <path d="M77.1255 110.798C77.2542 110.891 79.3485 109.742 79.7931 111.46C80.0661 112.52 78.9351 112.789 78.666 113.331C78.5802 113.51 79.4538 113.475 79.6722 114.27C80.3313 116.674 77.9133 115.458 77.1645 115.914C76.8174 116.124 77.0358 117.975 75.3627 117.827C74.1186 117.718 74.3682 116.413 74.3799 115.466C68.6469 116.841 72.4338 113.607 72.4338 113.327C72.4338 113.077 70.2615 112.014 71.8332 110.763C72.7575 110.026 74.1303 111.074 74.3838 110.802C74.4735 110.704 74.2551 108.674 75.4017 108.483C76.5483 108.292 77.0046 110.708 77.1255 110.798Z" fill="#5789DB"/>
</svg>
