<svg width="40" height="41" viewBox="0 0 40 41" fill="none" xmlns="http://www.w3.org/2000/svg">
    <rect y="0.5" width="40" height="40" rx="14" fill="#F5F7FA"/>
    <path d="M27.7906 23.4303C25.7306 25.4803 22.7806 26.1103 20.1906 25.3003L15.4806 30.0003C15.1406 30.3503 14.4706 30.5603 13.9906 30.4903L11.8106 30.1903C11.0906 30.0903 10.4206 29.4103 10.3106 28.6903L10.0106 26.5103C9.94063 26.0303 10.1706 25.3603 10.5006 25.0203L15.2006 20.3203C14.4006 17.7203 15.0206 14.7703 17.0806 12.7203C20.0306 9.77031 24.8206 9.77031 27.7806 12.7203C30.7406 15.6703 30.7406 20.4803 27.7906 23.4303Z" stroke="#36A4F8" stroke-width="1.5" stroke-miterlimit="10" stroke-linecap="round" stroke-linejoin="round"/>
    <path d="M14.8906 25.9883L17.1906 28.2883" stroke="#36A4F8" stroke-width="1.5" stroke-miterlimit="10" stroke-linecap="round" stroke-linejoin="round"/>
    <path d="M22.5 19.5C23.3284 19.5 24 18.8284 24 18C24 17.1716 23.3284 16.5 22.5 16.5C21.6716 16.5 21 17.1716 21 18C21 18.8284 21.6716 19.5 22.5 19.5Z" stroke="#36A4F8" stroke-width="1.5" stroke-linecap="round" stroke-linejoin="round"/>
</svg>
