<svg width="60" height="60" viewBox="0 0 60 60" fill="none" xmlns="http://www.w3.org/2000/svg">
    <g clip-path="url(#clip0_1910_1429)">
        <path d="M59.77 30.8275L49.8625 9.36C48.64 6.7125 45.9675 5 43.05 5H16.95C14.0325 5 11.36 6.7125 10.14 9.3575L0.23 30.8275C0.0775 31.155 0 31.5125 0 31.875V47.5C0 51.635 3.365 55 7.5 55H52.5C56.635 55 60 51.635 60 47.5V31.875C60 31.5125 59.9225 31.155 59.77 30.8275ZM14.68 11.4525C15.0875 10.57 15.9775 10 16.95 10H43.05C44.0225 10 44.9125 10.57 45.32 11.4525L53.88 30H48.7325C46.7875 30 45.1025 31.2525 44.5425 33.1175L41.86 42.055C41.7825 42.32 41.5425 42.5 41.265 42.5H18.735C18.4575 42.5 18.2175 42.32 18.1375 42.0525L15.455 33.1175C14.895 31.2525 13.2125 30 11.265 30H6.12L14.68 11.4525Z" fill="#DBDBDB"/>
    </g>
    <defs>
        <clipPath id="clip0_1910_1429">
            <rect width="60" height="60" fill="white"/>
        </clipPath>
    </defs>
</svg>
