<svg width="107" height="75" viewBox="0 0 107 75" fill="none" xmlns="http://www.w3.org/2000/svg">
    <ellipse cx="53.5" cy="53" rx="53.5" ry="22" fill="#F5F7FA"/>
    <path d="M33.875 28.418V41.8083C33.875 48.5288 36.5576 50.1205 39.8097 45.3202L39.828 45.2949C41.3347 43.0969 43.6314 43.2737 44.9359 45.6739L46.7917 49.0846" stroke="#97CEF8" stroke-width="3" stroke-linecap="round" stroke-linejoin="round"/>
    <path d="M73.375 15.9518L54.6038 34.7186C53.8615 35.4608 53.172 36.8391 53.013 37.8464L52.0055 45.0032C51.6343 47.6009 53.4372 49.4034 56.0355 49.0323L63.1941 48.0251C64.2016 47.866 65.6332 47.1767 66.3226 46.4345L85.0939 27.6679C88.3285 24.4341 89.8663 20.6701 85.0939 15.8989C80.3746 11.1807 76.6096 12.718 73.375 15.9518Z" stroke="#97CEF8" stroke-width="3" stroke-miterlimit="10" stroke-linecap="round" stroke-linejoin="round"/>
    <path d="M71.2461 17.7383C72.8752 23.6031 77.4368 28.1647 83.3016 29.7938" stroke="#97CEF8" stroke-width="3" stroke-miterlimit="10" stroke-linecap="round" stroke-linejoin="round"/>
</svg>
