<svg width="38" height="38" viewBox="0 0 38 38" fill="none" xmlns="http://www.w3.org/2000/svg">
    <g clip-path="url(#clip0_1_130)">
        <path d="M10.6096 0C10.9497 0.119718 11.2252 0.311647 11.3468 0.6689C11.5615 1.3036 11.0903 1.94209 10.393 1.95349C9.8553 1.96299 9.3176 1.95349 8.7799 1.95539C7.8717 1.95539 6.9635 1.94209 6.0553 1.96109C3.7829 2.0067 2.0026 3.78347 1.9646 6.05431C1.9418 7.48142 1.957 8.90854 1.9589 10.3376C1.9589 10.7157 1.8278 11.0274 1.5048 11.2383C0.9804 11.5803 0.2983 11.3504 0.0646 10.7613C0.0437 10.71 0.0209 10.6606 0 10.6112C0 8.97885 0 7.3465 0 5.71416C0.0114 5.66665 0.0266 5.61914 0.0323 5.57164C0.2831 2.87703 2.1945 0.718308 4.8412 0.146322C5.1281 0.0836125 5.4226 0.0475071 5.7133 0H10.6096Z" fill="#0E7FE1"/>
        <path d="M32.2734 0C32.5774 0.0494074 32.8833 0.0874131 33.1835 0.152023C35.796 0.712607 37.7435 2.93974 37.9544 5.60394C37.9734 5.85098 37.9829 6.09801 37.9848 6.34505C37.9867 7.69995 37.9886 9.05296 37.9848 10.4079C37.9848 10.8886 37.6561 11.2858 37.2001 11.3808C36.7612 11.472 36.3052 11.244 36.1247 10.8145C36.0601 10.6606 36.0335 10.4801 36.0335 10.3109C36.0259 8.95034 36.0297 7.58974 36.0297 6.23103C36.0297 4.94454 35.5756 3.85188 34.6085 2.99485C33.896 2.36205 33.0524 1.9972 32.1005 1.9763C30.6185 1.94209 29.1327 1.96109 27.6507 1.96109C27.2707 1.96109 26.9591 1.82997 26.7501 1.50693C26.4081 0.982447 26.638 0.300245 27.227 0.06651C27.2783 0.0456068 27.3277 0.0247037 27.3771 0.00190028C29.0092 0.00190028 30.6413 0.00190028 32.2734 0.00190028V0Z" fill="#0E7FE1"/>
        <path d="M0 27.3812C0.1197 27.0411 0.3116 26.7655 0.6707 26.6439C1.3053 26.4292 1.9456 26.9004 1.9551 27.5997C1.9646 28.2667 1.9551 28.9356 1.957 29.6026C1.957 30.3818 1.9456 31.1609 1.9627 31.94C2.0102 34.2127 3.7867 35.9914 6.061 36.0294C7.4879 36.0522 8.9167 36.0351 10.3455 36.037C10.8338 36.037 11.21 36.2955 11.3487 36.7116C11.5539 37.3349 11.0922 37.9848 10.4272 37.9905C9.4506 37.9981 8.474 37.9962 7.4974 37.9905C6.8666 37.9867 6.2339 38.0038 5.6069 37.9563C2.9412 37.7549 0.7163 35.8014 0.1539 33.1885C0.0893 32.8882 0.0513 32.5804 0.0019 32.2782V27.3812H0Z" fill="#0E7FE1"/>
        <path d="M29.8832 36.0332C30.5691 36.0332 31.2569 36.0465 31.9428 36.0313C34.2038 35.9819 35.9841 34.207 36.024 31.9438C36.0487 30.5167 36.0297 29.0877 36.0316 27.6586C36.0316 27.1722 36.271 26.8073 36.6795 26.6553C37.2761 26.4349 37.9734 26.8662 37.9791 27.5028C37.9905 29.1295 38.038 30.758 37.943 32.379C37.791 34.9557 35.9727 37.105 33.4799 37.7606C32.9536 37.8993 32.3969 37.9715 31.8535 37.9829C30.4266 38.0133 28.9978 37.9962 27.569 37.9924C27.1016 37.9924 26.7083 37.6618 26.6133 37.2114C26.5202 36.7686 26.7558 36.3011 27.1909 36.1244C27.3353 36.0655 27.5025 36.0427 27.6602 36.0408C28.4012 36.0332 29.1441 36.037 29.8851 36.037V36.0332H29.8832Z" fill="#0E7FE1"/>
        <path d="M19.3116 30.6573C16.4692 30.6592 14.2576 29.8326 12.3804 28.1223C11.9263 27.7081 11.8655 27.1038 12.2436 26.6705C12.616 26.241 13.2468 26.2106 13.699 26.6211C14.5901 27.4325 15.5895 28.0672 16.7637 28.3579C19.5149 29.0439 22.0343 28.6164 24.2041 26.6876C24.5119 26.414 24.8387 26.2562 25.2491 26.3664C26.0034 26.5679 26.2523 27.5085 25.6823 28.0463C24.6392 29.0325 23.4384 29.7604 22.0666 30.1974C21.0691 30.5148 20.0469 30.6611 19.3116 30.6573V30.6573Z" fill="#0E7FE1"/>
        <path d="M20.995 17.9026C20.995 19.0276 20.9988 20.1525 20.995 21.2775C20.9912 22.1953 20.6777 22.9687 19.9101 23.5179C19.4636 23.8372 18.9563 23.9778 18.4129 23.9911C18.1051 23.9987 17.7916 24.0101 17.4876 23.9702C16.9822 23.9018 16.6212 23.421 16.663 22.9231C16.7048 22.4158 17.1228 22.0129 17.6301 21.9996C17.8467 21.9939 18.0633 21.9996 18.2799 21.9977C18.7948 21.992 18.9943 21.7925 18.9943 21.2718C18.9943 18.9781 18.9943 16.6845 18.9943 14.3909C18.9943 14.0013 19.1425 13.6916 19.4712 13.4844C19.7942 13.2811 20.1362 13.2697 20.4744 13.4597C20.8221 13.6554 20.995 13.9614 20.995 14.3586C20.9988 15.5386 20.995 16.7206 20.995 17.9007V17.9026Z" fill="#0E7FE1"/>
        <path d="M10.3284 15.7002C10.3284 15.2669 10.3284 14.8355 10.3284 14.4023C10.3284 14.0336 10.4538 13.722 10.7578 13.5034C11.3088 13.1101 12.0688 13.4369 12.2037 14.121C12.2094 14.1514 12.217 14.1818 12.217 14.2122C12.217 15.2118 12.2398 16.2132 12.2056 17.2128C12.1885 17.7259 11.7439 18.0831 11.2651 18.0774C10.7901 18.0717 10.3759 17.6936 10.3474 17.1824C10.3189 16.6902 10.3417 16.1942 10.3417 15.7002H10.3303H10.3284Z" fill="#0E7FE1"/>
        <path d="M25.9977 15.6944C25.9977 15.2194 25.9863 14.7424 26.0015 14.2673C26.0148 13.8284 26.3416 13.4426 26.7425 13.3552C27.3163 13.2317 27.8711 13.663 27.8863 14.2901C27.9072 15.2346 27.9053 16.1809 27.8863 17.1273C27.8749 17.6783 27.4322 18.085 26.9211 18.0774C26.4138 18.0679 26.011 17.6422 25.9977 17.0855C25.9882 16.6218 25.9958 16.1581 25.9958 15.6944H25.9996H25.9977Z" fill="#0E7FE1"/>
    </g>
    <defs>
        <clipPath id="clip0_1_130">
            <rect width="38" height="38" fill="white"/>
        </clipPath>
    </defs>
</svg>
