<svg width="38" height="38" viewBox="0 0 38 38" fill="none" xmlns="http://www.w3.org/2000/svg">
    <path d="M4.69657 14.9922C4.49631 14.994 4.29916 14.9428 4.12508 14.8438C3.99741 14.772 3.88534 14.6755 3.79541 14.5599C3.70549 14.4443 3.63953 14.3119 3.60138 14.1705C3.56323 14.0291 3.55366 13.8815 3.57324 13.7364C3.59282 13.5913 3.64114 13.4515 3.71539 13.3252C5.14633 10.9369 9.5 5.3623 19 5.3623C23.1169 5.3623 26.7277 6.44367 29.7268 8.57523C32.1954 10.3246 33.5788 12.3047 34.2379 13.2584C34.3214 13.3787 34.3801 13.5144 34.4105 13.6576C34.4408 13.8009 34.4422 13.9487 34.4145 14.0925C34.3869 14.2363 34.3307 14.3731 34.2494 14.4948C34.1681 14.6166 34.0632 14.7208 33.941 14.8014C33.6912 14.9666 33.3869 15.0279 33.0926 14.9725C32.7983 14.9171 32.5372 14.7493 32.3646 14.5046C31.1719 12.7894 27.5352 7.57031 19 7.57031C10.6689 7.57031 6.90235 12.373 5.67551 14.4326C5.57694 14.6046 5.43423 14.7471 5.26213 14.8455C5.09003 14.9439 4.89479 14.9945 4.69657 14.9922Z" fill="#0E7FE1"/>
    <path d="M23.7864 36.8125C23.6917 36.8137 23.5972 36.8029 23.5051 36.7806C16.6139 35.0736 14.0407 28.1846 13.9361 27.8981L13.9198 27.835C13.8633 27.6361 12.4807 22.9121 14.6033 20.1452C15.5763 18.8835 17.0562 18.2363 19.0104 18.2363C20.8273 18.2363 22.138 18.8011 23.039 19.9701C23.7812 20.9245 24.0781 22.1016 24.3653 23.2357C24.9687 25.5973 25.4044 26.8375 27.9122 26.9652C29.0136 27.0208 29.7373 26.3766 30.1477 25.8281C31.2573 24.3326 31.4502 21.8945 30.6138 19.7422C29.5391 16.9642 25.725 11.7266 19 11.7266C16.1292 11.7266 13.4915 12.6491 11.3763 14.3829C9.62546 15.819 8.23831 17.8467 7.57034 19.9307C6.33163 23.8109 7.95628 29.9102 7.97186 29.9658C8.0098 30.1078 8.01892 30.2559 7.99871 30.4014C7.97849 30.547 7.92934 30.687 7.85415 30.8132C7.77896 30.9395 7.67925 31.0494 7.56091 31.1365C7.44257 31.2236 7.30799 31.2861 7.16511 31.3203C6.87644 31.3971 6.56919 31.3577 6.30921 31.2107C6.04922 31.0636 5.85718 30.8206 5.77425 30.5336C5.70003 30.2553 3.96479 23.75 5.39573 19.2657C6.95432 14.4066 11.7644 9.50818 19.0023 9.50818C22.3473 9.50818 25.5075 10.6452 28.1453 12.7924C30.1878 14.4623 31.8562 16.7052 32.729 18.9473C33.8386 21.8099 33.541 25.0229 31.9727 27.1218C30.9277 28.5215 29.4396 29.2533 27.7912 29.1739C23.4969 28.9587 22.7251 25.961 22.1625 23.7745C21.5836 21.5316 21.2132 20.4502 19.0023 20.4502C17.788 20.4502 16.9353 20.7842 16.4046 21.476C15.681 22.4222 15.6246 23.9014 15.7047 24.9746C15.7573 25.7223 15.8841 26.463 16.0832 27.1856C16.2599 27.6309 18.5599 33.2715 24.0684 34.6364C24.2108 34.6702 24.3451 34.7318 24.4634 34.8179C24.5817 34.904 24.6818 35.0127 24.7577 35.1377C24.8337 35.2628 24.884 35.4017 24.9059 35.5464C24.9277 35.6911 24.9205 35.8386 24.8848 35.9805C24.8176 36.2201 24.6739 36.431 24.4755 36.5813C24.2772 36.7315 24.0352 36.8127 23.7864 36.8125Z" fill="#0E7FE1"/>
    <path d="M14.941 36.3034C14.7865 36.3037 14.6336 36.2729 14.4913 36.2128C14.349 36.1528 14.2202 36.0647 14.1127 35.9538C11.3547 33.0593 9.79467 29.8226 9.2076 25.7754V25.7539C8.87807 23.0746 9.36049 19.2813 11.7244 16.6732C13.4692 14.7487 15.9222 13.7705 19.0022 13.7705C22.6449 13.7705 25.5075 15.4642 27.2925 18.6608C28.5876 20.9831 28.8444 23.2973 28.8511 23.3923C28.8647 23.5387 28.8492 23.6864 28.8056 23.8269C28.762 23.9674 28.6911 24.098 28.597 24.211C28.5029 24.3241 28.3875 24.4175 28.2572 24.4858C28.127 24.5542 27.9845 24.5962 27.838 24.6094C27.5424 24.6415 27.246 24.5561 27.0129 24.3715C26.7797 24.187 26.6285 23.9182 26.5919 23.6231C26.3964 22.2346 25.947 20.8939 25.2663 19.668C23.8829 17.2269 21.778 15.986 18.9941 15.986C16.5894 15.986 14.708 16.7096 13.4136 18.1383C11.5477 20.1979 11.187 23.3707 11.4431 25.4696C11.9574 29.0485 13.3327 31.8955 15.7611 34.4397C15.8625 34.5452 15.9416 34.6699 15.9938 34.8065C16.046 34.9432 16.0701 35.0889 16.0649 35.2351C16.0596 35.3812 16.025 35.5248 15.9631 35.6573C15.9013 35.7899 15.8134 35.9086 15.7047 36.0065C15.4954 36.1962 15.2235 36.3019 14.941 36.3034Z" fill="#0E7FE1"/>
    <path d="M27.6465 33.1149C25.2344 33.1149 23.1837 32.447 21.5427 31.1192C18.2459 28.4629 17.8763 24.1367 17.86 23.9541C17.8368 23.6544 17.9335 23.3578 18.129 23.1294C18.3245 22.9011 18.6027 22.7598 18.9024 22.7365C19.2021 22.7133 19.4987 22.8101 19.7271 23.0056C19.9554 23.2011 20.0967 23.4793 20.12 23.7789C20.1281 23.8428 20.4576 27.3815 22.9989 29.4196C24.5026 30.6204 26.5124 31.0969 28.9891 30.8186C29.2851 30.7827 29.5833 30.8654 29.8185 31.0487C30.0536 31.232 30.2067 31.501 30.2441 31.7968C30.2603 31.9429 30.2473 32.0908 30.2057 32.2318C30.1642 32.3729 30.095 32.5042 30.0021 32.6182C29.9093 32.7322 29.7946 32.8266 29.6649 32.8958C29.5352 32.965 29.393 33.0077 29.2466 33.0214C28.7155 33.0834 28.1812 33.1146 27.6465 33.1149ZM29.5524 3.62113C28.6113 3.00883 25.2744 1.1875 19 1.1875C12.4138 1.1875 9.06878 3.19957 8.32882 3.71094C8.27995 3.74094 8.23421 3.77575 8.19226 3.81484C8.18783 3.81913 8.18207 3.82175 8.17593 3.82227C8.05777 3.92543 7.96296 4.0526 7.89781 4.1953C7.83267 4.338 7.7987 4.49294 7.79816 4.6498C7.80019 4.79685 7.83121 4.94204 7.88946 5.07707C7.9477 5.2121 8.03201 5.33431 8.13757 5.43669C8.24313 5.53908 8.36785 5.61963 8.50459 5.67373C8.64134 5.72782 8.78741 5.75441 8.93445 5.75195C9.17012 5.75179 9.4001 5.67954 9.59351 5.54488C9.62542 5.52113 12.5044 3.4059 19.0022 3.4059C25.5001 3.4059 28.3946 5.51371 28.4258 5.5293C28.6234 5.67583 28.8633 5.75399 29.1093 5.75195C29.2565 5.75421 29.4026 5.72738 29.5394 5.67301C29.6762 5.61864 29.8008 5.53779 29.9063 5.43511C30.0117 5.33243 30.0958 5.20994 30.1538 5.07467C30.2118 4.93939 30.2425 4.794 30.2441 4.64684C30.2442 4.4264 30.1784 4.21097 30.0551 4.02821C29.9319 3.84544 29.7568 3.70369 29.5524 3.62113Z" fill="#0E7FE1"/>
</svg>
