<svg width="20" height="20" viewBox="0 0 20 20" fill="none" xmlns="http://www.w3.org/2000/svg">
    <path d="M4.4987 1.75781H15.4987C16.4154 1.75781 17.1654 2.50781 17.1654 3.42448V5.25781C17.1654 5.92448 16.7487 6.75781 16.332 7.17448L12.7487 10.3411C12.2487 10.7578 11.9154 11.5911 11.9154 12.2578V15.8411C11.9154 16.3411 11.582 17.0078 11.1654 17.2578L9.9987 18.0078C8.91536 18.6745 7.41536 17.9245 7.41536 16.5911V12.1745C7.41536 11.5911 7.08203 10.8411 6.7487 10.4245L3.58203 7.09115C3.16536 6.67448 2.83203 5.92448 2.83203 5.42448V3.50781C2.83203 2.50781 3.58203 1.75781 4.4987 1.75781Z" stroke="#ACB1B6" stroke-width="1.5" stroke-miterlimit="10" stroke-linecap="round" stroke-linejoin="round"/>
    <path d="M9.10833 1.75781L5 8.34115" stroke="#ACB1B6" stroke-width="1.5" stroke-miterlimit="10" stroke-linecap="round" stroke-linejoin="round"/>
</svg>
