<svg width="111" height="115" viewBox="0 0 111 115" fill="none" xmlns="http://www.w3.org/2000/svg">
    <path d="M55.2387 26.0389C44.1948 25.2357 36.6535 32.1822 34.2634 35.7559C34.2416 36.3107 32.3497 40.5668 24.9559 53.153C15.7137 68.8857 12.2681 75.8311 21.5194 87.0165C30.7708 98.2018 50.2676 97.4819 52.4266 97.5868C54.5857 97.6917 83.8179 100.245 96.1482 85.1962C108.479 70.147 100.117 53.9369 91.3672 44.6653C82.6175 35.3937 69.0435 27.043 55.2387 26.0389Z" fill="#E4EBFF"/>
    <g clip-path="url(#clip0_408_3843)">
        <path d="M87.5657 18.3347C88.9697 19.3827 89.6883 21.0955 89.0363 22.8196C88.7905 23.469 87.3043 25.3242 87.2834 25.6313C87.274 25.7724 87.906 26.7977 87.9552 27.357C88.0137 28.0265 87.8278 28.5528 87.6505 29.1921L81.7493 38.3438C83.4304 40.0721 84.0335 42.6128 83.5747 44.9618L73.1487 83.8385C72.0707 86.8341 69.1762 88.8356 66.0029 88.8008C45.8 83.7525 25.5417 78.3243 5.52263 72.5952C2.89418 71.1412 1.66647 68.4077 1.60684 65.4919L9.70854 35.2559C10.5996 34.3261 12.1996 34.855 11.9881 36.2363L4.19032 65.4719C3.9598 67.9628 5.28582 70 7.64166 70.8407L65.186 86.2597C67.81 86.647 70.0152 85.2912 70.8987 82.7927L81.1967 44.3321C81.4081 43.0181 81.1601 41.7546 80.4716 40.6275C80.212 40.4906 80.2467 40.6794 80.1267 40.8313C79.7073 41.3579 79.154 42.2555 78.7569 42.8554C78.1104 43.8328 77.5344 44.877 76.9038 45.8677L67.2405 81.9651C66.8202 83.1708 65.5899 83.7583 64.3615 83.507L9.45995 68.7902C8.38303 68.3475 7.71702 67.382 7.83799 66.1934L18.2155 27.4473C18.485 26.5589 19.4084 26.0387 20.273 25.9113L67.0467 38.3829C67.8658 38.5036 68.3306 36.9254 68.8426 36.3937L21.2694 23.5777C20.9461 23.3879 20.6437 23.3831 20.3711 23.3281C18.3717 22.933 16.4693 23.4601 15.2714 25.2056C14.8146 25.8717 14.7173 26.5309 14.3883 27.1445C13.8435 28.1612 12.2318 27.6874 12.0233 26.6171L12.4715 24.9446C13.0268 24.2345 13.402 23.5435 14.046 22.8767C15.5945 21.2746 17.88 20.4849 20.1023 20.7183L70.1059 34.0913C70.3618 34.0746 70.4414 33.8445 70.5783 33.6852C73.1406 30.6729 75.096 25.7877 77.6587 22.8968C78.4228 22.0331 79.4344 21.6473 80.5665 21.605C80.7931 21.5969 81.1469 21.7396 81.2664 21.7013C81.3859 21.663 82.4005 19.8535 82.6588 19.5202C83.4684 18.4758 84.3149 18.0248 85.6192 17.8146L87.5695 18.3372L87.5657 18.3347ZM86.6616 20.9773C85.675 19.0805 83.7756 21.8694 83.5175 22.9105C83.8885 23.0727 85.1371 24.1315 85.4337 24.0239C85.7867 23.092 87.2012 22.0122 86.6629 20.9777L86.6616 20.9773ZM59.1548 61.9448C59.6855 62.2815 60.1164 62.7396 60.8484 62.5317C61.8669 61.5897 63.8007 60.7836 64.7109 59.8379C66.0694 58.4258 68.158 54.6462 69.3706 52.812C74.7074 44.739 79.9011 36.5693 85.2517 28.506C86.1683 26.9336 84.0993 26.3238 83.0684 25.6421C82.0376 24.9604 80.5855 23.271 79.4592 24.5927L59.0562 55.7566C58.8048 57.1751 57.9791 59.3688 58.0451 60.7586C58.0769 61.4106 58.693 61.652 59.1551 61.9434L59.1548 61.9448ZM68.1244 59.1216C67.1159 61.199 64.0727 63.7832 61.9961 64.7261C61.6845 64.867 60.7566 65.1137 60.4417 65.0937C60.0355 65.0686 59.0605 64.6697 58.8772 64.7283C58.3337 64.9029 57.2618 68.7859 55.4951 66.8356C54.4628 65.6957 56.8703 63.9257 56.6533 63.2167C56.5998 63.0422 55.9875 62.362 55.8124 61.932C55.0328 60.0113 56.4107 56.8178 56.748 54.8164C59.261 50.2512 63.3402 45.7047 65.7036 41.1563C65.796 40.979 65.8903 40.8113 65.9175 40.6091L20.4938 28.4379L10.3014 66.4764C27.7388 71.0515 45.1062 75.9325 62.5519 80.4769C63.3408 80.6823 64.1325 80.9049 64.921 81.1117L72.5746 52.5482L68.1258 59.122L68.1244 59.1216Z" fill="#36A4F8"/>
        <path d="M10.7524 31.3507L10.9764 30.5145C11.7029 29.8024 12.8401 29.6852 13.2039 30.8181C13.7795 32.6123 11.2151 33.1027 10.7524 31.3507Z" fill="#36A4F8"/>
        <path d="M62.5503 80.4766C45.1046 75.9322 27.7372 71.0512 10.2998 66.4761L20.4922 28.4375L65.9145 40.6084C65.8873 40.8106 65.793 40.9783 65.7006 41.1556C63.3372 45.704 59.258 50.2505 56.745 54.8157C56.4077 56.8171 55.0298 60.0106 55.8095 61.9313C55.9842 62.3626 56.5968 63.0415 56.6503 63.216C56.8687 63.9254 54.4598 65.6949 55.4921 66.8349C57.2588 68.7851 58.3307 64.9022 58.8743 64.7276C59.0589 64.6693 60.0325 65.0679 60.4387 65.0929C60.754 65.1116 61.6815 64.8663 61.9931 64.7254C64.0698 63.7825 67.1129 61.1983 68.1214 59.1209L62.5489 80.4762L62.5503 80.4766ZM29.1472 48.5281L32.421 49.4053C32.9389 49.5441 34.7019 49.0065 35.2033 48.7159C39.997 45.9364 37.2421 38.5996 31.7955 39.5492C30.1457 39.8373 28.3611 41.427 27.9264 43.0493L27.2729 45.4882C26.9025 45.2677 26.4819 45.1401 26.1107 44.9224C25.1664 44.3701 24.2319 42.7985 23.1128 43.4847C20.8075 44.896 25.4092 47.6298 26.6381 47.8573L24.734 54.9633L22.0173 54.2353C18.569 53.3114 15.3918 57.2168 16.4302 60.6402C17.8413 65.2917 24.7257 65.0237 25.8416 60.8592L26.5695 58.1424C28.3252 58.9002 29.8815 59.9995 31.0992 61.4749C32.3883 63.0353 33.0341 65.2269 35.6617 63.9977L41.2079 59.5271L41.9516 60.9787C42.8422 62.3291 43.9137 63.4452 45.3819 64.1812C46.4398 64.7116 49.0015 65.5267 50.1596 65.6499C51.5391 65.7952 52.0077 63.974 51.0425 63.3877C50.2999 62.9373 48.293 62.7153 47.3205 62.3575C46.14 61.9215 44.9987 61.0156 44.2938 59.9829C43.1346 58.2837 42.923 55.9182 39.927 57.3105L34.5531 61.7749L34.3545 61.7173C32.6483 59.0665 30.2511 56.7887 27.2026 55.7743L29.144 48.5288L29.1472 48.5281Z" fill="#DEEFFF"/>
        <path d="M20.3691 23.3275C20.642 23.3811 20.9427 23.3869 21.2673 23.5771L68.8405 36.3932C68.3285 36.9248 67.8623 38.5027 67.0447 38.3823L20.2709 25.9107C19.4063 26.0381 18.4829 26.5583 18.2134 27.4467L7.83593 66.1928C7.71636 67.3818 8.38097 68.3469 9.4579 68.7896L64.3594 83.5064C65.5865 83.7574 66.8182 83.1702 67.2385 81.9646L76.9018 45.8671C77.5323 44.8764 78.1084 43.8322 78.7548 42.8548L78.8749 43.5513C75.1438 56.8562 71.9773 70.3826 67.9226 83.5604C67.3327 84.7849 66.1292 85.3841 65.1822 86.2601L7.63784 70.8411C6.7416 69.2438 6.27196 67.5678 6.61613 65.7194L16.9238 27.2508C17.5585 25.4069 18.6937 24.2417 20.3691 23.3275Z" fill="#DEEFFF"/>
        <path d="M83.0686 25.6412C83.3664 27.1155 82.8789 28.4827 81.7439 29.4684C81.7444 29.4386 81.498 28.9731 81.474 28.9457C80.9867 28.3797 80.3269 28.2343 79.7081 28.6954C79.3267 28.9793 76.9148 32.5975 76.6387 33.1699C76.083 34.3228 76.7381 35.6026 77.974 35.1781C78.1988 35.3386 77.8752 35.614 77.7809 35.7593C72.6134 43.7086 67.4008 51.6308 62.1889 59.5502L59.155 61.9439C58.6947 61.6514 58.0768 61.411 58.045 60.7591C57.9775 59.3689 58.805 57.1742 59.0561 55.7571L79.4591 24.5932C80.5853 23.2715 82.0555 24.9717 83.0683 25.6426L83.0686 25.6412Z" fill="#DEEFFF"/>
        <path d="M65.1832 86.2593C66.1301 85.3834 67.3336 84.7841 67.9236 83.5596C71.9768 70.3815 75.1448 56.8554 78.8759 43.5506L78.7558 42.854C79.1529 42.2542 79.7062 41.3565 80.1256 40.83C80.247 40.6785 80.2109 40.4892 80.4705 40.6261C81.159 41.7533 81.407 43.0168 81.1956 44.3307L70.8976 82.7914C70.0127 85.2895 67.8079 86.6439 65.1849 86.2583L65.1832 86.2593Z" fill="#DEEFFF"/>
        <path d="M59.1545 61.943L62.1884 59.5494C67.4017 51.6303 72.6129 43.7077 77.7804 35.7585C77.875 35.6117 78.1983 35.3378 77.9735 35.1773C78.0973 35.1341 78.5372 34.7433 78.6498 34.6133C79.307 33.8527 80.8824 31.4409 81.3542 30.5289C81.5035 30.2397 81.7454 29.7838 81.7434 29.4675C82.8783 28.4818 83.3645 27.1143 83.0681 25.6403C84.0986 26.3235 86.1666 26.9315 85.2514 28.5042C79.8994 36.5672 74.7071 44.7372 69.3703 52.8102C68.1577 54.6445 66.0691 58.4241 64.7106 59.8362C63.8 60.7832 61.8666 61.5879 60.8481 62.53C60.1161 62.7379 59.6852 62.2798 59.1545 61.943Z" fill="#97CEF8"/>
        <path d="M68.1244 59.1209L72.5732 52.5472L64.9196 81.1107C64.1311 80.9039 63.3394 80.6813 62.5505 80.4759L68.123 59.1206L68.1244 59.1209Z" fill="#97CEF8"/>
        <path d="M86.6607 20.9789C87.199 22.0134 85.784 23.0947 85.4314 24.0252C85.1362 24.1331 83.8866 23.0726 83.5153 22.9117C83.7737 21.8692 85.6727 19.0817 86.6593 20.9785L86.6607 20.9789Z" fill="#DEEFFF"/>
        <path d="M29.1484 48.5271L27.207 55.7727C30.2541 56.7867 32.6517 59.063 34.3589 61.7156L34.5575 61.7733L39.9314 57.3088C42.926 55.9162 43.139 58.282 44.2982 59.9812C45.0041 61.0157 46.1444 61.9198 47.3249 62.3558C48.2984 62.7154 50.3057 62.936 51.0469 63.386C52.0135 63.9727 51.5432 65.7949 50.164 65.6483C49.0056 65.5264 46.4442 64.7099 45.3863 64.1796C43.9181 63.4435 42.8462 62.3288 41.956 60.9771L41.2123 59.5254L35.6661 63.9961C33.0389 65.2238 32.3928 63.0337 31.1036 61.4733C29.8845 59.9975 28.3296 58.8985 26.5739 58.1408L25.846 60.8575C24.7301 65.022 17.8443 65.2897 16.4346 60.6385C15.3962 57.2151 18.572 53.3093 22.0217 54.2337L24.7384 54.9616L26.6425 47.8556C25.4136 47.6281 20.8105 44.8939 23.1172 43.483C24.2377 42.7972 25.1708 44.3685 26.1151 44.9208C26.4863 45.1384 26.9083 45.2665 27.2773 45.4865L27.9308 43.0476C28.3651 41.4268 30.1501 39.8357 31.7999 39.5475C37.2465 38.5979 40.0014 45.9348 35.2077 48.7142C34.7063 49.0048 32.9433 49.5424 32.4254 49.4037L29.1516 48.5265L29.1484 48.5271ZM29.7832 46.158L32.6396 46.9233C33.0026 47.0206 33.9861 46.5719 34.2868 46.3098C36.5632 44.3312 34.1316 40.9025 31.5757 42.2272C31.3634 42.3379 30.631 42.9885 30.5842 43.1631L29.7815 46.159L29.7832 46.158ZM21.5237 56.6394C18.5487 56.3615 17.5366 60.4685 20.2654 61.4974C21.482 61.9551 23.2118 61.2066 23.5495 59.9459L24.1843 57.5768C24.1885 57.5614 24.0464 57.3154 24.031 57.3113L21.5237 56.6394Z" fill="#97CEF8"/>
        <path d="M77.9741 35.1791C76.7382 35.6035 76.0831 34.3237 76.6389 33.1709C76.915 32.5985 79.3269 28.9803 79.7082 28.6964C80.327 28.2353 80.9868 28.3807 81.4741 28.9466C81.4982 28.974 81.7445 29.4396 81.744 29.4693C81.7461 29.7856 81.5042 30.2415 81.3549 30.5307C80.8831 31.4427 79.3073 33.856 78.6504 34.6151C78.5378 34.7451 78.0979 35.1359 77.9741 35.1791Z" fill="#97CEF8"/>
        <path d="M21.524 56.6403L24.0313 57.3122C24.0467 57.3163 24.1887 57.5623 24.1846 57.5777L23.5498 59.9468C23.212 61.2075 21.4819 61.9574 20.2657 61.4983C17.5364 60.4708 18.5486 56.3638 21.524 56.6403Z" fill="#DEEFFF"/>
        <path d="M29.7835 46.1572L30.5862 43.1613C30.6326 42.9882 31.3655 42.3361 31.5777 42.2254C34.1333 40.9022 36.5638 44.329 34.2888 46.308C33.9882 46.5701 33.0032 47.0185 32.6416 46.9216L29.7852 46.1562L29.7835 46.1572Z" fill="#DEEFFF"/>
        <circle cx="63.5" cy="19.5" r="2.5" fill="#D7E0FA"/>
        <circle cx="33" cy="12" r="3" fill="#97CEF8"/>
    </g>
    <circle cx="6" cy="85" r="4" fill="#97CEF8"/>
    <defs>
        <clipPath id="clip0_408_3843">
            <rect width="74" height="74" fill="white" transform="translate(19.1523) rotate(15)"/>
        </clipPath>
    </defs>
</svg>
