<svg width="51" height="56" viewBox="0 0 51 56" fill="none" xmlns="http://www.w3.org/2000/svg">
    <circle cx="27.1359" cy="32.1339" r="23.3644" fill="#D6DEED" stroke="#2B478B"/>
    <mask id="mask0_496_6185" style="mask-type:alpha" maskUnits="userSpaceOnUse" x="-7" y="-9" width="58" height="64">
        <path d="M50.3074 31.1356C50.3074 44.3155 39.6229 55 26.443 55C13.263 55 2.57856 44.3155 2.57856 31.1356C-10.4386 13.7797 -16.4055 -9 26.443 -9C39.6229 -9 50.3074 17.9556 50.3074 31.1356Z" fill="#D9D9D9"/>
    </mask>
    <g mask="url(#mask0_496_6185)">
        <path d="M34.8189 3.63663L2.64991 16.7776C2.30176 16.9199 2.13482 17.3174 2.27704 17.6655L20.0693 61.2207C20.2115 61.5689 20.6091 61.7358 20.9572 61.5936L53.1262 48.4526C53.4743 48.3103 53.6413 47.9128 53.499 47.5647L35.7068 4.0095C35.5646 3.66135 35.167 3.49441 34.8189 3.63663Z" fill="white"/>
        <path d="M20.6992 62.4501C20.5077 62.4501 20.3109 62.4128 20.1247 62.333C19.7629 62.1788 19.4756 61.8968 19.3267 61.5297L1.53164 17.9705C1.38268 17.6034 1.38268 17.2044 1.53164 16.8373C1.68592 16.4756 1.96787 16.1883 2.33494 16.0394L34.5043 2.89923C35.2597 2.59067 36.1216 2.95243 36.4301 3.70785L54.2252 47.2671C54.5337 48.0225 54.172 48.8844 53.4165 49.1929L21.2472 62.3384C21.0663 62.4128 20.8801 62.4501 20.6886 62.4501H20.6992ZM3.06377 17.481L20.7684 60.8169L52.7196 47.7619L35.015 4.42604L3.06377 17.481Z" fill="#233863"/>
        <path d="M30.2629 19.1579C30.0554 19.1579 29.8533 19.0356 29.7681 18.8281C29.6564 18.5568 29.7894 18.2482 30.0607 18.1365L35.5934 15.8756C35.8647 15.7638 36.1733 15.8968 36.285 16.1682C36.3967 16.4395 36.2637 16.748 35.9924 16.8597L30.4597 19.1207C30.3959 19.1473 30.3267 19.1579 30.2576 19.1579H30.2629Z" fill="#233863"/>
        <path d="M14.9387 35.0185C14.7312 35.0185 14.529 34.8962 14.4439 34.6887C14.3322 34.4174 14.4652 34.1088 14.7365 33.9971L38.9633 24.1021C39.2346 23.9904 39.5432 24.1234 39.6549 24.3947C39.7666 24.666 39.6336 24.9746 39.3623 25.0863L15.1355 34.9813C15.0717 35.0079 15.0025 35.0185 14.9334 35.0185H14.9387Z" fill="#233863"/>
        <path d="M18.8879 45.542C18.6804 45.542 18.4783 45.4196 18.3931 45.2121C18.2814 44.9408 18.4144 44.6323 18.6857 44.5206L42.9125 34.6256C43.1838 34.5138 43.4924 34.6468 43.6041 34.9182C43.7158 35.1895 43.5828 35.498 43.3115 35.6097L19.0847 45.5047C19.0209 45.5313 18.9517 45.542 18.8826 45.542H18.8879Z" fill="#233863"/>
        <path d="M21.0012 50.8271C20.7937 50.8271 20.5915 50.7048 20.5064 50.4973C20.3947 50.226 20.5277 49.9174 20.799 49.8057L45.0258 39.9107C45.2971 39.799 45.6057 39.932 45.7174 40.2033C45.8291 40.4746 45.6961 40.7832 45.4248 40.8949L21.198 50.7899C21.1342 50.8165 21.065 50.8271 20.9959 50.8271H21.0012Z" fill="#233863"/>
        <path d="M25.7258 37.0254C25.5183 37.0254 25.3161 36.903 25.231 36.6956C25.1193 36.4243 25.2523 36.1157 25.5236 36.004L41.2479 29.7115C41.5193 29.5998 41.8278 29.7328 41.9395 30.0041C42.0512 30.2754 41.9182 30.584 41.6469 30.6957L25.9226 36.9882C25.8588 37.0148 25.7896 37.0254 25.7205 37.0254H25.7258Z" fill="#699DEE"/>
        <path d="M17.2199 40.6311C17.0124 40.6311 16.8103 40.5087 16.7252 40.3013C16.6135 40.03 16.7464 39.7214 17.0178 39.6097L22.9122 37.1998C23.1835 37.0881 23.4921 37.2211 23.6038 37.4924C23.7155 37.7637 23.5825 38.0722 23.3112 38.184L17.4168 40.5939C17.3529 40.6205 17.2838 40.6311 17.2146 40.6311H17.2199Z" fill="#699DEE"/>
        <path d="M20.7241 7.41887L7.85711 12.9949C7.31794 13.2286 7.07027 13.8551 7.30393 14.3942L13.2861 28.1984C13.5198 28.7376 14.1463 28.9852 14.6854 28.7516L27.5524 23.1755C28.0916 22.9419 28.3392 22.3154 28.1056 21.7762L22.1234 7.97205C21.8897 7.43288 21.2632 7.18521 20.7241 7.41887Z" fill="#699DEE"/>
        <path d="M14.2581 29.3801C14.0613 29.3801 13.8591 29.3429 13.6676 29.2684C13.2686 29.1141 12.9601 28.8109 12.7898 28.4172L6.81027 14.6174C6.64003 14.2238 6.63472 13.7928 6.78899 13.3939C6.94327 12.9949 7.2465 12.6863 7.64017 12.5161L20.5037 6.94082C21.3123 6.58971 22.2539 6.9621 22.605 7.77072L28.5846 21.5705C28.7548 21.9642 28.7601 22.3951 28.6059 22.7941C28.4516 23.1931 28.1484 23.5016 27.7547 23.6719L14.8912 29.2471C14.689 29.3376 14.4709 29.3801 14.2581 29.3801ZM21.1367 7.8718C21.0676 7.8718 20.9931 7.88776 20.9239 7.91436L8.06045 13.4896C7.92745 13.5481 7.82637 13.6492 7.77849 13.7822C7.72529 13.9152 7.73061 14.0588 7.78381 14.1918L13.7634 27.9916C13.8219 28.1246 13.923 28.2257 14.056 28.2736C14.189 28.3268 14.3326 28.3215 14.4656 28.2683L27.3291 22.693C27.4621 22.6345 27.5632 22.5334 27.611 22.4004C27.6642 22.2674 27.6589 22.1238 27.6057 21.9908L21.6262 8.191C21.541 7.98884 21.3442 7.8718 21.1367 7.8718Z" fill="#233863"/>
        <path d="M13.8243 15.8773C13.6701 15.8773 13.5105 15.8453 13.3615 15.7868C13.0476 15.6645 12.8029 15.4251 12.6699 15.1165L11.9677 13.4993C11.9092 13.3663 11.9677 13.2067 12.106 13.1481C12.239 13.0896 12.3986 13.1481 12.4571 13.2865L13.1593 14.9037C13.2338 15.0846 13.3775 15.2176 13.5583 15.2921C13.7392 15.3665 13.936 15.3612 14.1116 15.2814L14.2286 15.2282C14.5106 15.1059 14.6436 14.776 14.5212 14.4888L12.7444 10.3924C12.6167 10.0998 12.2762 9.96685 11.9836 10.0892L11.7815 10.1796C11.4676 10.3126 11.324 10.6797 11.4623 10.9883L11.5049 11.0894C11.5634 11.2224 11.5049 11.3819 11.3665 11.4405C11.2335 11.499 11.0739 11.4405 11.0154 11.3021L10.9729 11.2011C10.7228 10.6212 10.9888 9.94025 11.5687 9.69022L11.7709 9.59978C12.3294 9.35507 12.9891 9.61574 13.2338 10.1796L15.0107 14.276C15.2501 14.8292 14.9947 15.4729 14.4414 15.7123L14.3244 15.7655C14.1648 15.8347 13.9946 15.8719 13.8243 15.8719V15.8773Z" fill="#233863"/>
        <path d="M20.5445 11.2103C20.9808 11.6572 20.9754 12.37 20.5286 12.8063C20.0817 13.2425 19.3688 13.2372 18.9326 12.7903C18.4964 12.3434 18.5017 11.6306 18.9486 11.1943C19.3954 10.7581 20.1083 10.7634 20.5445 11.2103Z" fill="white"/>
    </g>
</svg>
