<svg width="16" height="16" viewBox="0 0 16 16" fill="none" xmlns="http://www.w3.org/2000/svg">
<path fill-rule="evenodd" clip-rule="evenodd" d="M12 0H2C0.8955 0 0 0.8955 0 2V14C0 15.1045 0.8955 16 2 16H7.5V15H2C1.44925 15 1 14.5518 1 14V2C1 1.44825 1.44925 1 2 1H12C12.5518 1 13 1.44825 13 2V7.87887L14 6.87887V2C14 0.8955 13.1045 0 12 0Z" fill="#08B7DD"/>
<path d="M15.707 9L15 8.293C14.8046 8.09763 14.5489 8 14.293 8C14.0371 8 13.7813 8.09763 13.586 8.293L9.293 12.586C9.09763 12.7814 8.50025 13.5366 8.5 13.7925L8 16L10.207 15.5C10.207 15.5 11.2187 14.9024 11.414 14.707L15.707 10.414C16.0976 10.0235 16.0976 9.39013 15.707 9ZM11.0615 14.3525C11.0049 14.4062 10.809 14.5385 10.5697 14.6909L9.27437 13.3955C9.40725 13.2134 9.55512 13.0303 9.6465 12.9395L12.8789 9.70712L14.293 11.1213L11.0615 14.3525Z" fill="#08B7DD"/>
<path opacity="0.3" d="M11 4H3V3H11V4Z" fill="#08B7DD"/>
<path opacity="0.3" d="M11 6H3V5H11V6Z" fill="#08B7DD"/>
<path opacity="0.3" d="M11 8H3V7H11V8Z" fill="#08B7DD"/>
<path opacity="0.3" d="M7 10H3V9H7V10Z" fill="#08B7DD"/>
</svg>
