<svg width="107" height="78" viewBox="0 0 107 78" fill="none" xmlns="http://www.w3.org/2000/svg">
    <ellipse cx="53.5" cy="56" rx="53.5" ry="22" fill="#F5F7FA"/>
    <path d="M66.5 22.5C66.5 32.175 58.1 40 47.75 40L45.425 42.8L44.05 44.4501C42.875 45.8501 40.625 45.55 39.85 43.875L36.5 36.4999C31.95 33.2999 29 28.225 29 22.5C29 12.825 37.4 5 47.75 5C55.3 5 61.825 9.17502 64.75 15.175C65.875 17.4 66.5 19.875 66.5 22.5Z" fill="#DEEFFF"/>
    <path d="M79.0008 32.1507C79.0008 37.8757 76.0508 42.9508 71.5008 46.1508L68.1508 53.5257C67.3758 55.2007 65.1258 55.5258 63.9508 54.1008L60.2508 49.6507C54.2008 49.6507 48.8008 46.9758 45.4258 42.8008L47.7508 40.0008C58.1008 40.0008 66.5008 32.1758 66.5008 22.5008C66.5008 19.8758 65.8758 17.4008 64.7508 15.1758C72.9258 17.0508 79.0008 23.9507 79.0008 32.1507Z" fill="#97CEF8"/>
    <path d="M54 24.375H41.5C40.475 24.375 39.625 23.525 39.625 22.5C39.625 21.475 40.475 20.625 41.5 20.625H54C55.025 20.625 55.875 21.475 55.875 22.5C55.875 23.525 55.025 24.375 54 24.375Z" fill="#97CEF8"/>
</svg>
