<svg width="52" height="52" viewBox="0 0 52 52" fill="none" xmlns="http://www.w3.org/2000/svg">
    <rect x="0.5" y="0.5" width="51" height="51" rx="17.5" fill="white"/>
    <rect x="0.5" y="0.5" width="51" height="51" rx="17.5" stroke="#D6DEED"/>
    <path d="M34.1892 28.0608L33.0592 26.1808C32.8092 25.7708 32.5892 24.9808 32.5892 24.5008V22.6308C32.5892 19.0008 29.6392 16.0508 26.0192 16.0508C22.3892 16.0608 19.4392 19.0008 19.4392 22.6308V24.4908C19.4392 24.9708 19.2192 25.7608 18.9792 26.1708L17.8492 28.0508C17.4192 28.7808 17.3192 29.6108 17.5892 30.3308C17.8592 31.0608 18.4692 31.6408 19.2692 31.9008C20.3492 32.2608 21.4392 32.5208 22.5492 32.7108C22.6592 32.7308 22.7692 32.7408 22.8792 32.7608C23.0192 32.7808 23.1692 32.8008 23.3192 32.8208C23.5792 32.8608 23.8392 32.8908 24.1092 32.9108C24.7392 32.9708 25.3792 33.0008 26.0192 33.0008C26.6492 33.0008 27.2792 32.9708 27.8992 32.9108C28.1292 32.8908 28.3592 32.8708 28.5792 32.8408C28.7592 32.8208 28.9392 32.8008 29.1192 32.7708C29.2292 32.7608 29.3392 32.7408 29.4492 32.7208C30.5692 32.5408 31.6792 32.2608 32.7592 31.9008C33.5292 31.6408 34.1192 31.0608 34.3992 30.3208C34.6792 29.5708 34.5992 28.7508 34.1892 28.0608ZM26.7492 24.0008C26.7492 24.4208 26.4092 24.7608 25.9892 24.7608C25.5692 24.7608 25.2292 24.4208 25.2292 24.0008V20.9008C25.2292 20.4808 25.5692 20.1408 25.9892 20.1408C26.4092 20.1408 26.7492 20.4808 26.7492 20.9008V24.0008Z" fill="#2B343C"/>
    <path d="M28.8297 34.01C28.4097 35.17 27.2997 36 25.9997 36C25.2097 36 24.4297 35.68 23.8797 35.11C23.5597 34.81 23.3197 34.41 23.1797 34C23.3097 34.02 23.4397 34.03 23.5797 34.05C23.8097 34.08 24.0497 34.11 24.2897 34.13C24.8597 34.18 25.4397 34.21 26.0197 34.21C26.5897 34.21 27.1597 34.18 27.7197 34.13C27.9297 34.11 28.1397 34.1 28.3397 34.07C28.4997 34.05 28.6597 34.03 28.8297 34.01Z" fill="#2B343C"/>
</svg>
