<svg width="54" height="54" viewBox="0 0 54 54" fill="none" xmlns="http://www.w3.org/2000/svg">
    <g filter="url(#filter0_d_0_1)">
        <path d="M27 40.3333C16.8748 40.3333 8.66666 32.1252 8.66666 22C8.66666 11.8748 16.8748 3.66667 27 3.66667C37.1252 3.66667 45.3333 11.8748 45.3333 22C45.3333 32.1252 37.1252 40.3333 27 40.3333Z" fill="white"/>
        <path d="M27 40.3333C16.8748 40.3333 8.66666 32.1252 8.66666 22C8.66666 11.8748 16.8748 3.66667 27 3.66667C37.1252 3.66667 45.3333 11.8748 45.3333 22C45.3333 32.1252 37.1252 40.3333 27 40.3333Z" stroke="#DEEFFF" stroke-miterlimit="10" stroke-linecap="round" stroke-linejoin="round"/>
    </g>
    <path d="M24 27.9433L30.4533 21.4717L24 15" stroke="#EAEEF6" stroke-width="2" stroke-linecap="round" stroke-linejoin="round"/>
    <defs>
        <filter id="filter0_d_0_1" x="0.166656" y="0.166672" width="53.6667" height="53.6667" filterUnits="userSpaceOnUse" color-interpolation-filters="sRGB">
            <feFlood flood-opacity="0" result="BackgroundImageFix"/>
            <feColorMatrix in="SourceAlpha" type="matrix" values="0 0 0 0 0 0 0 0 0 0 0 0 0 0 0 0 0 0 127 0" result="hardAlpha"/>
            <feOffset dy="5"/>
            <feGaussianBlur stdDeviation="4"/>
            <feComposite in2="hardAlpha" operator="out"/>
            <feColorMatrix type="matrix" values="0 0 0 0 0 0 0 0 0 0 0 0 0 0 0 0 0 0 0.1 0"/>
            <feBlend mode="normal" in2="BackgroundImageFix" result="effect1_dropShadow_0_1"/>
            <feBlend mode="normal" in="SourceGraphic" in2="effect1_dropShadow_0_1" result="shape"/>
        </filter>
    </defs>
</svg>
