<svg width="20" height="20" viewBox="0 0 20 20" fill="none" xmlns="http://www.w3.org/2000/svg">
    <path d="M16.4912 3.51562C14.0246 1.05729 10.0246 1.05729 7.57455 3.51562C5.84955 5.22396 5.33289 7.68229 5.99955 9.84896L2.08289 13.7656C1.80789 14.049 1.61622 14.6073 1.67455 15.0073L1.92455 16.824C2.01622 17.424 2.57455 17.9906 3.17455 18.074L4.99122 18.324C5.39122 18.3823 5.94955 18.199 6.23289 17.9073L6.91622 17.224C7.08289 17.0656 7.08289 16.799 6.91622 16.6323L5.29955 15.0156C5.05789 14.774 5.05789 14.374 5.29955 14.1323C5.54122 13.8906 5.94122 13.8906 6.18289 14.1323L7.80789 15.7573C7.96622 15.9156 8.23288 15.9156 8.39122 15.7573L10.1579 13.999C12.3162 14.674 14.7746 14.149 16.4912 12.4406C18.9496 9.98229 18.9496 5.97396 16.4912 3.51562ZM12.0829 9.99896C10.9329 9.99896 9.99955 9.06563 9.99955 7.91563C9.99955 6.76562 10.9329 5.83229 12.0829 5.83229C13.2329 5.83229 14.1662 6.76562 14.1662 7.91563C14.1662 9.06563 13.2329 9.99896 12.0829 9.99896Z" fill="#ACB1B6"/>
</svg>
