<svg width="20" height="20" viewBox="0 0 20 20" fill="none" xmlns="http://www.w3.org/2000/svg">
    <path d="M13.534 1.66797H6.46732C4.16732 1.66797 3.33398 2.5013 3.33398 4.84297V15.1596C3.33398 17.5013 4.16732 18.3346 6.46732 18.3346H13.5257C15.834 18.3346 16.6673 17.5013 16.6673 15.1596V4.84297C16.6673 2.5013 15.834 1.66797 13.534 1.66797ZM10.0007 16.0846C9.20065 16.0846 8.54232 15.4263 8.54232 14.6263C8.54232 13.8263 9.20065 13.168 10.0007 13.168C10.8007 13.168 11.459 13.8263 11.459 14.6263C11.459 15.4263 10.8007 16.0846 10.0007 16.0846ZM11.6673 5.20964H8.33398C7.99232 5.20964 7.70898 4.9263 7.70898 4.58464C7.70898 4.24297 7.99232 3.95964 8.33398 3.95964H11.6673C12.009 3.95964 12.2923 4.24297 12.2923 4.58464C12.2923 4.9263 12.009 5.20964 11.6673 5.20964Z" fill="#ACB1B6"/>
</svg>
