<svg width="20" height="20" viewBox="0 0 20 20" fill="none" xmlns="http://www.w3.org/2000/svg">
    <path d="M14.8415 4.5763V5.19297L11.8915 3.48464C10.7749 2.84297 9.21654 2.84297 8.1082 3.48464L5.1582 5.2013V4.5763C5.1582 2.7013 6.1832 1.66797 8.0582 1.66797H11.9415C13.8165 1.66797 14.8415 2.7013 14.8415 4.5763Z" fill="#ACB1B6"/>
    <path d="M14.866 6.64089L14.7494 6.58255L13.616 5.93255L11.266 4.57422C10.5493 4.15755 9.44935 4.15755 8.73268 4.57422L6.38268 5.92422L5.24935 6.59089L5.09935 6.66589C3.64102 7.64922 3.54102 7.83255 3.54102 9.40755V13.1742C3.54102 14.7492 3.64102 14.9326 5.13268 15.9409L8.73268 18.0159C9.09102 18.2326 9.54102 18.3242 9.99935 18.3242C10.4493 18.3242 10.9077 18.2242 11.266 18.0159L14.8993 15.9159C16.366 14.9326 16.4577 14.7576 16.4577 13.1742V9.40755C16.4577 7.83255 16.3577 7.64922 14.866 6.64089ZM12.3243 11.2492L11.816 11.8742C11.7327 11.9659 11.6743 12.1409 11.6827 12.2659L11.7327 13.0659C11.766 13.5576 11.416 13.8076 10.9577 13.6326L10.216 13.3326C10.0993 13.2909 9.90768 13.2909 9.79102 13.3326L9.04935 13.6242C8.59102 13.8076 8.24102 13.5492 8.27435 13.0576L8.32435 12.2576C8.33268 12.1326 8.27435 11.9576 8.19102 11.8659L7.67435 11.2492C7.35768 10.8742 7.49935 10.4576 7.97435 10.3326L8.74935 10.1326C8.87435 10.0992 9.01602 9.98255 9.08268 9.88255L9.51602 9.21589C9.78268 8.79922 10.2077 8.79922 10.4827 9.21589L10.916 9.88255C10.9827 9.99089 11.1327 10.0992 11.2493 10.1326L12.0243 10.3326C12.4993 10.4576 12.641 10.8742 12.3243 11.2492Z" fill="#ACB1B6"/>
</svg>
