<svg width="40" height="41" viewBox="0 0 40 41" fill="none" xmlns="http://www.w3.org/2000/svg">
    <rect y="0.5" width="40" height="40" rx="14" fill="#F5F7FA"/>
    <path d="M28.9007 20.924V20.9892L28.9604 21.0155C29.9882 21.4681 30.8294 22.2601 31.3431 23.2588C31.8568 24.2575 32.0118 25.4024 31.7822 26.5018C31.5526 27.6012 30.9523 28.5883 30.0818 29.2979C29.2113 30.0076 28.1235 30.3966 27.0004 30.4H22.0007C21.762 30.4 21.5331 30.3052 21.3643 30.1364C21.1955 29.9676 21.1007 29.7387 21.1007 29.5C21.1007 29.2613 21.1955 29.0324 21.3643 28.8636C21.5331 28.6948 21.762 28.6 22.0007 28.6H25.0007H25.1007V28.5V22.5C25.1007 21.9961 25.3009 21.5128 25.6572 21.1565C26.0135 20.8002 26.4968 20.6 27.0007 20.6H27.1007V20.5V19.5C27.1007 17.617 26.3526 15.811 25.0211 14.4795C23.6896 13.148 21.8837 12.4 20.0007 12.4C18.1176 12.4 16.3117 13.148 14.9802 14.4795C13.6487 15.811 12.9007 17.617 12.9007 19.5V20.5V20.6H13.0007C13.5046 20.6 13.9879 20.8002 14.3442 21.1565C14.7005 21.5128 14.9007 21.9961 14.9007 22.5V28.5C14.9007 29.0039 14.7005 29.4872 14.3442 29.8435C13.9879 30.1998 13.5048 30.3999 13.001 30.4C11.8779 30.3966 10.79 30.0076 9.91954 29.2979C9.04904 28.5883 8.44874 27.6012 8.21913 26.5018C7.98952 25.4024 8.14454 24.2575 8.65823 23.2588C9.17193 22.2601 10.0131 21.4681 11.041 21.0155L11.1007 20.9892V20.924V19.5C11.1007 17.1396 12.0384 14.8758 13.7074 13.2067C15.3765 11.5377 17.6403 10.6 20.0007 10.6C22.3611 10.6 24.6249 11.5377 26.2939 13.2067C27.963 14.8758 28.9007 17.1396 28.9007 19.5V20.924ZM13.0007 28.6H13.1007V28.5V22.5V22.4H13.0007C12.1785 22.4 11.39 22.7266 10.8087 23.308C10.2273 23.8893 9.90068 24.6778 9.90068 25.5C9.90068 26.3222 10.2273 27.1107 10.8087 27.692C11.39 28.2734 12.1785 28.6 13.0007 28.6ZM26.9007 28.5V28.6H27.0007C27.8229 28.6 28.6114 28.2734 29.1927 27.692C29.7741 27.1107 30.1007 26.3222 30.1007 25.5C30.1007 24.6778 29.7741 23.8893 29.1927 23.308C28.6114 22.7266 27.8229 22.4 27.0007 22.4H26.9007V22.5V28.5Z" fill="#36A4F8" stroke="#F5F7FA" stroke-width="0.2"/>
</svg>
