<svg width="20" height="20" viewBox="0 0 20 20" fill="none" xmlns="http://www.w3.org/2000/svg">
    <path d="M17.1829 7.04036C16.3079 3.19036 12.9496 1.45703 9.99959 1.45703C9.99959 1.45703 9.99959 1.45703 9.99126 1.45703C7.04959 1.45703 3.68292 3.18203 2.80792 7.03203C1.83292 11.332 4.46626 14.9737 6.84959 17.2654C7.73292 18.1154 8.86626 18.5404 9.99959 18.5404C11.1329 18.5404 12.2663 18.1154 13.1413 17.2654C15.5246 14.9737 18.1579 11.3404 17.1829 7.04036ZM9.99959 11.2154C8.54959 11.2154 7.37459 10.0404 7.37459 8.59037C7.37459 7.14037 8.54959 5.96536 9.99959 5.96536C11.4496 5.96536 12.6246 7.14037 12.6246 8.59037C12.6246 10.0404 11.4496 11.2154 9.99959 11.2154Z" fill="#ACB1B6"/>
</svg>
