<svg width="24" height="24" viewBox="0 0 24 24" fill="none" xmlns="http://www.w3.org/2000/svg">
    <path d="M14.4264 3.32641C14.6967 3.04462 15.0205 2.81962 15.3788 2.66457C15.7371 2.50953 16.1228 2.42757 16.5133 2.4235C16.9037 2.41943 17.291 2.49332 17.6525 2.64086C18.014 2.78839 18.3424 3.0066 18.6185 3.28269C18.8946 3.55878 19.1128 3.8872 19.2603 4.2487C19.4079 4.6102 19.4818 4.99751 19.4777 5.38794C19.4736 5.77837 19.3917 6.16405 19.2366 6.5224C19.0816 6.88075 18.8566 7.20454 18.5748 7.47481L17.0484 9.00001L17.1516 9.10321C17.3746 9.32608 17.5514 9.5907 17.6721 9.88195C17.7928 10.1732 17.8549 10.4854 17.8549 10.8006C17.8549 11.1159 17.7928 11.428 17.6721 11.7193C17.5514 12.0105 17.3746 12.2751 17.1516 12.498L15.4236 14.2248C15.3104 14.3341 15.1589 14.3946 15.0015 14.3932C14.8442 14.3918 14.6937 14.3287 14.5825 14.2175C14.4713 14.1063 14.4081 13.9558 14.4068 13.7985C14.4054 13.6411 14.4659 13.4896 14.5752 13.3764L16.3032 11.6484C16.5282 11.4234 16.6545 11.1182 16.6545 10.8C16.6545 10.4818 16.5282 10.1766 16.3032 9.95161L16.2 9.84841L8.22479 17.8248C8.14758 17.9016 8.05093 17.956 7.94519 17.982L3.14519 19.182C3.04095 19.2079 2.93168 19.2053 2.82878 19.1746C2.72587 19.1438 2.6331 19.086 2.56016 19.0072C2.48722 18.9284 2.43677 18.8314 2.41408 18.7264C2.3914 18.6215 2.3973 18.5123 2.43119 18.4104L3.93119 13.9104C3.96044 13.8223 4.00973 13.7422 4.07519 13.6764L14.4264 3.32641ZM3.92159 20.286C3.90154 20.2709 3.88154 20.2557 3.86159 20.2404L5.47919 19.836C6.12479 20.16 6.90479 20.4 7.79999 20.4C8.40839 20.4 9.01679 20.1876 9.64079 19.8324C10.2672 19.4748 10.8696 18.9984 11.472 18.51L11.628 18.3828C12.162 17.9472 12.7104 17.5008 13.2324 17.1924C13.7988 16.8588 14.4852 16.596 15.1896 16.8324C16.176 17.16 16.4868 18.0672 16.7748 19.0284C16.8408 19.248 16.9536 19.4652 17.0868 19.6152C17.22 19.7652 17.3268 19.8 17.4 19.8C17.6244 19.8 17.9472 19.6788 18.3564 19.4364C18.6156 19.284 18.84 19.1292 19.062 18.9756C19.1976 18.8808 19.3332 18.7884 19.4736 18.6972C19.8552 18.45 20.184 18.2844 20.4216 18.18C20.5434 18.1266 20.6675 18.0785 20.7936 18.036L20.8176 18.0288L20.8272 18.0264L20.8308 18.0252L21 18.6012L20.832 18.0252C20.983 17.9854 21.1436 18.006 21.2797 18.0828C21.4158 18.1595 21.5165 18.2863 21.5606 18.4361C21.6047 18.586 21.5885 18.7471 21.5157 18.8853C21.4428 19.0234 21.3189 19.1277 21.1704 19.176L21.162 19.1784L21.114 19.1952C21.0434 19.2208 20.9738 19.2488 20.9052 19.2792C20.7192 19.3608 20.4492 19.4952 20.1264 19.704C20.0424 19.7592 19.9332 19.8336 19.8108 19.9176C19.5612 20.0892 19.2528 20.3016 18.966 20.4696C18.5316 20.7264 17.97 21 17.4 21C16.872 21 16.464 20.7216 16.1904 20.412C15.9301 20.1098 15.7375 19.7555 15.6252 19.3728C15.3096 18.3216 15.1284 18.0768 14.8092 17.9688C14.6148 17.9052 14.3256 17.9412 13.842 18.2268C13.4028 18.486 12.9252 18.8748 12.3684 19.3272L12.228 19.4412C11.6304 19.9272 10.9584 20.4624 10.2348 20.8752C9.50879 21.288 8.69159 21.6 7.79999 21.6C6.13439 21.6 4.81319 20.934 3.92159 20.286Z" fill="#2951A0"/>
</svg>
