<svg width="165" height="125" viewBox="0 0 165 125" fill="none" xmlns="http://www.w3.org/2000/svg">
    <g clip-path="url(#clip0_467_2887)">
        <path d="M28.2722 117.566C28.2722 117.566 7.72574 102.933 1.81232 78.0308C-4.10109 53.1245 4.92702 22.9254 22.0466 7.67168C39.1699 -7.58206 69.9896 2.69117 83.686 15.4547L97.3824 28.2182C97.3824 28.2182 110.458 35.3767 127.581 34.756C144.705 34.1316 159.958 57.4805 164.006 75.849C168.054 94.2174 158.401 118.499 158.401 118.499L28.2722 117.566Z" fill="#DDECFF"/>
        <g style="mix-blend-mode:multiply">
            <path d="M18.9364 121.301C18.9364 121.301 4.61558 113.518 0.880195 95.4622C-2.85519 77.406 13.3315 60.9071 14.8888 51.879C16.4462 42.8509 13.0192 31.6448 27.3401 22.9251C41.6609 14.2092 67.1879 17.3202 76.8405 15.1421C86.493 12.9641 97.6992 -1.98117 117 1.44575C136.302 4.86891 154.983 15.1421 155.915 37.5582C156.848 59.9742 149.69 60.5949 156.848 72.7377C164.007 84.8805 166.809 93.2842 163.386 105.735C159.963 118.187 152.801 121.614 152.801 121.614L18.9364 121.301Z" fill="#DDECFF"/>
        </g>
        <g style="mix-blend-mode:multiply">
            <path d="M48.8371 117.255C47.9456 116.322 34.8812 90.1711 49.4315 66.2014C63.9818 42.2318 100.504 45.0305 115.055 54.3709C129.605 63.7112 136.73 75.8502 138.215 88.6137C139.701 101.377 129.902 121.303 129.902 121.303L48.8371 117.255Z" fill="#DDECFF"/>
        </g>
        <path d="M151.283 59.6016H134.498C133.459 59.6016 132.617 60.4437 132.617 61.4824V69.8635C132.617 70.9023 133.459 71.7444 134.498 71.7444H151.283C152.322 71.7444 153.164 70.9023 153.164 69.8635V61.4824C153.164 60.4437 152.322 59.6016 151.283 59.6016Z" fill="#36A4F8"/>
        <path d="M142.89 76.4921L145.553 70.1875H140.23L142.89 76.4921Z" fill="#36A4F8"/>
        <path d="M142.83 63.5866H147.634V64.29L149.989 62.9283L147.634 61.5703V62.2738H142.83V63.5866Z" fill="#223A7A"/>
        <path d="M149.989 66.348H145.185V65.6445L142.83 67.0025L145.185 68.3605V67.657H149.989V66.348Z" fill="white"/>
        <path d="M139.881 67.5904L139.652 67.6731C139.652 67.6731 138.937 66.8606 138.568 65.9728C138.2 65.0851 138.185 64.0054 138.185 64.0054L138.35 63.934L137.334 61.5039C137.154 61.6469 136.981 61.8274 136.842 62.0644C136.266 63.0349 136.322 64.5283 136.902 65.9841C137.481 67.4399 138.098 68.7414 139.226 69.5577C139.892 70.0392 140.464 70.1257 140.904 70.0543L139.877 67.5941L139.881 67.5904Z" fill="#223A7A"/>
        <path d="M140.607 67.305L140.291 67.4216L141.329 69.9118C141.446 69.8742 141.551 69.8253 141.645 69.7764C141.912 69.6297 142.033 69.3062 141.92 69.0203L141.378 67.651C141.258 67.3463 140.915 67.1959 140.611 67.305H140.607Z" fill="#223A7A"/>
        <path d="M138.131 61.0755C138.003 61.1207 137.864 61.1846 137.725 61.2674L138.763 63.7501L139.113 63.6034C139.417 63.4755 139.56 63.1332 139.444 62.8247L138.898 61.4254C138.782 61.1207 138.439 60.9627 138.135 61.0755H138.131Z" fill="#223A7A"/>
        <path d="M43.9804 111.561V83.5437C43.9804 83.5437 43.6682 75.9939 47.6368 73.8159C51.6054 71.6379 68.3375 72.804 68.3375 72.804V111.561H43.9766H43.9804Z" fill="#36A4F8"/>
        <path d="M73.5715 46.5741C73.5715 46.5741 72.5596 55.0567 72.1721 55.7564L71.7846 56.4561L69.8398 57.7802C69.8398 57.7802 73.5752 63.0729 78.1683 63.9269C82.7613 64.7845 82.3701 62.0573 82.3701 62.0573L81.6704 60.5789L82.6033 52.4837C82.6033 52.4837 74.2749 48.6693 73.5752 46.5703L73.5715 46.5741Z" fill="#FF9F55"/>
        <path d="M67.4199 58.4804L70.4556 57.1562C70.4556 57.1562 72.4004 60.3462 76.9145 62.2158C81.4285 64.0853 81.5075 62.9944 81.7408 62.2158C81.974 61.4371 81.6618 60.5832 81.6618 60.5832L81.9966 57.8597L83.8022 58.4616L90.0692 109.151L73.9578 109.929L67.4199 58.4841V58.4804Z" fill="white"/>
        <path d="M82.287 57.91C82.287 57.91 83.3779 60.4266 84.3898 66.34C85.4017 72.2534 86.3346 82.2182 86.5678 89.0645C86.801 95.9108 86.9552 111.556 86.9552 111.556H107.268C107.502 111.556 108.901 103.852 108.901 103.852C108.901 103.852 100.027 96.2494 99.5608 95.0043C99.2485 94.1729 99.4065 78.7913 98.0824 71.708C96.7583 64.6247 95.0467 63.199 91.4655 61.4347C87.764 59.6103 82.2832 57.9062 82.2832 57.9062L82.287 57.91Z" fill="#223A7A"/>
        <path d="M92.8723 102.642C92.7669 102.642 92.6842 102.559 92.6842 102.454C92.6842 101.897 92.5864 93.9902 92.4886 86.3464C92.3945 78.6988 92.293 70.7917 92.293 70.235C92.293 70.1296 92.3757 70.0469 92.4811 70.0469C92.5864 70.0469 92.6691 70.1296 92.6691 70.235C92.6691 70.7917 92.7669 78.6988 92.8647 86.3426C92.9588 93.9902 93.0604 101.897 93.0604 102.454C93.0604 102.559 92.9776 102.642 92.8723 102.642Z" fill="#8593B6"/>
        <path d="M52.4003 100.74L52.2461 111.559H75.9073C75.9073 111.559 76.9192 102.377 76.5317 101.519C76.1443 100.661 52.4041 100.74 52.4041 100.74H52.4003Z" fill="#223A7A"/>
        <g style="mix-blend-mode:multiply">
            <path d="M78.733 55.5195C79.696 56.2982 81.0163 56.9189 82.0433 57.2988L82.6 52.4838C82.6 52.4838 76.3443 49.6174 74.2227 47.4883C74.6665 49.9108 75.7574 53.1196 78.733 55.5195Z" fill="#8E9BBB"/>
        </g>
        <path d="M89.9165 30.773C89.9165 30.773 91.5491 33.5755 91.8613 36.9986C92.1736 40.4218 91.8613 49.2167 89.0589 52.952C86.2564 56.6874 80.4182 55.5965 77.7737 53.3395C75.3437 51.2668 72.9475 48.9797 72.3268 44.4656C71.7023 39.9516 73.6509 31.3899 79.1768 29.5993C84.7028 27.8088 89.9165 30.7655 89.9165 30.7655V30.773Z" fill="#FF9F55"/>
        <path d="M96.9335 106.662C96.9335 106.662 96.6588 106.662 96.2413 106.651C96.1435 106.647 96.0344 106.651 95.9216 106.647C95.519 106.636 95.03 106.624 94.5372 106.609C94.4282 106.606 94.3153 106.602 94.2062 106.598C93.7172 106.587 93.2996 106.647 92.9084 106.624H92.8971C92.8144 106.621 92.694 106.632 92.5962 106.636C92.5473 106.639 92.5022 106.643 92.4721 106.639C92.2464 106.598 92.2012 106.545 91.9567 106.436C91.6407 106.293 87.3637 105.338 83.8841 105.36C80.4082 105.375 77.2898 105.612 76.782 105.187C76.2704 104.755 75.9619 100.387 78.9299 100.102L82.5788 101.486C82.5788 101.486 90.9109 100.497 93.9655 102.75C97.0275 105.003 96.9335 106.662 96.9335 106.662Z" fill="#FF9F55"/>
        <path d="M92.8972 106.623C92.8145 106.619 92.6941 106.63 92.5963 106.634C92.5211 106.514 92.3631 106.295 92.2765 106.205C91.3361 105.246 89.064 104.625 88.2402 104.426C88.165 104.407 88.1161 104.332 88.1349 104.257C88.1499 104.181 88.2289 104.136 88.3079 104.151C89.5079 104.441 92.0546 105.182 92.7768 106.397C92.7994 106.431 92.8596 106.548 92.8972 106.623Z" fill="#223A7A"/>
        <path d="M94.5378 106.61C94.4288 106.61 94.3159 106.606 94.2068 106.599C93.1799 104.725 91.4984 104.187 89.4257 103.522L89.3015 103.48C89.2301 103.458 89.1887 103.375 89.2113 103.3C89.2338 103.228 89.3128 103.187 89.3918 103.209L89.5122 103.251C91.709 103.954 93.4733 104.522 94.5416 106.61H94.5378Z" fill="#223A7A"/>
        <path d="M96.2399 106.649C96.1421 106.649 96.033 106.649 95.9201 106.645C95.2957 105.336 93.2343 103.143 90.5108 102.635C90.4318 102.62 90.3829 102.549 90.3942 102.47C90.4092 102.395 90.4845 102.346 90.5597 102.357C93.3697 102.884 95.6343 105.178 96.2437 106.649H96.2399Z" fill="#223A7A"/>
        <path d="M74.1919 40.6175C74.1919 40.6175 75.9034 39.8012 77.111 37.5028C78.3185 35.2081 78.1605 33.1429 78.1605 33.1429C78.1605 33.1429 80.3385 32.7931 83.6074 33.7674C86.8764 34.7417 90.766 36.062 94.0349 34.1962C97.3038 32.3266 97.3038 29.3323 95.7089 28.0872C93.922 26.6916 90.3785 27.5417 90.3785 27.5417C90.3785 27.5417 91.7403 26.2176 91.003 25.4389C90.2619 24.6603 87.5798 25.6722 87.5798 25.6722C87.5798 25.6722 84.3109 23.0653 78.1228 23.3775C71.9348 23.6897 68.9781 28.0082 68.6283 32.8345C68.2785 37.6607 70.0276 42.487 70.0276 42.487L74.1919 40.6175Z" fill="#223A7A"/>
        <g style="mix-blend-mode:multiply">
            <path d="M86.7459 41.7895C86.396 42.6547 86.4036 43.6591 86.317 44.5732C86.2493 45.2879 86.1177 46.1192 86.7722 46.6007C87.0844 46.8302 88.5628 47.4509 87.8029 47.955C87.5133 48.1468 87.028 48.0941 86.697 48.0791C86.4713 48.0678 86.2418 48.0603 86.0123 48.0415C85.7678 48.0227 85.5308 47.9512 85.2863 47.9474C85.1434 47.9474 85.0982 48.1355 85.2149 48.2107C85.6061 48.4553 86.1854 48.5343 86.6406 48.5493C87.0995 48.5681 87.4079 48.5493 87.8217 48.3424C88.0738 48.2183 88.322 48.0377 88.3597 47.7368C88.4048 47.3982 88.149 47.0935 87.8932 46.9017C87.5998 46.6835 87.2387 46.5819 86.9415 46.3675C86.5277 46.0741 86.5616 45.5738 86.5916 45.1149C86.6631 44.0089 86.9152 42.9218 87.013 41.8196C87.028 41.6503 86.7948 41.6503 86.7421 41.782L86.7459 41.7895Z" fill="#8E9BBB"/>
        </g>
        <path d="M89.9276 44.376C89.811 45.0306 89.3332 45.497 88.863 45.4143C88.389 45.3315 88.1031 44.7296 88.216 44.0751C88.3326 43.4206 88.8103 42.9541 89.2806 43.0369C89.7545 43.1196 90.0404 43.7215 89.9276 44.376Z" fill="#223A7A"/>
        <path d="M83.974 43.8552C83.8686 44.5624 83.3683 45.074 82.8605 44.9988C82.3527 44.9235 82.0216 44.2878 82.127 43.5806C82.2323 42.8734 82.7326 42.3618 83.2404 42.437C83.7483 42.5123 84.0793 43.148 83.974 43.8552Z" fill="#223A7A"/>
        <path d="M88.5435 41.6712C88.9084 41.7314 89.2733 41.6712 89.642 41.6975C89.7285 41.705 89.8188 41.7163 89.9053 41.7239C89.9692 41.7314 89.7887 41.705 89.8752 41.7201C89.894 41.7201 89.9128 41.7276 89.9316 41.7276C89.9768 41.7351 90.0219 41.7464 90.067 41.7577C90.146 41.7765 90.2213 41.8066 90.3003 41.8217C90.3717 41.8367 90.4507 41.8555 90.5222 41.8517C90.5636 41.848 90.6012 41.8405 90.6426 41.8367C90.6162 41.8405 90.5937 41.8442 90.5673 41.8517C90.5673 41.8593 90.7028 41.8405 90.7178 41.8367C90.9247 41.7878 91.0564 41.547 90.9962 41.3439C90.9811 41.2837 90.9548 41.2348 90.9172 41.1859C90.9021 41.1671 90.8871 41.1445 90.8683 41.1257C90.8833 41.1408 90.8984 41.1596 90.9134 41.1746C90.8984 41.1521 90.8833 41.1333 90.8645 41.1107C90.8457 41.0768 90.8156 41.0467 90.7818 41.0279C90.7517 41.0054 90.7253 40.9828 90.6952 40.9602C90.5974 40.8925 90.4733 40.8549 90.3567 40.8248C90.1385 40.7684 89.9128 40.742 89.6871 40.7383C89.4652 40.7383 89.2432 40.7609 89.025 40.7909C88.8294 40.8173 88.615 40.885 88.457 41.0016C88.3366 41.0919 88.2614 41.2085 88.2802 41.3665C88.299 41.4981 88.4006 41.6486 88.5435 41.6712Z" fill="#223A7A"/>
        <path d="M84.39 40.6267C84.3411 40.5966 84.2884 40.5702 84.2395 40.5477C84.1944 40.5289 84.074 40.4649 84.1643 40.5138C84.1304 40.495 84.0966 40.4762 84.0627 40.4611C83.9122 40.3859 83.7542 40.3332 83.5925 40.2919C83.2389 40.2016 82.8627 40.179 82.4978 40.2166C82.1104 40.258 81.753 40.3521 81.4182 40.5552C81.3693 40.5853 81.3204 40.6116 81.2828 40.653C81.2565 40.6868 81.2301 40.7207 81.2038 40.7546C81.2113 40.7433 81.2188 40.732 81.2264 40.7207C81.121 40.7922 81.0609 40.9125 81.0646 41.0367C81.0646 41.1571 81.1286 41.2586 81.2339 41.315C81.3618 41.3865 81.4822 41.3527 81.6101 41.315H81.4145C81.5235 41.3339 81.5988 41.3376 81.7079 41.315C81.7116 41.315 81.8132 41.2887 81.7455 41.3038C81.6815 41.3188 81.8508 41.2925 81.8696 41.2887C81.8922 41.2887 82.0088 41.2737 81.8847 41.2887C81.9072 41.2887 81.9298 41.285 81.9524 41.2812C82.0126 41.2737 82.069 41.2661 82.1292 41.2624C82.385 41.2436 82.6408 41.2323 82.9003 41.221C83.1373 41.2135 83.3818 41.2097 83.6226 41.221C83.7242 41.2248 83.8257 41.2285 83.9273 41.2323C83.9837 41.2323 83.9611 41.2436 83.9198 41.2323C83.9423 41.2398 83.9611 41.2436 83.9837 41.2473C84.0251 41.2586 84.0665 41.2737 84.1078 41.2887C84.2734 41.3527 84.4727 41.2323 84.5329 41.0781C84.6006 40.9125 84.5442 40.7207 84.3862 40.6267H84.39Z" fill="#223A7A"/>
        <path d="M86.2369 51.4539C86.5943 50.7354 87.245 50.2088 87.9936 49.8702C87.3429 49.8025 84.262 49.5204 83.4871 49.9605C82.6181 50.4533 83.6488 52.4395 85.4469 52.5373C85.635 52.5485 85.8081 52.5335 85.9736 52.5072C85.9886 52.146 86.0714 51.7849 86.2369 51.4539Z" fill="#223A7A"/>
        <path d="M72.0137 47.2732C72.0137 47.2732 72.3259 48.4807 74.1165 49.88C75.907 51.2794 78.5026 52.3063 78.5026 52.3063L78.7095 51.3998C78.7095 51.3998 76.0237 50.2336 74.7785 48.9471C73.5334 47.6644 73.3792 46.9609 73.3792 46.9609L72.0174 47.2732H72.0137Z" fill="#DEE1EB"/>
        <path d="M79.0186 50.7255C80.4594 50.6578 81.2644 51.7976 81.3622 52.5349C81.4637 53.2722 80.7716 54.0998 79.1503 53.3738C77.1378 52.471 77.5741 50.7933 79.0149 50.7255H79.0186Z" fill="#223A7A"/>
        <path d="M73.1434 38.3596C73.1434 38.3596 73.7641 33.887 76.7622 30.8475C82.4838 25.0507 87.3476 25.4005 87.3476 25.4005C87.3476 25.4005 87.31 24.5843 85.4781 23.9598C83.759 23.3767 82.9878 23.689 82.9878 23.689C82.9878 23.689 78.2782 24.0764 74.3095 28.4739C70.3409 32.8713 69.9121 38.4763 69.9121 38.4763L73.1434 38.3596Z" fill="#DEE1EB"/>
        <path d="M72.7151 37.8142C68.9684 37.1785 66.8769 40.1089 66.7227 43.0694C66.5684 46.0261 68.7164 48.2756 71.5866 48.0499C78.0454 47.5458 77.3081 38.5929 72.7151 37.8142Z" fill="white"/>
        <path d="M70.8501 45.1761C69.8607 45.1761 69.0256 44.6795 68.5479 43.803C68.0363 42.8664 68.0777 41.7115 68.657 40.8614C68.7021 40.7974 68.7886 40.7824 68.8526 40.8238C68.9165 40.8689 68.9354 40.9554 68.8902 41.0194C68.3711 41.783 68.3335 42.8212 68.7962 43.6676C69.2325 44.4689 70.0074 44.924 70.9253 44.8939C71.783 44.8714 72.509 44.4801 72.9679 43.7917C73.4945 43.0055 73.6149 41.9222 73.2764 41.0269C72.9378 40.1391 72.0162 39.5372 71.1773 39.6463C71.1021 39.6576 71.0306 39.6012 71.0193 39.526C71.0081 39.4507 71.0645 39.3793 71.1397 39.368C72.1215 39.2363 73.1522 39.9097 73.5397 40.9291C73.9121 41.9071 73.7767 43.0921 73.2011 43.9497C72.6858 44.7171 71.8808 45.1535 70.9328 45.1761C70.9065 45.1761 70.8802 45.1761 70.8538 45.1761H70.8501Z" fill="#818FB3"/>
        <path d="M68.1246 57.3906C68.1246 57.3906 56.7604 60.1931 52.7918 64.7072C48.8232 69.2212 46.9536 91.4793 46.8784 95.6059C46.8032 99.7325 49.6809 101.444 51.3925 102.61C53.104 103.776 60.6538 105.879 66.7252 106.191C72.7966 106.504 78.5558 106.191 78.5558 106.191C78.5558 106.191 78.537 104.867 79.4699 102.922C80.3351 101.117 81.4335 100.744 81.4335 100.744L76.2198 98.8748C76.2198 98.8748 75.3057 82.5151 73.8837 74.5929C72.2512 65.4858 68.1246 57.3944 68.1246 57.3944V57.3906Z" fill="#223A7A"/>
        <path d="M86.9558 96.261C86.9295 96.261 86.9031 96.2572 86.8806 96.2459C86.7865 96.2045 86.7414 96.0917 86.7865 95.9976C87.8511 93.5939 88.9533 88.8805 89.5739 85.5702L89.6266 85.3031C89.8147 84.3288 90.0479 83.1213 89.5815 82.2824C89.3445 81.8574 88.8066 80.932 88.2874 80.0442C87.7495 79.1226 87.2454 78.2499 87.1025 77.9903C86.8279 77.4825 87.6931 76.1245 88.942 74.2625C89.2805 73.7584 89.5702 73.3258 89.7395 73.0324C90.1833 72.2612 89.8899 71.5578 89.5438 70.7377L89.4272 70.4556C89.115 69.692 88.7614 68.9284 88.4191 68.1873C88.2799 67.8864 88.1407 67.5817 88.0015 67.277C87.8172 66.8745 87.6367 66.4644 87.4486 66.0506C86.3502 63.598 85.2104 61.0626 83.7546 58.6137C83.7019 58.5235 83.732 58.4106 83.8185 58.3542C83.9088 58.3015 84.0217 58.3316 84.0781 58.4181C85.5451 60.8858 86.6887 63.4325 87.7909 65.8927C87.9752 66.3064 88.1595 66.7165 88.3401 67.1152C88.4793 67.4199 88.6185 67.7208 88.7576 68.0218C89.1 68.7666 89.4573 69.534 89.7695 70.3051L89.8862 70.5835C90.236 71.4148 90.5971 72.28 90.0592 73.2092C89.8824 73.5139 89.589 73.954 89.2467 74.4618C88.5959 75.4324 87.2417 77.4524 87.426 77.8022C87.5652 78.058 88.0693 78.927 88.6034 79.8448C89.1225 80.7364 89.6605 81.6618 89.9012 82.0906C90.4354 83.0461 90.1871 84.3326 89.9877 85.3633L89.9351 85.6304C89.7094 86.8341 88.5094 93.0033 87.1213 96.1406C87.0912 96.2121 87.0197 96.2534 86.9483 96.2534L86.9558 96.261Z" fill="#8593B6"/>
        <path d="M75.8669 96.9188C75.818 96.9188 75.7691 96.9 75.7352 96.8624C74.8512 95.9709 70.5855 88.5866 70.2695 87.1986C70.0964 86.4387 70.5328 84.5089 70.9541 82.6431C71.2814 81.1986 71.6199 79.7052 71.5221 79.299C71.3792 78.6933 70.2883 77.8018 69.235 76.9404C67.9598 75.8984 66.6432 74.8225 66.3874 73.852C66.0977 72.7498 66.346 65.8509 66.5078 61.2879C66.5679 59.6478 66.6131 58.35 66.6131 57.8873C66.6131 57.782 66.6958 57.6992 66.8012 57.6992C66.9065 57.6992 66.9893 57.782 66.9893 57.8873C66.9893 58.3575 66.9441 59.6553 66.8839 61.2992C66.7297 65.565 66.4739 72.7047 66.7485 73.7542C66.9742 74.6044 68.2983 75.6877 69.4682 76.6432C70.6231 77.5874 71.7102 78.4752 71.8832 79.2049C71.9999 79.694 71.6839 81.0971 71.3152 82.7184C70.9202 84.4563 70.4764 86.4274 70.6306 87.1045C70.9428 88.4663 75.1296 95.7113 75.9986 96.5878C76.07 96.663 76.07 96.7797 75.9986 96.8549C75.9609 96.8925 75.9158 96.9113 75.8669 96.9113V96.9188Z" fill="#8593B6"/>
        <path d="M60.574 93.6926C60.574 93.6926 60.5552 93.6926 60.5477 93.6926C60.4461 93.6775 60.3747 93.5835 60.3859 93.4782C60.5251 92.5001 62.6843 73.0144 62.7821 71.521C62.7897 71.4157 62.88 71.3367 62.9815 71.3442C63.0868 71.3518 63.1621 71.442 63.1583 71.5436C63.0605 73.037 60.8975 92.549 60.7583 93.5271C60.7433 93.6211 60.6643 93.6888 60.574 93.6888V93.6926Z" fill="#8593B6"/>
        <path d="M76.0633 98.9838C76.0407 98.9838 76.0144 98.98 75.9918 98.9687C75.5141 98.7731 73.4 98.0622 70.7254 97.1594C65.3236 95.3387 57.9281 92.8447 56.5212 92.1111C56.4272 92.0622 56.3933 91.9494 56.4422 91.8591C56.4911 91.7651 56.604 91.7312 56.6943 91.7801C58.0748 92.4986 65.76 95.0904 70.8458 96.8058C73.5279 97.7123 75.6458 98.4233 76.1348 98.6227C76.2326 98.6603 76.2777 98.7731 76.2401 98.8672C76.21 98.9386 76.1385 98.9838 76.0671 98.9838H76.0633Z" fill="#8593B6"/>
        <path d="M73.462 106.742C68.7072 106.742 59.4947 105.884 52.4942 103.409C52.3964 103.375 52.3437 103.266 52.3813 103.168C52.4152 103.07 52.5243 103.018 52.6221 103.055C61.4659 106.185 73.8382 106.719 76.1403 106.2C76.2419 106.177 76.3434 106.241 76.366 106.343C76.3886 106.444 76.3246 106.546 76.2231 106.569C75.7265 106.681 74.7598 106.742 73.4695 106.742H73.462Z" fill="#8593B6"/>
        <path d="M19.0535 60.0183C20.5281 61.316 22.3976 62.1474 23.6917 63.6483C24.1995 64.2389 24.6584 64.8671 25.1324 65.4878C25.4747 65.9392 26.3963 66.6878 26.5431 67.252C26.607 67.5003 26.5957 67.1617 26.528 66.9135C26.528 66.9022 26.5205 66.8947 26.5167 66.8834C26.3888 65.7361 26.2948 64.585 26.2534 63.4301C26.212 62.279 26.2835 61.1242 26.212 59.9769C26.1105 58.3556 25.6026 56.7869 24.2785 55.7713C23.6315 55.2747 22.8001 54.9738 22.202 54.4208C21.6378 53.8979 21.8635 53.2998 22.1945 52.7168C22.5067 52.1713 22.8829 51.6334 23.0033 51.0052C23.1425 50.2905 22.8716 49.5532 22.5105 48.9475C21.7393 47.6535 20.0315 46.209 18.4102 46.4046C17.0598 46.5664 16.9055 48.1237 16.9281 49.2071C16.9469 50.2604 17.0523 51.3137 17.0598 52.3669C17.0711 53.4503 16.8867 54.5149 16.8717 55.5945C16.8454 57.4302 17.6955 58.8296 19.0422 60.0145L19.0535 60.0183Z" fill="#97CEF8"/>
        <path d="M32.7642 76.864C33.1743 75.8822 33.6482 74.9681 34.2275 74.0766C35.0213 72.854 35.9053 71.6615 36.4394 70.2923C36.9849 68.8929 36.9059 67.3995 36.9585 65.9287C36.9962 64.8453 37.3197 63.7695 37.2331 62.6823C37.1918 62.1632 36.8908 61.3206 36.2175 61.4071C35.6946 61.4748 35.3824 62.1218 35.183 62.5394C34.8332 63.2616 34.5887 64.0328 34.3291 64.7926C34.2275 65.0898 34.1297 65.3908 34.0018 65.6766C33.9266 65.8422 33.6896 66.2484 33.4639 66.1958C33.0802 66.1017 33.43 64.5406 33.4865 64.2622C33.7724 62.8742 34.2012 61.5839 34.2614 60.1545C34.3479 58.0818 34.1862 55.6178 32.1586 54.4818C31.6282 54.1846 30.9586 54.0078 30.4545 54.4517C29.958 54.8881 29.8188 55.6442 29.7436 56.2686C29.5179 58.1833 29.9693 59.9927 30.5824 61.7946C31.0903 63.2804 31.6921 64.8152 31.7373 66.4064C31.7787 67.9374 30.9849 69.2917 30.6088 70.7399C30.0144 73.0421 30.1348 74.2646 30.1348 75.0095C30.1348 75.9424 30.1649 76.8677 30.2326 77.8007C30.2965 78.6583 30.368 79.5122 30.4733 80.3661C30.4959 80.5392 30.5147 80.7197 30.5373 80.9003C30.2063 80.1066 30.0934 79.2 29.8188 78.4025C29.3335 76.9881 28.7731 75.6 28.3066 74.1781C27.9229 73.0045 27.558 71.8195 27.0539 70.6873C26.58 69.6264 26.0044 68.5055 25.1167 67.7268C24.5787 67.2566 23.9317 66.982 23.2132 66.9857C22.7543 66.9857 22.3405 67.1475 21.9042 67.2641C21.3662 67.407 20.9412 67.3581 20.4973 67.0158C19.0453 65.8986 18.6014 63.8974 17.5293 62.483C16.728 61.4297 14.8246 59.6316 13.4253 60.7827C12.6842 61.3921 12.4773 62.5695 12.5187 63.4761C12.5676 64.6083 13.0641 65.6466 13.651 66.5945C14.2792 67.6026 15.0879 68.5055 15.6635 69.5399C16.0058 70.1531 16.0585 70.7399 16.002 71.4283C15.9494 72.0791 15.8929 72.7073 16.1149 73.3355C16.7807 75.2201 18.8609 74.9568 20.4785 75.0057C21.6107 75.0396 22.822 75.2088 23.8979 75.57C25.1392 75.9875 25.948 76.7963 26.3919 78.0226C26.7116 78.9104 26.8847 79.9223 27.4903 80.6746C27.7762 81.0282 28.1524 81.2915 28.5662 81.4758C29.1981 81.7542 31.1204 81.8746 31.1316 81.7015C31.1805 81.1147 31.4589 80.494 31.632 79.9373C31.9592 78.8915 32.3429 77.8721 32.768 76.8602L32.7642 76.864Z" fill="#97CEF8"/>
        <path d="M41.6905 76.5052C41.525 75.4293 41.5551 74.2406 41.0473 73.2513C41.0097 73.1798 40.9156 73.161 40.8479 73.1986C40.483 73.4018 40.468 73.9924 40.4379 74.3535C40.389 74.9554 40.4266 75.5572 40.3514 76.1553C40.2235 77.2086 39.979 78.292 39.599 79.2813C39.1702 80.4023 38.3915 81.038 37.2592 81.3879C36.5332 81.6136 35.8185 81.8092 35.2091 82.2907C34.6637 82.7233 34.2875 83.3176 34.0091 83.9459C33.253 85.6424 32.8919 87.5345 32.542 89.3477C32.3051 90.5665 32.1132 91.7928 31.816 93.0003C31.5189 94.2078 31.2029 95.4078 31.0336 96.6416C31.0035 96.7056 30.9734 96.7658 30.9471 96.8297C30.8681 97.014 31.1577 97.1118 31.2555 96.9614C32.4254 95.1633 33.8474 93.5457 35.7922 92.5564C36.6686 92.1088 37.8348 92.0147 38.5683 91.3113C39.125 90.7771 39.2003 89.9608 39.1175 89.2311C39.0084 88.2756 38.5495 87.4894 38.0718 86.6731C37.8084 86.2254 37.5 85.7477 37.6053 85.2023C37.7069 84.6907 38.132 84.3107 38.5533 84.0474C39.362 83.5471 40.3062 83.3214 40.9645 82.5992C41.5777 81.9296 41.92 81.0907 41.9877 80.1879C42.078 78.9842 41.8711 77.6901 41.6868 76.5014L41.6905 76.5052Z" fill="#97CEF8"/>
        <path d="M25.7573 82.7223C24.7266 81.3944 23.4815 80.2471 22.0821 79.3179C21.3336 78.8214 19.5731 77.8433 19.2157 79.3066C19.0088 80.1643 19.8477 81.0069 20.4007 81.5448C21.232 82.3536 22.1912 83.0495 22.8909 83.9824C22.022 84.2608 21.1154 84.3135 20.363 84.9116C19.4715 85.6225 19.069 86.9918 19.9568 87.8645C20.3894 88.2896 20.9612 88.5492 21.4953 88.8087C22.195 89.1473 22.906 89.452 23.6207 89.7529C25.1668 90.3999 26.7316 91.0545 28.0482 92.1115C29.3912 93.1873 30.6551 95.0118 30.7604 96.7685C30.7717 96.9378 30.7078 96.7835 30.8056 96.7083C30.862 96.7572 31.0425 96.6707 31.0425 96.5729C31.0162 93.966 30.546 91.4795 29.4814 89.0908C28.4921 86.8752 27.247 84.6445 25.7573 82.726V82.7223Z" fill="#97CEF8"/>
        <path d="M22.1893 58.4325C22.7573 59.6137 23.3517 60.7686 23.9836 61.9196C24.593 63.0293 25.1987 64.1278 25.6538 65.3127C26.2143 66.7685 26.8011 68.2017 27.3917 69.6462C28.0087 71.1471 28.5579 72.6744 28.998 74.2355C29.8594 77.2825 30.4989 80.416 30.8149 83.5683C30.9766 85.1708 31.0481 86.7808 31.003 88.3908C30.9691 89.6472 30.8262 90.8923 30.7096 92.145C30.5854 93.4466 30.4989 94.7669 30.608 96.0722C30.6983 97.1631 30.8713 98.4647 31.7215 99.2434C31.887 99.3976 32.124 99.2057 32.0262 99.0101C31.018 96.9449 31.0745 94.6917 31.2663 92.4535C31.3716 91.2159 31.5183 89.9858 31.5635 88.7444C31.6161 87.1645 31.556 85.5808 31.4055 84.0084C31.1121 80.9163 30.4951 77.8618 29.6977 74.8637C29.2876 73.3252 28.7798 71.8167 28.1967 70.3384C27.6099 68.8562 26.9328 67.4117 26.3648 65.9221C25.3378 63.225 23.773 60.8363 22.3849 58.3234C22.3134 58.1918 22.1253 58.3084 22.1855 58.4401L22.1893 58.4325Z" fill="#43588E"/>
        <path d="M30.8704 80.48C31.0321 78.5164 31.2089 76.6242 31.8672 74.7547C32.1757 73.8819 32.5481 73.0318 32.849 72.1553C33.0936 71.4293 33.4622 70.4362 33.2741 69.665C33.2515 69.5785 33.1274 69.5823 33.1048 69.665C32.9769 70.1052 32.992 70.5867 32.9017 71.0381C32.8114 71.4782 32.6948 71.907 32.5594 72.3359C32.2697 73.2424 31.8898 74.1114 31.5625 75.0067C30.9268 76.7333 30.5995 78.6443 30.7387 80.48C30.7462 80.5665 30.8666 80.5665 30.8741 80.48H30.8704Z" fill="#43588E"/>
        <path d="M19.4891 69.1971C20.2677 71.078 22.6113 71.1871 24.3191 71.6084C25.5379 71.9093 26.4369 72.7218 27.084 73.7789C27.7912 74.9337 28.2689 76.2879 28.6639 77.5782C28.6676 77.5933 28.6902 77.5857 28.6864 77.5707C28.2087 75.3137 27.5241 72.5977 25.1993 71.5482C23.3335 70.7056 20.8771 71.1306 19.6884 69.1144C19.6282 69.0166 19.4477 69.0805 19.4966 69.1971H19.4891Z" fill="#43588E"/>
        <path d="M29.6338 80.1848C29.7279 80.3089 29.8106 80.4405 29.9084 80.5647C29.9573 80.6249 30.0025 80.6813 30.0627 80.7302C30.1229 80.7791 30.1943 80.8431 30.2809 80.8393C30.3147 80.8393 30.341 80.7979 30.3222 80.7678C30.2846 80.7039 30.2131 80.6663 30.1605 80.6211C30.1041 80.5722 30.0476 80.5233 29.995 80.4706C29.8859 80.3691 29.7881 80.2562 29.679 80.1509C29.6602 80.1321 29.6188 80.1584 29.6376 80.1848H29.6338Z" fill="#43588E"/>
        <path d="M24.7645 86.1539C26.1075 87.2561 27.3488 88.5614 28.3344 89.9946C28.8046 90.6793 29.241 91.4015 29.636 92.1313C30.0648 92.9288 30.3507 93.7714 30.6855 94.6103C30.7118 94.6742 30.8284 94.6742 30.8171 94.5915C30.6291 92.8197 29.5081 91.3037 28.6128 89.8291C28.1463 89.0655 27.567 88.4486 26.9426 87.8091C26.2993 87.1508 25.641 86.5263 24.8887 85.9959C24.7984 85.932 24.678 86.0825 24.7683 86.1539H24.7645Z" fill="#43588E"/>
        <path d="M35.4655 84.0691C34.8185 84.4377 34.7959 85.4571 34.7846 86.1117C34.7621 87.3681 35.0705 88.5455 34.5213 89.7417C34.0248 90.8213 33.231 91.7241 32.6066 92.7248C32.0235 93.6652 31.4442 94.8652 31.4593 95.9937C31.4593 96.0576 31.5608 96.0952 31.5909 96.0275C31.8279 95.5159 31.9107 94.9329 32.08 94.395C32.268 93.7893 32.5351 93.2401 32.8774 92.7097C33.4793 91.7768 34.2166 90.9304 34.7056 89.9298C35.221 88.8728 35.1457 87.827 35.1119 86.6834C35.0893 85.9537 35.0179 84.78 35.6047 84.2383C35.695 84.1518 35.5783 84.0089 35.473 84.0691H35.4655Z" fill="#43588E"/>
        <path d="M31.1425 96.1108C28.5356 96.0732 23.5664 96.0469 23.5664 96.0469L24.7965 105.173C25.0749 107.227 26.824 108.758 28.8968 108.758H33.3882C35.4609 108.758 37.2139 107.227 37.4885 105.173L38.7186 96.0469C38.7186 96.0469 33.7494 96.077 31.1425 96.1108Z" fill="white"/>
        <path d="M157.199 79.3357L142.322 108.809L98.9453 109.121L112.329 78.9219L157.199 79.3357Z" fill="#F6F7FA"/>
        <path d="M70.1582 108.938L70.1657 106.579H98.2469L111.165 78.25H156.072L157.2 79.3409H113.331L99.9058 108.915C99.9058 108.915 70.1582 108.863 70.1582 108.938Z" fill="#D9DEE8"/>
        <path d="M134.675 95.6031C134.186 97.074 131.527 98.21 128.735 98.1385C125.944 98.067 124.078 96.8219 124.571 95.3511C125.06 93.8803 127.72 92.7442 130.511 92.8157C133.302 92.8872 135.168 94.1323 134.675 95.6031Z" fill="#D9DEE8"/>
        <path d="M99.9059 109.099C99.8795 109.099 99.8532 109.096 99.8269 109.084C99.7328 109.043 99.6914 108.93 99.7328 108.836L113.207 79.1523H157.197C157.302 79.1523 157.385 79.2351 157.385 79.3404C157.385 79.4458 157.302 79.5285 157.197 79.5285H113.448L100.071 108.994C100.041 109.062 99.9698 109.103 99.8983 109.103L99.9059 109.099Z" fill="white"/>
        <path d="M68.1971 111.168H16.5977V122.607H68.1971V111.168Z" fill="#596B9B"/>
        <path d="M160.743 111.168H67.9043V122.607H160.743V111.168Z" fill="#7A89AF"/>
        <g style="mix-blend-mode:multiply">
            <path d="M68.199 111.168H67.9056H16.5996V113.271H67.9056H68.199H160.745V111.168H68.199Z" fill="#BDC4D7"/>
        </g>
        <path d="M70.4561 108.91H14.1094V111.713H70.4561V108.91Z" fill="#6F7FA9"/>
        <path d="M163.001 108.91H70.1621V111.713H163.001V108.91Z" fill="#9CA6C3"/>
        <path d="M55.1728 35.7148H36.9586C35.8305 35.7148 34.916 36.6294 34.916 37.7575V46.8495C34.916 47.9776 35.8305 48.8921 36.9586 48.8921H55.1728C56.3009 48.8921 57.2155 47.9776 57.2155 46.8495V37.7575C57.2155 36.6294 56.3009 35.7148 55.1728 35.7148Z" fill="white"/>
        <path d="M62.407 42.2993L55.5645 39.4141V45.1845L62.407 42.2993Z" fill="white"/>
        <path d="M41.7445 43.5633C42.4405 43.5633 43.0047 42.9991 43.0047 42.3031C43.0047 41.6072 42.4405 41.043 41.7445 41.043C41.0486 41.043 40.4844 41.6072 40.4844 42.3031C40.4844 42.9991 41.0486 43.5633 41.7445 43.5633Z" fill="#223A7A"/>
        <path d="M46.0668 43.5633C46.7628 43.5633 47.327 42.9991 47.327 42.3031C47.327 41.6072 46.7628 41.043 46.0668 41.043C45.3708 41.043 44.8066 41.6072 44.8066 42.3031C44.8066 42.9991 45.3708 43.5633 46.0668 43.5633Z" fill="#223A7A"/>
        <path d="M50.3891 43.5633C51.0851 43.5633 51.6493 42.9991 51.6493 42.3031C51.6493 41.6072 51.0851 41.043 50.3891 41.043C49.6931 41.043 49.1289 41.6072 49.1289 42.3031C49.1289 42.9991 49.6931 43.5633 50.3891 43.5633Z" fill="#223A7A"/>
        <path d="M147.911 7.73438H105.859C103.158 7.73438 100.969 9.92369 100.969 12.6246V32.573C100.969 35.2739 103.158 37.4632 105.859 37.4632H109.628C109.734 39.2726 109.474 41.9622 107.966 45.4004C112.826 43.1584 115.621 39.7955 117.084 37.4632H147.915C150.616 37.4632 152.805 35.2739 152.805 32.573V12.6246C152.805 9.92369 150.616 7.73438 147.915 7.73438H147.911Z" fill="#36A4F8"/>
        <path d="M129.973 17.2405H109.114C108.543 17.2405 108.076 16.7741 108.076 16.2023C108.076 15.6305 108.543 15.1641 109.114 15.1641H129.973C130.545 15.1641 131.011 15.6268 131.011 16.2023C131.011 16.7741 130.549 17.2405 129.973 17.2405Z" fill="white"/>
        <path d="M144.93 23.2871H108.712C108.362 23.2871 108.076 23.0012 108.076 22.6514C108.076 22.3015 108.362 22.0156 108.712 22.0156H144.93C145.28 22.0156 145.565 22.3015 145.565 22.6514C145.565 23.0012 145.28 23.2871 144.93 23.2871Z" fill="#D2E6FF"/>
        <path d="M144.93 26.8144H108.712C108.362 26.8144 108.076 26.5285 108.076 26.1787C108.076 25.8289 108.362 25.543 108.712 25.543H144.93C145.28 25.543 145.565 25.8289 145.565 26.1787C145.565 26.5285 145.28 26.8144 144.93 26.8144Z" fill="#D2E6FF"/>
        <path d="M137.028 30.5761H108.714C108.364 30.5761 108.078 30.2903 108.078 29.9404C108.078 29.5906 108.364 29.3047 108.714 29.3047H137.028C137.378 29.3047 137.664 29.5906 137.664 29.9404C137.664 30.2903 137.378 30.5761 137.028 30.5761Z" fill="#D2E6FF"/>
        <path d="M144.642 17.2405H134.693C134.121 17.2405 133.654 16.7741 133.654 16.2023C133.654 15.6305 134.121 15.1641 134.693 15.1641H144.642C145.214 15.1641 145.68 15.6268 145.68 16.2023C145.68 16.7741 145.214 17.2405 144.642 17.2405Z" fill="white"/>
        <path d="M119.562 53.8984H108.266C107.851 53.8984 107.514 54.2353 107.514 54.6508V62.3698C107.514 62.7853 107.851 63.1222 108.266 63.1222H119.562C119.978 63.1222 120.315 62.7853 120.315 62.3698V54.6508C120.315 54.2353 119.978 53.8984 119.562 53.8984Z" fill="white"/>
        <path d="M113.995 59.893C113.931 59.893 113.867 59.8704 113.815 59.829L107.664 54.7507C107.544 54.6529 107.529 54.4723 107.627 54.352C107.728 54.2316 107.905 54.2165 108.025 54.3143L113.992 59.2422L119.803 54.1864C119.92 54.0849 120.101 54.0962 120.202 54.2128C120.304 54.3294 120.292 54.51 120.176 54.6115L114.183 59.8253C114.131 59.8704 114.063 59.893 113.999 59.893H113.995Z" fill="#6F7FA9"/>
        <path d="M107.846 62.915C107.774 62.915 107.706 62.8887 107.65 62.836C107.537 62.7269 107.533 62.5501 107.639 62.4373L111.938 57.9157C112.044 57.8028 112.224 57.7991 112.337 57.9044C112.45 58.0135 112.454 58.1903 112.348 58.3031L108.049 62.8247C107.992 62.8811 107.921 62.9112 107.846 62.9112V62.915Z" fill="#6F7FA9"/>
        <path d="M119.988 62.7498C119.916 62.7498 119.845 62.7235 119.788 62.6671L115.504 58.3712C115.395 58.2621 115.395 58.0815 115.504 57.9724C115.613 57.8634 115.793 57.8634 115.902 57.9724L120.187 62.2683C120.296 62.3774 120.296 62.558 120.187 62.6671C120.131 62.7235 120.059 62.7498 119.988 62.7498Z" fill="#6F7FA9"/>
        <path d="M120.908 57.3858C122.992 57.3858 124.681 55.6966 124.681 53.6128C124.681 51.5291 122.992 49.8398 120.908 49.8398C118.824 49.8398 117.135 51.5291 117.135 53.6128C117.135 55.6966 118.824 57.3858 120.908 57.3858Z" fill="#FF5F42"/>
        <path d="M119.994 54.0889L119.985 53.9851C120.1 54.0363 120.199 54.1025 120.283 54.1837C120.368 54.265 120.432 54.3537 120.477 54.45C120.523 54.5463 120.545 54.6457 120.545 54.748C120.545 54.9195 120.497 55.0775 120.401 55.2219C120.307 55.3634 120.181 55.4777 120.021 55.565C119.862 55.6493 119.684 55.6914 119.489 55.6914C119.293 55.6914 119.116 55.6493 118.956 55.565C118.797 55.4777 118.669 55.3634 118.572 55.2219C118.479 55.0775 118.433 54.9195 118.433 54.748C118.433 54.6095 118.461 54.4907 118.518 54.3914C118.578 54.289 118.652 54.2033 118.739 54.1341C118.83 54.0648 118.919 54.0077 119.006 53.9625L118.97 54.0889C118.894 54.0588 118.821 54.0167 118.748 53.9625C118.679 53.9053 118.622 53.8331 118.577 53.7458C118.532 53.6586 118.509 53.5563 118.509 53.4389C118.509 53.2704 118.553 53.1184 118.64 52.983C118.727 52.8445 118.845 52.7347 118.992 52.6534C119.143 52.5722 119.308 52.5316 119.489 52.5316C119.672 52.5316 119.836 52.5722 119.981 52.6534C120.128 52.7347 120.246 52.8445 120.333 52.983C120.42 53.1184 120.464 53.2704 120.464 53.4389C120.464 53.5683 120.438 53.6766 120.387 53.7639C120.336 53.8512 120.274 53.9204 120.202 53.9716C120.13 54.0227 120.061 54.0618 119.994 54.0889ZM119.051 53.4479C119.051 53.5292 119.069 53.6014 119.105 53.6646C119.144 53.7278 119.197 53.779 119.263 53.8181C119.329 53.8542 119.405 53.8722 119.489 53.8722C119.573 53.8722 119.647 53.8542 119.71 53.8181C119.776 53.779 119.827 53.7278 119.863 53.6646C119.903 53.6014 119.922 53.5292 119.922 53.4479C119.922 53.3275 119.88 53.2282 119.796 53.15C119.715 53.0687 119.612 53.0281 119.489 53.0281C119.362 53.0281 119.257 53.0687 119.173 53.15C119.092 53.2282 119.051 53.3275 119.051 53.4479ZM119.489 55.1949C119.633 55.1949 119.755 55.1512 119.854 55.064C119.954 54.9737 120.003 54.8653 120.003 54.7389C120.003 54.6517 119.981 54.5734 119.936 54.5042C119.891 54.435 119.829 54.3808 119.751 54.3417C119.672 54.2996 119.585 54.2785 119.489 54.2785C119.393 54.2785 119.305 54.2996 119.227 54.3417C119.149 54.3808 119.087 54.435 119.042 54.5042C118.997 54.5734 118.974 54.6517 118.974 54.7389C118.974 54.8653 119.024 54.9737 119.123 55.064C119.222 55.1512 119.344 55.1949 119.489 55.1949ZM121.813 55.7365C121.702 55.7365 121.583 55.72 121.456 55.6869C121.33 55.6508 121.226 55.5996 121.145 55.5334C121.106 55.5003 121.074 55.4582 121.05 55.407C121.029 55.3529 121.018 55.3017 121.018 55.2535C121.018 55.2024 121.039 55.1542 121.082 55.1091C121.127 55.064 121.19 55.0414 121.271 55.0414C121.325 55.0414 121.393 55.07 121.474 55.1271C121.522 55.1572 121.575 55.1843 121.632 55.2084C121.689 55.2325 121.748 55.2445 121.808 55.2445C121.953 55.2445 122.078 55.2189 122.183 55.1678C122.288 55.1136 122.37 55.0399 122.427 54.9466C122.484 54.8533 122.513 54.7435 122.513 54.6171C122.513 54.5027 122.485 54.4049 122.431 54.3236C122.38 54.2424 122.311 54.1792 122.224 54.1341C122.139 54.0889 122.048 54.0663 121.948 54.0663C121.855 54.0663 121.774 54.0814 121.705 54.1115C121.635 54.1416 121.572 54.1732 121.515 54.2063C121.458 54.2364 121.401 54.2514 121.343 54.2514C121.244 54.2514 121.17 54.2304 121.122 54.1882C121.074 54.1431 121.044 54.0904 121.032 54.0302C121.02 53.97 121.017 53.9159 121.023 53.8677L121.163 52.7708C121.175 52.7076 121.205 52.6565 121.253 52.6173C121.304 52.5752 121.364 52.5541 121.434 52.5541H122.738C122.81 52.5541 122.871 52.5782 122.919 52.6264C122.967 52.6745 122.991 52.7347 122.991 52.8069C122.991 52.8761 122.967 52.9348 122.919 52.983C122.871 53.0281 122.81 53.0507 122.738 53.0507H121.574L121.623 53.0101L121.501 53.9264L121.443 53.7549C121.461 53.7248 121.5 53.6962 121.56 53.6691C121.62 53.642 121.689 53.6195 121.768 53.6014C121.846 53.5803 121.923 53.5698 121.998 53.5698C122.2 53.5698 122.38 53.6164 122.54 53.7097C122.699 53.8 122.824 53.9249 122.914 54.0844C123.008 54.2409 123.054 54.4184 123.054 54.6171C123.054 54.8428 123.003 55.0399 122.901 55.2084C122.798 55.3769 122.654 55.5078 122.467 55.6011C122.284 55.6914 122.066 55.7365 121.813 55.7365Z" fill="white"/>
        <path d="M158.814 45.7695H136.762C135.931 45.7695 135.258 46.4432 135.258 47.2742V50.7237C135.258 51.5547 135.931 52.2284 136.762 52.2284H158.814C159.645 52.2284 160.318 51.5547 160.318 50.7237V47.2742C160.318 46.4432 159.645 45.7695 158.814 45.7695Z" fill="#223A7A"/>
        <path d="M138.355 50.6943C138.257 50.6943 138.178 50.6604 138.118 50.589C138.057 50.5175 138.031 50.431 138.039 50.3256L138.133 49.4905C138.14 49.468 138.133 49.4567 138.121 49.4492C138.106 49.4416 138.091 49.4492 138.069 49.4604L137.38 49.957C137.294 50.0209 137.207 50.0435 137.117 50.0247C137.027 50.0059 136.951 49.9532 136.895 49.8592C136.831 49.7463 136.82 49.6485 136.857 49.562C136.895 49.4755 136.963 49.4191 137.053 49.3814L137.824 49.0316C137.847 49.0241 137.854 49.0128 137.854 49.0015C137.854 48.9902 137.843 48.9752 137.824 48.9714L137.053 48.6216C136.955 48.5802 136.891 48.5125 136.861 48.4222C136.835 48.3319 136.842 48.2379 136.891 48.1476C136.948 48.0573 137.023 48.0009 137.113 47.9821C137.204 47.9633 137.294 47.9821 137.377 48.0385L138.065 48.5463C138.088 48.5614 138.103 48.5651 138.118 48.5576C138.133 48.5501 138.136 48.5351 138.129 48.5162L138.035 47.6811C138.027 47.5758 138.057 47.4855 138.121 47.4178C138.185 47.3464 138.268 47.3125 138.377 47.3125C138.475 47.3125 138.558 47.3464 138.622 47.4178C138.686 47.4893 138.708 47.5758 138.697 47.6811L138.603 48.5162C138.595 48.5388 138.603 48.5501 138.614 48.5576C138.629 48.5651 138.644 48.5576 138.667 48.5463L139.355 48.0498C139.438 47.9858 139.528 47.9633 139.626 47.9821C139.72 48.0009 139.792 48.0536 139.844 48.1476C139.908 48.2605 139.919 48.3583 139.882 48.4448C139.844 48.5275 139.777 48.5877 139.686 48.6253L138.915 48.9752C138.893 48.9827 138.885 48.994 138.885 49.0053C138.885 49.0166 138.896 49.0316 138.915 49.0354L139.686 49.3852C139.784 49.4266 139.852 49.4943 139.882 49.5846C139.912 49.6749 139.901 49.7689 139.844 49.8592C139.795 49.9495 139.724 50.0059 139.626 50.0247C139.532 50.0435 139.442 50.0247 139.355 49.9683L138.667 49.4604C138.644 49.4454 138.629 49.4416 138.614 49.4492C138.599 49.4567 138.595 49.4717 138.603 49.4905L138.697 50.3256C138.712 50.431 138.686 50.5212 138.618 50.589C138.55 50.6604 138.464 50.6943 138.358 50.6943H138.355Z" fill="white"/>
        <path d="M142.913 50.6943C142.815 50.6943 142.736 50.6604 142.676 50.589C142.616 50.5175 142.59 50.431 142.597 50.3256L142.691 49.4905C142.699 49.468 142.691 49.4567 142.68 49.4492C142.665 49.4416 142.65 49.4492 142.627 49.4604L141.939 49.957C141.852 50.0209 141.766 50.0435 141.676 50.0247C141.585 50.0059 141.51 49.9532 141.454 49.8592C141.39 49.7463 141.378 49.6485 141.416 49.562C141.454 49.4755 141.521 49.4191 141.612 49.3814L142.383 49.0316C142.405 49.0241 142.413 49.0128 142.413 49.0015C142.413 48.9902 142.402 48.9752 142.383 48.9714L141.612 48.6216C141.514 48.5802 141.45 48.5125 141.42 48.4222C141.393 48.3319 141.401 48.2379 141.45 48.1476C141.506 48.0573 141.582 48.0009 141.672 47.9821C141.762 47.9633 141.852 47.9821 141.935 48.0385L142.624 48.5463C142.646 48.5614 142.661 48.5651 142.676 48.5576C142.691 48.5501 142.695 48.5351 142.687 48.5162L142.593 47.6811C142.586 47.5758 142.616 47.4855 142.68 47.4178C142.744 47.3464 142.827 47.3125 142.936 47.3125C143.034 47.3125 143.116 47.3464 143.18 47.4178C143.244 47.4893 143.267 47.5758 143.255 47.6811L143.161 48.5162C143.154 48.5388 143.158 48.5501 143.173 48.5576C143.188 48.5651 143.203 48.5576 143.225 48.5463L143.914 48.0498C143.997 47.9858 144.087 47.9633 144.185 47.9821C144.279 48.0009 144.35 48.0536 144.403 48.1476C144.467 48.2605 144.478 48.3583 144.44 48.4448C144.403 48.5275 144.335 48.5877 144.245 48.6253L143.474 48.9752C143.451 48.9827 143.444 48.994 143.444 49.0053C143.444 49.0166 143.455 49.0316 143.474 49.0354L144.245 49.3852C144.343 49.4266 144.41 49.4943 144.44 49.5846C144.471 49.6749 144.459 49.7689 144.403 49.8592C144.354 49.9495 144.282 50.0059 144.185 50.0247C144.091 50.0435 144 50.0247 143.914 49.9683L143.225 49.4604C143.203 49.4454 143.188 49.4416 143.173 49.4492C143.158 49.4567 143.154 49.4717 143.161 49.4905L143.255 50.3256C143.271 50.431 143.244 50.5212 143.177 50.589C143.109 50.6604 143.022 50.6943 142.917 50.6943H142.913Z" fill="white"/>
        <path d="M147.476 50.6943C147.378 50.6943 147.299 50.6604 147.239 50.589C147.179 50.5175 147.152 50.431 147.16 50.3256L147.254 49.4905C147.261 49.468 147.254 49.4567 147.242 49.4492C147.227 49.4416 147.212 49.4492 147.19 49.4604L146.501 49.957C146.415 50.0209 146.328 50.0435 146.238 50.0247C146.148 50.0059 146.073 49.9532 146.016 49.8592C145.952 49.7463 145.941 49.6485 145.979 49.562C146.016 49.4755 146.084 49.4191 146.174 49.3814L146.945 49.0316C146.968 49.0241 146.975 49.0128 146.975 49.0015C146.975 48.9902 146.964 48.9752 146.945 48.9714L146.174 48.6216C146.076 48.5802 146.012 48.5125 145.982 48.4222C145.956 48.3319 145.963 48.2379 146.012 48.1476C146.069 48.0573 146.144 48.0009 146.234 47.9821C146.325 47.9633 146.415 47.9821 146.498 48.0385L147.186 48.5463C147.209 48.5614 147.224 48.5651 147.239 48.5576C147.254 48.5501 147.258 48.5351 147.25 48.5162L147.156 47.6811C147.148 47.5758 147.179 47.4855 147.242 47.4178C147.306 47.3464 147.389 47.3125 147.498 47.3125C147.596 47.3125 147.679 47.3464 147.743 47.4178C147.807 47.4893 147.829 47.5758 147.818 47.6811L147.724 48.5162C147.716 48.5388 147.72 48.5501 147.735 48.5576C147.75 48.5651 147.765 48.5576 147.788 48.5463L148.476 48.0498C148.559 47.9858 148.649 47.9633 148.747 47.9821C148.841 48.0009 148.913 48.0536 148.965 48.1476C149.029 48.2605 149.041 48.3583 149.003 48.4448C148.965 48.5275 148.898 48.5877 148.807 48.6253L148.036 48.9752C148.014 48.9827 148.006 48.994 148.006 49.0053C148.006 49.0166 148.017 49.0316 148.036 49.0354L148.807 49.3852C148.905 49.4266 148.973 49.4943 149.003 49.5846C149.033 49.6749 149.022 49.7689 148.965 49.8592C148.916 49.9495 148.845 50.0059 148.747 50.0247C148.653 50.0435 148.563 50.0247 148.476 49.9683L147.788 49.4604C147.765 49.4454 147.75 49.4416 147.735 49.4492C147.72 49.4567 147.716 49.4717 147.724 49.4905L147.818 50.3256C147.833 50.431 147.807 50.5212 147.739 50.589C147.671 50.6604 147.585 50.6943 147.479 50.6943H147.476Z" fill="white"/>
        <path d="M152.034 50.6943C151.936 50.6943 151.857 50.6604 151.797 50.589C151.737 50.5175 151.711 50.431 151.718 50.3256L151.812 49.4905C151.82 49.468 151.812 49.4567 151.801 49.4492C151.786 49.4416 151.771 49.4492 151.748 49.4604L151.06 49.957C150.973 50.0209 150.887 50.0435 150.797 50.0247C150.706 50.0059 150.631 49.9532 150.575 49.8592C150.511 49.7463 150.499 49.6485 150.537 49.562C150.575 49.4755 150.642 49.4191 150.733 49.3814L151.504 49.0316C151.526 49.0241 151.534 49.0128 151.534 49.0015C151.534 48.9902 151.523 48.9752 151.504 48.9714L150.733 48.6216C150.635 48.5802 150.571 48.5125 150.541 48.4222C150.515 48.3319 150.522 48.2379 150.571 48.1476C150.627 48.0573 150.703 48.0009 150.793 47.9821C150.883 47.9633 150.973 47.9821 151.056 48.0385L151.745 48.5463C151.767 48.5614 151.782 48.5651 151.797 48.5576C151.812 48.5501 151.816 48.5351 151.809 48.5162L151.715 47.6811C151.707 47.5758 151.737 47.4855 151.801 47.4178C151.865 47.3464 151.948 47.3125 152.057 47.3125C152.155 47.3125 152.237 47.3464 152.301 47.4178C152.365 47.4893 152.388 47.5758 152.377 47.6811L152.283 48.5162C152.275 48.5388 152.279 48.5501 152.294 48.5576C152.309 48.5651 152.324 48.5576 152.346 48.5463L153.035 48.0498C153.118 47.9858 153.208 47.9633 153.306 47.9821C153.4 48.0009 153.471 48.0536 153.524 48.1476C153.588 48.2605 153.599 48.3583 153.562 48.4448C153.524 48.5275 153.456 48.5877 153.366 48.6253L152.595 48.9752C152.572 48.9827 152.565 48.994 152.565 49.0053C152.565 49.0166 152.576 49.0316 152.595 49.0354L153.366 49.3852C153.464 49.4266 153.531 49.4943 153.562 49.5846C153.592 49.6749 153.58 49.7689 153.524 49.8592C153.475 49.9495 153.404 50.0059 153.306 50.0247C153.212 50.0435 153.121 50.0247 153.035 49.9683L152.346 49.4604C152.324 49.4454 152.309 49.4416 152.294 49.4492C152.279 49.4567 152.275 49.4717 152.283 49.4905L152.377 50.3256C152.392 50.431 152.365 50.5212 152.298 50.589C152.23 50.6604 152.143 50.6943 152.038 50.6943H152.034Z" fill="white"/>
        <path d="M156.599 50.6943C156.501 50.6943 156.422 50.6604 156.362 50.589C156.302 50.5175 156.275 50.431 156.283 50.3256L156.377 49.4905C156.384 49.468 156.377 49.4567 156.365 49.4492C156.35 49.4416 156.335 49.4492 156.313 49.4604L155.624 49.957C155.538 50.0209 155.451 50.0435 155.361 50.0247C155.271 50.0059 155.196 49.9532 155.139 49.8592C155.075 49.7463 155.064 49.6485 155.102 49.562C155.139 49.4755 155.207 49.4191 155.297 49.3814L156.068 49.0316C156.091 49.0241 156.098 49.0128 156.098 49.0015C156.098 48.9902 156.087 48.9752 156.068 48.9714L155.297 48.6216C155.199 48.5802 155.135 48.5125 155.105 48.4222C155.079 48.3319 155.087 48.2379 155.135 48.1476C155.192 48.0573 155.267 48.0009 155.357 47.9821C155.448 47.9633 155.538 47.9821 155.621 48.0385L156.309 48.5463C156.332 48.5614 156.347 48.5651 156.362 48.5576C156.377 48.5501 156.381 48.5351 156.373 48.5162L156.279 47.6811C156.271 47.5758 156.302 47.4855 156.365 47.4178C156.429 47.3464 156.512 47.3125 156.621 47.3125C156.719 47.3125 156.802 47.3464 156.866 47.4178C156.93 47.4893 156.952 47.5758 156.941 47.6811L156.847 48.5162C156.839 48.5388 156.843 48.5501 156.858 48.5576C156.873 48.5651 156.888 48.5576 156.911 48.5463L157.599 48.0498C157.682 47.9858 157.772 47.9633 157.87 47.9821C157.964 48.0009 158.036 48.0536 158.088 48.1476C158.152 48.2605 158.164 48.3583 158.126 48.4448C158.088 48.5275 158.021 48.5877 157.93 48.6253L157.159 48.9752C157.137 48.9827 157.129 48.994 157.129 49.0053C157.129 49.0166 157.14 49.0316 157.159 49.0354L157.93 49.3852C158.028 49.4266 158.096 49.4943 158.126 49.5846C158.156 49.6749 158.145 49.7689 158.088 49.8592C158.039 49.9495 157.968 50.0059 157.87 50.0247C157.776 50.0435 157.686 50.0247 157.599 49.9683L156.911 49.4604C156.888 49.4454 156.873 49.4416 156.858 49.4492C156.843 49.4567 156.839 49.4717 156.847 49.4905L156.941 50.3256C156.956 50.431 156.93 50.5212 156.862 50.589C156.794 50.6604 156.708 50.6943 156.602 50.6943H156.599Z" fill="#67ACFF"/>
    </g>
    <defs>
        <clipPath id="clip0_467_2887">
            <rect width="165" height="124.058" fill="white" transform="translate(0 0.0429688)"/>
        </clipPath>
    </defs>
</svg>
