<svg width="52" height="52" viewBox="0 0 52 52" fill="none" xmlns="http://www.w3.org/2000/svg">
    <rect x="0.5" y="0.5" width="51" height="51" rx="17.5" fill="white"/>
    <rect x="0.5" y="0.5" width="51" height="51" rx="17.5" stroke="#D6DEED"/>
    <path d="M30.7502 17.56V16C30.7502 15.59 30.4102 15.25 30.0002 15.25C29.5902 15.25 29.2502 15.59 29.2502 16V17.5H22.7502V16C22.7502 15.59 22.4102 15.25 22.0002 15.25C21.5902 15.25 21.2502 15.59 21.2502 16V17.56C18.5502 17.81 17.2402 19.42 17.0402 21.81C17.0202 22.1 17.2602 22.34 17.5402 22.34H34.4602C34.7502 22.34 34.9902 22.09 34.9602 21.81C34.7602 19.42 33.4502 17.81 30.7502 17.56Z" fill="#2B343C"/>
    <path d="M34 23.8398H18C17.45 23.8398 17 24.2898 17 24.8398V30.9998C17 33.9998 18.5 35.9998 22 35.9998H30C33.5 35.9998 35 33.9998 35 30.9998V24.8398C35 24.2898 34.55 23.8398 34 23.8398ZM23.21 32.2098C23.16 32.2498 23.11 32.2998 23.06 32.3298C23 32.3698 22.94 32.3998 22.88 32.4198C22.82 32.4498 22.76 32.4698 22.7 32.4798C22.63 32.4898 22.57 32.4998 22.5 32.4998C22.37 32.4998 22.24 32.4698 22.12 32.4198C21.99 32.3698 21.89 32.2998 21.79 32.2098C21.61 32.0198 21.5 31.7598 21.5 31.4998C21.5 31.2398 21.61 30.9798 21.79 30.7898C21.89 30.6998 21.99 30.6298 22.12 30.5798C22.3 30.4998 22.5 30.4798 22.7 30.5198C22.76 30.5298 22.82 30.5498 22.88 30.5798C22.94 30.5998 23 30.6298 23.06 30.6698C23.11 30.7098 23.16 30.7498 23.21 30.7898C23.39 30.9798 23.5 31.2398 23.5 31.4998C23.5 31.7598 23.39 32.0198 23.21 32.2098ZM23.21 28.7098C23.02 28.8898 22.76 28.9998 22.5 28.9998C22.24 28.9998 21.98 28.8898 21.79 28.7098C21.61 28.5198 21.5 28.2598 21.5 27.9998C21.5 27.7398 21.61 27.4798 21.79 27.2898C22.07 27.0098 22.51 26.9198 22.88 27.0798C23.01 27.1298 23.12 27.1998 23.21 27.2898C23.39 27.4798 23.5 27.7398 23.5 27.9998C23.5 28.2598 23.39 28.5198 23.21 28.7098ZM26.71 32.2098C26.52 32.3898 26.26 32.4998 26 32.4998C25.74 32.4998 25.48 32.3898 25.29 32.2098C25.11 32.0198 25 31.7598 25 31.4998C25 31.2398 25.11 30.9798 25.29 30.7898C25.66 30.4198 26.34 30.4198 26.71 30.7898C26.89 30.9798 27 31.2398 27 31.4998C27 31.7598 26.89 32.0198 26.71 32.2098ZM26.71 28.7098C26.66 28.7498 26.61 28.7898 26.56 28.8298C26.5 28.8698 26.44 28.8998 26.38 28.9198C26.32 28.9498 26.26 28.9698 26.2 28.9798C26.13 28.9898 26.07 28.9998 26 28.9998C25.74 28.9998 25.48 28.8898 25.29 28.7098C25.11 28.5198 25 28.2598 25 27.9998C25 27.7398 25.11 27.4798 25.29 27.2898C25.38 27.1998 25.49 27.1298 25.62 27.0798C25.99 26.9198 26.43 27.0098 26.71 27.2898C26.89 27.4798 27 27.7398 27 27.9998C27 28.2598 26.89 28.5198 26.71 28.7098ZM30.21 32.2098C30.02 32.3898 29.76 32.4998 29.5 32.4998C29.24 32.4998 28.98 32.3898 28.79 32.2098C28.61 32.0198 28.5 31.7598 28.5 31.4998C28.5 31.2398 28.61 30.9798 28.79 30.7898C29.16 30.4198 29.84 30.4198 30.21 30.7898C30.39 30.9798 30.5 31.2398 30.5 31.4998C30.5 31.7598 30.39 32.0198 30.21 32.2098ZM30.21 28.7098C30.16 28.7498 30.11 28.7898 30.06 28.8298C30 28.8698 29.94 28.8998 29.88 28.9198C29.82 28.9498 29.76 28.9698 29.7 28.9798C29.63 28.9898 29.56 28.9998 29.5 28.9998C29.24 28.9998 28.98 28.8898 28.79 28.7098C28.61 28.5198 28.5 28.2598 28.5 27.9998C28.5 27.7398 28.61 27.4798 28.79 27.2898C28.89 27.1998 28.99 27.1298 29.12 27.0798C29.3 26.9998 29.5 26.9798 29.7 27.0198C29.76 27.0298 29.82 27.0498 29.88 27.0798C29.94 27.0998 30 27.1298 30.06 27.1698C30.11 27.2098 30.16 27.2498 30.21 27.2898C30.39 27.4798 30.5 27.7398 30.5 27.9998C30.5 28.2598 30.39 28.5198 30.21 28.7098Z" fill="#2B343C"/>
</svg>
