<svg width="20" height="20" viewBox="0 0 20 20" fill="none" xmlns="http://www.w3.org/2000/svg">
    <path d="M5.80837 7.09927L14.1083 7.08707C14.3145 7.07051 14.4653 7.23828 14.5098 7.42524C14.5739 7.69629 14.5961 8.24712 14.6083 8.54432C14.658 9.72442 14.6528 11.3416 14.4723 12.4995C14.4444 12.6781 14.3559 12.7901 14.2038 12.8834L6.01369 12.9178C5.4871 12.9204 5.51107 12.3683 5.47184 11.9809C5.36504 10.9272 5.34063 9.6913 5.38291 8.63104C5.39599 8.29854 5.41691 7.73551 5.48143 7.42524C5.51674 7.25484 5.64447 7.14372 5.80794 7.09927H5.80837Z" fill="#ACB1B6"/>
    <path d="M14.0694 5.46334C13.9578 5.57272 13.739 5.60715 13.586 5.61063C11.2494 5.45898 8.66964 5.80586 6.36188 5.61063C6.04148 5.58361 5.81 5.46465 5.81654 5.10905C5.82962 4.39175 6.42247 2.6617 6.70059 1.94527C6.8209 1.63543 7.26118 0.529852 7.47522 0.371664C7.65874 0.236135 8.37191 0.128062 8.63128 0.0923274C9.70801 -0.054531 10.8894 -0.0301272 11.9534 0.193865C12.2642 0.259232 12.4691 0.246594 12.657 0.53421C13.1814 1.33779 14.0816 4.03136 14.1653 4.98311C14.1801 5.15175 14.1997 5.33478 14.0685 5.4629L14.0694 5.46334Z" fill="#ACB1B6"/>
    <path d="M14.0694 14.5368C13.9578 14.4274 13.739 14.393 13.586 14.3895C11.2494 14.5411 8.66964 14.1942 6.36188 14.3895C6.04148 14.4165 5.81 14.5355 5.81654 14.891C5.82962 15.6083 6.42247 17.3384 6.70059 18.0548C6.8209 18.3647 7.26118 19.4702 7.47522 19.6284C7.65874 19.764 8.37191 19.872 8.63128 19.9078C9.70801 20.0546 10.8894 20.0302 11.9534 19.8062C12.2642 19.7409 12.4691 19.7535 12.657 19.4659C13.1814 18.6623 14.0816 15.9687 14.1653 15.017C14.1801 14.8483 14.1997 14.6653 14.0685 14.5372L14.0694 14.5368Z" fill="#ACB1B6"/>
    <path d="M16.3355 7.09596L19.2853 7.08594C19.6982 7.13082 19.7479 7.73917 19.8154 8.07821C20.0726 9.37292 20.0687 10.8463 19.7636 12.1319C19.6799 12.4835 19.6781 12.8762 19.2431 12.9163C18.3315 12.9999 17.2945 12.8492 16.369 12.915C16.1358 12.8932 15.971 12.687 15.9654 12.4574C15.9562 12.0883 16.0691 11.5836 16.087 11.1958C16.1437 9.94728 16.0918 8.70574 16.043 7.45548C16.0504 7.28553 16.1807 7.14825 16.3359 7.09596H16.3355Z" fill="#ACB1B6"/>
    <path d="M16.0324 14.4032C16.3707 14.3465 17.9417 14.343 18.2735 14.4032C18.545 14.4524 18.6993 14.7013 18.6435 14.9701C18.593 15.2142 17.9299 16.094 17.7386 16.3267C17.2765 16.8893 16.0019 18.1522 15.3624 18.4302C14.994 18.5906 14.6435 18.3505 14.7041 17.9478C14.899 17.4218 15.0856 16.8898 15.2386 16.3498C15.3707 15.884 15.4779 15.0621 15.6492 14.6729C15.7176 14.5174 15.8693 14.4306 16.0319 14.4032H16.0324Z" fill="#ACB1B6"/>
    <path d="M18.5509 5.46235C18.4716 5.54253 18.309 5.59526 18.1961 5.6079C17.7375 5.65975 16.7052 5.65104 16.2371 5.60964C15.9398 5.58349 15.7985 5.51072 15.7153 5.21831C15.5496 4.6361 15.4568 3.93929 15.3003 3.32832C15.2214 3.02066 14.9829 2.45327 14.9576 2.18919C14.9223 1.82531 15.2597 1.5987 15.5963 1.72813C15.9027 1.84623 16.8452 2.68598 17.1106 2.95355C17.4768 3.32266 18.4489 4.47661 18.6194 4.92416C18.6839 5.09367 18.6834 5.329 18.5514 5.46235H18.5509Z" fill="#ACB1B6"/>
    <path d="M3.66542 7.09596L0.715539 7.08594C0.302722 7.13082 0.253027 7.73917 0.185459 8.07821C-0.0717342 9.37292 -0.0678109 10.8463 0.237334 12.1319C0.32103 12.4835 0.322774 12.8762 0.757823 12.9163C1.66933 12.9999 2.70639 12.8492 3.63185 12.915C3.86507 12.8932 4.02985 12.687 4.03551 12.4574C4.04467 12.0883 3.93176 11.5836 3.91389 11.1958C3.85722 9.94728 3.9091 8.70574 3.95792 7.45548C3.95051 7.28553 3.82017 7.14825 3.66498 7.09596H3.66542Z" fill="#ACB1B6"/>
    <path d="M3.97016 14.4032C3.63189 14.3465 2.06083 14.343 1.72909 14.4032C1.45752 14.4524 1.3032 14.7013 1.359 14.9701C1.40956 15.2142 2.0726 16.094 2.26397 16.3267C2.72604 16.8893 4.00068 18.1522 4.64017 18.4302C5.00853 18.5906 5.35901 18.3505 5.29841 17.9478C5.10356 17.4218 4.91698 16.8898 4.76397 16.3498C4.63189 15.884 4.52465 15.0621 4.35334 14.6729C4.2849 14.5174 4.1332 14.4306 3.9706 14.4032H3.97016Z" fill="#ACB1B6"/>
    <path d="M1.45029 5.46235C1.52962 5.54253 1.69222 5.59526 1.80513 5.6079C2.26371 5.65975 3.29598 5.65104 3.76415 5.60964C4.06145 5.58349 4.20269 5.51072 4.28595 5.21831C4.4516 4.6361 4.54445 3.93929 4.70095 3.32832C4.77985 3.02066 5.0183 2.45327 5.04358 2.18919C5.07889 1.82531 4.74149 1.5987 4.40496 1.72813C4.09851 1.84623 3.15604 2.68598 2.89057 2.95355C2.5244 3.32266 1.55229 4.47661 1.38185 4.92416C1.31733 5.09367 1.31777 5.329 1.44985 5.46235H1.45029Z" fill="#ACB1B6"/>
</svg>
