<svg width="25" height="25" viewBox="0 0 25 25" fill="none" xmlns="http://www.w3.org/2000/svg">
    <path d="M16.5 13C16.5 14.933 14.933 16.5 13 16.5C11.067 16.5 9.5 14.933 9.5 13C9.5 11.067 11.067 9.5 13 9.5C14.933 9.5 16.5 11.067 16.5 13Z" stroke="white"/>
    <path d="M21.7156 12.3578C21.8509 12.6288 21.9185 12.7643 21.9185 13C21.9185 13.2357 21.8509 13.3712 21.7156 13.6422C20.943 15.1902 18.4842 19 13 19C7.51581 19 5.05703 15.1902 4.28437 13.6422C4.14909 13.3712 4.08145 13.2357 4.08145 13C4.08145 12.7643 4.14909 12.6288 4.28437 12.3578C5.05703 10.8098 7.51581 7 13 7C18.4842 7 20.943 10.8098 21.7156 12.3578Z" stroke="white"/>
    <path d="M19.4474 0.5H20.7C22.4913 0.5 23.387 0.5 23.9435 1.0565C24.5 1.61299 24.5 2.50866 24.5 4.3V6.14706M19.4474 24.5H20.7C22.4913 24.5 23.387 24.5 23.9435 23.9435C24.5 23.387 24.5 22.4913 24.5 20.7V18.8529M5.55263 0.5H4.3C2.50866 0.5 1.61299 0.5 1.0565 1.0565C0.5 1.61299 0.5 2.50866 0.5 4.3V6.14706M5.55263 24.5H4.3C2.50866 24.5 1.61299 24.5 1.0565 23.9435C0.5 23.387 0.5 22.4913 0.5 20.7V18.8529" stroke="#EAEEFA" stroke-opacity="0.25" stroke-linecap="round"/>
</svg>
