<svg width="36" height="36" viewBox="0 0 36 36" fill="none" xmlns="http://www.w3.org/2000/svg">
    <rect width="36" height="36" rx="18" fill="#3DA000"/>
    <g clip-path="url(#clip0_1535_1121)">
        <path d="M24.8626 12.7383C25.2226 11.7425 24.2576 10.7775 23.2618 11.1383L11.0909 15.54C10.0918 15.9017 9.97095 17.265 10.8901 17.7975L14.7751 20.0467L18.2443 16.5775C18.4015 16.4257 18.612 16.3417 18.8305 16.3436C19.0489 16.3455 19.258 16.4331 19.4125 16.5876C19.567 16.7422 19.6546 16.9512 19.6565 17.1697C19.6584 17.3882 19.5744 17.5987 19.4226 17.7558L15.9534 21.225L18.2034 25.11C18.7351 26.0292 20.0984 25.9075 20.4601 24.9092L24.8626 12.7383Z" fill="white"/>
    </g>
    <defs>
        <clipPath id="clip0_1535_1121">
            <rect width="20" height="20" fill="white" transform="translate(8 8)"/>
        </clipPath>
    </defs>
</svg>
