<svg width="24" height="22" viewBox="0 0 24 22" fill="none" xmlns="http://www.w3.org/2000/svg">
<path d="M2.66667 0C1.19583 0 0 1.19583 0 2.66667V18.6667C0 20.1375 1.19583 21.3333 2.66667 21.3333H13.3333C14.8042 21.3333 16 20.1375 16 18.6667V17.8625C15.8875 17.9083 15.775 17.9458 15.6583 17.975L13.1542 18.6C13.0292 18.6292 12.9042 18.65 12.7792 18.6583C12.7417 18.6625 12.7042 18.6667 12.6667 18.6667H10C9.74583 18.6667 9.51667 18.525 9.40417 18.3L9.0375 17.5625C8.96667 17.4208 8.825 17.3333 8.67083 17.3333C8.51667 17.3333 8.37083 17.4208 8.30417 17.5625L7.9375 18.3C7.81667 18.5458 7.55417 18.6917 7.28333 18.6667C7.0125 18.6417 6.77917 18.4542 6.70417 18.1958L6 15.875L5.59167 17.2417C5.3375 18.0875 4.55833 18.6667 3.675 18.6667H3.33333C2.96667 18.6667 2.66667 18.3667 2.66667 18C2.66667 17.6333 2.96667 17.3333 3.33333 17.3333H3.675C3.97083 17.3333 4.22917 17.1417 4.3125 16.8583L4.93333 14.7958C5.075 14.325 5.50833 14 6 14C6.49167 14 6.925 14.325 7.06667 14.7958L7.55 16.4042C7.85833 16.1458 8.25 16 8.66667 16C9.32917 16 9.93333 16.375 10.2292 16.9667L10.4125 17.3333H10.7833C10.6542 16.9667 10.6292 16.5667 10.725 16.175L11.35 13.6708C11.4667 13.2 11.7083 12.775 12.05 12.4333L16 8.48333V6.66667H10.6667C9.92917 6.66667 9.33333 6.07083 9.33333 5.33333V0H2.66667ZM10.6667 0V5.33333H16L10.6667 0ZM22.9083 5.82083C22.2583 5.17083 21.2042 5.17083 20.55 5.82083L19.325 7.04583L22.2833 10.0042L23.5083 8.77917C24.1583 8.12917 24.1583 7.075 23.5083 6.42083L22.9083 5.82083ZM12.9958 13.375C12.825 13.5458 12.7042 13.7583 12.6458 13.9958L12.0208 16.5C11.9625 16.7292 12.0292 16.9667 12.1958 17.1333C12.3625 17.3 12.6 17.3667 12.8292 17.3083L15.3333 16.6833C15.5667 16.625 15.7833 16.5042 15.9542 16.3333L21.3375 10.9458L18.3792 7.9875L12.9958 13.375Z" fill="white"/>
</svg>
