<svg width="11" height="9" viewBox="0 0 11 9" fill="none" xmlns="http://www.w3.org/2000/svg">
    <path d="M9.22215 0.118221C9.01129 -0.060088 8.69581 -0.033703 8.5175 0.177154L3.85917 5.6858L1.39554 3.57127C1.186 3.39142 0.870334 3.41549 0.690483 3.62503L0.120598 4.289C-0.0592531 4.49854 -0.035183 4.81421 0.17436 4.99406L2.95205 7.37815C2.97247 7.40399 2.99576 7.42818 3.02188 7.45026L3.69001 8.01526C3.81146 8.11797 3.96763 8.15276 4.11231 8.12351C4.21893 8.10274 4.31957 8.04724 4.39581 7.95842L4.9657 7.29445C4.98727 7.26932 5.0059 7.24266 5.02164 7.2149L9.94921 1.38787C10.1275 1.17701 10.1011 0.86153 9.89028 0.683221L9.22215 0.118221Z" fill="white"/>
</svg>
