<svg width="38" height="30" viewBox="0 0 38 30" fill="none" xmlns="http://www.w3.org/2000/svg">
    <path d="M3.99993 28.75C3.99966 28.5858 4.0319 28.4232 4.09479 28.2716C4.15768 28.1199 4.24997 27.9822 4.36634 27.8664L31.8663 0.366421C32.1027 0.141896 32.4174 0.0185732 32.7433 0.0227464C33.0693 0.0269196 33.3807 0.158258 33.6112 0.38876C33.8417 0.619262 33.973 0.930689 33.9772 1.25664C33.9814 1.58259 33.858 1.89728 33.6335 2.13361L6.13352 29.6336C5.95871 29.8083 5.73603 29.9273 5.49363 29.9754C5.25123 30.0236 4.99999 29.9989 4.77165 29.9043C4.54332 29.8098 4.34814 29.6496 4.21078 29.4442C4.07342 29.2387 4.00004 28.9972 3.99993 28.75ZM23.0624 28.711C23.3309 28.6416 23.5686 28.4851 23.7383 28.2659C23.908 28.0467 24.0001 27.7772 23.9999 27.5L23.9999 18.9992L36.0601 21.2031C36.0835 21.207 36.1062 21.211 36.1296 21.2133C36.4423 21.2531 36.7595 21.1892 37.0325 21.0316C37.3054 20.8739 37.5192 20.6311 37.641 20.3403C37.7628 20.0496 37.7859 19.7269 37.7068 19.4217C37.6277 19.1166 37.4508 18.8458 37.2031 18.6508L28.2609 11.418C28.2007 11.3694 28.1247 11.3448 28.0475 11.349C27.9703 11.3532 27.8974 11.3858 27.8429 11.4406L16.046 23.2375C16.015 23.2685 15.9909 23.3056 15.9751 23.3465C15.9594 23.3874 15.9525 23.4312 15.9547 23.4749C15.957 23.5187 15.9685 23.5615 15.9884 23.6005C16.0083 23.6396 16.0362 23.674 16.0702 23.7016L21.9421 28.4516C22.0956 28.5793 22.2769 28.6692 22.4715 28.7143C22.666 28.7593 22.8684 28.7582 23.0624 28.711ZM10.157 18.5602L21.9538 6.7633C21.9847 6.73234 22.0088 6.69525 22.0244 6.65442C22.0401 6.61359 22.047 6.56994 22.0447 6.52627C22.0424 6.48261 22.031 6.43991 22.0112 6.40094C21.9913 6.36196 21.9636 6.32758 21.9296 6.30001L16.0593 1.54689C15.9055 1.41922 15.7238 1.3294 15.529 1.28463C15.3342 1.23985 15.1316 1.24138 14.9374 1.28908C14.669 1.35838 14.4312 1.51496 14.2615 1.73417C14.0918 1.95338 13.9998 2.22279 13.9999 2.50001L13.9999 11.0024L1.94056 8.80783L1.93196 8.80783C1.61771 8.75366 1.29436 8.80571 1.01297 8.95574C0.731582 9.10578 0.508178 9.34526 0.378025 9.63638C0.247871 9.9275 0.218383 10.2537 0.29422 10.5634C0.370052 10.8732 0.546886 11.1488 0.796806 11.3469L9.73899 18.582C9.79903 18.6307 9.87498 18.6555 9.95218 18.6514C10.0294 18.6474 10.1023 18.6149 10.157 18.5602Z" fill="white"/>
</svg>
