<svg width="32" height="32" viewBox="0 0 32 32" fill="none" xmlns="http://www.w3.org/2000/svg">
    <path d="M8.9344 0C9.2208 0.100815 9.4528 0.262439 9.5552 0.563284C9.736 1.09776 9.3392 1.63545 8.752 1.64505C8.2992 1.65305 7.8464 1.64505 7.3936 1.64665C6.6288 1.64665 5.864 1.63545 5.0992 1.65145C3.1856 1.68985 1.6864 3.18608 1.6544 5.09836C1.6352 6.30014 1.648 7.50192 1.6496 8.70531C1.6496 9.02375 1.5392 9.28619 1.2672 9.46382C0.8256 9.75186 0.2512 9.55823 0.0544 9.06216C0.0368 9.01895 0.0176 8.97735 0 8.93574C0 7.56113 0 6.18653 0 4.81192C0.0096 4.77192 0.0224 4.73191 0.0272 4.6919C0.2384 2.42276 1.848 0.604891 4.0768 0.123218C4.3184 0.0704105 4.5664 0.040006 4.8112 0H8.9344Z" fill="white"/>
    <path d="M27.1777 0C27.4337 0.0416062 27.6913 0.073611 27.9441 0.128019C30.1441 0.60009 31.7841 2.47557 31.9617 4.71911C31.9777 4.92714 31.9857 5.13517 31.9873 5.3432C31.9889 6.48417 31.9905 7.62354 31.9873 8.76451C31.9873 9.16938 31.7105 9.50383 31.3265 9.58384C30.9569 9.66065 30.5729 9.46862 30.4209 9.10697C30.3665 8.97735 30.3441 8.82532 30.3441 8.6829C30.3377 7.53713 30.3409 6.39136 30.3409 5.24719C30.3409 4.16382 29.9585 3.24369 29.1441 2.52198C28.5441 1.9891 27.8337 1.68185 27.0321 1.66425C25.7841 1.63545 24.5329 1.65145 23.2849 1.65145C22.9649 1.65145 22.7025 1.54103 22.5265 1.26899C22.2385 0.827324 22.4321 0.252838 22.9281 0.0560084C22.9713 0.0384058 23.0129 0.0208031 23.0545 0.00160024C24.4289 0.00160024 25.8033 0.00160024 27.1777 0.00160024V0Z" fill="white"/>
    <path d="M0 23.0579C0.1008 22.7714 0.2624 22.5394 0.5648 22.437C1.0992 22.2561 1.6384 22.653 1.6464 23.2419C1.6544 23.8036 1.6464 24.3669 1.648 24.9285C1.648 25.5846 1.6384 26.2407 1.6528 26.8968C1.6928 28.8107 3.1888 30.3086 5.104 30.3406C6.3056 30.3598 7.5088 30.3454 8.712 30.347C9.1232 30.347 9.44 30.5646 9.5568 30.915C9.7296 31.4399 9.3408 31.9872 8.7808 31.992C7.9584 31.9984 7.136 31.9968 6.3136 31.992C5.7824 31.9888 5.2496 32.0032 4.7216 31.9632C2.4768 31.7936 0.6032 30.1485 0.1296 27.9482C0.0752 27.6954 0.0432 27.4361 0.0016 27.1817V23.0579H0Z" fill="white"/>
    <path d="M25.1649 30.3438C25.7425 30.3438 26.3217 30.355 26.8993 30.3422C28.8033 30.3005 30.3025 28.8059 30.3361 26.9C30.3569 25.6983 30.3409 24.4949 30.3425 23.2915C30.3425 22.8818 30.5441 22.5746 30.8881 22.4466C31.3905 22.2609 31.9777 22.6242 31.9825 23.1603C31.9921 24.5301 32.0321 25.9015 31.9521 27.2665C31.8241 29.4364 30.2929 31.2463 28.1937 31.7984C27.7505 31.9152 27.2817 31.976 26.8241 31.9856C25.6225 32.0112 24.4193 31.9968 23.2161 31.9936C22.8225 31.9936 22.4913 31.7152 22.4113 31.3359C22.3329 30.963 22.5313 30.5694 22.8977 30.4206C23.0193 30.371 23.1601 30.3518 23.2929 30.3502C23.9169 30.3438 24.5425 30.347 25.1665 30.347V30.3438H25.1649Z" fill="white"/>
    <path d="M16.2625 22.6162C13.8689 22.6178 12.0065 21.9217 10.4257 20.4815C10.0433 20.1326 9.99206 19.6238 10.3105 19.2589C10.6241 18.8972 11.1553 18.8716 11.5361 19.2173C12.2865 19.9006 13.1281 20.4351 14.1169 20.6799C16.4337 21.2576 18.5553 20.8975 20.3825 19.2733C20.6417 19.0429 20.9169 18.91 21.2625 19.0029C21.8977 19.1725 22.1073 19.9646 21.6273 20.4175C20.7489 21.248 19.7377 21.8609 18.5825 22.2289C17.7425 22.4962 16.8817 22.6194 16.2625 22.6162Z" fill="white"/>
    <path d="M17.6801 10.2751C17.6801 11.2225 17.6833 12.1698 17.6801 13.1172C17.6769 13.8901 17.4129 14.5414 16.7665 15.0039C16.3905 15.2727 15.9633 15.3911 15.5057 15.4023C15.2465 15.4087 14.9825 15.4183 14.7265 15.3847C14.3009 15.3271 13.9969 14.9222 14.0321 14.503C14.0673 14.0757 14.4193 13.7365 14.8465 13.7253C15.0289 13.7205 15.2113 13.7253 15.3937 13.7237C15.8273 13.7189 15.9953 13.5508 15.9953 13.1124C15.9953 11.1809 15.9953 9.24939 15.9953 7.3179C15.9953 6.98986 16.1201 6.72902 16.3969 6.55459C16.6689 6.38336 16.9569 6.37376 17.2417 6.53379C17.5345 6.69861 17.6801 6.95625 17.6801 7.2907C17.6833 8.28445 17.6801 9.2798 17.6801 10.2735V10.2751Z" fill="white"/>
    <path d="M8.69751 10.0207C8.69751 9.65585 8.69751 9.2926 8.69751 8.92774C8.69751 8.6173 8.80311 8.35486 9.05911 8.17083C9.52311 7.83958 10.1631 8.11482 10.2767 8.69091C10.2815 8.71651 10.2879 8.74212 10.2879 8.76772C10.2879 9.60945 10.3071 10.4528 10.2783 11.2945C10.2639 11.7266 9.88951 12.0274 9.48631 12.0226C9.08631 12.0178 8.73751 11.6994 8.71351 11.2689C8.68951 10.8544 8.70871 10.4368 8.70871 10.0207H8.69911H8.69751Z" fill="white"/>
    <path d="M21.8927 10.0159C21.8927 9.61584 21.8831 9.21418 21.8959 8.81412C21.9071 8.44447 22.1823 8.11962 22.5199 8.04601C23.0031 7.94199 23.4703 8.30524 23.4831 8.83332C23.5007 9.62864 23.4991 10.4256 23.4831 11.2225C23.4735 11.6866 23.1007 12.029 22.6703 12.0226C22.2431 12.0146 21.9039 11.6561 21.8927 11.1873C21.8847 10.7968 21.8911 10.4064 21.8911 10.0159H21.8943H21.8927Z" fill="white"/>
</svg>
