<svg width="33" height="32" viewBox="0 0 33 32" fill="none" xmlns="http://www.w3.org/2000/svg">
    <g clip-path="url(#clip0_142_743)">
        <path d="M9.4344 0C9.7208 0.100815 9.9528 0.262439 10.0552 0.563284C10.236 1.09776 9.8392 1.63545 9.252 1.64505C8.7992 1.65305 8.3464 1.64505 7.8936 1.64665C7.1288 1.64665 6.364 1.63545 5.5992 1.65145C3.6856 1.68985 2.1864 3.18608 2.1544 5.09836C2.1352 6.30014 2.148 7.50192 2.1496 8.70531C2.1496 9.02375 2.0392 9.28619 1.7672 9.46382C1.3256 9.75186 0.7512 9.55823 0.5544 9.06216C0.5368 9.01895 0.5176 8.97735 0.5 8.93574C0.5 7.56113 0.5 6.18653 0.5 4.81192C0.5096 4.77192 0.5224 4.73191 0.5272 4.6919C0.7384 2.42276 2.348 0.604891 4.5768 0.123218C4.8184 0.0704105 5.0664 0.040006 5.3112 0H9.4344Z" fill="white"/>
        <path d="M27.6777 0C27.9337 0.0416062 28.1913 0.073611 28.4441 0.128019C30.6441 0.60009 32.2841 2.47557 32.4617 4.71911C32.4777 4.92714 32.4857 5.13517 32.4873 5.3432C32.4889 6.48417 32.4905 7.62354 32.4873 8.76451C32.4873 9.16938 32.2105 9.50383 31.8265 9.58384C31.4569 9.66065 31.0729 9.46862 30.9209 9.10697C30.8665 8.97735 30.8441 8.82532 30.8441 8.6829C30.8377 7.53713 30.8409 6.39136 30.8409 5.24719C30.8409 4.16382 30.4585 3.24369 29.6441 2.52198C29.0441 1.9891 28.3337 1.68185 27.5321 1.66425C26.2841 1.63545 25.0329 1.65145 23.7849 1.65145C23.4649 1.65145 23.2025 1.54103 23.0265 1.26899C22.7385 0.827324 22.9321 0.252838 23.4281 0.0560084C23.4713 0.0384058 23.5129 0.0208031 23.5545 0.00160024C24.9289 0.00160024 26.3033 0.00160024 27.6777 0.00160024V0Z" fill="white"/>
        <path d="M0.5 23.0579C0.6008 22.7714 0.7624 22.5394 1.0648 22.437C1.5992 22.2561 2.1384 22.653 2.1464 23.2419C2.1544 23.8036 2.1464 24.3669 2.148 24.9285C2.148 25.5846 2.1384 26.2407 2.1528 26.8968C2.1928 28.8107 3.6888 30.3086 5.604 30.3406C6.8056 30.3598 8.0088 30.3454 9.212 30.347C9.6232 30.347 9.94 30.5646 10.0568 30.915C10.2296 31.4399 9.8408 31.9872 9.2808 31.992C8.4584 31.9984 7.636 31.9968 6.8136 31.992C6.2824 31.9888 5.7496 32.0032 5.2216 31.9632C2.9768 31.7936 1.1032 30.1485 0.6296 27.9482C0.5752 27.6954 0.5432 27.4361 0.5016 27.1817V23.0579H0.5Z" fill="white"/>
        <path d="M25.6649 30.3438C26.2425 30.3438 26.8217 30.355 27.3993 30.3422C29.3033 30.3005 30.8025 28.8059 30.8361 26.9C30.8569 25.6983 30.8409 24.4949 30.8425 23.2915C30.8425 22.8818 31.0441 22.5746 31.3881 22.4466C31.8905 22.2609 32.4777 22.6242 32.4825 23.1603C32.4921 24.5301 32.5321 25.9015 32.4521 27.2665C32.3241 29.4364 30.7929 31.2463 28.6937 31.7984C28.2505 31.9152 27.7817 31.976 27.3241 31.9856C26.1225 32.0112 24.9193 31.9968 23.7161 31.9936C23.3225 31.9936 22.9913 31.7152 22.9113 31.3359C22.8329 30.963 23.0313 30.5694 23.3977 30.4206C23.5193 30.371 23.6601 30.3518 23.7929 30.3502C24.4169 30.3438 25.0425 30.347 25.6665 30.347V30.3438H25.6649Z" fill="white"/>
        <path d="M19.9624 25.8167C17.5688 25.8183 15.7064 25.1222 14.1256 23.682C13.7432 23.3331 13.692 22.8242 14.0104 22.4594C14.324 22.0977 14.8552 22.0721 15.236 22.4178C15.9864 23.1011 16.828 23.6355 17.8168 23.8804C20.1336 24.4581 22.2552 24.098 24.0824 22.4738C24.3416 22.2433 24.6168 22.1105 24.9624 22.2033C25.5976 22.373 25.8072 23.1651 25.3272 23.6179C24.4488 24.4485 23.4376 25.0614 22.2824 25.4294C21.4424 25.6967 20.5816 25.8199 19.9624 25.8167Z" fill="white"/>
        <path d="M22.9801 15.0759C22.9801 16.0232 22.9833 16.9706 22.9801 17.9179C22.9769 18.6908 22.7129 19.3421 22.0665 19.8046C21.6905 20.0734 21.2633 20.1918 20.8057 20.203C20.5465 20.2094 20.2825 20.219 20.0265 20.1854C19.6009 20.1278 19.2969 19.723 19.3321 19.3037C19.3673 18.8764 19.7193 18.5372 20.1465 18.526C20.3289 18.5212 20.5113 18.526 20.6937 18.5244C21.1273 18.5196 21.2953 18.3516 21.2953 17.9131C21.2953 15.9816 21.2953 14.0501 21.2953 12.1186C21.2953 11.7906 21.4201 11.5297 21.6969 11.3553C21.9689 11.1841 22.2569 11.1745 22.5417 11.3345C22.8345 11.4993 22.9801 11.757 22.9801 12.0914C22.9833 13.0852 22.9801 14.0805 22.9801 15.0743V15.0759Z" fill="white"/>
        <path d="M12.3977 13.2212C12.3977 12.8563 12.3977 12.4931 12.3977 12.1282C12.3977 11.8178 12.5033 11.5553 12.7593 11.3713C13.2233 11.0401 13.8633 11.3153 13.9769 11.8914C13.9817 11.917 13.9881 11.9426 13.9881 11.9682C13.9881 12.8099 14.0073 13.6532 13.9785 14.495C13.9641 14.927 13.5897 15.2279 13.1865 15.2231C12.7865 15.2183 12.4377 14.8998 12.4137 14.4694C12.3897 14.0549 12.4089 13.6372 12.4089 13.2212H12.3993H12.3977Z" fill="white"/>
        <path d="M25.5929 13.2164C25.5929 12.8163 25.5833 12.4147 25.5961 12.0146C25.6073 11.6449 25.8825 11.3201 26.2201 11.2465C26.7033 11.1425 27.1705 11.5057 27.1833 12.0338C27.2009 12.8291 27.1993 13.626 27.1833 14.423C27.1737 14.887 26.8009 15.2295 26.3705 15.2231C25.9433 15.2151 25.6041 14.8566 25.5929 14.3877C25.5849 13.9973 25.5913 13.6068 25.5913 13.2164H25.5945H25.5929Z" fill="white"/>
    </g>
    <defs>
        <clipPath id="clip0_142_743">
            <rect width="32" height="32" fill="white" transform="translate(0.5)"/>
        </clipPath>
    </defs>
</svg>
