<svg width="29" height="29" viewBox="0 0 29 29" fill="none" xmlns="http://www.w3.org/2000/svg">
    <path d="M14.5 0.5C10.8009 0.544883 7.26597 2.03429 4.65013 4.65013C2.03429 7.26597 0.544883 10.8009 0.5 14.5C0.544883 18.1991 2.03429 21.734 4.65013 24.3499C7.26597 26.9657 10.8009 28.4551 14.5 28.5C18.1991 28.4551 21.734 26.9657 24.3499 24.3499C26.9657 21.734 28.4551 18.1991 28.5 14.5C28.4551 10.8009 26.9657 7.26597 24.3499 4.65013C21.734 2.03429 18.1991 0.544883 14.5 0.5ZM22.5 15.5H15.5V22.5H13.5V15.5H6.5V13.5H13.5V6.5H15.5V13.5H22.5V15.5Z" fill="#FF6600"/>
</svg>
