<svg width="18" height="18" viewBox="0 0 18 18" fill="none" xmlns="http://www.w3.org/2000/svg">
    <g clip-path="url(#clip0_159_22224)">
        <path d="M9 18C7.21997 18 5.47991 17.4722 3.99987 16.4832C2.51983 15.4943 1.36628 14.0887 0.685088 12.4442C0.00389956 10.7996 -0.17433 8.99002 0.172937 7.24419C0.520204 5.49836 1.37737 3.89472 2.63604 2.63604C3.89472 1.37737 5.49836 0.520204 7.24419 0.172937C8.99002 -0.17433 10.7996 0.00389956 12.4442 0.685088C14.0887 1.36628 15.4943 2.51983 16.4832 3.99987C17.4722 5.47991 18 7.21997 18 9C18 11.387 17.0518 13.6761 15.364 15.364C13.6761 17.0518 11.387 18 9 18ZM9 1.38462C7.49382 1.38462 6.02147 1.83125 4.76912 2.66804C3.51678 3.50483 2.5407 4.69419 1.96431 6.08572C1.38792 7.47725 1.23711 9.00845 1.53095 10.4857C1.82479 11.9629 2.55008 13.3199 3.61511 14.3849C4.68014 15.4499 6.03708 16.1752 7.51432 16.4691C8.99156 16.7629 10.5228 16.6121 11.9143 16.0357C13.3058 15.4593 14.4952 14.4832 15.332 13.2309C16.1688 11.9785 16.6154 10.5062 16.6154 9C16.6154 6.98028 15.8131 5.04328 14.3849 3.61511C12.9567 2.18695 11.0197 1.38462 9 1.38462Z" fill="#9CCB6B"/>
        <path d="M7.96163 13.0154C7.87062 13.0145 7.78066 12.9958 7.69691 12.9601C7.61316 12.9245 7.53726 12.8727 7.47355 12.8077L4.28894 9.62652C4.17597 9.49368 4.1173 9.3231 4.12464 9.14888C4.13198 8.97466 4.2048 8.80962 4.32854 8.68676C4.45227 8.56389 4.61782 8.49225 4.79209 8.48614C4.96636 8.48004 5.13652 8.53992 5.26855 8.65382L8.44971 11.835C8.54594 11.9318 8.61141 12.0549 8.63789 12.1888C8.66436 12.3227 8.65065 12.4615 8.5985 12.5876C8.54634 12.7137 8.45805 12.8217 8.34473 12.8978C8.23142 12.9739 8.09813 13.0148 7.96163 13.0154Z" fill="#9CCB6B"/>
        <path d="M7.96142 13.0154C7.8242 13.0155 7.69005 12.9748 7.57599 12.8985C7.46193 12.8223 7.37312 12.7138 7.32082 12.5869C7.26852 12.4601 7.25509 12.3205 7.28225 12.186C7.3094 12.0515 7.37592 11.9282 7.47334 11.8315L12.7314 6.57691C12.8613 6.447 13.0375 6.37402 13.2212 6.37402C13.4049 6.37402 13.5811 6.447 13.711 6.57691C13.8409 6.70681 13.9139 6.883 13.9139 7.06672C13.9139 7.25043 13.8409 7.42662 13.711 7.55652L8.44949 12.8077C8.38578 12.8727 8.30988 12.9245 8.22613 12.9601C8.14238 12.9958 8.05243 13.0145 7.96142 13.0154Z" fill="#9CCB6B"/>
    </g>
    <defs>
        <clipPath id="clip0_159_22224">
            <rect width="18" height="18" fill="white"/>
        </clipPath>
    </defs>
</svg>
