<svg width="12" height="14" viewBox="0 0 12 14" fill="none" xmlns="http://www.w3.org/2000/svg">
<path fill-rule="evenodd" clip-rule="evenodd" d="M1.33317 12.3335H10.6665C10.8433 12.3335 11.0129 12.4037 11.1379 12.5288C11.2629 12.6538 11.3332 12.8234 11.3332 13.0002C11.3332 13.177 11.2629 13.3465 11.1379 13.4716C11.0129 13.5966 10.8433 13.6668 10.6665 13.6668H1.33317C1.15636 13.6668 0.98679 13.5966 0.861766 13.4716C0.736742 13.3465 0.666504 13.177 0.666504 13.0002C0.666504 12.8234 0.736742 12.6538 0.861766 12.5288C0.98679 12.4037 1.15636 12.3335 1.33317 12.3335ZM0.666504 9.00016L7.33317 2.3335L9.33317 4.3335L2.6665 11.0002H0.666504V9.00016ZM7.99984 1.66683L9.33317 0.333496L11.3332 2.3335L9.99917 3.6675L7.99984 1.66683Z" fill="white"/>
</svg>
