<svg width="40" height="40" viewBox="0 0 40 40" fill="none" xmlns="http://www.w3.org/2000/svg">
    <path d="M1.24989 15.2203C1.24971 15.0109 1.29539 14.8039 1.38374 14.614C1.47208 14.4241 1.60093 14.2559 1.76124 14.1211C1.92155 13.9864 2.10943 13.8883 2.31168 13.8339C2.51392 13.7795 2.72563 13.7701 2.93192 13.8062L2.94051 13.8062L14.9999 16.0023L14.9999 7.49999C14.9999 7.26399 15.0667 7.03282 15.1927 6.83321C15.3186 6.63361 15.4984 6.47373 15.7114 6.37206C15.9244 6.27039 16.1618 6.23109 16.3962 6.25871C16.6305 6.28633 16.8523 6.37973 17.0358 6.52811L38.203 23.6508C38.4504 23.8457 38.6272 24.1162 38.7063 24.4211C38.7853 24.726 38.7624 25.0483 38.6409 25.3389C38.5195 25.6295 38.3062 25.8723 38.0337 26.0302C37.7612 26.1881 37.4444 26.2524 37.1319 26.2133C37.1085 26.2133 37.0858 26.207 37.0624 26.2031L24.9999 23.9992L24.9999 32.5C24.9999 32.736 24.933 32.9672 24.8071 33.1668C24.6812 33.3664 24.5014 33.5263 24.2884 33.6279C24.0754 33.7296 23.838 33.7689 23.6036 33.7413C23.3692 33.7137 23.1475 33.6202 22.9639 33.4719L1.79676 16.3469C1.62675 16.2123 1.48928 16.0411 1.39459 15.8461C1.2999 15.651 1.25044 15.4371 1.24989 15.2203Z" fill="white"/>
</svg>
