<svg width="36" height="36" viewBox="0 0 36 36" fill="none" xmlns="http://www.w3.org/2000/svg">
    <rect width="36" height="36" rx="18" fill="#FFCB12"/>
    <path d="M24.6667 9.6665C24.8877 9.6665 25.0996 9.7543 25.2559 9.91058C25.4122 10.0669 25.5 10.2788 25.5 10.4998V13.6307L18.0008 21.1307L17.9958 24.6623L21.5342 24.6673L25.5 20.7015V25.4998C25.5 25.7209 25.4122 25.9328 25.2559 26.0891C25.0996 26.2454 24.8877 26.3332 24.6667 26.3332H11.3333C11.1123 26.3332 10.9004 26.2454 10.7441 26.0891C10.5878 25.9328 10.5 25.7209 10.5 25.4998V10.4998C10.5 10.2788 10.5878 10.0669 10.7441 9.91058C10.9004 9.7543 11.1123 9.6665 11.3333 9.6665H24.6667ZM26.1483 15.3398L27.3267 16.5182L20.845 22.9998L19.665 22.9982L19.6667 21.8215L26.1483 15.3398ZM18 17.9998H13.8333V19.6665H18V17.9998ZM20.5 14.6665H13.8333V16.3332H20.5V14.6665Z" fill="white"/>
</svg>
