<svg width="32" height="32" viewBox="0 0 32 32" fill="none" xmlns="http://www.w3.org/2000/svg">
    <g clip-path="url(#clip0_2310_2828)">
        <path d="M8.9344 0C9.2208 0.100815 9.4528 0.262439 9.5552 0.563284C9.736 1.09776 9.3392 1.63545 8.752 1.64505C8.2992 1.65305 7.8464 1.64505 7.3936 1.64665C6.6288 1.64665 5.864 1.63545 5.0992 1.65145C3.1856 1.68985 1.6864 3.18608 1.6544 5.09836C1.6352 6.30015 1.648 7.50193 1.6496 8.70531C1.6496 9.02375 1.5392 9.28619 1.2672 9.46382C0.8256 9.75186 0.2512 9.55823 0.0544 9.06216C0.0368 9.01895 0.0176 8.97735 0 8.93574C0 7.56113 0 6.18653 0 4.81192C0.0096 4.77192 0.0224 4.73191 0.0272 4.6919C0.2384 2.42276 1.848 0.604891 4.0768 0.123218C4.3184 0.0704106 4.5664 0.040006 4.8112 0H8.9344Z" fill="#F0F0F0"/>
        <path d="M27.1777 0C27.4337 0.0416062 27.6913 0.073611 27.9441 0.128019C30.1441 0.60009 31.7841 2.47557 31.9617 4.71911C31.9777 4.92714 31.9857 5.13517 31.9873 5.3432C31.9889 6.48417 31.9905 7.62354 31.9873 8.76451C31.9873 9.16938 31.7105 9.50383 31.3265 9.58384C30.9569 9.66065 30.5729 9.46862 30.4209 9.10697C30.3665 8.97735 30.3441 8.82532 30.3441 8.6829C30.3377 7.53713 30.3409 6.39136 30.3409 5.24719C30.3409 4.16382 29.9585 3.24369 29.1441 2.52198C28.5441 1.9891 27.8337 1.68185 27.0321 1.66425C25.7841 1.63545 24.5329 1.65145 23.2849 1.65145C22.9649 1.65145 22.7025 1.54103 22.5265 1.26899C22.2385 0.827324 22.4321 0.252838 22.9281 0.0560084C22.9713 0.0384058 23.0129 0.0208031 23.0545 0.00160024C24.4289 0.00160024 25.8033 0.00160024 27.1777 0.00160024V0Z" fill="#F0F0F0"/>
        <path d="M0 23.0579C0.1008 22.7715 0.2624 22.5394 0.5648 22.437C1.0992 22.2562 1.6384 22.653 1.6464 23.2419C1.6544 23.8036 1.6464 24.3669 1.648 24.9286C1.648 25.5847 1.6384 26.2408 1.6528 26.8969C1.6928 28.8108 3.1888 30.3086 5.104 30.3406C6.3056 30.3598 7.5088 30.3454 8.712 30.347C9.1232 30.347 9.44 30.5646 9.5568 30.9151C9.7296 31.44 9.3408 31.9872 8.7808 31.992C7.9584 31.9984 7.136 31.9968 6.3136 31.992C5.7824 31.9888 5.2496 32.0032 4.7216 31.9632C2.4768 31.7936 0.6032 30.1486 0.1296 27.9482C0.0752 27.6954 0.0432 27.4362 0.0016 27.1817V23.0579H0Z" fill="#F0F0F0"/>
        <path d="M25.1646 30.3437C25.7422 30.3437 26.3214 30.3549 26.899 30.3421C28.803 30.3005 30.3022 28.8059 30.3358 26.9C30.3566 25.6982 30.3406 24.4948 30.3422 23.2915C30.3422 22.8818 30.5438 22.5746 30.8878 22.4465C31.3902 22.2609 31.9774 22.6242 31.9822 23.1602C31.9918 24.5301 32.0318 25.9015 31.9518 27.2665C31.8238 29.4364 30.2926 31.2463 28.1934 31.7983C27.7502 31.9152 27.2814 31.976 26.8238 31.9856C25.6222 32.0112 24.419 31.9968 23.2158 31.9936C22.8222 31.9936 22.491 31.7151 22.411 31.3359C22.3326 30.963 22.531 30.5694 22.8974 30.4205C23.019 30.3709 23.1598 30.3517 23.2926 30.3501C23.9166 30.3437 24.5422 30.3469 25.1662 30.3469V30.3437H25.1646Z" fill="#F0F0F0"/>
        <path d="M16.2625 25.8167C13.8689 25.8183 12.0065 25.1222 10.4257 23.682C10.0433 23.3331 9.99206 22.8242 10.3105 22.4594C10.6241 22.0977 11.1553 22.0721 11.5361 22.4178C12.2865 23.1011 13.1281 23.6355 14.1169 23.8804C16.4337 24.4581 18.5553 24.098 20.3825 22.4738C20.6417 22.2433 20.9169 22.1105 21.2625 22.2033C21.8977 22.373 22.1073 23.1651 21.6273 23.6179C20.7489 24.4485 19.7377 25.0614 18.5825 25.4294C17.7425 25.6967 16.8817 25.8199 16.2625 25.8167Z" fill="#F0F0F0"/>
        <path d="M17.6801 15.0759C17.6801 16.0232 17.6833 16.9706 17.6801 17.9179C17.6769 18.6908 17.4129 19.3421 16.7665 19.8046C16.3905 20.0734 15.9633 20.1919 15.5057 20.2031C15.2465 20.2095 14.9825 20.2191 14.7265 20.1855C14.3009 20.1279 13.9969 19.723 14.0321 19.3037C14.0673 18.8765 14.4193 18.5372 14.8465 18.526C15.0289 18.5212 15.2113 18.526 15.3937 18.5244C15.8273 18.5196 15.9953 18.3516 15.9953 17.9131C15.9953 15.9816 15.9953 14.0501 15.9953 12.1187C15.9953 11.7906 16.1201 11.5298 16.3969 11.3553C16.6689 11.1841 16.9569 11.1745 17.2417 11.3345C17.5345 11.4994 17.6801 11.757 17.6801 12.0915C17.6833 13.0852 17.6801 14.0805 17.6801 15.0743V15.0759Z" fill="#F0F0F0"/>
        <path d="M8.69775 13.2212C8.69775 12.8563 8.69775 12.4931 8.69775 12.1282C8.69775 11.8178 8.80335 11.5553 9.05935 11.3713C9.52335 11.0401 10.1634 11.3153 10.277 11.8914C10.2818 11.917 10.2882 11.9426 10.2882 11.9682C10.2882 12.8099 10.3074 13.6532 10.2786 14.495C10.2642 14.927 9.88975 15.2279 9.48655 15.2231C9.08655 15.2183 8.73775 14.8998 8.71375 14.4694C8.68975 14.0549 8.70895 13.6372 8.70895 13.2212H8.69935H8.69775Z" fill="#F0F0F0"/>
        <path d="M21.8927 13.2163C21.8927 12.8163 21.8831 12.4146 21.8959 12.0146C21.9071 11.6449 22.1823 11.3201 22.5199 11.2464C23.0031 11.1424 23.4703 11.5057 23.4831 12.0338C23.5007 12.8291 23.4991 13.626 23.4831 14.4229C23.4735 14.887 23.1007 15.2294 22.6703 15.223C22.2431 15.215 21.9039 14.8566 21.8927 14.3877C21.8847 13.9973 21.8911 13.6068 21.8911 13.2163H21.8943H21.8927Z" fill="#F0F0F0"/>
    </g>
    <defs>
        <clipPath id="clip0_2310_2828">
            <rect width="32" height="32" fill="white"/>
        </clipPath>
    </defs>
</svg>
