<svg width="70" height="70" viewBox="0 0 70 70" fill="none" xmlns="http://www.w3.org/2000/svg">
    <rect x="1" y="1" width="68" height="68" rx="20" fill="#DEEFFF"/>
    <rect x="1" y="1" width="68" height="68" rx="20" stroke="#97CEF8" stroke-linecap="round" stroke-dasharray="3 3"/>
    <path d="M41.9995 27.9987C41.2879 27.9987 40.6345 27.5904 40.3079 26.9604L39.4679 25.2687C38.9312 24.207 37.5312 23.332 36.3412 23.332H33.6695C32.4679 23.332 31.0679 24.207 30.5312 25.2687L29.6912 26.9604C29.3645 27.5904 28.7112 27.9987 27.9995 27.9987C25.4679 27.9987 23.4612 30.1337 23.6245 32.6537L24.2312 42.2904C24.3712 44.6937 25.6662 46.6654 28.8862 46.6654H41.1129C44.3329 46.6654 45.6162 44.6937 45.7679 42.2904L46.3745 32.6537C46.5379 30.1337 44.5312 27.9987 41.9995 27.9987ZM33.2495 29.457H36.7495C37.2279 29.457 37.6245 29.8537 37.6245 30.332C37.6245 30.8104 37.2279 31.207 36.7495 31.207H33.2495C32.7712 31.207 32.3745 30.8104 32.3745 30.332C32.3745 29.8537 32.7712 29.457 33.2495 29.457ZM34.9995 42.1387C32.8295 42.1387 31.0562 40.377 31.0562 38.1954C31.0562 36.0137 32.8179 34.252 34.9995 34.252C37.1812 34.252 38.9429 36.0137 38.9429 38.1954C38.9429 40.377 37.1695 42.1387 34.9995 42.1387Z" fill="#36A4F8"/>
</svg>
