<svg width="24" height="24" viewBox="0 0 24 24" fill="none" xmlns="http://www.w3.org/2000/svg">
    <path fill-rule="evenodd" clip-rule="evenodd" d="M12 17C12.0002 17.5046 11.8096 17.9906 11.4665 18.3605C11.1234 18.7305 10.6532 18.9572 10.15 18.995L10 19H8C7.49542 19.0002 7.00943 18.8096 6.63945 18.4665C6.26947 18.1234 6.04284 17.6532 6.005 17.15L6 17H12ZM9 9.54067e-10C10.815 -2.9945e-05 12.559 0.704894 13.8642 1.96607C15.1694 3.22726 15.9338 4.94609 15.996 6.76L16 7V10.764L17.822 14.408C17.9015 14.567 17.9413 14.7429 17.938 14.9206C17.9346 15.0984 17.8883 15.2727 17.8029 15.4286C17.7174 15.5845 17.5955 15.7174 17.4475 15.8158C17.2995 15.9143 17.1298 15.9754 16.953 15.994L16.838 16H1.162C0.984165 16.0001 0.808968 15.957 0.651422 15.8745C0.493876 15.792 0.35868 15.6725 0.257418 15.5264C0.156156 15.3802 0.0918485 15.2116 0.0700054 15.0351C0.0481623 14.8586 0.0694352 14.6795 0.132001 14.513L0.178001 14.408L2 10.764V7C2 5.14348 2.7375 3.36301 4.05025 2.05025C5.36301 0.737498 7.14349 9.54069e-10 9 9.54067e-10ZM9 2C7.71154 2.00007 6.47284 2.49754 5.54222 3.38866C4.61161 4.27978 4.06092 5.49575 4.005 6.783L4 7V10.764C4.00001 11.012 3.95389 11.2579 3.864 11.489L3.789 11.659L2.619 14H15.382L14.212 11.658C14.101 11.4363 14.0322 11.1959 14.009 10.949L14 10.764V7C14 5.67392 13.4732 4.40215 12.5355 3.46447C11.5979 2.52678 10.3261 2 9 2Z" fill="#9BA3B1"/>
</svg>
