<svg width="24" height="24" viewBox="0 0 24 24" fill="none" xmlns="http://www.w3.org/2000/svg">
<g clip-path="url(#clip0_2178_792)">
<path fill-rule="evenodd" clip-rule="evenodd" d="M11.298 2.19512C11.7506 2.02545 12.2494 2.02545 12.702 2.19512L19.702 4.82012C20.0833 4.96305 20.4119 5.21898 20.6438 5.55368C20.8758 5.88838 21.0001 6.2859 21 6.69312V12.0561C21 13.7275 20.5346 15.366 19.6559 16.7878C18.7772 18.2096 17.52 19.3586 16.025 20.1061L12.671 21.7821C12.4627 21.8863 12.2329 21.9406 12 21.9406C11.7671 21.9406 11.5373 21.8863 11.329 21.7821L7.975 20.1051C6.48004 19.3576 5.22277 18.2086 4.34407 16.7868C3.46537 15.365 2.99996 13.7265 3 12.0551V6.69412C2.99975 6.28673 3.12391 5.88898 3.35587 5.55409C3.58783 5.21919 3.91653 4.96311 4.298 4.82012L11.298 2.19512ZM13 11.7321C13.3813 11.512 13.6792 11.1722 13.8477 10.7654C14.0162 10.3587 14.0457 9.90773 13.9318 9.48248C13.8178 9.05722 13.5667 8.68145 13.2175 8.41344C12.8682 8.14542 12.4403 8.00014 12 8.00012C11.5597 8.00014 11.1318 8.14542 10.7825 8.41344C10.4333 8.68145 10.1822 9.05722 10.0682 9.48248C9.95429 9.90773 9.98384 10.3587 10.1523 10.7654C10.3208 11.1722 10.6187 11.512 11 11.7321V15.0001C11 15.2653 11.1054 15.5197 11.2929 15.7072C11.4804 15.8948 11.7348 16.0001 12 16.0001C12.2652 16.0001 12.5196 15.8948 12.7071 15.7072C12.8946 15.5197 13 15.2653 13 15.0001V11.7321Z" fill="#FF6600"/>
</g>
<defs>
<clipPath id="clip0_2178_792">
<rect width="24" height="24" fill="white"/>
</clipPath>
</defs>
</svg>
