<svg width="34" height="34" viewBox="0 0 34 34" fill="none" xmlns="http://www.w3.org/2000/svg">
<rect width="34" height="34" rx="17" fill="#FF6600"/>
<path d="M20.0001 24C20.0003 24.5046 19.8097 24.9906 19.4666 25.3605C19.1235 25.7305 18.6532 25.9572 18.1501 25.995L18.0001 26H16.0001C15.4955 26.0002 15.0095 25.8096 14.6395 25.4665C14.2696 25.1234 14.0429 24.6532 14.0051 24.15L14.0001 24H20.0001ZM17.0001 7C18.8151 6.99997 20.5591 7.70489 21.8643 8.96607C23.1695 10.2273 23.9339 11.9461 23.9961 13.76L24.0001 14V17.764L25.8221 21.408C25.9016 21.567 25.9414 21.7429 25.9381 21.9206C25.9347 22.0984 25.8884 22.2727 25.8029 22.4286C25.7175 22.5845 25.5956 22.7174 25.4476 22.8158C25.2996 22.9143 25.1299 22.9754 24.9531 22.994L24.8381 23H9.16209C8.98426 23.0001 8.80906 22.957 8.65151 22.8745C8.49397 22.792 8.35877 22.6725 8.25751 22.5264C8.15625 22.3802 8.09194 22.2116 8.0701 22.0351C8.04825 21.8586 8.06953 21.6795 8.13209 21.513L8.17809 21.408L10.0001 17.764V14C10.0001 12.1435 10.7376 10.363 12.0503 9.05025C13.3631 7.7375 15.1436 7 17.0001 7Z" fill="white"/>
</svg>
