<svg width="20" height="20" viewBox="0 0 20 20" fill="none" xmlns="http://www.w3.org/2000/svg">
    <path d="M14.1328 5.14062C15.7995 6.29896 16.9495 8.14062 17.1828 10.2656" stroke="#6D737A" stroke-width="1.5" stroke-linecap="round" stroke-linejoin="round"/>
    <path d="M2.91016 10.3086C3.12682 8.19193 4.26016 6.35026 5.91016 5.18359" stroke="#6D737A" stroke-width="1.5" stroke-linecap="round" stroke-linejoin="round"/>
    <path d="M6.82422 17.4492C7.79089 17.9409 8.89089 18.2159 10.0492 18.2159C11.1659 18.2159 12.2159 17.9659 13.1576 17.5076" stroke="#6D737A" stroke-width="1.5" stroke-linecap="round" stroke-linejoin="round"/>
    <path d="M10.051 6.41849C11.3305 6.41849 12.3677 5.38128 12.3677 4.10182C12.3677 2.82236 11.3305 1.78516 10.051 1.78516C8.77158 1.78516 7.73438 2.82236 7.73438 4.10182C7.73438 5.38128 8.77158 6.41849 10.051 6.41849Z" stroke="#6D737A" stroke-width="1.5" stroke-linecap="round" stroke-linejoin="round"/>
    <path d="M4.0237 16.5982C5.30316 16.5982 6.34037 15.561 6.34037 14.2815C6.34037 13.0021 5.30316 11.9648 4.0237 11.9648C2.74424 11.9648 1.70703 13.0021 1.70703 14.2815C1.70703 15.561 2.74424 16.5982 4.0237 16.5982Z" stroke="#6D737A" stroke-width="1.5" stroke-linecap="round" stroke-linejoin="round"/>
    <path d="M15.9768 16.5982C17.2563 16.5982 18.2935 15.561 18.2935 14.2815C18.2935 13.0021 17.2563 11.9648 15.9768 11.9648C14.6974 11.9648 13.6602 13.0021 13.6602 14.2815C13.6602 15.561 14.6974 16.5982 15.9768 16.5982Z" stroke="#6D737A" stroke-width="1.5" stroke-linecap="round" stroke-linejoin="round"/>
</svg>
