<svg width="106" height="118" viewBox="0 0 106 118" fill="none" xmlns="http://www.w3.org/2000/svg">
<g id="Frame" clip-path="url(#clip0_438_1531)">
<g id="Group">
<g id="Objects">
<g id="Group_2">
<g id="Group_3">
<g id="Group_4">
<path id="Vector" d="M82.8848 74.1133H40.6657C38.4497 74.1133 36.6533 75.9169 36.6533 78.1419V105.642C36.6533 107.867 38.4497 109.671 40.6657 109.671H82.8848C85.1008 109.671 86.8972 107.867 86.8972 105.642V78.1419C86.8972 75.9169 85.1008 74.1133 82.8848 74.1133Z" fill="#699FC4"/>
<path id="Vector_2" d="M40.6752 74.1069C40.6752 74.1069 39.7007 76.0797 42.0795 76.0797C44.4583 76.0797 81.4135 76.0925 81.4135 76.0925C81.4135 76.0925 83.3815 76.3546 83.3815 74.1517L40.6752 74.1069Z" fill="#AEDBF4"/>
<path id="Vector_3" d="M82.1362 87.897L80.8402 90.6435C80.8402 90.6435 50.897 83.5519 43.5569 84.4151C37.3919 85.1409 36.7168 82.5063 36.6595 81.6431L36.6499 105.636C36.6499 107.851 38.4555 109.664 40.6623 109.668L82.8814 109.683C85.0882 109.683 86.8938 107.871 86.897 105.655L86.9033 87.8299C85.1678 89.371 82.1426 87.897 82.1426 87.897H82.1362Z" fill="#71A7CC"/>
<path id="Vector_4" d="M82.8848 74.1133H40.6657C38.4497 74.1133 36.6533 75.9169 36.6533 78.1419V105.642C36.6533 107.867 38.4497 109.671 40.6657 109.671H82.8848C85.1008 109.671 86.8972 107.867 86.8972 105.642V78.1419C86.8972 75.9169 85.1008 74.1133 82.8848 74.1133Z" stroke="#4D1B63" stroke-linecap="round" stroke-linejoin="round"/>
<path id="Vector_5" d="M79.6877 77.4707H43.8629C42.0285 77.4707 40.5415 78.9637 40.5415 80.8055V102.982C40.5415 104.824 42.0285 106.317 43.8629 106.317H79.6877C81.522 106.317 83.009 104.824 83.009 102.982V80.8055C83.009 78.9637 81.522 77.4707 79.6877 77.4707Z" fill="white"/>
<g id="Group_5">
<path id="Vector_6" d="M43.8597 106.31L79.6845 106.323C81.5123 106.323 83.009 104.823 83.009 102.988V91.6025L80.8436 88.8592C79.901 87.6666 78.0986 87.6666 77.1529 88.8592L69.1313 98.9755L66.4404 95.5736C65.4437 94.3138 63.5394 94.3138 62.5427 95.5736L59.6672 99.1993L51.031 88.2901C50.0406 87.0399 48.1459 87.0463 47.1651 88.3029L40.5415 96.7757V102.972C40.5415 104.807 42.035 106.31 43.8597 106.31Z" fill="white"/>
<path id="Vector_7" d="M59.6639 99.1993L51.0277 88.2901C50.0374 87.0399 48.1427 87.0463 47.1619 88.3029L46.5791 89.051L59.0302 103.01C59.0302 103.01 60.4186 102.08 59.6639 99.1993Z" fill="#CCE7F1"/>
<path id="Vector_8" d="M68.6886 103.935C68.6886 103.935 70.975 102.304 69.1312 98.9756L66.4404 95.5737C65.4436 94.314 63.5393 94.314 62.5426 95.5737L62.0586 96.1844L68.6918 103.935H68.6886Z" fill="#CCE7F1"/>
<path id="Vector_9" d="M80.8405 88.8593C79.8979 87.6667 78.0955 87.6667 77.1498 88.8593L76.9014 89.1726L83.0059 97.233V91.6026L80.8373 88.8593H80.8405Z" fill="#CCE7F1"/>
<path id="Vector_10" d="M43.8597 106.31L79.6845 106.323C81.5123 106.323 83.009 104.823 83.009 102.988V91.6025L80.8436 88.8592C79.901 87.6666 78.0986 87.6666 77.1529 88.8592L69.1313 98.9755L66.4404 95.5736C65.4437 94.3138 63.5394 94.3138 62.5427 95.5736L59.6672 99.1993L51.031 88.2901C50.0406 87.0399 48.1459 87.0463 47.1651 88.3029L40.5415 96.7757V102.972C40.5415 104.807 42.035 106.31 43.8597 106.31Z" stroke="#4D1B63" stroke-width="2.83" stroke-linecap="round" stroke-linejoin="round"/>
</g>
<path id="Vector_11" d="M79.6877 77.4707H43.8629C42.0285 77.4707 40.5415 78.9637 40.5415 80.8055V102.982C40.5415 104.824 42.0285 106.317 43.8629 106.317H79.6877C81.522 106.317 83.009 104.824 83.009 102.982V80.8055C83.009 78.9637 81.522 77.4707 79.6877 77.4707Z" stroke="#4D1B63" stroke-width="2.83" stroke-linecap="round" stroke-linejoin="round"/>
<g id="Group_6">
<path id="Vector_12" d="M74.2898 85.9787C74.2898 87.9546 72.6944 89.5565 70.7265 89.5565C68.7585 89.5565 67.1631 87.9546 67.1631 85.9787C67.1631 84.0027 68.7585 82.4009 70.7265 82.4009C72.6944 82.4009 74.2898 84.0027 74.2898 85.9787Z" fill="#94E3E7"/>
<path id="Vector_13" d="M70.7267 88.4632C68.9434 88.4632 67.4722 87.1459 67.2111 85.4321C67.1824 85.6112 67.1665 85.7934 67.1665 85.9789C67.1665 87.9548 68.7619 89.5567 70.7299 89.5567C72.6979 89.5567 74.2933 87.9548 74.2933 85.9789C74.2933 85.7934 74.2741 85.6112 74.2487 85.4321C73.9844 87.1491 72.5132 88.4632 70.7299 88.4632H70.7267Z" fill="#44AAAA"/>
<path id="Vector_14" d="M74.2898 85.9787C74.2898 87.9546 72.6944 89.5565 70.7265 89.5565C68.7585 89.5565 67.1631 87.9546 67.1631 85.9787C67.1631 84.0027 68.7585 82.4009 70.7265 82.4009C72.6944 82.4009 74.2898 84.0027 74.2898 85.9787Z" stroke="#4D1B63" stroke-width="2.83" stroke-linecap="round" stroke-linejoin="round"/>
</g>
</g>
<g id="Group_7">
<path id="Vector_15" d="M80.3814 74.1133H38.1623C35.9463 74.1133 34.1499 75.9169 34.1499 78.1419V105.642C34.1499 107.867 35.9463 109.671 38.1623 109.671H80.3814C82.5974 109.671 84.3938 107.867 84.3938 105.642V78.1419C84.3938 75.9169 82.5974 74.1133 80.3814 74.1133Z" fill="#699FC4"/>
<path id="Vector_16" d="M38.1688 74.1069C38.1688 74.1069 37.1944 76.0797 39.5731 76.0797C41.9519 76.0797 78.9072 76.0925 78.9072 76.0925C78.9072 76.0925 80.8751 76.3546 80.8751 74.1517L38.1688 74.1069Z" fill="#AEDBF4"/>
<path id="Vector_17" d="M79.6299 87.897L78.3338 90.6435C78.3338 90.6435 48.3907 83.5519 41.0506 84.4151C34.8855 85.1409 34.2104 82.5063 34.1531 81.6431L34.1436 105.636C34.1436 107.851 35.9491 109.664 38.1559 109.668L80.3751 109.683C82.5819 109.683 84.3874 107.871 84.3906 105.655L84.397 87.8299C82.6615 89.371 79.6363 87.897 79.6363 87.897H79.6299Z" fill="#71A7CC"/>
<path id="Vector_18" d="M80.3814 74.1133H38.1623C35.9463 74.1133 34.1499 75.9169 34.1499 78.1419V105.642C34.1499 107.867 35.9463 109.671 38.1623 109.671H80.3814C82.5974 109.671 84.3938 107.867 84.3938 105.642V78.1419C84.3938 75.9169 82.5974 74.1133 80.3814 74.1133Z" stroke="#4D1B63" stroke-linecap="round" stroke-linejoin="round"/>
<path id="Vector_19" d="M77.1813 77.4707H41.3565C39.5222 77.4707 38.0352 78.9637 38.0352 80.8055V102.982C38.0352 104.824 39.5222 106.317 41.3565 106.317H77.1813C79.0156 106.317 80.5027 104.824 80.5027 102.982V80.8055C80.5027 78.9637 79.0156 77.4707 77.1813 77.4707Z" fill="white"/>
<g id="Group_8">
<path id="Vector_20" d="M41.3531 106.31L77.1779 106.323C79.0057 106.323 80.5024 104.823 80.5024 102.988V91.6025L78.337 88.8592C77.3944 87.6666 75.592 87.6666 74.6463 88.8592L66.6279 98.9755L63.937 95.5736C62.9403 94.3138 61.036 94.3138 60.0393 95.5736L57.1637 99.1993L48.5276 88.2901C47.5372 87.0399 45.6425 87.0463 44.6617 88.3029L38.0381 96.7757V102.972C38.0381 104.807 39.5316 106.31 41.3563 106.31H41.3531Z" fill="white"/>
<path id="Vector_21" d="M57.1576 99.1993L48.5214 88.2901C47.531 87.0399 45.6363 87.0463 44.6555 88.3029L44.0728 89.051L56.5239 103.01C56.5239 103.01 57.9123 102.08 57.1576 99.1993Z" fill="#CCE7F1"/>
<path id="Vector_22" d="M66.1822 103.935C66.1822 103.935 68.4686 102.304 66.6249 98.9756L63.934 95.5737C62.9373 94.314 61.033 94.314 60.0363 95.5737L59.5522 96.1844L66.1854 103.935H66.1822Z" fill="#CCE7F1"/>
<path id="Vector_23" d="M78.3337 88.8593C77.3911 87.6667 75.5887 87.6667 74.6429 88.8593L74.3945 89.1726L80.4991 97.233V91.6026L78.3305 88.8593H78.3337Z" fill="#CCE7F1"/>
<path id="Vector_24" d="M41.3531 106.31L77.1779 106.323C79.0057 106.323 80.5024 104.823 80.5024 102.988V91.6025L78.337 88.8592C77.3944 87.6666 75.592 87.6666 74.6463 88.8592L66.6279 98.9755L63.937 95.5736C62.9403 94.3138 61.036 94.3138 60.0393 95.5736L57.1638 99.1993L48.5276 88.2901C47.5372 87.0399 45.6425 87.0463 44.6617 88.3029L38.0381 96.7757V102.972C38.0381 104.807 39.5316 106.31 41.3563 106.31H41.3531Z" stroke="#4D1B63" stroke-width="2.83" stroke-linecap="round" stroke-linejoin="round"/>
</g>
<path id="Vector_25" d="M77.1813 77.4707H41.3565C39.5222 77.4707 38.0352 78.9637 38.0352 80.8055V102.982C38.0352 104.824 39.5222 106.317 41.3565 106.317H77.1813C79.0156 106.317 80.5027 104.824 80.5027 102.982V80.8055C80.5027 78.9637 79.0156 77.4707 77.1813 77.4707Z" stroke="#4D1B63" stroke-width="2.83" stroke-linecap="round" stroke-linejoin="round"/>
<g id="Group_9">
<path id="Vector_26" d="M71.7869 85.9787C71.7869 87.9546 70.1915 89.5565 68.2235 89.5565C66.2556 89.5565 64.6602 87.9546 64.6602 85.9787C64.6602 84.0027 66.2556 82.4009 68.2235 82.4009C70.1915 82.4009 71.7869 84.0027 71.7869 85.9787Z" fill="#94E3E7"/>
<path id="Vector_27" d="M68.2203 88.4632C66.4371 88.4632 64.9659 87.1459 64.7047 85.4321C64.6761 85.6112 64.6602 85.7934 64.6602 85.9789C64.6602 87.9548 66.2556 89.5567 68.2235 89.5567C70.1915 89.5567 71.7869 87.9548 71.7869 85.9789C71.7869 85.7934 71.7678 85.6112 71.7423 85.4321C71.478 87.1491 70.0068 88.4632 68.2235 88.4632H68.2203Z" fill="#44AAAA"/>
<path id="Vector_28" d="M71.7869 85.9787C71.7869 87.9546 70.1915 89.5565 68.2235 89.5565C66.2556 89.5565 64.6602 87.9546 64.6602 85.9787C64.6602 84.0027 66.2556 82.4009 68.2235 82.4009C70.1915 82.4009 71.7869 84.0027 71.7869 85.9787Z" stroke="#4D1B63" stroke-width="2.83" stroke-linecap="round" stroke-linejoin="round"/>
</g>
</g>
<g id="Group_10">
<path id="Vector_29" d="M101.138 93.2139L91.5875 83.6251C91.1321 83.1679 90.3933 83.1679 89.9411 83.6251L80.391 93.2139C79.6586 93.9493 80.1777 95.2122 81.2158 95.2122H82.3335C82.9768 95.2122 83.499 95.7366 83.499 96.3824V108.12C83.499 108.766 84.0213 109.29 84.6645 109.29H96.8704C97.5137 109.29 98.0359 108.766 98.0359 108.12V96.3824C98.0359 95.7366 98.5582 95.2122 99.2014 95.2122H100.319C101.357 95.2122 101.876 93.9525 101.144 93.2139H101.138Z" fill="#DB435A"/>
<path id="Vector_30" d="M98.0328 108.116V96.3792C98.0328 95.7333 98.5551 95.2089 99.1983 95.2089H100.316C101.354 95.2089 101.873 93.9492 101.141 93.2106L99.8256 91.8901C99.8861 92.9357 99.676 93.8789 98.7334 93.8789C96.6189 93.8789 96.8609 96.4847 96.8609 99.391C96.8609 101.597 96.8546 106.87 96.8546 109.287H96.8737C97.5169 109.287 98.0392 108.762 98.0392 108.116H98.0328Z" fill="#B22F48"/>
<path id="Vector_31" d="M85.0498 92.0213C86.5242 90.6624 90.4984 86.8608 92.7052 84.7474L91.5875 83.6251C91.1321 83.1679 90.3933 83.1679 89.9411 83.6251L80.391 93.2139C79.6586 93.9493 80.1777 95.2122 81.2158 95.2122H82.3335C82.9768 95.2122 83.499 95.7366 83.499 96.3824V108.12C83.499 108.766 84.0213 109.29 84.6645 109.29H86.3491V95.193C86.3491 95.193 82.9704 93.9493 85.053 92.0245L85.0498 92.0213Z" fill="#ED6B84"/>
<path id="Vector_32" d="M101.138 93.2139L91.5875 83.6251C91.1321 83.1679 90.3933 83.1679 89.9411 83.6251L80.391 93.2139C79.6586 93.9493 80.1777 95.2122 81.2158 95.2122H82.3335C82.9768 95.2122 83.499 95.7366 83.499 96.3824V108.12C83.499 108.766 84.0213 109.29 84.6645 109.29H96.8704C97.5137 109.29 98.0359 108.766 98.0359 108.12V96.3824C98.0359 95.7366 98.5582 95.2122 99.2014 95.2122H100.319C101.357 95.2122 101.876 93.9525 101.144 93.2139H101.138Z" stroke="#4D1B63" stroke-linecap="round" stroke-linejoin="round"/>
</g>
<g id="Group_11">
<path id="Vector_33" d="M77.4966 74.1133H35.2775C33.0615 74.1133 31.2651 75.9169 31.2651 78.1419V105.642C31.2651 107.867 33.0615 109.671 35.2775 109.671H77.4966C79.7126 109.671 81.509 107.867 81.509 105.642V78.1419C81.509 75.9169 79.7126 74.1133 77.4966 74.1133Z" fill="#8FBFE5"/>
<path id="Vector_34" d="M35.2836 74.1069C35.2836 74.1069 34.3091 76.0797 36.6879 76.0797C39.0666 76.0797 76.0219 76.0925 76.0219 76.0925C76.0219 76.0925 77.9899 76.3546 77.9899 74.1517L35.2836 74.1069Z" fill="#AEDBF4"/>
<path id="Vector_35" d="M76.7481 87.897L75.452 90.6435C75.452 90.6435 45.5088 83.5519 38.1687 84.4151C32.0037 85.1409 31.3286 82.5063 31.2713 81.6431L31.2617 105.636C31.2617 107.851 33.0673 109.664 35.2741 109.668L77.4932 109.683C79.7 109.683 81.5056 107.871 81.5088 105.655L81.5152 87.8299C79.7796 89.371 76.7544 87.897 76.7544 87.897H76.7481Z" fill="#71A7CC"/>
<path id="Vector_36" d="M77.4966 74.1133H35.2775C33.0615 74.1133 31.2651 75.9169 31.2651 78.1419V105.642C31.2651 107.867 33.0615 109.671 35.2775 109.671H77.4966C79.7126 109.671 81.509 107.867 81.509 105.642V78.1419C81.509 75.9169 79.7126 74.1133 77.4966 74.1133Z" stroke="#4D1B63" stroke-linecap="round" stroke-linejoin="round"/>
<path id="Vector_37" d="M74.2995 77.4707H38.4747C36.6403 77.4707 35.1533 78.9637 35.1533 80.8055V102.982C35.1533 104.824 36.6403 106.317 38.4747 106.317H74.2995C76.1338 106.317 77.6208 104.824 77.6208 102.982V80.8055C77.6208 78.9637 76.1338 77.4707 74.2995 77.4707Z" fill="white"/>
<g id="Group_12">
<path id="Vector_38" d="M38.4715 106.31L74.2963 106.323C76.1241 106.323 77.6208 104.823 77.6208 102.988V91.6025L75.4554 88.8592C74.5128 87.6666 72.7104 87.6666 71.7647 88.8592L63.7431 98.9755L61.0523 95.5736C60.0555 94.3138 58.1512 94.3138 57.1545 95.5736L54.279 99.1993L45.6428 88.2901C44.6525 87.0399 42.7577 87.0463 41.7769 88.3029L35.1533 96.7757V102.972C35.1533 104.807 36.6468 106.31 38.4715 106.31Z" fill="white"/>
<path id="Vector_39" d="M54.2757 99.1993L45.6396 88.2901C44.6492 87.0399 42.7545 87.0463 41.7737 88.3029L41.1909 89.051L53.642 103.01C53.642 103.01 55.0304 102.08 54.2757 99.1993Z" fill="#CCE7F1"/>
<path id="Vector_40" d="M63.3004 103.935C63.3004 103.935 65.5868 102.304 63.743 98.9756L61.0522 95.5737C60.0555 94.314 58.1512 94.314 57.1544 95.5737L56.6704 96.1844L63.3036 103.935H63.3004Z" fill="#CCE7F1"/>
<path id="Vector_41" d="M75.4523 88.8593C74.5097 87.6667 72.7073 87.6667 71.7616 88.8593L71.5132 89.1726L77.6177 97.233V91.6026L75.4491 88.8593H75.4523Z" fill="#CCE7F1"/>
<path id="Vector_42" d="M38.4715 106.31L74.2963 106.323C76.1242 106.323 77.6208 104.823 77.6208 102.988V91.6025L75.4554 88.8592C74.5128 87.6666 72.7104 87.6666 71.7647 88.8592L63.7431 98.9755L61.0523 95.5736C60.0555 94.3138 58.1512 94.3138 57.1545 95.5736L54.279 99.1993L45.6428 88.2901C44.6525 87.0399 42.7577 87.0463 41.7769 88.3029L35.1533 96.7757V102.972C35.1533 104.807 36.6468 106.31 38.4715 106.31Z" stroke="#4D1B63" stroke-linecap="round" stroke-linejoin="round"/>
</g>
<path id="Vector_43" d="M74.2995 77.4707H38.4747C36.6403 77.4707 35.1533 78.9637 35.1533 80.8055V102.982C35.1533 104.824 36.6403 106.317 38.4747 106.317H74.2995C76.1338 106.317 77.6208 104.824 77.6208 102.982V80.8055C77.6208 78.9637 76.1338 77.4707 74.2995 77.4707Z" stroke="#4D1B63" stroke-linecap="round" stroke-linejoin="round"/>
<g id="Group_13">
<path id="Vector_44" d="M68.9016 85.9787C68.9016 87.9546 67.3062 89.5565 65.3383 89.5565C63.3703 89.5565 61.7749 87.9546 61.7749 85.9787C61.7749 84.0027 63.3703 82.4009 65.3383 82.4009C67.3062 82.4009 68.9016 84.0027 68.9016 85.9787Z" fill="#94E3E7"/>
<path id="Vector_45" d="M65.3385 88.4632C63.5552 88.4632 62.084 87.1459 61.8229 85.4321C61.7942 85.6112 61.7783 85.7934 61.7783 85.9789C61.7783 87.9548 63.3737 89.5567 65.3417 89.5567C67.3097 89.5567 68.9051 87.9548 68.9051 85.9789C68.9051 85.7934 68.886 85.6112 68.8605 85.4321C68.5962 87.1491 67.125 88.4632 65.3417 88.4632H65.3385Z" fill="#44AAAA"/>
<path id="Vector_46" d="M68.9016 85.9787C68.9016 87.9546 67.3062 89.5565 65.3383 89.5565C63.3703 89.5565 61.7749 87.9546 61.7749 85.9787C61.7749 84.0027 63.3703 82.4009 65.3383 82.4009C67.3062 82.4009 68.9016 84.0027 68.9016 85.9787Z" stroke="#4D1B63" stroke-width="2.83" stroke-linecap="round" stroke-linejoin="round"/>
</g>
</g>
</g>
<g id="Group_14">
<path id="Vector_47" d="M70.5288 16.4375C69.1754 16.4375 67.8698 16.6421 66.6406 17.0162C64.3956 7.51696 55.8963 0.454102 45.7508 0.454102C35.6052 0.454102 27.211 7.43064 24.9023 16.8403C23.861 16.5781 22.7688 16.4375 21.6478 16.4375C14.2536 16.4375 8.25732 22.4548 8.25732 29.8822C8.25732 37.3095 14.2504 43.3269 21.6478 43.3269H42.4772C43.544 43.4899 44.6394 43.5762 45.7508 43.5762C46.8621 43.5762 47.9576 43.4899 49.0243 43.3269H70.5288C77.923 43.3269 83.9193 37.3095 83.9193 29.8822C83.9193 22.4548 77.9262 16.4375 70.5288 16.4375Z" fill="#90C2E4"/>
<path id="Vector_48" d="M42.4742 43.3235C43.5409 43.4865 44.6364 43.5729 45.7477 43.5729C46.8591 43.5729 47.9546 43.4865 49.0213 43.3235H70.5258C77.92 43.3235 83.9163 37.3061 83.9163 29.8788C83.9163 22.4514 77.9232 16.4341 70.5258 16.4341C69.1724 16.4341 67.8668 16.6387 66.6376 17.0128C66.6376 17.0128 77.9869 18.5219 77.9869 29.7509C77.9869 40.9798 68.0228 40.1965 68.0228 40.1965H19.0814C19.0814 40.1965 16.1581 40.1773 12.5342 39.7265C14.9225 41.955 18.1228 43.3203 21.6448 43.3203H42.4742V43.3235Z" fill="#65A6C9"/>
<path id="Vector_49" d="M27.0996 20.2357C27.0996 20.2357 34.3728 -2.23826 57.0746 3.69276C53.7882 1.64008 49.9064 0.450684 45.7508 0.450684C35.6689 0.450684 27.211 7.42722 24.9023 16.8369C23.861 16.5747 22.7688 16.434 21.6478 16.434C14.2536 16.434 8.25732 22.4514 8.25732 29.8787C8.25732 31.9538 8.72543 33.9201 9.56294 35.6755C9.73808 28.9451 12.1519 17.3741 27.0996 20.2325V20.2357Z" fill="#AEDBF4"/>
<path id="Vector_50" d="M70.5288 16.4375C69.1754 16.4375 67.8698 16.6421 66.6406 17.0162C64.3956 7.51697 55.8963 0.454102 45.7508 0.454102C35.6052 0.454102 27.211 7.43064 24.9023 16.8403C23.861 16.5781 22.7688 16.4375 21.6478 16.4375C14.2536 16.4375 8.25732 22.4548 8.25732 29.8822C8.25732 37.3095 14.2504 43.3269 21.6478 43.3269H42.4772C43.544 43.4899 44.6394 43.3684 45.7508 43.3684C46.8621 43.3684 47.9576 43.4931 49.0243 43.3269H70.5288C77.923 43.3269 83.9193 37.3095 83.9193 29.8822C83.9193 22.4548 77.9262 16.4375 70.5288 16.4375Z" stroke="#4D1B63" stroke-linecap="round" stroke-linejoin="round"/>
<g id="Group_15">
<g id="Group_16">
<path id="Vector_51" d="M67.4663 56.6132L20.9349 61.1201C18.4929 61.3566 16.7042 63.536 16.9397 65.988L19.8519 96.2985C20.0874 98.7504 22.2581 100.546 24.7001 100.31L71.2315 95.803C73.6736 95.5665 75.4623 93.3871 75.2267 90.9351L72.3146 60.6246C72.079 58.1727 69.9084 56.3767 67.4663 56.6132Z" fill="#8FBFE5"/>
<path id="Vector_52" d="M20.9412 61.1197C20.9412 61.1197 20.0783 63.3994 22.699 63.1436C25.3198 62.891 66.0486 58.9423 66.0486 58.9423C66.0486 58.9423 68.2459 59.0222 68.0102 56.5923L20.9412 61.1197Z" fill="#AEDBF4"/>
<path id="Vector_53" d="M68.1026 71.872L66.9658 75.0373C66.9658 75.0373 33.214 70.43 25.2148 72.1693C18.4956 73.6305 17.4734 70.7977 17.3174 69.8545L19.8586 96.2963C20.0942 98.739 22.2755 100.542 24.7084 100.309L71.2361 95.7975C73.669 95.5609 75.465 93.3707 75.2325 90.928L73.3442 71.2837C71.5959 73.1669 68.1026 71.8688 68.1026 71.8688V71.872Z" fill="#71A7CC"/>
<path id="Vector_54" d="M67.4663 56.6132L20.9349 61.1201C18.4929 61.3566 16.7042 63.536 16.9397 65.988L19.8519 96.2985C20.0874 98.7504 22.2581 100.546 24.7001 100.31L71.2315 95.803C73.6736 95.5665 75.4623 93.3871 75.2267 90.9351L72.3146 60.6246C72.079 58.1727 69.9084 56.3767 67.4663 56.6132Z" stroke="#4D1B63" stroke-linecap="round" stroke-linejoin="round"/>
<path id="Vector_55" d="M64.2999 60.6526L24.8148 64.477C22.7929 64.6728 21.3119 66.4773 21.507 68.5074L23.855 92.9461C24.05 94.9762 25.8472 96.4632 27.8691 96.2673L67.3542 92.443C69.3762 92.2471 70.8572 90.4427 70.6621 88.4126L68.3141 63.9738C68.1191 61.9437 66.3219 60.4568 64.2999 60.6526Z" fill="white"/>
<g id="Group_17">
<path id="Vector_56" d="M27.8769 96.2676L67.3574 92.4405C69.37 92.2454 70.8603 90.4294 70.666 88.4087L69.4591 75.8624L66.7747 73.0743C65.6092 71.8626 63.6221 72.0544 62.7081 73.4676L54.9445 85.4767L51.6168 82.0172C50.3844 80.7351 48.2859 80.9397 47.321 82.4329L44.5378 86.7365L33.8604 75.6386C32.6376 74.3661 30.5486 74.5771 29.5997 76.067L23.2021 86.113L23.8581 92.9424C24.0524 94.9663 25.8611 96.4595 27.8737 96.2644L27.8769 96.2676Z" fill="white"/>
<path id="Vector_57" d="M44.5379 86.7396L33.8605 75.6417C32.6377 74.3692 30.5487 74.5802 29.5998 76.0701L29.0361 76.9558L44.245 91.008C44.245 91.008 45.6779 89.8346 44.5379 86.7396Z" fill="#CCE7F1"/>
<path id="Vector_58" d="M54.9861 90.9889C54.9861 90.9889 57.333 88.949 54.9447 85.4767L51.6169 82.0172C50.3846 80.7351 48.286 80.9398 47.3211 82.4329L46.853 83.1555L54.9861 90.9857V90.9889Z" fill="#CCE7F1"/>
<path id="Vector_59" d="M66.7746 73.0743C65.6091 71.8626 63.622 72.0544 62.7081 73.4676L62.4692 73.8385L70.0545 82.0684L69.4591 75.8624L66.7746 73.0743Z" fill="#CCE7F1"/>
<path id="Vector_60" d="M27.8769 96.2676L67.3574 92.4405C69.37 92.2454 70.8603 90.4294 70.666 88.4087L69.4591 75.8624L66.7747 73.0743C65.6092 71.8626 63.6221 72.0544 62.7081 73.4676L54.9445 85.4767L51.6168 82.0172C50.3844 80.7351 48.2859 80.9397 47.321 82.4329L44.5378 86.7365L33.8604 75.6386C32.6376 74.3661 30.5486 74.5771 29.5997 76.067L23.2021 86.113L23.8581 92.9424C24.0524 94.9663 25.8611 96.4595 27.8737 96.2644L27.8769 96.2676Z" stroke="#4D1B63" stroke-linecap="round" stroke-linejoin="round"/>
</g>
<path id="Vector_61" d="M64.2999 60.6526L24.8148 64.477C22.7929 64.6728 21.3119 66.4773 21.507 68.5074L23.855 92.9461C24.05 94.9762 25.8472 96.4632 27.8691 96.2673L67.3542 92.443C69.3762 92.2471 70.8572 90.4427 70.6621 88.4126L68.3141 63.9738C68.1191 61.9437 66.3219 60.4568 64.2999 60.6526Z" stroke="#4D1B63" stroke-linecap="round" stroke-linejoin="round"/>
<g id="Group_18">
<path id="Vector_62" d="M55.3988 74.9399C57.5775 74.899 59.3106 73.0926 59.27 70.9051C59.2293 68.7176 57.4301 66.9775 55.2515 67.0183C53.0728 67.0592 51.3396 68.8656 51.3803 71.0531C51.421 73.2405 53.2202 74.9807 55.3988 74.9399Z" fill="#94E3E7"/>
<path id="Vector_63" d="M55.5878 73.7167C53.623 73.9086 51.862 72.6137 51.3907 70.7528C51.378 70.9511 51.378 71.1557 51.3971 71.3603C51.6073 73.5377 53.5338 75.1332 55.7024 74.9221C57.871 74.7111 59.46 72.7767 59.2499 70.5994C59.2308 70.3947 59.1894 70.1965 59.1416 70.0015C59.0333 71.9199 57.5494 73.5281 55.5878 73.7167Z" fill="#44AAAA"/>
<path id="Vector_64" d="M55.3988 74.9399C57.5775 74.899 59.3106 73.0926 59.27 70.9051C59.2293 68.7176 57.4301 66.9775 55.2515 67.0183C53.0728 67.0592 51.3396 68.8656 51.3803 71.0531C51.421 73.2405 53.2202 74.9807 55.3988 74.9399Z" stroke="#4D1B63" stroke-linecap="round" stroke-linejoin="round"/>
</g>
</g>
<path id="Vector_65" d="M63.9404 43.3232V63.1626" stroke="#4D1B63" stroke-linecap="round" stroke-linejoin="round"/>
<path id="Vector_66" d="M26.2656 43.3232V66.5165" stroke="#4D1B63" stroke-linecap="round" stroke-linejoin="round"/>
<path id="Vector_67" d="M27.934 66.5167C27.934 67.4407 27.1888 68.1921 26.2653 68.1921C25.3418 68.1921 24.5967 67.4439 24.5967 66.5167C24.5967 65.5895 25.3418 64.8413 26.2653 64.8413C27.1888 64.8413 27.934 65.5895 27.934 66.5167Z" fill="#4D1B63"/>
<path id="Vector_68" d="M65.6058 63.1627C65.6058 64.0867 64.8607 64.8381 63.9372 64.8381C63.0137 64.8381 62.2686 64.0899 62.2686 63.1627C62.2686 62.2355 63.0137 61.4873 63.9372 61.4873C64.8607 61.4873 65.6058 62.2355 65.6058 63.1627Z" fill="#4D1B63"/>
</g>
<g id="Group_19">
<path id="Vector_69" d="M51.9544 20.9646C51.7219 20.9646 51.4926 20.8751 51.3175 20.6992L46.4835 15.8457L41.8438 20.5042C41.4903 20.8591 40.9203 20.8591 40.5669 20.5042C40.2134 20.1493 40.2134 19.577 40.5669 19.2221L45.8435 13.9241C46.181 13.5852 46.7829 13.5852 47.1204 13.9241L52.5913 19.4171C52.9447 19.772 52.9447 20.3443 52.5913 20.6992C52.4161 20.8751 52.1836 20.9646 51.9544 20.9646Z" fill="white"/>
<path id="Vector_70" d="M46.5789 27.2124C46.079 27.2124 45.6777 26.8063 45.6777 26.3075V14.5638C45.6777 14.0618 46.0822 13.6558 46.5789 13.6558C47.0757 13.6558 47.4801 14.0618 47.4801 14.5638V26.3075C47.4801 26.8095 47.0757 27.2124 46.5789 27.2124Z" fill="white"/>
<path id="Vector_71" d="M53.005 30.205H40.1527C39.6527 30.205 39.2515 29.7989 39.2515 29.2969V25.2459C39.2515 24.7439 39.6559 24.3379 40.1527 24.3379C40.6494 24.3379 41.0538 24.7439 41.0538 25.2459V28.3889H52.1006V25.2459C52.1006 24.7439 52.505 24.3379 53.0018 24.3379C53.4986 24.3379 53.903 24.7439 53.903 25.2459V29.2969C53.903 29.7989 53.4986 30.205 53.0018 30.205H53.005Z" fill="white"/>
</g>
</g>
<g id="Group_20">
<g id="Vector_72" style="mix-blend-mode:multiply">
<path d="M73.0892 95.1836L31.2617 106.323L31.4273 99.8996L73.0892 95.1836Z" fill="#BCBEC0"/>
</g>
<path id="Vector_73" d="M96.8447 79.274C96.8447 80.0477 96.2206 80.6744 95.45 80.6744C94.6793 80.6744 94.0552 80.0477 94.0552 79.274C94.0552 78.5002 94.6793 77.8735 95.45 77.8735C96.2206 77.8735 96.8447 78.5002 96.8447 79.274Z" fill="#4D1B63"/>
<path id="Vector_74" d="M106 80.5591C106 80.946 105.688 81.2593 105.303 81.2593C104.918 81.2593 104.605 80.946 104.605 80.5591C104.605 80.1722 104.918 79.8589 105.303 79.8589C105.688 79.8589 106 80.1722 106 80.5591Z" fill="#4D1B63"/>
<path id="Vector_75" d="M5.51245 35.6753C5.51245 36.0622 5.20038 36.3755 4.81507 36.3755C4.42975 36.3755 4.11768 36.0622 4.11768 35.6753C4.11768 35.2884 4.42975 34.9751 4.81507 34.9751C5.20038 34.9751 5.51245 35.2884 5.51245 35.6753Z" fill="#4D1B63"/>
<path id="Vector_76" d="M96.1506 39.9024C96.1506 40.2892 95.8386 40.6026 95.4532 40.6026C95.0679 40.6026 94.7559 40.2892 94.7559 39.9024C94.7559 39.5155 95.0679 39.2021 95.4532 39.2021C95.8386 39.2021 96.1506 39.5155 96.1506 39.9024Z" fill="#4D1B63"/>
<path id="Vector_77" d="M20.4758 51.2686C20.4758 51.6554 20.1638 51.9688 19.7784 51.9688C19.3931 51.9688 19.0811 51.6554 19.0811 51.2686C19.0811 50.8817 19.3931 50.5684 19.7784 50.5684C20.1638 50.5684 20.4758 50.8817 20.4758 51.2686Z" fill="#4D1B63"/>
<path id="Vector_78" d="M95.4534 72.4697C95.4534 72.8566 95.1413 73.17 94.756 73.17C94.3707 73.17 94.0586 72.8566 94.0586 72.4697C94.0586 72.0829 94.3707 71.7695 94.756 71.7695C95.1413 71.7695 95.4534 72.0829 95.4534 72.4697Z" fill="#4D1B63"/>
<path id="Vector_79" d="M68.9015 47.5244C69.2866 47.5244 69.5989 47.211 69.5989 46.8242C69.5989 46.4375 69.2866 46.124 68.9015 46.124C68.5163 46.124 68.2041 46.4375 68.2041 46.8242C68.2041 47.211 68.5163 47.5244 68.9015 47.5244Z" fill="#4D1B63"/>
<path id="Vector_80" d="M10.4641 77.1699C10.4641 77.5568 10.152 77.8702 9.76673 77.8702C9.38141 77.8702 9.06934 77.5568 9.06934 77.1699C9.06934 76.7831 9.38141 76.4697 9.76673 76.4697C10.152 76.4697 10.4641 76.7831 10.4641 77.1699Z" fill="#4D1B63"/>
<path id="Vector_81" d="M4.3213 39.2022C4.3213 39.9759 3.69715 40.6026 2.92652 40.6026C2.15589 40.6026 1.53174 39.9759 1.53174 39.2022C1.53174 38.4284 2.15589 37.8018 2.92652 37.8018C3.69715 37.8018 4.3213 38.4284 4.3213 39.2022Z" fill="#4D1B63"/>
<path id="Vector_82" d="M93.6602 44.7237C93.6602 45.4974 93.036 46.1241 92.2654 46.1241C91.4948 46.1241 90.8706 45.4974 90.8706 44.7237C90.8706 43.9499 91.4948 43.3232 92.2654 43.3232C93.036 43.3232 93.6602 43.9499 93.6602 44.7237Z" fill="#4D1B63"/>
<path id="Vector_83" d="M6.20948 84.2808C6.20948 85.0545 5.58533 85.6812 4.8147 85.6812C4.04407 85.6812 3.41992 85.0545 3.41992 84.2808C3.41992 83.507 4.04407 82.8804 4.8147 82.8804C5.58533 82.8804 6.20948 83.507 6.20948 84.2808Z" fill="#4D1B63"/>
<path id="Vector_84" d="M13.9287 55.1919C13.9287 55.9657 13.3046 56.5923 12.5339 56.5923C11.7633 56.5923 11.1392 55.9657 11.1392 55.1919C11.1392 54.4182 11.7633 53.7915 12.5339 53.7915C13.3046 53.7915 13.9287 54.4182 13.9287 55.1919Z" fill="#4D1B63"/>
</g>
<g id="Group_21">
<path id="Vector_85" d="M31.4908 93.8892L17.4379 79.7795C16.7692 79.108 15.6833 79.108 15.0145 79.7795L0.958479 93.8892C-0.121042 94.9731 0.643221 96.8275 2.17175 96.8275H3.81491C4.76068 96.8275 5.52813 97.5981 5.52813 98.5477V115.823C5.52813 116.772 6.29558 117.543 7.24135 117.543H25.2047C26.1505 117.543 26.9179 116.772 26.9179 115.823V98.5477C26.9179 97.5981 27.6854 96.8275 28.6311 96.8275H30.2743C31.8028 96.8275 32.5671 94.9731 31.4876 93.8892H31.4908Z" fill="#DB435A"/>
<path id="Vector_86" d="M26.9181 115.826V98.5507C26.9181 97.6011 27.6855 96.8305 28.6313 96.8305H30.2744C31.803 96.8305 32.5672 94.9761 31.4877 93.8922L29.5516 91.9482C29.6376 93.4861 29.3319 94.8738 27.9434 94.8738C24.8291 94.8738 25.1857 98.7074 25.1857 102.985C25.1857 106.231 25.1794 113.991 25.1762 117.546H25.2048C26.1506 117.546 26.9181 116.775 26.9181 115.826Z" fill="#B22F48"/>
<path id="Vector_87" d="M7.81455 92.1369C9.98314 90.1353 15.8329 84.54 19.081 81.429L17.4347 79.776C16.766 79.1046 15.6801 79.1046 15.0114 79.776L0.958479 93.889C-0.121042 94.9729 0.643221 96.8273 2.17175 96.8273H3.81491C4.76068 96.8273 5.52813 97.5979 5.52813 98.5475V115.823C5.52813 116.772 6.29558 117.543 7.24135 117.543H9.72202V96.7953C9.72202 96.7953 4.74795 94.9633 7.81455 92.1337V92.1369Z" fill="#ED6B84"/>
<path id="Vector_88" d="M31.4908 93.8892L17.4379 79.7795C16.7692 79.108 15.6833 79.108 15.0145 79.7795L0.958479 93.8892C-0.121042 94.9731 0.643221 96.8275 2.17175 96.8275H3.81491C4.76068 96.8275 5.52813 97.5981 5.52813 98.5477V115.823C5.52813 116.772 6.29558 117.543 7.24135 117.543H25.2047C26.1505 117.543 26.9179 116.772 26.9179 115.823V98.5477C26.9179 97.5981 27.6854 96.8275 28.6311 96.8275H30.2743C31.8028 96.8275 32.5671 94.9731 31.4876 93.8892H31.4908Z" stroke="#4D1B63" stroke-linecap="round" stroke-linejoin="round"/>
</g>
</g>
</g>
</g>
</g>
<defs>
<clipPath id="clip0_438_1531">
<rect width="106" height="118" fill="white"/>
</clipPath>
</defs>
</svg>
