<svg width="40" height="40" viewBox="0 0 40 40" fill="none" xmlns="http://www.w3.org/2000/svg">
    <rect width="40" height="40" rx="14" fill="#FFEFE8"/>
    <path d="M24.19 10H15.81C12.17 10 10 12.17 10 15.81V24.18C10 27.83 12.17 30 15.81 30H24.18C27.82 30 29.99 27.83 29.99 24.19V15.81C30 12.17 27.83 10 24.19 10ZM24.37 22.35L22.15 24.57C21.61 25.11 20.91 25.37 20.21 25.37C19.51 25.37 18.8 25.1 18.27 24.57C17.75 24.05 17.46 23.36 17.46 22.63C17.46 21.9 17.75 21.2 18.27 20.69L19.68 19.28C19.97 18.99 20.45 18.99 20.74 19.28C21.03 19.57 21.03 20.05 20.74 20.34L19.33 21.75C19.09 21.99 18.96 22.3 18.96 22.63C18.96 22.96 19.09 23.28 19.33 23.51C19.82 24 20.61 24 21.1 23.51L23.32 21.29C24.59 20.02 24.59 17.96 23.32 16.69C22.05 15.42 19.99 15.42 18.72 16.69L16.3 19.11C15.79 19.62 15.51 20.29 15.51 21C15.51 21.71 15.79 22.39 16.3 22.89C16.59 23.18 16.59 23.66 16.3 23.95C16.01 24.24 15.53 24.24 15.24 23.95C14.44 23.18 14 22.13 14 21.01C14 19.89 14.43 18.84 15.22 18.05L17.64 15.63C19.49 13.78 22.51 13.78 24.36 15.63C26.22 17.48 26.22 20.5 24.37 22.35Z" fill="#F87036"/>
</svg>
