<svg width="24" height="24" viewBox="0 0 24 24" fill="none" xmlns="http://www.w3.org/2000/svg">
    <path d="M11.5 1L11.6243 1.00744C11.8615 1.03541 12.0823 1.14246 12.2512 1.31132C12.42 1.48019 12.5271 1.70102 12.5551 1.93819L12.5625 2.0625V6.3125L12.5678 6.47188C12.6058 6.97781 12.8236 7.45344 13.1818 7.81278C13.54 8.17212 14.0149 8.39146 14.5207 8.43113L14.6875 8.4375H18.9375L19.0618 8.44494C19.299 8.47291 19.5198 8.57996 19.6887 8.74883C19.8575 8.91769 19.9646 9.13852 19.9926 9.37569L20 9.5V19.0625C20 19.8755 19.6894 20.6579 19.1316 21.2494C18.5739 21.8409 17.8111 22.197 16.9995 22.2447L16.8125 22.25H6.1875C5.37446 22.25 4.59214 21.9394 4.0006 21.3816C3.40906 20.8239 3.05301 20.0611 3.00531 19.2495L3 19.0625V4.1875C2.99995 3.37446 3.3106 2.59214 3.86836 2.0006C4.42613 1.40906 5.18886 1.05301 6.0005 1.00531L6.1875 1H11.5Z" fill="#2951A0"/>
    <path d="M18.9375 6.31259H14.6875L14.6864 2.06152L18.9375 6.31259Z" fill="#2951A0"/>
    <path d="M15.8286 12.1765C15.6 11.9412 15.2571 11.9412 15.0286 12.1765L10.7429 16.5882L8.97143 14.7647C8.74286 14.5294 8.4 14.5294 8.17143 14.7647C7.94286 15 7.94286 15.3529 8.17143 15.5882L10.3429 17.8235C10.4571 17.9412 10.5714 18 10.7429 18C10.9143 18 11.0286 17.9412 11.1429 17.8235L15.8286 13C16.0571 12.7647 16.0571 12.4118 15.8286 12.1765Z" fill="white"/>
</svg>
