<svg width="111" height="119" viewBox="0 0 111 119" fill="none" xmlns="http://www.w3.org/2000/svg">
<g id="Group">
<g id="Group_2">
<path id="Vector" d="M107.636 55.28C104.675 47.7715 95.4148 43.4735 93.6361 35.6973C90.8958 23.7178 105.458 13.9422 88.3609 6.93087C51.8691 -8.0337 42.9631 6.21043 20.713 39.6372C15.1225 48.0364 -4.87665 52.5676 1.10447 65.1818C2.89936 68.9668 7.47463 70.3778 11.1183 72.4453C30.5964 83.4977 33.065 115.992 57.7823 118.843C73.5396 120.661 84.8492 106.334 92.6948 94.361C100.168 82.9558 113.332 69.7207 107.636 55.28Z" fill="url(#paint0_linear_928_874)"/>
</g>
<g id="Group_3">
<g id="Group_4">
<g id="Group_5" opacity="0.1">
<path id="Vector_2" d="M31.8955 24.6494H34.757C35.3936 24.6494 35.9094 24.1334 35.9094 23.4971C35.9094 22.8607 35.3936 22.3447 34.757 22.3447H31.8955C31.259 22.3447 30.7432 22.8607 30.7432 23.4971C30.7432 24.1334 31.2592 24.6494 31.8955 24.6494Z" fill="#4D1B63"/>
<path id="Vector_3" d="M22.6943 24.6494H25.5558C26.1924 24.6494 26.7082 24.1334 26.7082 23.4971C26.7082 22.8607 26.1924 22.3447 25.5558 22.3447H22.6943C22.0578 22.3447 21.542 22.8607 21.542 23.4971C21.542 24.1334 22.0578 24.6494 22.6943 24.6494Z" fill="#4D1B63"/>
<path id="Vector_4" d="M13.4932 26.6468C14.1297 26.6468 14.6455 26.1308 14.6455 25.4945V24.6493H16.3547C16.9912 24.6493 17.507 24.1333 17.507 23.497C17.507 22.8607 16.9912 22.3446 16.3547 22.3446H14.6455V21.4995C14.6455 20.8632 14.1297 20.3472 13.4932 20.3472C12.8566 20.3472 12.3408 20.8632 12.3408 21.4995V25.4945C12.3408 26.1308 12.8566 26.6468 13.4932 26.6468Z" fill="#4D1B63"/>
<path id="Vector_5" d="M74.2695 24.6494H77.131C77.7676 24.6494 78.2834 24.1334 78.2834 23.4971C78.2834 22.8607 77.7676 22.3447 77.131 22.3447H74.2695C73.633 22.3447 73.1172 22.8607 73.1172 23.4971C73.1172 24.1334 73.633 24.6494 74.2695 24.6494Z" fill="#4D1B63"/>
<path id="Vector_6" d="M83.4707 24.6494H86.3322C86.9688 24.6494 87.4846 24.1334 87.4846 23.4971C87.4846 22.8607 86.9688 22.3447 86.3322 22.3447H83.4707C82.8341 22.3447 82.3184 22.8607 82.3184 23.4971C82.3184 24.1334 82.8344 24.6494 83.4707 24.6494Z" fill="#4D1B63"/>
<path id="Vector_7" d="M92.6719 24.6493H94.381V25.4945C94.381 26.1308 94.8968 26.6468 95.5334 26.6468C96.1699 26.6468 96.6857 26.1308 96.6857 25.4945V21.4995C96.6857 20.8632 96.1699 20.3472 95.5334 20.3472C94.8968 20.3472 94.381 20.8632 94.381 21.4995V22.3446H92.6719C92.0353 22.3446 91.5195 22.8607 91.5195 23.497C91.5195 24.1333 92.0356 24.6493 92.6719 24.6493Z" fill="#4D1B63"/>
<path id="Vector_8" d="M100.477 39.8805H62.6802C65.3309 37.5563 67.0105 34.1232 67.0105 30.2903C67.0105 28.2631 66.539 26.3486 65.7047 24.6491H67.9299C68.5664 24.6491 69.0822 24.1331 69.0822 23.4967C69.0822 22.8604 68.5664 22.3444 67.9299 22.3444H65.0684C64.8229 22.3444 64.5964 22.4225 64.4094 22.5532C62.1241 19.5504 58.5426 17.6143 54.5133 17.6143C50.4841 17.6143 46.9026 19.5504 44.6173 22.5532C44.4303 22.4223 44.2038 22.3444 43.9583 22.3444H41.0968C40.4603 22.3444 39.9445 22.8604 39.9445 23.4967C39.9445 24.1331 40.4603 24.6491 41.0968 24.6491H43.322C42.4877 26.3483 42.0162 28.2631 42.0162 30.2903C42.0162 34.1232 43.6958 37.556 46.3465 39.8805H8.54936C6.65421 39.8805 5.11768 41.4168 5.11768 43.3122V78.3481C5.11768 80.2435 6.65421 81.7798 8.54936 81.7798H10.7628L14.2652 95.9967V103.769C14.2652 104.405 14.7812 104.921 15.4176 104.921H34.8002C35.4365 104.921 35.9525 104.405 35.9525 103.769V99.8969C35.9525 97.6846 36.8571 95.5715 38.4506 94.0607L40.5064 92.1119C41.3123 91.3479 41.9231 90.397 42.2865 89.3405L45.001 81.7795H66.0912L66.9119 84.0658C67.2753 85.122 67.8863 86.0732 68.692 86.8372L70.7478 88.786C72.3413 90.2967 73.2458 92.4099 73.2458 94.6222V98.4943C73.2458 99.1306 73.7619 99.6466 74.3982 99.6466H93.7808C94.4172 99.6466 94.9332 99.1306 94.9332 98.4943V90.7219L97.1362 81.7798H100.477C102.373 81.7798 103.908 80.2425 103.908 78.3481V43.3122C103.908 41.4178 102.373 39.8805 100.477 39.8805Z" fill="#4D1B63"/>
<path id="Vector_9" d="M43.897 99.1553H45.85C46.4865 99.1553 47.0023 98.6393 47.0023 98.0029C47.0023 97.3666 46.4865 96.8506 45.85 96.8506H43.897C43.2604 96.8506 42.7446 97.3666 42.7446 98.0029C42.7446 98.6393 43.2604 99.1553 43.897 99.1553Z" fill="#4D1B63"/>
<path id="Vector_10" d="M50.0532 101.232H43.8965C43.2599 101.232 42.7441 101.748 42.7441 102.384C42.7441 103.021 43.2599 103.537 43.8965 103.537H50.0532C50.6898 103.537 51.2056 103.021 51.2056 102.384C51.2056 101.748 50.6898 101.232 50.0532 101.232Z" fill="#4D1B63"/>
<path id="Vector_11" d="M50.0532 105.613H43.8965C43.2599 105.613 42.7441 106.129 42.7441 106.765C42.7441 107.401 43.2599 107.917 43.8965 107.917H50.0532C50.6898 107.917 51.2056 107.401 51.2056 106.765C51.2056 106.129 50.6898 105.613 50.0532 105.613Z" fill="#4D1B63"/>
</g>
<g id="Group_6">
<g id="Group_7">
<g id="Group_8">
<path id="Vector_12" d="M99.3647 31.7216V66.7551C99.3647 68.6519 97.8274 70.1891 95.9307 70.1891H13.0933C11.1988 70.1891 9.66162 68.6519 9.66162 66.7551V31.7216C9.66162 29.8248 11.1988 28.2876 13.0933 28.2876H95.9307C97.8274 28.2876 99.3647 29.8248 99.3647 31.7216Z" fill="#6C6CFF"/>
<path id="Vector_13" d="M67.0095 30.2904C67.0095 37.2897 61.4137 42.9662 54.5135 42.9662C47.6109 42.9662 42.0151 37.2897 42.0151 30.2904C42.0151 29.6082 42.0681 28.9398 42.1696 28.2876H66.8551C66.9565 28.9398 67.0095 29.6082 67.0095 30.2904Z" fill="#4D4DFF"/>
<path id="Vector_14" d="M35.7845 28.2886H13.0937C11.1979 28.2886 9.66113 29.8253 9.66113 31.7212V66.7554C9.66113 68.6513 11.1979 70.188 13.0937 70.188H95.9314C97.8272 70.188 99.3639 68.6513 99.3639 66.7554V31.7212C99.3639 29.8253 97.8272 28.2886 95.9314 28.2886H46.9355" stroke="#4D1B63" stroke-miterlimit="10" stroke-linecap="round" stroke-linejoin="round"/>
</g>
<g id="Group_9">
<g id="Group_10">
<path id="Vector_15" d="M103.908 37.7803V72.8162C103.908 74.7106 102.373 76.2479 100.476 76.2479H8.54936C6.6549 76.2479 5.11768 74.7106 5.11768 72.8162V37.7803C5.11768 35.8859 6.6549 34.3486 8.54936 34.3486H100.476C102.373 34.3486 103.908 35.8859 103.908 37.7803Z" fill="#B2B2FF"/>
</g>
<path id="Vector_16" d="M66.3562 34.3486C64.6876 39.359 60.016 42.9659 54.5147 42.9659C49.0111 42.9659 44.3395 39.359 42.6709 34.3486H66.3562Z" fill="#9393FF"/>
<g id="Group_11">
<g id="Group_12">
<g id="Group_13">
<g id="Group_14">
<path id="Vector_17" d="M66.2962 72.0811H33.4229C33.041 72.0811 32.7314 71.7715 32.7314 71.3896V65.8584C32.7314 65.4765 33.041 65.167 33.4229 65.167H66.2962C66.6781 65.167 66.9876 65.4765 66.9876 65.8584V71.3896C66.9876 71.7715 66.6781 72.0811 66.2962 72.0811Z" fill="#6C6CFF"/>
<g id="Group_15">
<g id="Group_16">
<path id="Vector_18" d="M27.0384 63.1973H11.3096C10.9277 63.1973 10.6182 62.8877 10.6182 62.5059V56.9746C10.6182 56.5927 10.9277 56.2832 11.3096 56.2832H27.0381C27.42 56.2832 27.7295 56.5927 27.7295 56.9746V62.5059C27.7298 62.8877 27.4203 63.1973 27.0384 63.1973Z" fill="#6C6CFF"/>
<path id="Vector_19" d="M22.429 54.3135H11.3096C10.9277 54.3135 10.6182 54.004 10.6182 53.6221V48.0908C10.6182 47.7089 10.9277 47.3994 11.3096 47.3994H22.4288C22.8107 47.3994 23.1202 47.7089 23.1202 48.0908V53.6221C23.1204 54.004 22.8109 54.3135 22.429 54.3135Z" fill="#6C6CFF"/>
</g>
</g>
</g>
<g id="Group_17">
<path id="Vector_20" d="M88.4414 54.3135H97.7169C98.0987 54.3135 98.4083 54.004 98.4083 53.6221V48.0908C98.4083 47.7089 98.0987 47.3994 97.7169 47.3994H88.4414C88.0595 47.3994 87.75 47.7089 87.75 48.0908V53.6221C87.75 54.004 88.0595 54.3135 88.4414 54.3135Z" fill="#6C6CFF"/>
</g>
</g>
<g id="Group_18">
<path id="Vector_21" d="M16.8408 45.4297H11.3096C10.9277 45.4297 10.6182 45.1202 10.6182 44.7383V39.207C10.6182 38.8251 10.9277 38.5156 11.3096 38.5156H16.8408C17.2227 38.5156 17.5322 38.8251 17.5322 39.207V44.7383C17.5322 45.1202 17.2227 45.4297 16.8408 45.4297Z" fill="#6C6CFF"/>
<path id="Vector_22" d="M25.8272 45.4297H20.2959C19.914 45.4297 19.6045 45.1202 19.6045 44.7383V39.207C19.6045 38.8251 19.914 38.5156 20.2959 38.5156H25.8272C26.209 38.5156 26.5186 38.8251 26.5186 39.207V44.7383C26.5186 45.1202 26.209 45.4297 25.8272 45.4297Z" fill="#6C6CFF"/>
<path id="Vector_23" d="M34.8135 45.4297H29.2822C28.9003 45.4297 28.5908 45.1202 28.5908 44.7383V39.207C28.5908 38.8251 28.9003 38.5156 29.2822 38.5156H34.8135C35.1954 38.5156 35.5049 38.8251 35.5049 39.207V44.7383C35.5049 45.1202 35.1954 45.4297 34.8135 45.4297Z" fill="#6C6CFF"/>
<path id="Vector_24" d="M43.7993 45.4297H38.2681C37.8862 45.4297 37.5767 45.1202 37.5767 44.7383V39.207C37.5767 38.8251 37.8862 38.5156 38.2681 38.5156H43.7993C44.1812 38.5156 44.4907 38.8251 44.4907 39.207V44.7383C44.4907 45.1202 44.1812 45.4297 43.7993 45.4297Z" fill="#6C6CFF"/>
<path id="Vector_25" d="M52.7856 45.4297H47.2544C46.8725 45.4297 46.563 45.1202 46.563 44.7383V39.207C46.563 38.8251 46.8725 38.5156 47.2544 38.5156H52.7856C53.1675 38.5156 53.4771 38.8251 53.4771 39.207V44.7383C53.4771 45.1202 53.1675 45.4297 52.7856 45.4297Z" fill="#6C6CFF"/>
<path id="Vector_26" d="M53.4761 39.207V42.9222C50.8603 42.7055 48.4726 41.6707 46.562 40.069V39.207C46.562 38.8245 46.8731 38.5156 47.2534 38.5156H52.7847C53.1672 38.5156 53.4761 38.8245 53.4761 39.207Z" fill="#4D4DFF"/>
<path id="Vector_27" d="M61.772 45.4297H56.2407C55.8588 45.4297 55.5493 45.1202 55.5493 44.7383V39.207C55.5493 38.8251 55.8588 38.5156 56.2407 38.5156H61.772C62.1539 38.5156 62.4634 38.8251 62.4634 39.207V44.7383C62.4634 45.1202 62.1536 45.4297 61.772 45.4297Z" fill="#6C6CFF"/>
<path id="Vector_28" d="M62.4644 39.207V40.069C60.5538 41.6707 58.1661 42.7055 55.5503 42.9222V39.207C55.5503 38.8245 55.8591 38.5156 56.2417 38.5156H61.7729C62.1532 38.5156 62.4644 38.8245 62.4644 39.207Z" fill="#4D4DFF"/>
<path id="Vector_29" d="M70.7583 45.4297H65.2271C64.8452 45.4297 64.5356 45.1202 64.5356 44.7383V39.207C64.5356 38.8251 64.8452 38.5156 65.2271 38.5156H70.7583C71.1402 38.5156 71.4497 38.8251 71.4497 39.207V44.7383C71.4497 45.1202 71.14 45.4297 70.7583 45.4297Z" fill="#6C6CFF"/>
<path id="Vector_30" d="M79.7446 45.4297H74.2134C73.8315 45.4297 73.522 45.1202 73.522 44.7383V39.207C73.522 38.8251 73.8315 38.5156 74.2134 38.5156H79.7446C80.1265 38.5156 80.436 38.8251 80.436 39.207V44.7383C80.436 45.1202 80.1263 45.4297 79.7446 45.4297Z" fill="#6C6CFF"/>
<path id="Vector_31" d="M88.7305 45.4297H83.1992C82.8173 45.4297 82.5078 45.1202 82.5078 44.7383V39.207C82.5078 38.8251 82.8173 38.5156 83.1992 38.5156H88.7305C89.1124 38.5156 89.4219 38.8251 89.4219 39.207V44.7383C89.4219 45.1202 89.1124 45.4297 88.7305 45.4297Z" fill="#6C6CFF"/>
<path id="Vector_32" d="M97.7168 45.4297H92.1855C91.8037 45.4297 91.4941 45.1202 91.4941 44.7383V39.207C91.4941 38.8251 91.8037 38.5156 92.1855 38.5156H97.7168C98.0987 38.5156 98.4082 38.8251 98.4082 39.207V44.7383C98.4082 45.1202 98.0987 45.4297 97.7168 45.4297Z" fill="#6C6CFF"/>
</g>
</g>
<g id="Group_19">
<path id="Vector_33" d="M31.3564 54.3135H25.8252C25.4433 54.3135 25.1338 54.004 25.1338 53.6221V48.0908C25.1338 47.7089 25.4433 47.3994 25.8252 47.3994H31.3564C31.7383 47.3994 32.0479 47.7089 32.0479 48.0908V53.6221C32.0479 54.004 31.7383 54.3135 31.3564 54.3135Z" fill="#6C6CFF"/>
<path id="Vector_34" d="M40.3428 54.3135H34.8115C34.4296 54.3135 34.1201 54.004 34.1201 53.6221V48.0908C34.1201 47.7089 34.4296 47.3994 34.8115 47.3994H40.3428C40.7247 47.3994 41.0342 47.7089 41.0342 48.0908V53.6221C41.0342 54.004 40.7247 54.3135 40.3428 54.3135Z" fill="#6C6CFF"/>
<path id="Vector_35" d="M49.3291 54.3135H43.7979C43.416 54.3135 43.1064 54.004 43.1064 53.6221V48.0908C43.1064 47.7089 43.416 47.3994 43.7979 47.3994H49.3291C49.711 47.3994 50.0205 47.7089 50.0205 48.0908V53.6221C50.0205 54.004 49.711 54.3135 49.3291 54.3135Z" fill="#6C6CFF"/>
<path id="Vector_36" d="M58.3154 54.3135H52.7842C52.4023 54.3135 52.0928 54.004 52.0928 53.6221V48.0908C52.0928 47.7089 52.4023 47.3994 52.7842 47.3994H58.3154C58.6973 47.3994 59.0068 47.7089 59.0068 48.0908V53.6221C59.0068 54.004 58.6971 54.3135 58.3154 54.3135Z" fill="#6C6CFF"/>
<path id="Vector_37" d="M67.3013 54.3135H61.77C61.3881 54.3135 61.0786 54.004 61.0786 53.6221V48.0908C61.0786 47.7089 61.3881 47.3994 61.77 47.3994H67.3013C67.6832 47.3994 67.9927 47.7089 67.9927 48.0908V53.6221C67.9927 54.004 67.6829 54.3135 67.3013 54.3135Z" fill="#6C6CFF"/>
<path id="Vector_38" d="M76.2876 54.3135H70.7563C70.3745 54.3135 70.0649 54.004 70.0649 53.6221V48.0908C70.0649 47.7089 70.3745 47.3994 70.7563 47.3994H76.2876C76.6695 47.3994 76.979 47.7089 76.979 48.0908V53.6221C76.979 54.004 76.6693 54.3135 76.2876 54.3135Z" fill="#6C6CFF"/>
<path id="Vector_39" d="M85.2739 54.3135H79.7427C79.3608 54.3135 79.0513 54.004 79.0513 53.6221V48.0908C79.0513 47.7089 79.3608 47.3994 79.7427 47.3994H85.2739C85.6558 47.3994 85.9653 47.7089 85.9653 48.0908V53.6221C85.9653 54.004 85.6558 54.3135 85.2739 54.3135Z" fill="#6C6CFF"/>
</g>
<g id="Group_20">
<path id="Vector_40" d="M35.8853 63.1973H30.354C29.9721 63.1973 29.6626 62.8877 29.6626 62.5059V56.9746C29.6626 56.5927 29.9721 56.2832 30.354 56.2832H35.8853C36.2671 56.2832 36.5767 56.5927 36.5767 56.9746V62.5059C36.5767 62.8877 36.2671 63.1973 35.8853 63.1973Z" fill="#6C6CFF"/>
<path id="Vector_41" d="M44.8716 63.1973H39.3403C38.9584 63.1973 38.6489 62.8877 38.6489 62.5059V56.9746C38.6489 56.5927 38.9584 56.2832 39.3403 56.2832H44.8716C45.2535 56.2832 45.563 56.5927 45.563 56.9746V62.5059C45.563 62.8877 45.2535 63.1973 44.8716 63.1973Z" fill="#6C6CFF"/>
<path id="Vector_42" d="M53.8574 63.1973H48.3262C47.9443 63.1973 47.6348 62.8877 47.6348 62.5059V56.9746C47.6348 56.5927 47.9443 56.2832 48.3262 56.2832H53.8574C54.2393 56.2832 54.5488 56.5927 54.5488 56.9746V62.5059C54.5488 62.8877 54.2393 63.1973 53.8574 63.1973Z" fill="#6C6CFF"/>
<path id="Vector_43" d="M62.8438 63.1973H57.3125C56.9306 63.1973 56.6211 62.8877 56.6211 62.5059V56.9746C56.6211 56.5927 56.9306 56.2832 57.3125 56.2832H62.8438C63.2256 56.2832 63.5352 56.5927 63.5352 56.9746V62.5059C63.5352 62.8877 63.2256 63.1973 62.8438 63.1973Z" fill="#6C6CFF"/>
<path id="Vector_44" d="M71.8301 63.1973H66.2988C65.9169 63.1973 65.6074 62.8877 65.6074 62.5059V56.9746C65.6074 56.5927 65.9169 56.2832 66.2988 56.2832H71.8301C72.212 56.2832 72.5215 56.5927 72.5215 56.9746V62.5059C72.5215 62.8877 72.2117 63.1973 71.8301 63.1973Z" fill="#6C6CFF"/>
</g>
</g>
<path id="Vector_45" d="M100.476 76.2481H8.55028C6.65444 76.2481 5.11768 74.7113 5.11768 72.8155V37.7812C5.11768 35.8854 6.65444 34.3486 8.55028 34.3486H100.477C102.372 34.3486 103.909 35.8854 103.909 37.7812V72.8155C103.909 74.7113 102.372 76.2481 100.476 76.2481Z" stroke="#4D1B63" stroke-miterlimit="10" stroke-linecap="round" stroke-linejoin="round"/>
</g>
<g id="Group_21">
<g id="Group_22">
<path id="Vector_46" d="M54.5133 37.4346C61.4153 37.4346 67.0105 31.7594 67.0105 24.7588C67.0105 17.7581 61.4153 12.083 54.5133 12.083C47.6113 12.083 42.0161 17.7581 42.0161 24.7588C42.0161 31.7594 47.6113 37.4346 54.5133 37.4346Z" fill="#FFAA66"/>
<path id="Vector_47" d="M54.5133 37.4346C61.4153 37.4346 67.0105 31.7594 67.0105 24.7588C67.0105 17.7581 61.4153 12.083 54.5133 12.083C47.6113 12.083 42.0161 17.7581 42.0161 24.7588C42.0161 31.7594 47.6113 37.4346 54.5133 37.4346Z" stroke="#4D1B63" stroke-miterlimit="10" stroke-linecap="round" stroke-linejoin="round"/>
</g>
<g id="Group_23">
<path id="Vector_48" d="M49.8926 20.0103V18.6895H59.1339V20.0103" stroke="white" stroke-width="10" stroke-miterlimit="10" stroke-linecap="round" stroke-linejoin="round"/>
<g id="Group_24">
<path id="Vector_49" d="M55.6188 30.8286H53.4077" stroke="white" stroke-width="10" stroke-miterlimit="10" stroke-linecap="round" stroke-linejoin="round"/>
<path id="Vector_50" d="M54.5132 18.6895V30.8285" stroke="white" stroke-width="10" stroke-miterlimit="10" stroke-linecap="round" stroke-linejoin="round"/>
</g>
</g>
</g>
</g>
<g id="Group_25">
<g id="Group_26">
<g id="Group_27">
<g id="Group_28">
<path id="Vector_51" d="M95.6046 56.5369C93.7533 56.4701 92.232 57.9725 92.232 59.8354V58.7128C92.232 56.9232 90.86 55.3989 89.0967 55.3352C87.2453 55.2684 85.724 56.7708 85.724 58.6337V56.5307C85.724 54.7079 84.2672 53.2301 82.47 53.2301C80.6728 53.2301 79.216 54.7079 79.216 56.5307V47.0428C79.216 45.2532 77.844 43.7288 76.0807 43.6652C74.2293 43.5984 72.708 45.1008 72.708 46.9637V66.634C72.708 67.0802 72.4755 67.5063 72.0814 67.7047C71.4732 68.011 70.7435 67.71 70.5149 67.0679L69.2021 63.6619C68.1809 61.0122 65.2639 59.6706 62.6259 60.6374C61.5826 61.0198 61.0438 62.1887 61.4234 63.2459L66.9122 78.5345C67.2756 79.5907 67.8866 80.5418 68.6923 81.3059L70.7481 83.2547C72.3416 84.7654 73.2462 86.8786 73.2462 89.0909V94.1153H94.9335V85.1906L98.7404 69.7375V59.9144C98.7402 58.1246 97.3682 56.6005 95.6046 56.5369Z" fill="#FFC498"/>
</g>
<g id="Group_29">
<g id="Group_30">
<path id="Vector_52" d="M79.2158 56.5308V63.5428" stroke="#4D1B63" stroke-miterlimit="10" stroke-linecap="round" stroke-linejoin="round"/>
</g>
<g id="Group_31">
<path id="Vector_53" d="M85.7241 58.6338V63.5428" stroke="#4D1B63" stroke-miterlimit="10" stroke-linecap="round" stroke-linejoin="round"/>
<path id="Vector_54" d="M92.2319 59.8354V63.5428" stroke="#4D1B63" stroke-miterlimit="10" stroke-linecap="round" stroke-linejoin="round"/>
</g>
</g>
<g id="Group_32">
<path id="Vector_55" d="M72.708 66.6338V72.744" stroke="#4D1B63" stroke-miterlimit="10" stroke-linecap="round" stroke-linejoin="round"/>
</g>
<g id="Group_33">
<path id="Vector_56" d="M94.9331 94.1153V85.1906L98.7399 69.7375V59.9144C98.7399 58.1248 97.368 56.6005 95.6046 56.5369C93.7533 56.4701 92.232 57.9725 92.232 59.8354V58.7128C92.232 56.9232 90.86 55.3989 89.0967 55.3352C87.2453 55.2684 85.724 56.7708 85.724 58.6337V56.5307C85.724 54.7079 84.2672 53.2301 82.47 53.2301C80.6728 53.2301 79.216 54.7079 79.216 56.5307V47.0428C79.216 45.2532 77.844 43.7288 76.0807 43.6652C74.2293 43.5984 72.708 45.1008 72.708 46.9637V66.634C72.708 67.0802 72.4755 67.5063 72.0814 67.7047C71.4732 68.011 70.7435 67.71 70.5149 67.0679L69.2021 63.6619C68.1809 61.0122 65.2639 59.6706 62.6259 60.6374C61.5826 61.0198 61.0438 62.1887 61.4234 63.2459L66.9122 78.5345C67.2756 79.5907 67.8866 80.5418 68.6923 81.3058L70.7481 83.2547C72.3416 84.7654 73.2462 86.8786 73.2462 89.0909V94.1153" stroke="#4D1B63" stroke-miterlimit="10" stroke-linecap="round" stroke-linejoin="round"/>
</g>
</g>
</g>
<g id="Group_34">
<g id="Group_35">
<path id="Vector_57" d="M13.5938 61.8118C15.4451 61.745 16.9665 63.2474 16.9665 65.1103V63.9877C16.9665 62.1981 18.3385 60.6738 20.1018 60.6101C21.9531 60.5433 23.4744 62.0457 23.4744 63.9086V61.8056C23.4744 59.9828 24.9312 58.505 26.7284 58.505C28.5256 58.505 29.9824 59.9828 29.9824 61.8056V52.3177C29.9824 50.5281 31.3544 49.0037 33.1177 48.9401C34.9691 48.8733 36.4904 50.3757 36.4904 52.2386V71.9089C36.4904 72.3551 36.7229 72.7812 37.117 72.9796C37.7253 73.2859 38.4549 72.9849 38.6835 72.3429L39.9963 68.9368C41.0175 66.2871 43.9345 64.9455 46.5725 65.9123C47.6158 66.2947 48.1547 67.4636 47.7751 68.5208L42.2862 83.8094C41.9228 84.8656 41.3118 85.8167 40.5061 86.5807L38.4503 88.5296C36.8568 90.0403 35.9523 92.1535 35.9523 94.3657V99.3902H14.2654V90.4655L10.4585 75.0124V65.1893C10.4585 63.3997 11.8305 61.8754 13.5938 61.8118Z" fill="#FFC498"/>
</g>
<g id="Group_36">
<g id="Group_37">
<path id="Vector_58" d="M29.9824 61.8057V68.8177" stroke="#4D1B63" stroke-miterlimit="10" stroke-linecap="round" stroke-linejoin="round"/>
</g>
<g id="Group_38">
<path id="Vector_59" d="M23.4746 63.9087V68.8177" stroke="#4D1B63" stroke-miterlimit="10" stroke-linecap="round" stroke-linejoin="round"/>
<path id="Vector_60" d="M16.9663 65.1104V68.8177" stroke="#4D1B63" stroke-miterlimit="10" stroke-linecap="round" stroke-linejoin="round"/>
</g>
</g>
<g id="Group_39">
<path id="Vector_61" d="M36.4907 71.9087V78.0189" stroke="#4D1B63" stroke-miterlimit="10" stroke-linecap="round" stroke-linejoin="round"/>
</g>
<path id="Vector_62" d="M35.9523 99.3902V94.3657C35.9523 92.1535 36.8568 90.0403 38.4503 88.5296L40.5061 86.5807C41.312 85.8167 41.9228 84.8658 42.2862 83.8093L47.7751 68.5207C48.1547 67.4636 47.6158 66.2946 46.5725 65.9123C43.9345 64.9455 41.0175 66.287 39.9963 68.9367L38.6835 72.3428C38.4549 72.9847 37.7253 73.2857 37.117 72.9796C36.7229 72.7812 36.4904 72.3551 36.4904 71.9089V52.2386C36.4904 50.3757 34.9688 48.8735 33.1177 48.9401C31.3544 49.0037 29.9824 50.5281 29.9824 52.3176V61.8056C29.9824 59.9828 28.5256 58.505 26.7284 58.505C24.9312 58.505 23.4744 59.9828 23.4744 61.8056V63.9086C23.4744 62.0457 21.9529 60.5435 20.1018 60.6101C18.3385 60.6737 16.9665 62.1981 16.9665 63.9877V65.1103C16.9665 63.2474 15.4449 61.7452 13.5938 61.8118C11.8305 61.8754 10.4585 63.3997 10.4585 65.1893V75.0124L11.5813 79.5706" stroke="#4D1B63" stroke-miterlimit="10" stroke-linecap="round" stroke-linejoin="round"/>
<path id="Vector_63" d="M13.1348 85.876L14.2654 90.4658V99.3904" stroke="#4D1B63" stroke-miterlimit="10" stroke-linecap="round" stroke-linejoin="round"/>
</g>
</g>
<g id="Group_40">
<path id="Vector_64" d="M45.85 92.4712H43.897" stroke="#4D1B63" stroke-miterlimit="10" stroke-linecap="round" stroke-linejoin="round"/>
<path id="Vector_65" d="M50.0535 96.8525H43.897" stroke="#4D1B63" stroke-miterlimit="10" stroke-linecap="round" stroke-linejoin="round"/>
<path id="Vector_66" d="M50.0535 101.233H43.897" stroke="#4D1B63" stroke-miterlimit="10" stroke-linecap="round" stroke-linejoin="round"/>
</g>
</g>
<g id="Group_41">
<g id="Group_42">
<g id="Group_43">
<path id="Vector_67" d="M31.8955 17.9658H34.757" stroke="#4D1B63" stroke-miterlimit="10" stroke-linecap="round" stroke-linejoin="round"/>
<path id="Vector_68" d="M22.6943 17.9658H25.5558" stroke="#4D1B63" stroke-miterlimit="10" stroke-linecap="round" stroke-linejoin="round"/>
<path id="Vector_69" d="M13.4927 17.9658H16.3542" stroke="#4D1B63" stroke-miterlimit="10" stroke-linecap="round" stroke-linejoin="round"/>
<path id="Vector_70" d="M41.0967 17.9658H43.9582" stroke="#4D1B63" stroke-miterlimit="10" stroke-linecap="round" stroke-linejoin="round"/>
</g>
<path id="Vector_71" d="M13.4927 15.9683V19.9632" stroke="#4D1B63" stroke-miterlimit="10" stroke-linecap="round" stroke-linejoin="round"/>
</g>
<g id="Group_44">
<g id="Group_45">
<path id="Vector_72" d="M77.131 17.9658H74.2695" stroke="#4D1B63" stroke-miterlimit="10" stroke-linecap="round" stroke-linejoin="round"/>
<path id="Vector_73" d="M86.3322 17.9658H83.4707" stroke="#4D1B63" stroke-miterlimit="10" stroke-linecap="round" stroke-linejoin="round"/>
<path id="Vector_74" d="M95.5339 17.9658H92.6724" stroke="#4D1B63" stroke-miterlimit="10" stroke-linecap="round" stroke-linejoin="round"/>
<path id="Vector_75" d="M67.9299 17.9658H65.0684" stroke="#4D1B63" stroke-miterlimit="10" stroke-linecap="round" stroke-linejoin="round"/>
</g>
<path id="Vector_76" d="M95.5337 15.9683V19.9632" stroke="#4D1B63" stroke-miterlimit="10" stroke-linecap="round" stroke-linejoin="round"/>
</g>
</g>
</g>
<path id="Vector_77" d="M75.7002 107.917C76.973 107.917 78.0049 106.886 78.0049 105.613C78.0049 104.34 76.973 103.308 75.7002 103.308C74.4274 103.308 73.3955 104.34 73.3955 105.613C73.3955 106.886 74.4274 107.917 75.7002 107.917Z" stroke="#8282FF" stroke-width="10" stroke-miterlimit="10" stroke-linecap="round" stroke-linejoin="round"/>
<path id="Vector_78" d="M32.4526 10.0249C33.7255 10.0249 34.7573 8.99306 34.7573 7.72021C34.7573 6.44737 33.7255 5.41553 32.4526 5.41553C31.1798 5.41553 30.1479 6.44737 30.1479 7.72021C30.1479 8.99306 31.1798 10.0249 32.4526 10.0249Z" stroke="#FF6C6C" stroke-width="10" stroke-miterlimit="10" stroke-linecap="round" stroke-linejoin="round"/>
<path id="Vector_79" d="M21.123 107.917L18.8184 110.222" stroke="#FF9C33" stroke-width="10" stroke-miterlimit="10" stroke-linecap="round" stroke-linejoin="round"/>
<path id="Vector_80" d="M105.061 21.1919L102.756 23.4966" stroke="#8282FF" stroke-width="10" stroke-miterlimit="10" stroke-linecap="round" stroke-linejoin="round"/>
<path id="Vector_81" d="M66.7598 93.7915L64.4551 96.0962" stroke="#FF6C6C" stroke-width="10" stroke-miterlimit="10" stroke-linecap="round" stroke-linejoin="round"/>
</g>
</g>
<defs>
<linearGradient id="paint0_linear_928_874" x1="13.9648" y1="87.5052" x2="107.899" y2="33.2721" gradientUnits="userSpaceOnUse">
<stop stop-color="#FFD8D8" stop-opacity="0"/>
<stop offset="0.9981" stop-color="#FFB2B2"/>
</linearGradient>
</defs>
</svg>
