<svg width="25" height="23" viewBox="0 0 25 23" fill="none" xmlns="http://www.w3.org/2000/svg">
<path d="M17.311 11.22C17.9159 10.442 18.2461 9.48551 18.25 8.5C18.25 6.019 16.231 4 13.75 4H6.25V19H14.25C16.731 19 18.75 16.981 18.75 14.5C18.7487 13.8837 18.6202 13.2743 18.3726 12.7099C18.125 12.1456 17.7636 11.6383 17.311 11.22ZM13.75 7C14.577 7 15.25 7.673 15.25 8.5C15.25 9.327 14.577 10 13.75 10H9.25V7H13.75ZM14.25 16H9.25V13H14.25C15.077 13 15.75 13.673 15.75 14.5C15.75 15.327 15.077 16 14.25 16Z" fill="#2A2B2A"/>
</svg>
