<svg width="25" height="24" viewBox="0 0 25 24" fill="none" xmlns="http://www.w3.org/2000/svg">
<rect x="3.5" y="3" width="18" height="18" rx="9" stroke="black" stroke-width="2"/>
<path d="M8.578 16.5V6.63H12.862C13.9447 6.63 14.78 6.89133 15.368 7.414C15.956 7.92733 16.25 8.65067 16.25 9.584C16.25 10.1907 16.1147 10.7133 15.844 11.152C15.5827 11.5907 15.2 11.9267 14.696 12.16C14.192 12.3933 13.5807 12.51 12.862 12.51L12.988 12.3H13.45C13.8327 12.3 14.164 12.3933 14.444 12.58C14.7333 12.7667 14.9853 13.0607 15.2 13.462L16.852 16.5H14.878L13.17 13.35C13.058 13.1447 12.932 12.986 12.792 12.874C12.652 12.7527 12.4933 12.6687 12.316 12.622C12.1387 12.5753 11.9333 12.552 11.7 12.552H10.37V16.5H8.578ZM10.37 11.222H12.554C13.198 11.222 13.6833 11.0913 14.01 10.83C14.346 10.5593 14.514 10.158 14.514 9.626C14.514 9.10333 14.346 8.71133 14.01 8.45C13.6833 8.17933 13.198 8.044 12.554 8.044H10.37V11.222Z" fill="black"/>
</svg>
