<svg width="32" height="32" viewBox="0 0 32 32" fill="none" xmlns="http://www.w3.org/2000/svg">
    <g clip-path="url(#clip0_3273_3487)">
        <path d="M8.9344 0C9.2208 0.100815 9.4528 0.262439 9.5552 0.563284C9.736 1.09776 9.3392 1.63545 8.752 1.64505C8.2992 1.65305 7.8464 1.64505 7.3936 1.64665C6.6288 1.64665 5.864 1.63545 5.0992 1.65145C3.1856 1.68985 1.6864 3.18608 1.6544 5.09836C1.6352 6.30015 1.648 7.50193 1.6496 8.70531C1.6496 9.02375 1.5392 9.28619 1.2672 9.46382C0.8256 9.75186 0.2512 9.55823 0.0544 9.06216C0.0368 9.01895 0.0176 8.97735 0 8.93574C0 7.56113 0 6.18653 0 4.81192C0.0096 4.77192 0.0224 4.73191 0.0272 4.6919C0.2384 2.42276 1.848 0.604891 4.0768 0.123218C4.3184 0.0704106 4.5664 0.040006 4.8112 0H8.9344Z" fill="white"/>
        <path d="M27.1777 0C27.4337 0.0416062 27.6913 0.073611 27.9441 0.128019C30.1441 0.60009 31.7841 2.47557 31.9617 4.71911C31.9777 4.92714 31.9857 5.13517 31.9873 5.3432C31.9889 6.48417 31.9905 7.62354 31.9873 8.76451C31.9873 9.16937 31.7105 9.50382 31.3265 9.58384C30.9569 9.66065 30.5729 9.46862 30.4209 9.10697C30.3665 8.97735 30.3441 8.82532 30.3441 8.6829C30.3377 7.53713 30.3409 6.39136 30.3409 5.24719C30.3409 4.16382 29.9585 3.24369 29.1441 2.52198C28.5441 1.9891 27.8337 1.68185 27.0321 1.66425C25.7841 1.63545 24.5329 1.65145 23.2849 1.65145C22.9649 1.65145 22.7025 1.54103 22.5265 1.26899C22.2385 0.827324 22.4321 0.252838 22.9281 0.0560084C22.9713 0.0384058 23.0129 0.0208031 23.0545 0.00160024C24.4289 0.00160024 25.8033 0.00160024 27.1777 0.00160024V0Z" fill="white"/>
        <path d="M0 23.0579C0.1008 22.7714 0.2624 22.5394 0.5648 22.437C1.0992 22.2561 1.6384 22.653 1.6464 23.2419C1.6544 23.8036 1.6464 24.3669 1.648 24.9285C1.648 25.5846 1.6384 26.2407 1.6528 26.8968C1.6928 28.8107 3.1888 30.3086 5.104 30.3406C6.3056 30.3598 7.5088 30.3454 8.712 30.347C9.1232 30.347 9.44 30.5646 9.5568 30.915C9.7296 31.4399 9.3408 31.9872 8.7808 31.992C7.9584 31.9984 7.136 31.9968 6.3136 31.992C5.7824 31.9888 5.2496 32.0032 4.7216 31.9632C2.4768 31.7936 0.6032 30.1485 0.1296 27.9482C0.0752 27.6954 0.0432 27.4361 0.0016 27.1817V23.0579H0Z" fill="white"/>
        <path d="M25.1646 30.3438C25.7422 30.3438 26.3214 30.355 26.899 30.3422C28.803 30.3005 30.3022 28.8059 30.3358 26.9C30.3566 25.6983 30.3406 24.4949 30.3422 23.2915C30.3422 22.8818 30.5438 22.5746 30.8878 22.4466C31.3902 22.2609 31.9774 22.6242 31.9822 23.1603C31.9918 24.5301 32.0318 25.9015 31.9518 27.2665C31.8238 29.4364 30.2926 31.2463 28.1934 31.7984C27.7502 31.9152 27.2814 31.976 26.8238 31.9856C25.6222 32.0112 24.419 31.9968 23.2158 31.9936C22.8222 31.9936 22.491 31.7152 22.411 31.3359C22.3326 30.963 22.531 30.5694 22.8974 30.4206C23.019 30.371 23.1598 30.3518 23.2926 30.3502C23.9166 30.3438 24.5422 30.347 25.1662 30.347V30.3438H25.1646Z" fill="white"/>
        <path d="M16.2625 29.0166C13.8689 29.0182 12.0065 28.3222 10.4257 26.8822C10.0433 26.5334 9.99206 26.0246 10.3105 25.6598C10.6241 25.2982 11.1553 25.2726 11.5361 25.6182C12.2865 26.3014 13.1281 26.8358 14.1169 27.0806C16.4337 27.6582 18.5553 27.2982 20.3825 25.6742C20.6417 25.4438 20.9169 25.311 21.2625 25.4038C21.8977 25.5734 22.1073 26.3654 21.6273 26.8182C20.7489 27.6486 19.7377 28.2614 18.5825 28.6294C17.7425 28.8966 16.8817 29.0198 16.2625 29.0166Z" fill="white"/>
        <path d="M17.6801 18.2763C17.6801 19.2237 17.6833 20.171 17.6801 21.1184C17.6769 21.8913 17.4129 22.5426 16.7665 23.005C16.3905 23.2739 15.9633 23.3923 15.5057 23.4035C15.2465 23.4099 14.9825 23.4195 14.7265 23.3859C14.3009 23.3283 13.9969 22.9234 14.0321 22.5042C14.0673 22.0769 14.4193 21.7377 14.8465 21.7265C15.0289 21.7217 15.2113 21.7265 15.3937 21.7249C15.8273 21.7201 15.9953 21.552 15.9953 21.1136C15.9953 19.1821 15.9953 17.2506 15.9953 15.3191C15.9953 14.991 16.1201 14.7302 16.3969 14.5558C16.6689 14.3846 16.9569 14.375 17.2417 14.535C17.5345 14.6998 17.6801 14.9574 17.6801 15.2919C17.6833 16.2856 17.6801 17.281 17.6801 18.2747V18.2763Z" fill="white"/>
        <path d="M8.69775 16.4214C8.69775 16.0566 8.69775 15.6933 8.69775 15.3285C8.69775 15.0181 8.80335 14.7557 9.05935 14.5717C9.52335 14.2405 10.1634 14.5157 10.277 15.0917C10.2818 15.1173 10.2882 15.1429 10.2882 15.1685C10.2882 16.0101 10.3074 16.8533 10.2786 17.6949C10.2642 18.1269 9.88975 18.4277 9.48655 18.4229C9.08655 18.4181 8.73775 18.0997 8.71375 17.6693C8.68975 17.2549 8.70895 16.8374 8.70895 16.4214H8.69935H8.69775Z" fill="white"/>
        <path d="M21.6517 15.5294C21.6517 15.4352 21.6404 15.3405 21.6554 15.2463C21.6686 15.1592 21.9909 15.0826 22.3863 15.0653C22.9523 15.0408 23.4996 15.1264 23.5146 15.2508C23.5352 15.4382 23.5333 15.626 23.5146 15.8137C23.5033 15.9231 23.0666 16.0038 22.5625 16.0023C22.0621 16.0004 21.6648 15.9159 21.6517 15.8054C21.6423 15.7134 21.6498 15.6214 21.6498 15.5294H21.6536H21.6517Z" fill="white"/>
    </g>
    <defs>
        <clipPath id="clip0_3273_3487">
            <rect width="32" height="32" fill="white"/>
        </clipPath>
    </defs>
</svg>
