<svg width="21" height="20" viewBox="0 0 21 20" fill="none" xmlns="http://www.w3.org/2000/svg">
<g id="Group">
<path id="Vector" d="M7.16667 2.5V5.41667C7.16667 5.74819 7.29836 6.06613 7.53278 6.30055C7.7672 6.53497 8.08515 6.66667 8.41667 6.66667H11.75C12.0815 6.66667 12.3995 6.53497 12.6339 6.30055C12.8683 6.06613 13 5.74819 13 5.41667V2.5H13.4883C13.9303 2.50009 14.3542 2.67575 14.6667 2.98833L16.6783 5C16.9909 5.31249 17.1666 5.73634 17.1667 6.17833V15.8333C17.1667 16.2754 16.9911 16.6993 16.6785 17.0118C16.3659 17.3244 15.942 17.5 15.5 17.5H13.8333V11.6667C13.8333 11.2246 13.6577 10.8007 13.3452 10.4882C13.0326 10.1756 12.6087 10 12.1667 10H8C7.55797 10 7.13405 10.1756 6.82149 10.4882C6.50893 10.8007 6.33333 11.2246 6.33333 11.6667V17.5H4.66667C4.22464 17.5 3.80072 17.3244 3.48816 17.0118C3.17559 16.6993 3 16.2754 3 15.8333V4.16667C3 3.72464 3.17559 3.30072 3.48816 2.98816C3.80072 2.67559 4.22464 2.5 4.66667 2.5H7.16667ZM12.1667 11.6667V17.5H8V11.6667H12.1667ZM11.3333 2.5V5H8.83333V2.5H11.3333Z" fill="white"/>
</g>
</svg>
