<svg width="69" height="68" viewBox="0 0 69 68" fill="none" xmlns="http://www.w3.org/2000/svg">
    <rect x="0.5" width="68" height="68" rx="20" fill="#DEEFFF"/>
    <path d="M23.5109 42.1772L23.4876 42.2005C23.1726 41.5122 22.9742 40.7305 22.8926 39.8672C22.9742 40.7189 23.1959 41.4889 23.5109 42.1772Z" fill="#36A4F8"/>
    <path d="M30.9993 32.1119C32.5328 32.1119 33.776 30.8688 33.776 29.3353C33.776 27.8017 32.5328 26.5586 30.9993 26.5586C29.4658 26.5586 28.2227 27.8017 28.2227 29.3353C28.2227 30.8688 29.4658 32.1119 30.9993 32.1119Z" fill="#36A4F8"/>
    <path d="M39.389 22.332H29.6123C25.3657 22.332 22.834 24.8637 22.834 29.1104V38.887C22.834 40.1587 23.0557 41.267 23.4873 42.2004C24.4907 44.417 26.6373 45.6654 29.6123 45.6654H39.389C43.6357 45.6654 46.1673 43.1337 46.1673 38.887V36.2154V29.1104C46.1673 24.8637 43.6357 22.332 39.389 22.332ZM44.2657 34.582C43.3557 33.8004 41.8856 33.8004 40.9756 34.582L36.1223 38.747C35.2123 39.5287 33.7423 39.5287 32.8323 38.747L32.4356 38.4204C31.6073 37.697 30.289 37.627 29.3557 38.257L24.9923 41.1854C24.7357 40.532 24.584 39.7737 24.584 38.887V29.1104C24.584 25.8204 26.3223 24.082 29.6123 24.082H39.389C42.679 24.082 44.4173 25.8204 44.4173 29.1104V34.7104L44.2657 34.582Z" fill="#36A4F8"/>
</svg>
