<svg width="24" height="24" viewBox="0 0 24 24" fill="none" xmlns="http://www.w3.org/2000/svg">
    <path d="M14.5299 9.47188L9.46992 14.5319C8.81992 13.8819 8.41992 12.9919 8.41992 12.0019C8.41992 10.0219 10.0199 8.42188 11.9999 8.42188C12.9899 8.42188 13.8799 8.82188 14.5299 9.47188Z" stroke="#ACB1B6" stroke-width="1.5" stroke-linecap="round" stroke-linejoin="round"/>
    <path d="M5.59984 17.7589C4.59984 16.8989 3.68984 15.8389 2.88984 14.5889C1.98984 13.1789 1.98984 10.8089 2.88984 9.39891C4.06984 7.54891 5.50984 6.09891 7.11984 5.12891" stroke="#ACB1B6" stroke-width="1.5" stroke-linecap="round" stroke-linejoin="round"/>
    <path d="M17.82 5.77047C16.07 4.45047 14.07 3.73047 12 3.73047" stroke="#ACB1B6" stroke-width="1.5" stroke-linecap="round" stroke-linejoin="round"/>
    <path d="M8.41992 19.5297C9.55992 20.0097 10.7699 20.2697 11.9999 20.2697C15.5299 20.2697 18.8199 18.1897 21.1099 14.5897C22.0099 13.1797 22.0099 10.8097 21.1099 9.39969C20.7799 8.87969 20.4199 8.38969 20.0499 7.92969" stroke="#ACB1B6" stroke-width="1.5" stroke-linecap="round" stroke-linejoin="round"/>
    <path d="M15.5095 12.6992C15.2495 14.1092 14.0995 15.2592 12.6895 15.5192" stroke="#ACB1B6" stroke-width="1.5" stroke-linecap="round" stroke-linejoin="round"/>
    <path d="M9.47 14.5312L2 22.0013" stroke="#ACB1B6" stroke-width="1.5" stroke-linecap="round" stroke-linejoin="round"/>
    <path d="M21.9993 2L14.5293 9.47" stroke="#ACB1B6" stroke-width="1.5" stroke-linecap="round" stroke-linejoin="round"/>
</svg>
