<svg width="36" height="36" viewBox="0 0 36 36" fill="none" xmlns="http://www.w3.org/2000/svg">
    <rect width="36" height="36" rx="18" fill="#6D9FFF"/>
    <g clip-path="url(#clip0_960_129)">
        <path fill-rule="evenodd" clip-rule="evenodd" d="M18 9.6665V15.0832C18 15.4147 18.1317 15.7326 18.3661 15.9671C18.6005 16.2015 18.9185 16.3332 19.25 16.3332H24.6666V24.6665C24.6666 25.1085 24.4911 25.5325 24.1785 25.845C23.8659 26.1576 23.442 26.3332 23 26.3332H13C12.558 26.3332 12.134 26.1576 11.8215 25.845C11.5089 25.5325 11.3333 25.1085 11.3333 24.6665V11.3332C11.3333 10.8911 11.5089 10.4672 11.8215 10.1547C12.134 9.8421 12.558 9.6665 13 9.6665H18ZM20.5 20.4998H15.5C15.279 20.4998 15.067 20.5876 14.9107 20.7439C14.7544 20.9002 14.6666 21.1122 14.6666 21.3332C14.6666 21.5542 14.7544 21.7661 14.9107 21.9224C15.067 22.0787 15.279 22.1665 15.5 22.1665H20.5C20.721 22.1665 20.933 22.0787 21.0892 21.9224C21.2455 21.7661 21.3333 21.5542 21.3333 21.3332C21.3333 21.1122 21.2455 20.9002 21.0892 20.7439C20.933 20.5876 20.721 20.4998 20.5 20.4998ZM16.3333 17.1665H15.5C15.279 17.1665 15.067 17.2543 14.9107 17.4106C14.7544 17.5669 14.6666 17.7788 14.6666 17.9998C14.6666 18.2209 14.7544 18.4328 14.9107 18.5891C15.067 18.7454 15.279 18.8332 15.5 18.8332H16.3333C16.5543 18.8332 16.7663 18.7454 16.9226 18.5891C17.0788 18.4328 17.1666 18.2209 17.1666 17.9998C17.1666 17.7788 17.0788 17.5669 16.9226 17.4106C16.7663 17.2543 16.5543 17.1665 16.3333 17.1665ZM19.6666 9.70234C19.9824 9.7693 20.2719 9.9265 20.5 10.1548L24.1783 13.8332C24.4067 14.0613 24.5639 14.3508 24.6308 14.6665H19.6666V9.70234Z" fill="white"/>
    </g>
    <defs>
        <clipPath id="clip0_960_129">
            <rect width="20" height="20" fill="white" transform="translate(8 8)"/>
        </clipPath>
    </defs>
</svg>
