<svg width="80" height="80" viewBox="0 0 80 80" fill="none" xmlns="http://www.w3.org/2000/svg">
    <path d="M61.6666 70C61.1666 70 60.4999 69.8333 59.9999 69.5C58.3333 68.6667 57.8333 66.5 58.6666 65C58.6666 64.8333 64.8333 53.6667 64.8333 40C64.8333 26.3333 58.8332 15 58.8332 15C57.9999 13.3333 58.4999 11.3333 60.1666 10.5C61.8332 9.66666 63.8332 10.1667 64.6666 11.8333C64.9999 12.3333 71.8332 24.5 71.8332 40.1667C71.8332 55.8333 64.9999 68 64.6666 68.5C63.9999 69.3333 62.8333 70 61.6666 70ZM54.6666 59.6667C54.8332 59.3333 58.3333 51.3333 58.3333 40C58.3333 28.6667 54.8332 20.6667 54.6666 20.3333C53.9999 18.6667 51.9999 17.8333 50.3333 18.6667C48.6666 19.3333 47.8333 21.3333 48.6666 23C48.6666 23 51.6666 30.1667 51.6666 40C51.6666 49.8333 48.6666 57 48.6666 57C47.9999 58.6667 48.6666 60.6667 50.3333 61.3333C50.8333 61.5 51.1666 61.6667 51.6666 61.6667C52.9999 61.6667 54.1666 61 54.6666 59.6667ZM38.8333 55C39.8333 54.8333 40.6666 54.1667 41.1666 53.3333C41.3333 53 44.9999 46.8333 44.9999 40C44.9999 33.1667 41.3333 26.8333 41.1666 26.6667C40.1666 25 38.1666 24.5 36.6666 25.5C34.9999 26.5 34.4999 28.5 35.4999 30C35.4999 30 38.3333 35 38.3333 40C38.3333 42.1667 37.8333 44.5 37.1666 46.1667L15.4999 27.5C14.6666 26.8333 13.4999 26.5 12.4999 26.8333C11.4999 27.1667 10.4999 27.8333 10.1666 29C10.1666 29.1667 8.33325 34.1667 8.33325 40C8.33325 45.8333 10.1666 50.8333 10.1666 51.1667C10.8333 52.8333 12.6666 53.8333 14.4999 53.1667C16.1666 52.5 17.1666 50.6667 16.4999 48.8333C16.4999 48.8333 14.9999 44.5 14.9999 40C14.9999 38.6667 15.1666 37.3333 15.3333 36.1667L36.1666 54.1667C36.8333 54.6667 37.4999 55 38.3333 55H38.8333Z" fill="#FD5C00"/>
</svg>
