<svg width="17" height="16" viewBox="0 0 17 16" fill="none" xmlns="http://www.w3.org/2000/svg">
    <path d="M13.8333 1.33301C14.0101 1.33301 14.1797 1.40325 14.3047 1.52827C14.4298 1.65329 14.5 1.82286 14.5 1.99967V4.50434L8.50067 10.5043L8.49667 13.3297L11.3273 13.3337L14.5 10.161V13.9997C14.5 14.1765 14.4298 14.3461 14.3047 14.4711C14.1797 14.5961 14.0101 14.6663 13.8333 14.6663H3.16667C2.98986 14.6663 2.82029 14.5961 2.69526 14.4711C2.57024 14.3461 2.5 14.1765 2.5 13.9997V1.99967C2.5 1.82286 2.57024 1.65329 2.69526 1.52827C2.82029 1.40325 2.98986 1.33301 3.16667 1.33301H13.8333ZM15.0187 5.87167L15.9613 6.81434L10.776 11.9997L9.832 11.9983L9.83333 11.057L15.0187 5.87167ZM8.5 7.99967H5.16667V9.33301H8.5V7.99967ZM10.5 5.33301H5.16667V6.66634H10.5V5.33301Z" fill="#172D58"/>
</svg>
