<svg width="14" height="18" viewBox="0 0 14 18" fill="none" xmlns="http://www.w3.org/2000/svg">
    <path fill-rule="evenodd" clip-rule="evenodd" d="M7.00004 0.666504V6.08317C7.00004 6.41469 7.13174 6.73263 7.36616 6.96705C7.60058 7.20148 7.91852 7.33317 8.25004 7.33317H13.6667V15.6665C13.6667 16.1085 13.4911 16.5325 13.1786 16.845C12.866 17.1576 12.4421 17.3332 12 17.3332H2.00004C1.55801 17.3332 1.13409 17.1576 0.821529 16.845C0.508969 16.5325 0.333374 16.1085 0.333374 15.6665V2.33317C0.333374 1.89114 0.508969 1.46722 0.821529 1.15466C1.13409 0.842099 1.55801 0.666504 2.00004 0.666504H7.00004ZM8.72004 9.54067L8.25004 10.7932L7.85837 9.749C7.56087 8.95567 6.43921 8.95567 6.14171 9.749L5.75004 10.7932L5.28004 9.54067C5.19842 9.33941 5.04144 9.17796 4.84255 9.09072C4.64365 9.00347 4.41855 8.99733 4.2152 9.07359C4.01184 9.14985 3.84628 9.30248 3.7538 9.499C3.66131 9.69551 3.6492 9.92036 3.72004 10.1257L4.89171 13.2507C5.18921 14.044 6.31087 14.044 6.60837 13.2507L7.00004 12.2065L7.39171 13.2507C7.68921 14.044 8.81087 14.044 9.10837 13.2507L10.28 10.1257C10.3509 9.92036 10.3388 9.69551 10.2463 9.499C10.1538 9.30248 9.98825 9.14985 9.78489 9.07359C9.58153 8.99733 9.35643 9.00347 9.15753 9.09072C8.95864 9.17796 8.80167 9.33941 8.72004 9.54067ZM8.66671 0.702337C8.98244 0.7693 9.27194 0.926497 9.50004 1.15484L13.1784 4.83317C13.4067 5.06128 13.5639 5.35077 13.6309 5.6665H8.66671V0.702337Z" fill="white"/>
</svg>
