<svg width="478" height="701" viewBox="0 0 478 701" fill="none" xmlns="http://www.w3.org/2000/svg">
    <path fill-rule="evenodd" clip-rule="evenodd" d="M46 110.4C46 81.1 57.7 53.1 78.4 32.4C99.1 11.7 127.2 0.1 156.4 0H242.3V46.6H156.4C139.5 46.6 123.3 53.3 111.3 65.3C99.3 77.3 92.6 93.5 92.6 110.4V186.1H46V110.4ZM282.2 0.199997H328.4V46.4H282.2V0.199997ZM366.6 320.8C378.6 308.8 385.3 292.6 385.3 275.7V200H432V275.7C432 305 420.3 333.1 399.6 353.8C378.9 374.5 350.8 386.2 321.5 386.2H235.6V339.5H321.5C338.5 339.5 354.7 332.8 366.6 320.8ZM149.6 385.9H195.8V339.7H149.6V385.9ZM307.8 193.2C307.8 231.2 277 262 239 262C201 262 170.2 231.2 170.2 193.2C170.2 155.2 201 124.4 239 124.4C277 124.4 307.8 155.2 307.8 193.2Z" fill="url(#paint0_linear_0_1)"/>
    <path fill-rule="evenodd" clip-rule="evenodd" d="M35.7 581.9L5.59995 579.5C10.0999 520.3 39.5999 486.2 92.8999 486.2C140.9 486.2 168.6 509 168.6 550C168.6 589.3 139.5 608.6 88.7 621.5C44.9 634.8 32.8999 644.3 31.4999 672.3C47.2999 672 68.2999 671.6 83.7 671.6H171.7V700.4H0.599945C0.199945 694.4 0.199951 688.1 0.199951 681.8C0.199951 632.4 22.9999 612.4 75.5999 597.7C121.5 585.1 135.9 572.8 135.9 549.7C135.9 530.1 122.2 514.6 92.3999 514.6C59.8999 514.6 39.9 534.2 35.7 581.9ZM241.5 700.4H209.2V490.1H241.5V700.4ZM288.8 490.1V700.4H372.2C439.9 700.4 477.7 656.9 477.7 593.8C477.7 530.7 442.6 490 370.8 490H288.8V490.1ZM369.1 673.1H321.1V517.4H366.7C421 517.4 445.9 545.1 445.9 593.8C445.8 642.9 422.7 673.1 369.1 673.1Z" fill="#070707"/>
    <defs>
        <linearGradient id="paint0_linear_0_1" x1="46.04" y1="193.1" x2="431.96" y2="193.1" gradientUnits="userSpaceOnUse">
            <stop stop-color="#7349FF"/>
            <stop offset="0.33" stop-color="#02BEFE"/>
            <stop offset="0.66" stop-color="#02BEFE"/>
            <stop offset="1" stop-color="#7349FF"/>
        </linearGradient>
    </defs>
</svg>
