<svg width="33" height="32" viewBox="0 0 33 32" fill="none" xmlns="http://www.w3.org/2000/svg">
    <path d="M9.4344 0C9.7208 0.100815 9.9528 0.262439 10.0552 0.563284C10.236 1.09776 9.8392 1.63545 9.252 1.64505C8.7992 1.65305 8.3464 1.64505 7.8936 1.64665C7.1288 1.64665 6.364 1.63545 5.5992 1.65145C3.6856 1.68985 2.1864 3.18608 2.1544 5.09836C2.1352 6.30014 2.148 7.50192 2.1496 8.70531C2.1496 9.02375 2.0392 9.28619 1.7672 9.46382C1.3256 9.75186 0.7512 9.55823 0.5544 9.06216C0.5368 9.01895 0.5176 8.97735 0.5 8.93574C0.5 7.56113 0.5 6.18653 0.5 4.81192C0.5096 4.77192 0.5224 4.73191 0.5272 4.6919C0.7384 2.42276 2.348 0.604891 4.5768 0.123218C4.8184 0.0704105 5.0664 0.040006 5.3112 0H9.4344Z" fill="white"/>
    <path d="M27.6777 0C27.9337 0.0416062 28.1913 0.073611 28.4441 0.128019C30.6441 0.60009 32.2841 2.47557 32.4617 4.71911C32.4777 4.92714 32.4857 5.13517 32.4873 5.3432C32.4889 6.48417 32.4905 7.62354 32.4873 8.76451C32.4873 9.16938 32.2105 9.50383 31.8265 9.58384C31.4569 9.66065 31.0729 9.46862 30.9209 9.10697C30.8665 8.97735 30.8441 8.82532 30.8441 8.6829C30.8377 7.53713 30.8409 6.39136 30.8409 5.24719C30.8409 4.16382 30.4585 3.24369 29.6441 2.52198C29.0441 1.9891 28.3337 1.68185 27.5321 1.66425C26.2841 1.63545 25.0329 1.65145 23.7849 1.65145C23.4649 1.65145 23.2025 1.54103 23.0265 1.26899C22.7385 0.827324 22.9321 0.252838 23.4281 0.0560084C23.4713 0.0384058 23.5129 0.0208031 23.5545 0.00160024C24.9289 0.00160024 26.3033 0.00160024 27.6777 0.00160024V0Z" fill="white"/>
    <path d="M0.5 23.0579C0.6008 22.7714 0.7624 22.5394 1.0648 22.437C1.5992 22.2561 2.1384 22.653 2.1464 23.2419C2.1544 23.8036 2.1464 24.3669 2.148 24.9285C2.148 25.5846 2.1384 26.2407 2.1528 26.8968C2.1928 28.8107 3.6888 30.3086 5.604 30.3406C6.8056 30.3598 8.0088 30.3454 9.212 30.347C9.6232 30.347 9.94 30.5646 10.0568 30.915C10.2296 31.4399 9.8408 31.9872 9.2808 31.992C8.4584 31.9984 7.636 31.9968 6.8136 31.992C6.2824 31.9888 5.7496 32.0032 5.2216 31.9632C2.9768 31.7936 1.1032 30.1485 0.6296 27.9482C0.5752 27.6954 0.5432 27.4361 0.5016 27.1817V23.0579H0.5Z" fill="white"/>
    <path d="M25.6649 30.3438C26.2425 30.3438 26.8217 30.355 27.3993 30.3422C29.3033 30.3005 30.8025 28.8059 30.8361 26.9C30.8569 25.6983 30.8409 24.4949 30.8425 23.2915C30.8425 22.8818 31.0441 22.5746 31.3881 22.4466C31.8905 22.2609 32.4777 22.6242 32.4825 23.1603C32.4921 24.5301 32.5321 25.9015 32.4521 27.2665C32.3241 29.4364 30.7929 31.2463 28.6937 31.7984C28.2505 31.9152 27.7817 31.976 27.3241 31.9856C26.1225 32.0112 24.9193 31.9968 23.7161 31.9936C23.3225 31.9936 22.9913 31.7152 22.9113 31.3359C22.8329 30.963 23.0313 30.5694 23.3977 30.4206C23.5193 30.371 23.6601 30.3518 23.7929 30.3502C24.4169 30.3438 25.0425 30.347 25.6665 30.347V30.3438H25.6649Z" fill="white"/>
    <path d="M16.7625 29.0171C14.3689 29.0187 12.5065 28.3226 10.9257 26.8824C10.5433 26.5336 10.4921 26.0247 10.8105 25.6598C11.1241 25.2982 11.6553 25.2726 12.0361 25.6182C12.7865 26.3015 13.6281 26.836 14.6169 27.0809C16.9337 27.6585 19.0553 27.2985 20.8825 25.6742C21.1417 25.4438 21.4169 25.311 21.7625 25.4038C22.3977 25.5734 22.6073 26.3655 22.1273 26.8184C21.2489 27.6489 20.2377 28.2618 19.0825 28.6299C18.2425 28.8971 17.3817 29.0203 16.7625 29.0171Z" fill="white"/>
    <path d="M18.1801 18.2763C18.1801 19.2237 18.1833 20.171 18.1801 21.1184C18.1769 21.8913 17.9129 22.5426 17.2665 23.005C16.8905 23.2739 16.4633 23.3923 16.0057 23.4035C15.7465 23.4099 15.4825 23.4195 15.2265 23.3859C14.8009 23.3283 14.4969 22.9234 14.5321 22.5042C14.5673 22.0769 14.9193 21.7377 15.3465 21.7265C15.5289 21.7217 15.7113 21.7265 15.8937 21.7249C16.3273 21.7201 16.4953 21.552 16.4953 21.1136C16.4953 19.1821 16.4953 17.2506 16.4953 15.3191C16.4953 14.991 16.6201 14.7302 16.8969 14.5558C17.1689 14.3846 17.4569 14.375 17.7417 14.535C18.0345 14.6998 18.1801 14.9574 18.1801 15.2919C18.1833 16.2856 18.1801 17.281 18.1801 18.2747V18.2763Z" fill="white"/>
    <path d="M9.19751 16.4217C9.19751 16.0568 9.19751 15.6936 9.19751 15.3287C9.19751 15.0183 9.30311 14.7558 9.55911 14.5718C10.0231 14.2406 10.6631 14.5158 10.7767 15.0919C10.7815 15.1175 10.7879 15.1431 10.7879 15.1687C10.7879 16.0104 10.8071 16.8537 10.7783 17.6955C10.7639 18.1275 10.3895 18.4284 9.98631 18.4236C9.58631 18.4188 9.23751 18.1003 9.21351 17.6699C9.18951 17.2554 9.20871 16.8377 9.20871 16.4217H9.19911H9.19751Z" fill="white"/>
    <path d="M22.3927 16.4169C22.3927 16.0168 22.3831 15.6152 22.3959 15.2151C22.4071 14.8454 22.6823 14.5206 23.0199 14.447C23.5031 14.343 23.9703 14.7062 23.9831 15.2343C24.0007 16.0296 23.9991 16.8265 23.9831 17.6235C23.9735 18.0875 23.6007 18.43 23.1703 18.4236C22.7431 18.4156 22.4039 18.0571 22.3927 17.5882C22.3847 17.1978 22.3911 16.8073 22.3911 16.4169H22.3943H22.3927Z" fill="white"/>
</svg>
