<svg width="36" height="36" viewBox="0 0 36 36" fill="none" xmlns="http://www.w3.org/2000/svg">
    <rect width="36" height="36" rx="18" fill="#FF2929"/>
    <g clip-path="url(#clip0_1535_1102)">
        <path d="M24.6667 12.1665C24.8877 12.1665 25.0996 12.2543 25.2559 12.4106C25.4122 12.5669 25.5 12.7788 25.5 12.9998C25.5 13.2209 25.4122 13.4328 25.2559 13.5891C25.0996 13.7454 24.8877 13.8332 24.6667 13.8332H23.8333L23.8308 13.8923L23.0533 24.7848C23.0234 25.2053 22.8352 25.5988 22.5268 25.8861C22.2183 26.1735 21.8124 26.3332 21.3908 26.3332H14.6083C14.1868 26.3332 13.7809 26.1735 13.4724 25.8861C13.1639 25.5988 12.9758 25.2053 12.9458 24.7848L12.1683 13.8932C12.1671 13.8732 12.1665 13.8532 12.1667 13.8332H11.3333C11.1123 13.8332 10.9004 13.7454 10.7441 13.5891C10.5878 13.4328 10.5 13.2209 10.5 12.9998C10.5 12.7788 10.5878 12.5669 10.7441 12.4106C10.9004 12.2543 11.1123 12.1665 11.3333 12.1665H24.6667ZM19.6667 9.6665C19.8877 9.6665 20.0996 9.7543 20.2559 9.91058C20.4122 10.0669 20.5 10.2788 20.5 10.4998C20.5 10.7209 20.4122 10.9328 20.2559 11.0891C20.0996 11.2454 19.8877 11.3332 19.6667 11.3332H16.3333C16.1123 11.3332 15.9004 11.2454 15.7441 11.0891C15.5878 10.9328 15.5 10.7209 15.5 10.4998C15.5 10.2788 15.5878 10.0669 15.7441 9.91058C15.9004 9.7543 16.1123 9.6665 16.3333 9.6665H19.6667Z" fill="white"/>
    </g>
    <defs>
        <clipPath id="clip0_1535_1102">
            <rect width="20" height="20" fill="white" transform="translate(8 8)"/>
        </clipPath>
    </defs>
</svg>
