<svg width="34" height="34" viewBox="0 0 34 34" fill="none" xmlns="http://www.w3.org/2000/svg">
<rect width="34" height="34" rx="17" fill="#FF6600"/>
<g clip-path="url(#clip0_429_1314)">
<path d="M17 7C22.523 7 27 11.477 27 17C27 22.523 22.523 27 17 27C11.477 27 7 22.523 7 17C7 11.477 11.477 7 17 7ZM17 11C16.7348 11 16.4804 11.1054 16.2929 11.2929C16.1054 11.4804 16 11.7348 16 12V17C16.0001 17.2652 16.1055 17.5195 16.293 17.707L19.293 20.707C19.4816 20.8892 19.7342 20.99 19.9964 20.9877C20.2586 20.9854 20.5094 20.8802 20.6948 20.6948C20.8802 20.5094 20.9854 20.2586 20.9877 19.9964C20.99 19.7342 20.8892 19.4816 20.707 19.293L18 16.586V12C18 11.7348 17.8946 11.4804 17.7071 11.2929C17.5196 11.1054 17.2652 11 17 11Z" fill="white"/>
</g>
<defs>
<clipPath id="clip0_429_1314">
<rect width="24" height="24" fill="white" transform="translate(5 5)"/>
</clipPath>
</defs>
</svg>
