<svg width="24" height="24" viewBox="0 0 24 24" fill="none" xmlns="http://www.w3.org/2000/svg">
<path d="M21.7498 3C21.7498 2.80109 21.6708 2.61032 21.5302 2.46967C21.3895 2.32902 21.1987 2.25 20.9998 2.25C16.8673 2.25 12.627 6.91031 10.272 9.99656C9.43096 9.73898 8.54122 9.68224 7.67425 9.83089C6.80728 9.97954 5.98726 10.3294 5.28004 10.8525C4.57283 11.3755 3.99814 12.0571 3.60213 12.8426C3.20612 13.628 2.99983 14.4954 2.99984 15.375C2.99984 18.27 1.16796 19.5684 1.08077 19.6284C0.947733 19.7183 0.847027 19.8484 0.793465 19.9998C0.739904 20.1511 0.736313 20.3156 0.783221 20.4692C0.830129 20.6227 0.92506 20.7571 1.05406 20.8527C1.18305 20.9482 1.3393 20.9999 1.49984 21H8.62484C9.50446 21 10.3718 20.7937 11.1573 20.3977C11.9427 20.0017 12.6243 19.427 13.1474 18.7198C13.6704 18.0126 14.0203 17.1926 14.169 16.3256C14.3176 15.4586 14.2609 14.5689 14.0033 13.7278C17.0905 11.3728 21.7498 7.1325 21.7498 3ZM11.6642 10.6453C11.9855 10.2291 12.3008 9.83687 12.6101 9.46875C13.3674 9.98035 14.0195 10.6324 14.5311 11.3897C14.1623 11.6984 13.7701 12.0138 13.3545 12.3356C12.9175 11.6586 12.3413 11.0824 11.6642 10.6453ZM15.6673 10.3941C15.1011 9.59512 14.4038 8.89778 13.6048 8.33156C16.5842 5.09438 18.8314 4.11281 20.158 3.84C19.8908 5.1675 18.9045 7.41469 15.6673 10.3941Z" fill="#2A2B2A"/>
</svg>
