<svg width="24" height="24" viewBox="0 0 24 24" fill="none" xmlns="http://www.w3.org/2000/svg">
    <path d="M9.02992 14.0019C8.63992 13.4319 8.41992 12.7419 8.41992 12.0019C8.41992 10.0219 10.0199 8.42188 11.9999 8.42188C13.9799 8.42188 15.5799 10.0219 15.5799 12.0019C15.5799 13.9819 13.9799 15.5819 11.9999 15.5819" stroke="#ACB1B6" stroke-width="1.5" stroke-linecap="round" stroke-linejoin="round"/>
    <path d="M17.5598 5.58047C15.8698 4.38047 13.9698 3.73047 11.9998 3.73047C8.46984 3.73047 5.17984 5.81047 2.88984 9.41047C1.98984 10.8205 1.98984 13.1905 2.88984 14.6005C5.17984 18.2005 8.46984 20.2805 11.9998 20.2805C15.5298 20.2805 18.8198 18.2005 21.1098 14.6005C22.0098 13.1905 22.0098 10.8205 21.1098 9.41047" stroke="#ACB1B6" stroke-width="1.5" stroke-linecap="round" stroke-linejoin="round"/>
</svg>
