<svg width="32" height="32" viewBox="0 0 32 32" fill="none" xmlns="http://www.w3.org/2000/svg">
    <g clip-path="url(#clip0_142_651)">
        <path d="M8.9344 0C9.2208 0.100815 9.4528 0.262439 9.5552 0.563284C9.736 1.09776 9.3392 1.63545 8.752 1.64505C8.2992 1.65305 7.8464 1.64505 7.3936 1.64665C6.6288 1.64665 5.864 1.63545 5.0992 1.65145C3.1856 1.68985 1.6864 3.18608 1.6544 5.09836C1.6352 6.30014 1.648 7.50192 1.6496 8.70531C1.6496 9.02375 1.5392 9.28619 1.2672 9.46382C0.8256 9.75186 0.2512 9.55823 0.0544 9.06216C0.0368 9.01895 0.0176 8.97735 0 8.93574C0 7.56113 0 6.18653 0 4.81192C0.0096 4.77192 0.0224 4.73191 0.0272 4.6919C0.2384 2.42276 1.848 0.604891 4.0768 0.123218C4.3184 0.0704105 4.5664 0.040006 4.8112 0H8.9344Z" fill="white"/>
        <path d="M27.1777 0C27.4337 0.0416062 27.6913 0.073611 27.9441 0.128019C30.1441 0.60009 31.7841 2.47557 31.9617 4.71911C31.9777 4.92714 31.9857 5.13517 31.9873 5.3432C31.9889 6.48417 31.9905 7.62354 31.9873 8.76451C31.9873 9.16938 31.7105 9.50383 31.3265 9.58384C30.9569 9.66065 30.5729 9.46862 30.4209 9.10697C30.3665 8.97735 30.3441 8.82532 30.3441 8.6829C30.3377 7.53713 30.3409 6.39136 30.3409 5.24719C30.3409 4.16382 29.9585 3.24369 29.1441 2.52198C28.5441 1.9891 27.8337 1.68185 27.0321 1.66425C25.7841 1.63545 24.5329 1.65145 23.2849 1.65145C22.9649 1.65145 22.7025 1.54103 22.5265 1.26899C22.2385 0.827324 22.4321 0.252838 22.9281 0.0560084C22.9713 0.0384058 23.0129 0.0208031 23.0545 0.00160024C24.4289 0.00160024 25.8033 0.00160024 27.1777 0.00160024V0Z" fill="white"/>
        <path d="M0 23.0579C0.1008 22.7714 0.2624 22.5394 0.5648 22.437C1.0992 22.2561 1.6384 22.653 1.6464 23.2419C1.6544 23.8036 1.6464 24.3669 1.648 24.9285C1.648 25.5846 1.6384 26.2407 1.6528 26.8968C1.6928 28.8107 3.1888 30.3086 5.104 30.3406C6.3056 30.3598 7.5088 30.3454 8.712 30.347C9.1232 30.347 9.44 30.5646 9.5568 30.915C9.7296 31.4399 9.3408 31.9872 8.7808 31.992C7.9584 31.9984 7.136 31.9968 6.3136 31.992C5.7824 31.9888 5.2496 32.0032 4.7216 31.9632C2.4768 31.7936 0.6032 30.1485 0.1296 27.9482C0.0752 27.6954 0.0432 27.4361 0.0016 27.1817V23.0579H0Z" fill="white"/>
        <path d="M25.1649 30.3438C25.7425 30.3438 26.3217 30.355 26.8993 30.3422C28.8033 30.3005 30.3025 28.8059 30.3361 26.9C30.3569 25.6983 30.3409 24.4949 30.3425 23.2915C30.3425 22.8818 30.5441 22.5746 30.8881 22.4466C31.3905 22.2609 31.9777 22.6242 31.9825 23.1603C31.9921 24.5301 32.0321 25.9015 31.9521 27.2665C31.8241 29.4364 30.2929 31.2463 28.1937 31.7984C27.7505 31.9152 27.2817 31.976 26.8241 31.9856C25.6225 32.0112 24.4193 31.9968 23.2161 31.9936C22.8225 31.9936 22.4913 31.7152 22.4113 31.3359C22.3329 30.963 22.5313 30.5694 22.8977 30.4206C23.0193 30.371 23.1601 30.3518 23.2929 30.3502C23.9169 30.3438 24.5425 30.347 25.1665 30.347V30.3438H25.1649Z" fill="white"/>
        <path d="M13.0625 25.8167C10.6689 25.8183 8.80651 25.1222 7.22571 23.682C6.84331 23.3331 6.79211 22.8242 7.11051 22.4594C7.42411 22.0977 7.95531 22.0721 8.33611 22.4178C9.08651 23.1011 9.92811 23.6355 10.9169 23.8804C13.2337 24.4581 15.3553 24.098 17.1825 22.4738C17.4417 22.2433 17.7169 22.1105 18.0625 22.2033C18.6977 22.373 18.9073 23.1651 18.4273 23.6179C17.5489 24.4485 16.5377 25.0614 15.3825 25.4294C14.5425 25.6967 13.6817 25.8199 13.0625 25.8167Z" fill="white"/>
        <path d="M12.88 15.0759C12.88 16.0232 12.8832 16.9706 12.88 17.9179C12.8768 18.6908 12.6128 19.3421 11.9664 19.8046C11.5904 20.0734 11.1632 20.1918 10.7056 20.203C10.4464 20.2094 10.1824 20.219 9.92642 20.1854C9.50082 20.1278 9.19682 19.723 9.23202 19.3037C9.26722 18.8764 9.61922 18.5372 10.0464 18.526C10.2288 18.5212 10.4112 18.526 10.5936 18.5244C11.0272 18.5196 11.1952 18.3516 11.1952 17.9131C11.1952 15.9816 11.1952 14.0501 11.1952 12.1186C11.1952 11.7906 11.32 11.5297 11.5968 11.3553C11.8688 11.1841 12.1568 11.1745 12.4416 11.3345C12.7344 11.4993 12.88 11.757 12.88 12.0914C12.8832 13.0852 12.88 14.0805 12.88 15.0743V15.0759Z" fill="white"/>
        <path d="M5.49756 13.2212C5.49756 12.8563 5.49756 12.4931 5.49756 12.1282C5.49756 11.8178 5.60316 11.5553 5.85916 11.3713C6.32316 11.0401 6.96316 11.3153 7.07676 11.8914C7.08156 11.917 7.08796 11.9426 7.08796 11.9682C7.08796 12.8099 7.10716 13.6532 7.07836 14.495C7.06396 14.927 6.68956 15.2279 6.28636 15.2231C5.88636 15.2183 5.53756 14.8998 5.51356 14.4694C5.48956 14.0549 5.50876 13.6372 5.50876 13.2212H5.49916H5.49756Z" fill="white"/>
        <path d="M18.6927 13.2164C18.6927 12.8163 18.6831 12.4147 18.6959 12.0146C18.7071 11.6449 18.9823 11.3201 19.3199 11.2465C19.8031 11.1425 20.2703 11.5057 20.2831 12.0338C20.3007 12.8291 20.2991 13.626 20.2831 14.423C20.2735 14.887 19.9007 15.2295 19.4703 15.2231C19.0431 15.2151 18.7039 14.8566 18.6927 14.3877C18.6847 13.9973 18.6911 13.6068 18.6911 13.2164H18.6943H18.6927Z" fill="white"/>
    </g>
    <defs>
        <clipPath id="clip0_142_651">
            <rect width="32" height="32" fill="white"/>
        </clipPath>
    </defs>
</svg>
