<svg width="40" height="40" viewBox="0 0 40 40" fill="none" xmlns="http://www.w3.org/2000/svg">
    <rect width="40" height="40" rx="8" fill="#F5F7FA"/>
    <path d="M29 13.9805C25.67 13.6505 22.32 13.4805 18.98 13.4805C17 13.4805 15.02 13.5805 13.04 13.7805L11 13.9805" stroke="#FA1E1E" stroke-width="1.5" stroke-linecap="round" stroke-linejoin="round"/>
    <path d="M16.5 12.97L16.72 11.66C16.88 10.71 17 10 18.69 10H21.31C23 10 23.13 10.75 23.28 11.67L23.5 12.97" stroke="#FA1E1E" stroke-width="1.5" stroke-linecap="round" stroke-linejoin="round"/>
    <path d="M26.8504 17.1406L26.2004 27.2106C26.0904 28.7806 26.0004 30.0006 23.2104 30.0006H16.7904C14.0004 30.0006 13.9104 28.7806 13.8004 27.2106L13.1504 17.1406" stroke="#FA1E1E" stroke-width="1.5" stroke-linecap="round" stroke-linejoin="round"/>
    <path d="M18.3301 24.5H21.6601" stroke="#FA1E1E" stroke-width="1.5" stroke-linecap="round" stroke-linejoin="round"/>
    <path d="M17.5 20.5H22.5" stroke="#FA1E1E" stroke-width="1.5" stroke-linecap="round" stroke-linejoin="round"/>
</svg>
