<svg width="16" height="16" viewBox="0 0 16 16" fill="none" xmlns="http://www.w3.org/2000/svg">
    <g clip-path="url(#clip0_1746_69)">
        <path d="M13.3333 3.33301C13.5101 3.33301 13.6797 3.40325 13.8047 3.52827C13.9298 3.65329 14 3.82286 14 3.99967C14 4.17649 13.9298 4.34605 13.8047 4.47108C13.6797 4.5961 13.5101 4.66634 13.3333 4.66634H12.6667L12.6647 4.71367L12.0427 13.4277C12.0187 13.7641 11.8682 14.0789 11.6214 14.3087C11.3746 14.5386 11.0499 14.6663 10.7127 14.6663H5.28667C4.94943 14.6663 4.62471 14.5386 4.37792 14.3087C4.13114 14.0789 3.98061 13.7641 3.95667 13.4277L3.33467 4.71434C3.33366 4.69836 3.33321 4.68235 3.33333 4.66634H2.66667C2.48986 4.66634 2.32029 4.5961 2.19526 4.47108C2.07024 4.34605 2 4.17649 2 3.99967C2 3.82286 2.07024 3.65329 2.19526 3.52827C2.32029 3.40325 2.48986 3.33301 2.66667 3.33301H13.3333ZM9.33333 1.33301C9.51014 1.33301 9.67971 1.40325 9.80474 1.52827C9.92976 1.65329 10 1.82286 10 1.99967C10 2.17649 9.92976 2.34605 9.80474 2.47108C9.67971 2.5961 9.51014 2.66634 9.33333 2.66634H6.66667C6.48986 2.66634 6.32029 2.5961 6.19526 2.47108C6.07024 2.34605 6 2.17649 6 1.99967C6 1.82286 6.07024 1.65329 6.19526 1.52827C6.32029 1.40325 6.48986 1.33301 6.66667 1.33301H9.33333Z" fill="#172D58"/>
    </g>
    <defs>
        <clipPath id="clip0_1746_69">
            <rect width="16" height="16" fill="white"/>
        </clipPath>
    </defs>
</svg>
