<svg width="21" height="20" viewBox="0 0 21 20" fill="none" xmlns="http://www.w3.org/2000/svg">
<path d="M12.925 1.32626C13.1962 1.04837 13.5199 0.827073 13.8772 0.67519C14.2345 0.523307 14.6185 0.443863 15.0067 0.441462C15.395 0.439062 15.7799 0.513753 16.1391 0.661205C16.4983 0.808658 16.8246 1.02594 17.0992 1.30046C17.3738 1.57497 17.5912 1.90126 17.7388 2.26041C17.8863 2.61956 17.9611 3.00442 17.9588 3.3927C17.9565 3.78097 17.8772 4.16493 17.7254 4.52231C17.5737 4.8797 17.3524 5.2034 17.0746 5.47466L15.5482 6.99986L15.6514 7.10306C15.8744 7.32594 16.0513 7.59055 16.1719 7.8818C16.2926 8.17304 16.3547 8.48521 16.3547 8.80046C16.3547 9.11572 16.2926 9.42788 16.1719 9.71913C16.0513 10.0104 15.8744 10.275 15.6514 10.4979L13.9234 12.2247C13.8103 12.334 13.6587 12.3944 13.5014 12.3931C13.3441 12.3917 13.1936 12.3286 13.0823 12.2174C12.9711 12.1061 12.908 11.9556 12.9066 11.7983C12.9053 11.641 12.9657 11.4894 13.075 11.3763L14.803 9.64826C15.028 9.42323 15.1544 9.11806 15.1544 8.79986C15.1544 8.48167 15.028 8.1765 14.803 7.95146L14.6998 7.84826L6.72463 15.8247C6.64743 15.9015 6.55077 15.9558 6.44503 15.9819L1.64503 17.1819C1.5408 17.2078 1.43153 17.2052 1.32862 17.1744C1.22572 17.1437 1.13295 17.0859 1.06001 17.0071C0.987064 16.9282 0.936615 16.8313 0.913929 16.7263C0.891243 16.6213 0.89715 16.5122 0.931034 16.4103L2.43103 11.9103C2.46029 11.8222 2.50958 11.7421 2.57503 11.6763L12.9262 1.32626H12.925ZM2.42143 18.2859C2.40139 18.2707 2.38139 18.2555 2.36143 18.2403L3.97903 17.8359C4.62463 18.1599 5.40463 18.3999 6.29983 18.3999C6.90823 18.3999 7.51663 18.1875 8.14063 17.8323C8.76703 17.4747 9.36943 16.9983 9.97184 16.5099L10.1278 16.3827C10.6618 15.9471 11.2102 15.5007 11.7322 15.1923C12.2986 14.8587 12.985 14.5959 13.6894 14.8323C14.6758 15.1599 14.9866 16.0671 15.2746 17.0283C15.3406 17.2479 15.4534 17.4651 15.5866 17.6151C15.7198 17.7651 15.8266 17.7999 15.8998 17.7999C16.1242 17.7999 16.447 17.6787 16.8562 17.4363C17.1154 17.2839 17.3398 17.1291 17.5618 16.9755C17.6974 16.8807 17.833 16.7883 17.9734 16.6971C18.355 16.4499 18.6838 16.2843 18.9214 16.1799C19.0433 16.1264 19.1674 16.0784 19.2934 16.0359L19.3174 16.0287L19.327 16.0263L19.3306 16.0251L19.4998 16.6011L19.3318 16.0251C19.4829 15.9852 19.6435 16.0059 19.7795 16.0826C19.9156 16.1593 20.0164 16.2861 20.0604 16.436C20.1045 16.5858 20.0884 16.747 20.0155 16.8851C19.9427 17.0233 19.8188 17.1276 19.6702 17.1759L19.6618 17.1783L19.6138 17.1951C19.5433 17.2207 19.4737 17.2487 19.405 17.2791C19.219 17.3607 18.949 17.4951 18.6262 17.7039C18.5422 17.7591 18.433 17.8335 18.3106 17.9175C18.061 18.0891 17.7526 18.3015 17.4658 18.4695C17.0314 18.7263 16.4698 18.9999 15.8998 18.9999C15.3718 18.9999 14.9638 18.7215 14.6902 18.4119C14.43 18.1097 14.2373 17.7554 14.125 17.3727C13.8094 16.3215 13.6282 16.0767 13.309 15.9687C13.1146 15.9051 12.8254 15.9411 12.3418 16.2267C11.9026 16.4859 11.425 16.8747 10.8682 17.3271L10.7278 17.4411C10.1302 17.9271 9.45823 18.4623 8.73463 18.8751C8.00863 19.2879 7.19143 19.5999 6.29983 19.5999C4.63423 19.5999 3.31303 18.9339 2.42143 18.2859Z" fill="white"/>
</svg>
