<svg width="49" height="54" viewBox="0 0 49 54" fill="none" xmlns="http://www.w3.org/2000/svg">
    <g filter="url(#filter0_d_741_4601)">
        <path d="M27.0013 40.3346C37.1265 40.3346 45.3346 32.1265 45.3346 22.0013C45.3346 11.8761 37.1265 3.66797 27.0013 3.66797C16.8761 3.66797 8.66797 11.8761 8.66797 22.0013C8.66797 32.1265 16.8761 40.3346 27.0013 40.3346Z" fill="white"/>
        <path d="M27.0013 40.3346C37.1265 40.3346 45.3346 32.1265 45.3346 22.0013C45.3346 11.8761 37.1265 3.66797 27.0013 3.66797C16.8761 3.66797 8.66797 11.8761 8.66797 22.0013C8.66797 32.1265 16.8761 40.3346 27.0013 40.3346Z" stroke="#DEEFFF" stroke-miterlimit="10" stroke-linecap="round" stroke-linejoin="round"/>
    </g>
    <path d="M24.6914 28.4707L31.1447 21.999L24.6914 15.5273" stroke="#36A4F8" stroke-width="2" stroke-linecap="round" stroke-linejoin="round"/>
    <defs>
        <filter id="filter0_d_741_4601" x="0.167969" y="0.167969" width="53.668" height="53.668" filterUnits="userSpaceOnUse" color-interpolation-filters="sRGB">
            <feFlood flood-opacity="0" result="BackgroundImageFix"/>
            <feColorMatrix in="SourceAlpha" type="matrix" values="0 0 0 0 0 0 0 0 0 0 0 0 0 0 0 0 0 0 127 0" result="hardAlpha"/>
            <feOffset dy="5"/>
            <feGaussianBlur stdDeviation="4"/>
            <feComposite in2="hardAlpha" operator="out"/>
            <feColorMatrix type="matrix" values="0 0 0 0 0 0 0 0 0 0 0 0 0 0 0 0 0 0 0.1 0"/>
            <feBlend mode="normal" in2="BackgroundImageFix" result="effect1_dropShadow_741_4601"/>
            <feBlend mode="normal" in="SourceGraphic" in2="effect1_dropShadow_741_4601" result="shape"/>
        </filter>
    </defs>
</svg>
