<svg width="40" height="40" viewBox="0 0 40 40" fill="none" xmlns="http://www.w3.org/2000/svg">
    <rect width="40" height="40" rx="14" fill="#DEEFFF"/>
    <path d="M22.7997 10.2105C22.3897 9.80048 21.6797 10.0805 21.6797 10.6505V14.1405C21.6797 15.6005 22.9197 16.8105 24.4297 16.8105C25.3797 16.8205 26.6997 16.8205 27.8297 16.8205C28.3997 16.8205 28.6997 16.1505 28.2997 15.7505C26.8597 14.3005 24.2797 11.6905 22.7997 10.2105Z" fill="#36A4F8"/>
    <path d="M27.5 18.19H24.61C22.24 18.19 20.31 16.26 20.31 13.89V11C20.31 10.45 19.86 10 19.31 10H15.07C11.99 10 9.5 12 9.5 15.57V24.43C9.5 28 11.99 30 15.07 30H22.93C26.01 30 28.5 28 28.5 24.43V19.19C28.5 18.64 28.05 18.19 27.5 18.19ZM18.5 25.75H14.5C14.09 25.75 13.75 25.41 13.75 25C13.75 24.59 14.09 24.25 14.5 24.25H18.5C18.91 24.25 19.25 24.59 19.25 25C19.25 25.41 18.91 25.75 18.5 25.75ZM20.5 21.75H14.5C14.09 21.75 13.75 21.41 13.75 21C13.75 20.59 14.09 20.25 14.5 20.25H20.5C20.91 20.25 21.25 20.59 21.25 21C21.25 21.41 20.91 21.75 20.5 21.75Z" fill="#36A4F8"/>
    <path d="M22.3436 22.7226C23.4197 21.2795 27.0464 17.727 28.8398 16.2237C33.3398 12.7218 34.3398 17.7227 32.5972 18.9689C30.6543 21.0734 26.9228 24.9934 25.8718 25.7534C23.8398 27.2227 21.6547 27.3678 21.2063 26.9168C20.7579 26.4658 20.9985 24.5265 22.3436 22.7226Z" fill="#DEEFFF"/>
    <path d="M32.4316 17.5943C32.1796 18.3051 31.5421 18.7914 31.0048 19.2801L29.0197 17.3306C29.0068 17.2592 29.8962 16.3896 30.0234 16.2859C30.9339 15.5459 32.1292 15.9045 32.4316 17.033V17.5943Z" fill="#36A4F8"/>
    <path d="M27.9742 18.3491C28.0281 18.335 28.0691 18.3491 28.1072 18.3883L29.9963 20.326L25.3539 24.8887L23.4062 22.9118L27.9736 18.3491H27.9742Z" fill="#36A4F8"/>
    <path d="M24.201 25.7816C23.5254 25.951 22.8627 26.3084 22.176 26.3816C22.0881 26.3271 21.9762 26.2363 21.9563 26.132C21.8789 25.7312 22.4608 24.5734 22.5633 24.1211L24.201 25.7822V25.7816Z" fill="#36A4F8"/>
</svg>
