<svg width="19" height="19" viewBox="0 0 19 19" fill="none" xmlns="http://www.w3.org/2000/svg">
<path d="M9.50008 8.31254C8.7172 8.31254 7.9519 8.08039 7.30095 7.64544C6.65001 7.21049 6.14266 6.59229 5.84306 5.869C5.54346 5.14571 5.46507 4.34982 5.61781 3.58198C5.77054 2.81414 6.14754 2.10883 6.70112 1.55524C7.2547 1.00166 7.96001 0.624667 8.72785 0.471934C9.49569 0.319201 10.2916 0.397589 11.0149 0.697186C11.7382 0.996783 12.3564 1.50413 12.7913 2.15508C13.2263 2.80602 13.4584 3.57132 13.4584 4.35421C13.4584 5.40402 13.0414 6.41084 12.299 7.15317C11.5567 7.8955 10.5499 8.31254 9.50008 8.31254ZM9.50008 1.97921C9.03035 1.97921 8.57117 2.1185 8.1806 2.37947C7.79004 2.64044 7.48563 3.01136 7.30587 3.44534C7.12611 3.87931 7.07908 4.35684 7.17072 4.81755C7.26236 5.27825 7.48855 5.70144 7.8207 6.03359C8.15285 6.36574 8.57604 6.59193 9.03674 6.68357C9.49745 6.77521 9.97498 6.72818 10.409 6.54842C10.8429 6.36866 11.2139 6.06425 11.4748 5.67369C11.7358 5.28312 11.8751 4.82394 11.8751 4.35421C11.8751 3.72432 11.6249 3.12023 11.1795 2.67483C10.7341 2.22943 10.13 1.97921 9.50008 1.97921Z" fill="#2567E8"/>
<path d="M16.6249 18.6041H2.37492C2.16496 18.6041 1.96359 18.5207 1.81513 18.3723C1.66666 18.2238 1.58325 18.0224 1.58325 17.8125V15.4375C1.58325 13.7578 2.25051 12.1468 3.43824 10.9591C4.62597 9.77139 6.23688 9.10413 7.91658 9.10413H11.0833C12.763 9.10413 14.3739 9.77139 15.5616 10.9591C16.7493 12.1468 17.4166 13.7578 17.4166 15.4375V17.8125C17.4166 18.0224 17.3332 18.2238 17.1847 18.3723C17.0362 18.5207 16.8349 18.6041 16.6249 18.6041ZM3.16659 17.0208H15.8333V15.4375C15.8333 14.1777 15.3328 12.9695 14.442 12.0787C13.5512 11.1879 12.343 10.6875 11.0833 10.6875H7.91658C6.65681 10.6875 5.44863 11.1879 4.55783 12.0787C3.66703 12.9695 3.16659 14.1777 3.16659 15.4375V17.0208Z" fill="#2567E8"/>
</svg>
