<svg width="12" height="12" viewBox="0 0 12 12" fill="none" xmlns="http://www.w3.org/2000/svg">
<path d="M5.45005 1.0498L10.3995 1.7573L11.1065 6.7073L6.51055 11.3033C6.41678 11.397 6.28963 11.4497 6.15705 11.4497C6.02446 11.4497 5.89731 11.397 5.80355 11.3033L0.853547 6.3533C0.759811 6.25954 0.707153 6.13239 0.707153 5.9998C0.707153 5.86722 0.759811 5.74007 0.853547 5.64631L5.45005 1.0498ZM5.80355 2.1108L1.91405 5.9998L6.15705 10.2423L10.046 6.3533L9.51605 2.6408L5.80355 2.1108ZM6.86355 5.2928C6.67597 5.10516 6.57062 4.8507 6.57067 4.58538C6.57069 4.45401 6.59659 4.32393 6.64688 4.20256C6.69718 4.0812 6.77089 3.97093 6.8638 3.87805C6.95671 3.78518 7.067 3.71151 7.18838 3.66126C7.30976 3.611 7.43985 3.58515 7.57122 3.58518C7.83654 3.58522 8.09097 3.69066 8.27855 3.8783C8.46612 4.06595 8.57147 4.32041 8.57143 4.58573C8.57138 4.85105 8.46594 5.10548 8.2783 5.29305C8.09066 5.48063 7.83619 5.58598 7.57087 5.58593C7.30555 5.58589 7.05112 5.48045 6.86355 5.2928Z" fill="#254EDB"/>
<path d="M5.45005 1.0498L10.3995 1.7573L11.1065 6.7073L6.51055 11.3033C6.41678 11.397 6.28963 11.4497 6.15705 11.4497C6.02446 11.4497 5.89731 11.397 5.80355 11.3033L0.853547 6.3533C0.759811 6.25954 0.707153 6.13239 0.707153 5.9998C0.707153 5.86722 0.759811 5.74007 0.853547 5.64631L5.45005 1.0498ZM5.80355 2.1108L1.91405 5.9998L6.15705 10.2423L10.046 6.3533L9.51605 2.6408L5.80355 2.1108ZM6.86355 5.2928C6.67597 5.10516 6.57062 4.8507 6.57067 4.58538C6.57069 4.45401 6.59659 4.32393 6.64688 4.20256C6.69718 4.0812 6.77089 3.97093 6.8638 3.87805C6.95671 3.78518 7.067 3.71151 7.18838 3.66126C7.30976 3.611 7.43985 3.58515 7.57122 3.58518C7.83654 3.58522 8.09097 3.69066 8.27855 3.8783C8.46612 4.06595 8.57147 4.32041 8.57143 4.58573C8.57138 4.85105 8.46594 5.10548 8.2783 5.29305C8.09066 5.48063 7.83619 5.58598 7.57087 5.58593C7.30555 5.58589 7.05112 5.48045 6.86355 5.2928Z" fill="#254EDB"/>
</svg>
