<svg width="26" height="26" viewBox="0 0 26 26" fill="none" xmlns="http://www.w3.org/2000/svg">
<path d="M11.9166 19.4332C9.73119 19.1551 7.73368 18.0553 6.33004 16.3573C4.9264 14.6594 4.22197 12.4907 4.35992 10.292C4.49788 8.09327 5.46786 6.02961 7.07273 4.52041C8.67759 3.01121 10.7969 2.16973 12.9999 2.16699C15.2056 2.16535 17.329 3.00478 18.9373 4.51423C20.5456 6.02368 21.5179 8.08957 21.656 10.291C21.7942 12.4923 21.0877 14.6636 19.6807 16.3622C18.2736 18.0608 16.2719 19.1591 14.0833 19.4332V21.68C18.3581 21.7797 21.6666 22.4632 21.6666 23.292C21.6666 24.189 17.7861 24.917 12.9999 24.917C8.21375 24.917 4.33325 24.189 4.33325 23.292C4.33325 22.4632 7.64175 21.7797 11.9166 21.68V19.4332ZM12.9999 17.3337C14.7238 17.3337 16.3771 16.6488 17.5961 15.4299C18.8151 14.2109 19.4999 12.5576 19.4999 10.8337C19.4999 9.10975 18.8151 7.45645 17.5961 6.23747C16.3771 5.01848 14.7238 4.33366 12.9999 4.33366C11.276 4.33366 9.62271 5.01848 8.40372 6.23747C7.18474 7.45645 6.49992 9.10975 6.49992 10.8337C6.49992 12.5576 7.18474 14.2109 8.40372 15.4299C9.62271 16.6488 11.276 17.3337 12.9999 17.3337ZM12.9999 13.0003C12.4253 13.0003 11.8742 12.7721 11.4679 12.3657C11.0615 11.9594 10.8333 11.4083 10.8333 10.8337C10.8333 10.259 11.0615 9.70793 11.4679 9.3016C11.8742 8.89527 12.4253 8.667 12.9999 8.667C13.5746 8.667 14.1257 8.89527 14.532 9.3016C14.9383 9.70793 15.1666 10.259 15.1666 10.8337C15.1666 11.4083 14.9383 11.9594 14.532 12.3657C14.1257 12.7721 13.5746 13.0003 12.9999 13.0003Z" fill="#2567E8"/>
<path d="M11.9166 19.4332C9.73119 19.1551 7.73368 18.0553 6.33004 16.3573C4.9264 14.6594 4.22197 12.4907 4.35992 10.292C4.49788 8.09327 5.46786 6.02961 7.07273 4.52041C8.67759 3.01121 10.7969 2.16973 12.9999 2.16699C15.2056 2.16535 17.329 3.00478 18.9373 4.51423C20.5456 6.02368 21.5179 8.08957 21.656 10.291C21.7942 12.4923 21.0877 14.6636 19.6807 16.3622C18.2736 18.0608 16.2719 19.1591 14.0833 19.4332V21.68C18.3581 21.7797 21.6666 22.4632 21.6666 23.292C21.6666 24.189 17.7861 24.917 12.9999 24.917C8.21375 24.917 4.33325 24.189 4.33325 23.292C4.33325 22.4632 7.64175 21.7797 11.9166 21.68V19.4332ZM12.9999 17.3337C14.7238 17.3337 16.3771 16.6488 17.5961 15.4299C18.8151 14.2109 19.4999 12.5576 19.4999 10.8337C19.4999 9.10975 18.8151 7.45645 17.5961 6.23747C16.3771 5.01848 14.7238 4.33366 12.9999 4.33366C11.276 4.33366 9.62271 5.01848 8.40372 6.23747C7.18474 7.45645 6.49992 9.10975 6.49992 10.8337C6.49992 12.5576 7.18474 14.2109 8.40372 15.4299C9.62271 16.6488 11.276 17.3337 12.9999 17.3337ZM12.9999 13.0003C12.4253 13.0003 11.8742 12.7721 11.4679 12.3657C11.0615 11.9594 10.8333 11.4083 10.8333 10.8337C10.8333 10.259 11.0615 9.70793 11.4679 9.3016C11.8742 8.89527 12.4253 8.667 12.9999 8.667C13.5746 8.667 14.1257 8.89527 14.532 9.3016C14.9383 9.70793 15.1666 10.259 15.1666 10.8337C15.1666 11.4083 14.9383 11.9594 14.532 12.3657C14.1257 12.7721 13.5746 13.0003 12.9999 13.0003Z" fill="#2567E8"/>
</svg>
