<svg width="70" height="70" viewBox="0 0 70 70" fill="none" xmlns="http://www.w3.org/2000/svg">
<rect x="1.01953" y="1" width="68" height="68" rx="20" fill="#F1F4FF"/>
<rect x="1.01953" y="1" width="68" height="68" rx="20" stroke="#8AAFF6" stroke-linecap="round" stroke-dasharray="3 3"/>
<g clip-path="url(#clip0_253_1410)">
<path d="M31.5197 24.5H38.5197L40.853 26.8333H45.5197C45.8291 26.8333 46.1259 26.9562 46.3447 27.175C46.5634 27.3938 46.6864 27.6906 46.6864 28V44.3333C46.6864 44.6428 46.5634 44.9395 46.3447 45.1583C46.1259 45.3771 45.8291 45.5 45.5197 45.5H24.5197C24.2103 45.5 23.9135 45.3771 23.6947 45.1583C23.4759 44.9395 23.353 44.6428 23.353 44.3333V28C23.353 27.6906 23.4759 27.3938 23.6947 27.175C23.9135 26.9562 24.2103 26.8333 24.5197 26.8333H29.1864L31.5197 24.5ZM35.0197 43.1667C36.8762 43.1667 38.6567 42.4292 39.9694 41.1164C41.2822 39.8037 42.0197 38.0232 42.0197 36.1667C42.0197 34.3102 41.2822 32.5297 39.9694 31.2169C38.6567 29.9042 36.8762 29.1667 35.0197 29.1667C33.1632 29.1667 31.3827 29.9042 30.0699 31.2169C28.7572 32.5297 28.0197 34.3102 28.0197 36.1667C28.0197 38.0232 28.7572 39.8037 30.0699 41.1164C31.3827 42.4292 33.1632 43.1667 35.0197 43.1667ZM35.0197 40.8333C33.782 40.8333 32.595 40.3417 31.7199 39.4665C30.8447 38.5913 30.353 37.4043 30.353 36.1667C30.353 34.929 30.8447 33.742 31.7199 32.8668C32.595 31.9917 33.782 31.5 35.0197 31.5C36.2574 31.5 37.4444 31.9917 38.3195 32.8668C39.1947 33.742 39.6864 34.929 39.6864 36.1667C39.6864 37.4043 39.1947 38.5913 38.3195 39.4665C37.4444 40.3417 36.2574 40.8333 35.0197 40.8333Z" fill="#254EDB"/>
<path d="M31.5197 24.5H38.5197L40.853 26.8333H45.5197C45.8291 26.8333 46.1259 26.9562 46.3447 27.175C46.5634 27.3938 46.6864 27.6906 46.6864 28V44.3333C46.6864 44.6428 46.5634 44.9395 46.3447 45.1583C46.1259 45.3771 45.8291 45.5 45.5197 45.5H24.5197C24.2103 45.5 23.9135 45.3771 23.6947 45.1583C23.4759 44.9395 23.353 44.6428 23.353 44.3333V28C23.353 27.6906 23.4759 27.3938 23.6947 27.175C23.9135 26.9562 24.2103 26.8333 24.5197 26.8333H29.1864L31.5197 24.5ZM35.0197 43.1667C36.8762 43.1667 38.6567 42.4292 39.9694 41.1164C41.2822 39.8037 42.0197 38.0232 42.0197 36.1667C42.0197 34.3102 41.2822 32.5297 39.9694 31.2169C38.6567 29.9042 36.8762 29.1667 35.0197 29.1667C33.1632 29.1667 31.3827 29.9042 30.0699 31.2169C28.7572 32.5297 28.0197 34.3102 28.0197 36.1667C28.0197 38.0232 28.7572 39.8037 30.0699 41.1164C31.3827 42.4292 33.1632 43.1667 35.0197 43.1667ZM35.0197 40.8333C33.782 40.8333 32.595 40.3417 31.7199 39.4665C30.8447 38.5913 30.353 37.4043 30.353 36.1667C30.353 34.929 30.8447 33.742 31.7199 32.8668C32.595 31.9917 33.782 31.5 35.0197 31.5C36.2574 31.5 37.4444 31.9917 38.3195 32.8668C39.1947 33.742 39.6864 34.929 39.6864 36.1667C39.6864 37.4043 39.1947 38.5913 38.3195 39.4665C37.4444 40.3417 36.2574 40.8333 35.0197 40.8333Z" fill="#2567E8"/>
</g>
<defs>
<clipPath id="clip0_253_1410">
<rect width="28" height="28" fill="white" transform="translate(21.0195 21)"/>
</clipPath>
</defs>
</svg>
