<svg width="29" height="28" viewBox="0 0 29 28" fill="none" xmlns="http://www.w3.org/2000/svg">
<g clip-path="url(#clip0_256_824)">
<path d="M10.5197 3.5H17.5197L19.853 5.83333H24.5197C24.8291 5.83333 25.1259 5.95625 25.3447 6.17504C25.5634 6.39383 25.6864 6.69058 25.6864 7V23.3333C25.6864 23.6428 25.5634 23.9395 25.3447 24.1583C25.1259 24.3771 24.8291 24.5 24.5197 24.5H3.51969C3.21027 24.5 2.91353 24.3771 2.69474 24.1583C2.47594 23.9395 2.35303 23.6428 2.35303 23.3333V7C2.35303 6.69058 2.47594 6.39383 2.69474 6.17504C2.91353 5.95625 3.21027 5.83333 3.51969 5.83333H8.18636L10.5197 3.5ZM14.0197 22.1667C15.8762 22.1667 17.6567 21.4292 18.9694 20.1164C20.2822 18.8037 21.0197 17.0232 21.0197 15.1667C21.0197 13.3102 20.2822 11.5297 18.9694 10.2169C17.6567 8.90416 15.8762 8.16667 14.0197 8.16667C12.1632 8.16667 10.3827 8.90416 9.06995 10.2169C7.75719 11.5297 7.01969 13.3102 7.01969 15.1667C7.01969 17.0232 7.75719 18.8037 9.06995 20.1164C10.3827 21.4292 12.1632 22.1667 14.0197 22.1667ZM14.0197 19.8333C12.782 19.8333 11.595 19.3417 10.7199 18.4665C9.84469 17.5913 9.35303 16.4043 9.35303 15.1667C9.35303 13.929 9.84469 12.742 10.7199 11.8668C11.595 10.9917 12.782 10.5 14.0197 10.5C15.2574 10.5 16.4444 10.9917 17.3195 11.8668C18.1947 12.742 18.6864 13.929 18.6864 15.1667C18.6864 16.4043 18.1947 17.5913 17.3195 18.4665C16.4444 19.3417 15.2574 19.8333 14.0197 19.8333Z" fill="#254EDB"/>
<path d="M10.5197 3.5H17.5197L19.853 5.83333H24.5197C24.8291 5.83333 25.1259 5.95625 25.3447 6.17504C25.5634 6.39383 25.6864 6.69058 25.6864 7V23.3333C25.6864 23.6428 25.5634 23.9395 25.3447 24.1583C25.1259 24.3771 24.8291 24.5 24.5197 24.5H3.51969C3.21027 24.5 2.91353 24.3771 2.69474 24.1583C2.47594 23.9395 2.35303 23.6428 2.35303 23.3333V7C2.35303 6.69058 2.47594 6.39383 2.69474 6.17504C2.91353 5.95625 3.21027 5.83333 3.51969 5.83333H8.18636L10.5197 3.5ZM14.0197 22.1667C15.8762 22.1667 17.6567 21.4292 18.9694 20.1164C20.2822 18.8037 21.0197 17.0232 21.0197 15.1667C21.0197 13.3102 20.2822 11.5297 18.9694 10.2169C17.6567 8.90416 15.8762 8.16667 14.0197 8.16667C12.1632 8.16667 10.3827 8.90416 9.06995 10.2169C7.75719 11.5297 7.01969 13.3102 7.01969 15.1667C7.01969 17.0232 7.75719 18.8037 9.06995 20.1164C10.3827 21.4292 12.1632 22.1667 14.0197 22.1667ZM14.0197 19.8333C12.782 19.8333 11.595 19.3417 10.7199 18.4665C9.84469 17.5913 9.35303 16.4043 9.35303 15.1667C9.35303 13.929 9.84469 12.742 10.7199 11.8668C11.595 10.9917 12.782 10.5 14.0197 10.5C15.2574 10.5 16.4444 10.9917 17.3195 11.8668C18.1947 12.742 18.6864 13.929 18.6864 15.1667C18.6864 16.4043 18.1947 17.5913 17.3195 18.4665C16.4444 19.3417 15.2574 19.8333 14.0197 19.8333Z" fill="#2567E8"/>
</g>
<defs>
<clipPath id="clip0_256_824">
<rect width="28" height="28" fill="white" transform="translate(0.0195312)"/>
</clipPath>
</defs>
</svg>
