<svg width="20" height="20" viewBox="0 0 20 20" fill="none" xmlns="http://www.w3.org/2000/svg">
<g clip-path="url(#clip0_181_1458)">
<path d="M3.76663 4.94499L1.1608 2.33999L2.33996 1.16083L18.8391 17.6608L17.66 18.8392L14.9016 16.0808C13.436 17.0105 11.7356 17.5028 9.99996 17.5C5.50663 17.5 1.7683 14.2667 0.984131 9.99999C1.34249 8.05893 2.31799 6.28574 3.76663 4.94499ZM12.2975 13.4767L11.0775 12.2567C10.6108 12.4799 10.0864 12.5529 9.57657 12.4656C9.0667 12.3784 8.59647 12.135 8.23069 11.7693C7.86491 11.4035 7.6216 10.9333 7.53431 10.4234C7.44702 9.91352 7.52003 9.38912 7.7433 8.92249L6.5233 7.70249C5.99306 8.50374 5.75602 9.46361 5.85232 10.4196C5.94862 11.3755 6.37234 12.2688 7.05173 12.9482C7.73112 13.6276 8.62443 14.0513 9.58039 14.1476C10.5364 14.2439 11.4962 14.0069 12.2975 13.4767ZM6.64496 3.13333C7.68413 2.72499 8.81663 2.49999 9.99996 2.49999C14.4933 2.49999 18.2316 5.73333 19.0158 9.99999C18.7605 11.3881 18.1865 12.698 17.3391 13.8267L14.1225 10.61C14.218 9.96634 14.1615 9.30925 13.9574 8.69137C13.7533 8.0735 13.4074 7.512 12.9472 7.05188C12.4871 6.59176 11.9256 6.2458 11.3078 6.04172C10.6899 5.83764 10.0328 5.78111 9.38913 5.87666L6.64496 3.13333Z" fill="#2567E8"/>
<path d="M3.76663 4.94499L1.1608 2.33999L2.33996 1.16083L18.8391 17.6608L17.66 18.8392L14.9016 16.0808C13.436 17.0105 11.7356 17.5028 9.99996 17.5C5.50663 17.5 1.7683 14.2667 0.984131 9.99999C1.34249 8.05893 2.31799 6.28574 3.76663 4.94499ZM12.2975 13.4767L11.0775 12.2567C10.6108 12.4799 10.0864 12.5529 9.57657 12.4656C9.0667 12.3784 8.59647 12.135 8.23069 11.7693C7.86491 11.4035 7.6216 10.9333 7.53431 10.4234C7.44702 9.91352 7.52003 9.38912 7.7433 8.92249L6.5233 7.70249C5.99306 8.50374 5.75602 9.46361 5.85232 10.4196C5.94862 11.3755 6.37234 12.2688 7.05173 12.9482C7.73112 13.6276 8.62443 14.0513 9.58039 14.1476C10.5364 14.2439 11.4962 14.0069 12.2975 13.4767ZM6.64496 3.13333C7.68413 2.72499 8.81663 2.49999 9.99996 2.49999C14.4933 2.49999 18.2316 5.73333 19.0158 9.99999C18.7605 11.3881 18.1865 12.698 17.3391 13.8267L14.1225 10.61C14.218 9.96634 14.1615 9.30925 13.9574 8.69137C13.7533 8.0735 13.4074 7.512 12.9472 7.05188C12.4871 6.59176 11.9256 6.2458 11.3078 6.04172C10.6899 5.83764 10.0328 5.78111 9.38913 5.87666L6.64496 3.13333Z" fill="#2567E8"/>
</g>
<defs>
<clipPath id="clip0_181_1458">
<rect width="20" height="20" fill="white"/>
</clipPath>
</defs>
</svg>
