<svg width="26" height="26" viewBox="0 0 26 26" fill="none" xmlns="http://www.w3.org/2000/svg">
<path d="M13.0001 2.16699C15.7098 5.13354 17.2497 8.98336 17.3334 13.0003C17.2497 17.0173 15.7098 20.8671 13.0001 23.8337M13.0001 2.16699C10.2904 5.13354 8.75043 8.98336 8.66675 13.0003C8.75043 17.0173 10.2904 20.8671 13.0001 23.8337M13.0001 2.16699C7.017 2.16699 2.16675 7.01724 2.16675 13.0003C2.16675 18.9834 7.017 23.8337 13.0001 23.8337M13.0001 2.16699C18.9832 2.16699 23.8334 7.01724 23.8334 13.0003C23.8334 18.9834 18.9832 23.8337 13.0001 23.8337M2.70844 9.75033H23.2918M2.70841 16.2503H23.2917" stroke="#2567E8" stroke-width="2" stroke-linecap="round" stroke-linejoin="round"/>
</svg>
