<svg width="26" height="26" viewBox="0 0 26 26" fill="none" xmlns="http://www.w3.org/2000/svg">
<path d="M22.75 19.5V13C22.75 7.61522 18.3848 3.25 13 3.25C7.61522 3.25 3.25 7.61522 3.25 13V19.5M5.95833 22.75C4.46256 22.75 3.25 21.5374 3.25 20.0417V17.875C3.25 16.3792 4.46256 15.1667 5.95833 15.1667C7.4541 15.1667 8.66667 16.3792 8.66667 17.875V20.0417C8.66667 21.5374 7.4541 22.75 5.95833 22.75ZM20.0417 22.75C18.5459 22.75 17.3333 21.5374 17.3333 20.0417V17.875C17.3333 16.3792 18.5459 15.1667 20.0417 15.1667C21.5374 15.1667 22.75 16.3792 22.75 17.875V20.0417C22.75 21.5374 21.5374 22.75 20.0417 22.75Z" stroke="#2567E8" stroke-width="2" stroke-linecap="round" stroke-linejoin="round"/>
</svg>
