<svg width="25" height="24" viewBox="0 0 25 24" fill="none" xmlns="http://www.w3.org/2000/svg">
<path d="M21.1632 8.01002L14.6132 2.77002C13.3332 1.75002 11.3332 1.74002 10.0632 2.76002L3.51321 8.01002C2.57321 8.76002 2.00321 10.26 2.20321 11.44L3.46321 18.98C3.75321 20.67 5.32321 22 7.03321 22H17.6332C19.3232 22 20.9232 20.64 21.2132 18.97L22.4732 11.43C22.6532 10.26 22.0832 8.76002 21.1632 8.01002ZM13.0832 18C13.0832 18.41 12.7432 18.75 12.3332 18.75C11.9232 18.75 11.5832 18.41 11.5832 18V15C11.5832 14.59 11.9232 14.25 12.3332 14.25C12.7432 14.25 13.0832 14.59 13.0832 15V18Z" fill="#2567E8"/>
</svg>
