<svg width="26" height="24" viewBox="0 0 26 24" fill="none" xmlns="http://www.w3.org/2000/svg">
<path d="M22.8039 8.73926H10.3397C9.13289 8.73926 8.14368 9.72848 8.14368 10.9353V18.8293C8.14368 20.0362 9.13289 21.0254 10.3397 21.0254H22.8039C24.0107 21.0254 24.9999 20.0362 24.9999 18.8293V10.9353C25.0049 9.72353 24.0107 8.73926 22.8039 8.73926ZM23.8178 18.859C23.8178 19.2942 23.4617 19.6553 23.0215 19.6553H10.315C9.87975 19.6553 9.51869 19.2992 9.51869 18.859V13.3045H23.8178V18.859ZM23.8178 11.2123H9.51869V10.9106C9.51869 10.4753 9.87481 10.1143 10.315 10.1143H23.0215C23.4568 10.1143 23.8178 10.4704 23.8178 10.9106V11.2123Z" fill="#2567E8"/>
<path d="M10.1815 7.38408H17.9122L16.3393 4.19879C15.8002 3.11065 14.4796 2.6655 13.3915 3.20462L2.2232 8.72447C1.13506 9.2636 0.689914 10.5842 1.22904 11.6723L4.73087 18.7502C5.20074 19.7048 6.28394 20.1698 7.2781 19.8977C6.98133 19.3982 6.81317 18.8195 6.81317 18.2012V10.7573C6.80822 8.90253 8.32667 7.38408 10.1815 7.38408Z" fill="#2567E8"/>
<path d="M11.7692 18.8001C12.1995 18.8001 12.5902 18.6072 12.8474 18.3006C13.1096 18.6072 13.4954 18.8001 13.9257 18.8001C14.7121 18.8001 15.3502 18.1621 15.3502 17.3757C15.3502 16.5892 14.7121 15.9512 13.9257 15.9512C13.4954 15.9512 13.1046 16.1441 12.8474 16.4507C12.5853 16.1441 12.1995 15.9512 11.7692 15.9512C10.9828 15.9512 10.3447 16.5892 10.3447 17.3757C10.3447 18.1621 10.9828 18.8001 11.7692 18.8001Z" fill="#2567E8"/>
</svg>
