<svg width="26" height="24" viewBox="0 0 26 24" fill="none" xmlns="http://www.w3.org/2000/svg">
<path d="M22.804 8.73883H10.3399C9.13302 8.73883 8.1438 9.72805 8.1438 10.9349V18.8289C8.1438 20.0357 9.13302 21.0249 10.3399 21.0249H22.804C24.0108 21.0249 25.0001 20.0357 25.0001 18.8289V10.9349C25.005 9.7231 24.0108 8.73883 22.804 8.73883ZM23.8179 18.8586C23.8179 19.2938 23.4618 19.6549 23.0216 19.6549H10.3151C9.87987 19.6549 9.51881 19.2988 9.51881 18.8586V13.3041H23.8179V18.8586ZM23.8179 11.2119H9.51881V10.9102C9.51881 10.4749 9.87493 10.1138 10.3151 10.1138H23.0216C23.4569 10.1138 23.8179 10.47 23.8179 10.9102V11.2119Z" fill="#8696BB"/>
<path d="M10.1815 7.38359H17.9122L16.3393 4.1983C15.8002 3.11016 14.4796 2.66501 13.3915 3.20414L2.2232 8.72398C1.13506 9.26311 0.689914 10.5837 1.22904 11.6719L4.73087 18.7497C5.20074 19.7043 6.28394 20.1693 7.2781 19.8972C6.98133 19.3977 6.81317 18.819 6.81317 18.2007V10.7568C6.80822 8.90204 8.32667 7.38359 10.1815 7.38359Z" fill="#8696BB"/>
<path d="M11.7692 18.7993C12.1995 18.7993 12.5902 18.6064 12.8474 18.2998C13.1096 18.6064 13.4954 18.7993 13.9257 18.7993C14.7121 18.7993 15.3502 18.1613 15.3502 17.3749C15.3502 16.5884 14.7121 15.9504 13.9257 15.9504C13.4954 15.9504 13.1046 16.1433 12.8474 16.4499C12.5853 16.1433 12.1995 15.9504 11.7692 15.9504C10.9828 15.9504 10.3447 16.5884 10.3447 17.3749C10.3447 18.1613 10.9828 18.7993 11.7692 18.7993Z" fill="#8696BB"/>
</svg>
