<svg width="25" height="24" viewBox="0 0 25 24" fill="none" xmlns="http://www.w3.org/2000/svg">
<path d="M21.1633 8.01002L14.6133 2.77002C13.3333 1.75002 11.3333 1.74002 10.0633 2.76002L3.51334 8.01002C2.57334 8.76002 2.00334 10.26 2.20334 11.44L3.46334 18.98C3.75334 20.67 5.32334 22 7.03334 22H17.6333C19.3233 22 20.9233 20.64 21.2133 18.97L22.4733 11.43C22.6533 10.26 22.0833 8.76002 21.1633 8.01002ZM13.0833 18C13.0833 18.41 12.7433 18.75 12.3333 18.75C11.9233 18.75 11.5833 18.41 11.5833 18V15C11.5833 14.59 11.9233 14.25 12.3333 14.25C12.7433 14.25 13.0833 14.59 13.0833 15V18Z" stroke="#8696BB" stroke-width="1.5"/>
</svg>
