<svg width="89" height="50" viewBox="0 0 89 50" fill="none" xmlns="http://www.w3.org/2000/svg">
<path fill-rule="evenodd" clip-rule="evenodd" d="M0.5 24.6908C0.5 38.7897 10.3083 50 25.0908 50C33.5871 50 39.6651 46.4922 43.6715 42.5039L40.9082 39.134C36.7642 43.2601 31.0303 45.5296 25.2284 45.5296C13.2092 45.5296 5.47339 36.1075 5.47339 24.6223C5.47339 13.1371 13.1404 4.47123 25.0211 4.47123C30.2707 4.47123 36.0037 6.46578 39.8724 9.76637L42.4284 6.25856C37.7312 1.85668 31.0311 0 24.8834 0C10.6541 0 0.5 10.6604 0.5 24.69V24.6908Z" fill="#26429F"/>
<path fill-rule="evenodd" clip-rule="evenodd" d="M10.6069 32.6526H13.4473V26.1191H20.6043V32.6526H23.4223V17.0858H20.6043V23.6853H13.4473V17.0858H10.6069V32.6526Z" fill="#26429F"/>
<path fill-rule="evenodd" clip-rule="evenodd" d="M38.1765 27.0618C38.1765 30.5044 40.929 32.9158 44.3424 32.9158C47.7559 32.9158 50.5084 30.5044 50.5084 27.0618C50.5084 23.6192 47.7559 21.2078 44.3209 21.2078C40.8859 21.2078 38.1773 23.6415 38.1773 27.0618H38.1765ZM41.0169 27.0618C41.0169 25.0012 42.5146 23.5755 44.3416 23.5755C46.1686 23.5755 47.6887 25.0004 47.6887 27.0618C47.6887 29.1232 46.1694 30.5481 44.3416 30.5481C42.5138 30.5481 41.0169 29.1447 41.0169 27.0618Z" fill="#F57014"/>
<path fill-rule="evenodd" clip-rule="evenodd" d="M32.4949 29.1662C32.4949 32.3892 34.4106 32.7615 35.9523 32.7615C36.3263 32.7615 36.6348 32.7177 36.833 32.6955V30.2617C36.6788 30.284 36.5245 30.284 36.415 30.284C35.6886 30.284 35.2698 29.9769 35.2698 28.7493V17.085H32.4949V29.1654V29.1662Z" fill="#F57014"/>
<path d="M29.5003 21.4712H26.7039V32.6526H29.5003V21.4712Z" fill="#F57014"/>
<path fill-rule="evenodd" clip-rule="evenodd" d="M29.5003 18.4777C29.5003 17.7091 28.8742 17.0858 28.1021 17.0858C27.33 17.0858 26.7039 17.7091 26.7039 18.4777C26.7039 19.2463 27.33 19.8696 28.1021 19.8696C28.8742 19.8696 29.5003 19.2463 29.5003 18.4777ZM28.0963 17.4714C28.18 17.9155 28.5068 18.2994 28.9372 18.429C29.0044 18.4513 29.0749 18.4678 29.147 18.4777C29.0707 18.4884 28.9961 18.5066 28.9248 18.5305C28.4935 18.6717 28.1527 19.0564 28.1021 19.5146C28.0382 19.0762 27.7413 18.713 27.3408 18.5528C27.2562 18.5173 27.1683 18.4909 27.0779 18.4744C27.597 18.3919 28.0084 17.9865 28.0971 17.4714H28.0963Z" fill="#F57014"/>
<path fill-rule="evenodd" clip-rule="evenodd" d="M88.5001 49.1745H47.7468L65.5671 0.826416H70.679L88.5001 49.1745Z" fill="#D4DAEC"/>
<path d="M69.6083 0.826416H66.6377V30.5771H69.6083V0.826416Z" fill="#26429F"/>
<path fill-rule="evenodd" clip-rule="evenodd" d="M52.789 49.1745L68.123 6.74402L83.4578 49.1745H88.5001L70.679 0.826416H65.5671L47.7468 49.1745H52.789Z" fill="#26429F"/>
<path fill-rule="evenodd" clip-rule="evenodd" d="M49.2668 45.0484H86.979L85.9648 42.2976H50.2811L49.2668 45.0484Z" fill="#26429F"/>
<path d="M68.123 38.0996C70.5455 38.0996 72.5093 36.1447 72.5093 33.7332C72.5093 31.3217 70.5455 29.3668 68.123 29.3668C65.7006 29.3668 63.7368 31.3217 63.7368 33.7332C63.7368 36.1447 65.7006 38.0996 68.123 38.0996Z" fill="#26429F"/>
<path fill-rule="evenodd" clip-rule="evenodd" d="M72.5093 33.7332C72.5093 31.3217 70.5455 29.3668 68.123 29.3668C65.7006 29.3668 63.7368 31.3217 63.7368 33.7332C63.7368 36.1447 65.7006 38.0996 68.123 38.0996C70.5455 38.0996 72.5093 36.1447 72.5093 33.7332ZM68.1065 30.5763C68.3685 31.9698 69.3952 33.1735 70.7437 33.5788C70.9552 33.6482 71.1749 33.7002 71.4013 33.7324C71.1608 33.7671 70.9278 33.8232 70.703 33.8991C69.3496 34.3433 68.2806 35.5486 68.1222 36.9867C67.9207 35.6122 66.9902 34.4721 65.7346 33.9693C65.4701 33.8579 65.1939 33.7745 64.9086 33.7225C66.5374 33.4624 67.827 32.1911 68.1065 30.5754V30.5763Z" fill="#26429F"/>
</svg>
