<svg width="24" height="24" viewBox="0 0 24 24" fill="none" xmlns="http://www.w3.org/2000/svg">
<path fill-rule="evenodd" clip-rule="evenodd" d="M7.81205 9.4896L4.30245 4.34518C3.62315 3.34945 4.33655 1.99939 5.5415 1.99939H18.4975C19.7032 1.99939 20.417 3.34922 19.7376 4.34514L13.2595 13.8422C12.664 14.7152 11.3755 14.7152 10.7814 13.8422L8.4943 10.4896H5.5428C5.14075 10.4896 4.90315 10.9396 5.1297 11.2716L11.6065 20.7554C11.8059 21.0469 12.2342 21.0469 12.4329 20.7556L18.9097 11.2718C19.1364 10.9396 18.8988 10.4896 18.4968 10.4896H18.0268C17.7506 10.4896 17.5268 10.2657 17.5268 9.9896C17.5268 9.71345 17.7506 9.4896 18.0268 9.4896H18.4968C19.7025 9.4896 20.4153 10.8395 19.7357 11.8356L13.2588 21.3194C12.6634 22.1923 11.3777 22.1923 10.7809 21.3195L4.30375 11.8354C3.6243 10.8394 4.33705 9.4896 5.5428 9.4896H7.81205ZM9.0226 9.4896L5.12855 3.78161C4.9021 3.4497 5.14005 2.99939 5.5415 2.99939H18.4975C18.8998 2.99939 19.138 3.44962 18.9114 3.78161L12.4334 13.2787C12.235 13.5696 11.8055 13.5696 11.6079 13.2791L9.7048 10.4896H11.5408C11.8169 10.4896 12.0408 10.2657 12.0408 9.9896C12.0408 9.71345 11.8169 9.4896 11.5408 9.4896H9.0226Z" fill="#2567E8"/>
</svg>
