<svg width="29" height="28" viewBox="0 0 29 28" fill="none" xmlns="http://www.w3.org/2000/svg">
<path d="M6.35286 12.95L8.6862 10.6167L15.1029 17.0333L19.1862 12.95L22.6862 16.45V5.83333H6.35286V12.95ZM5.1862 3.5H23.8529C24.1623 3.5 24.459 3.62292 24.6778 3.84171C24.8966 4.0605 25.0195 4.35725 25.0195 4.66667V23.3333C25.0195 23.6428 24.8966 23.9395 24.6778 24.1583C24.459 24.3771 24.1623 24.5 23.8529 24.5H5.1862C4.87678 24.5 4.58003 24.3771 4.36124 24.1583C4.14245 23.9395 4.01953 23.6428 4.01953 23.3333V4.66667C4.01953 4.35725 4.14245 4.0605 4.36124 3.84171C4.58003 3.62292 4.87678 3.5 5.1862 3.5ZM18.6029 11.6667C18.1387 11.6667 17.6936 11.4823 17.3654 11.1541C17.0372 10.8259 16.8529 10.3808 16.8529 9.91667C16.8529 9.45254 17.0372 9.00742 17.3654 8.67923C17.6936 8.35104 18.1387 8.16667 18.6029 8.16667C19.067 8.16667 19.5121 8.35104 19.8403 8.67923C20.1685 9.00742 20.3529 9.45254 20.3529 9.91667C20.3529 10.3808 20.1685 10.8259 19.8403 11.1541C19.5121 11.4823 19.067 11.6667 18.6029 11.6667Z" fill="#2567E8"/>
<path d="M6.35286 12.95L8.6862 10.6167L15.1029 17.0333L19.1862 12.95L22.6862 16.45V5.83333H6.35286V12.95ZM5.1862 3.5H23.8529C24.1623 3.5 24.459 3.62292 24.6778 3.84171C24.8966 4.0605 25.0195 4.35725 25.0195 4.66667V23.3333C25.0195 23.6428 24.8966 23.9395 24.6778 24.1583C24.459 24.3771 24.1623 24.5 23.8529 24.5H5.1862C4.87678 24.5 4.58003 24.3771 4.36124 24.1583C4.14245 23.9395 4.01953 23.6428 4.01953 23.3333V4.66667C4.01953 4.35725 4.14245 4.0605 4.36124 3.84171C4.58003 3.62292 4.87678 3.5 5.1862 3.5ZM18.6029 11.6667C18.1387 11.6667 17.6936 11.4823 17.3654 11.1541C17.0372 10.8259 16.8529 10.3808 16.8529 9.91667C16.8529 9.45254 17.0372 9.00742 17.3654 8.67923C17.6936 8.35104 18.1387 8.16667 18.6029 8.16667C19.067 8.16667 19.5121 8.35104 19.8403 8.67923C20.1685 9.00742 20.3529 9.45254 20.3529 9.91667C20.3529 10.3808 20.1685 10.8259 19.8403 11.1541C19.5121 11.4823 19.067 11.6667 18.6029 11.6667Z" fill="#2567E8"/>
</svg>
