<svg width="69" height="68" viewBox="0 0 69 68" fill="none" xmlns="http://www.w3.org/2000/svg">
<rect x="0.519531" width="68" height="68" rx="20" fill="#F1F4FF"/>
<g clip-path="url(#clip0_253_1414)">
<path d="M26.3529 32.95L28.6862 30.6167L35.1029 37.0333L39.1862 32.95L42.6862 36.45V25.8333H26.3529V32.95ZM25.1862 23.5H43.8529C44.1623 23.5 44.459 23.6229 44.6778 23.8417C44.8966 24.0605 45.0195 24.3572 45.0195 24.6667V43.3333C45.0195 43.6428 44.8966 43.9395 44.6778 44.1583C44.459 44.3771 44.1623 44.5 43.8529 44.5H25.1862C24.8768 44.5 24.58 44.3771 24.3612 44.1583C24.1424 43.9395 24.0195 43.6428 24.0195 43.3333V24.6667C24.0195 24.3572 24.1424 24.0605 24.3612 23.8417C24.58 23.6229 24.8768 23.5 25.1862 23.5ZM38.6029 31.6667C38.1387 31.6667 37.6936 31.4823 37.3654 31.1541C37.0372 30.8259 36.8529 30.3808 36.8529 29.9167C36.8529 29.4525 37.0372 29.0074 37.3654 28.6792C37.6936 28.351 38.1387 28.1667 38.6029 28.1667C39.067 28.1667 39.5121 28.351 39.8403 28.6792C40.1685 29.0074 40.3529 29.4525 40.3529 29.9167C40.3529 30.3808 40.1685 30.8259 39.8403 31.1541C39.5121 31.4823 39.067 31.6667 38.6029 31.6667Z" fill="#2567E8"/>
<path d="M26.3529 32.95L28.6862 30.6167L35.1029 37.0333L39.1862 32.95L42.6862 36.45V25.8333H26.3529V32.95ZM25.1862 23.5H43.8529C44.1623 23.5 44.459 23.6229 44.6778 23.8417C44.8966 24.0605 45.0195 24.3572 45.0195 24.6667V43.3333C45.0195 43.6428 44.8966 43.9395 44.6778 44.1583C44.459 44.3771 44.1623 44.5 43.8529 44.5H25.1862C24.8768 44.5 24.58 44.3771 24.3612 44.1583C24.1424 43.9395 24.0195 43.6428 24.0195 43.3333V24.6667C24.0195 24.3572 24.1424 24.0605 24.3612 23.8417C24.58 23.6229 24.8768 23.5 25.1862 23.5ZM38.6029 31.6667C38.1387 31.6667 37.6936 31.4823 37.3654 31.1541C37.0372 30.8259 36.8529 30.3808 36.8529 29.9167C36.8529 29.4525 37.0372 29.0074 37.3654 28.6792C37.6936 28.351 38.1387 28.1667 38.6029 28.1667C39.067 28.1667 39.5121 28.351 39.8403 28.6792C40.1685 29.0074 40.3529 29.4525 40.3529 29.9167C40.3529 30.3808 40.1685 30.8259 39.8403 31.1541C39.5121 31.4823 39.067 31.6667 38.6029 31.6667Z" fill="#2567E8"/>
</g>
<defs>
<clipPath id="clip0_253_1414">
<rect width="28" height="28" fill="white" transform="translate(20.5195 20)"/>
</clipPath>
</defs>
</svg>
