<svg width="24" height="24" viewBox="0 0 24 24" fill="none" xmlns="http://www.w3.org/2000/svg">
<path d="M12.8627 8.83365L14.0144 9.98542C14.5435 10.5145 14.9632 11.1427 15.2495 11.834C15.5359 12.5253 15.6833 13.2663 15.6833 14.0146C15.6833 14.7629 15.5359 15.5038 15.2495 16.1952C14.9632 16.8865 14.5435 17.5146 14.0144 18.0437L13.7263 18.3311C12.6578 19.3997 11.2086 20 9.69751 20C8.18644 20 6.73725 19.3997 5.66876 18.3311C4.60027 17.2625 4 15.8131 4 14.3019C4 12.7907 4.60027 11.3414 5.66876 10.2728L6.82041 11.4245C6.43982 11.8018 6.13748 12.2506 5.93078 12.7451C5.72407 13.2396 5.61706 13.77 5.61588 14.306C5.61471 14.842 5.7194 15.3729 5.92394 15.8683C6.12848 16.3637 6.42884 16.8138 6.80778 17.1927C7.18673 17.5717 7.63679 17.8721 8.13212 18.0767C8.62746 18.2812 9.15832 18.3859 9.69423 18.3848C10.2301 18.3836 10.7605 18.2766 11.255 18.0698C11.7494 17.8631 12.1981 17.5608 12.5754 17.1801L12.8635 16.892C13.6264 16.1288 14.055 15.0938 14.055 14.0146C14.055 12.9354 13.6264 11.9004 12.8635 11.1372L11.7119 9.98542L12.8635 8.83447L12.8627 8.83365ZM18.3304 13.7264L17.1796 12.5755C17.5602 12.1982 17.8625 11.7494 18.0692 11.2549C18.2759 10.7604 18.3829 10.2299 18.3841 9.69399C18.3853 9.15803 18.2806 8.62712 18.0761 8.13173C17.8715 7.63634 17.5712 7.18624 17.1922 6.80726C16.8133 6.42827 16.3632 6.12788 15.8679 5.92332C15.3725 5.71876 14.8417 5.61406 14.3058 5.61523C13.7699 5.61641 13.2395 5.72343 12.745 5.93016C12.2506 6.13689 11.8019 6.43925 11.4246 6.81989L11.1365 7.10803C10.3736 7.87124 9.94499 8.90624 9.94499 9.98542C9.94499 11.0646 10.3736 12.0996 11.1365 12.8628L12.2881 14.0146L11.1365 15.1655L9.98563 14.0146C9.45653 13.4855 9.03682 12.8573 8.75047 12.166C8.46413 11.4747 8.31674 10.7337 8.31674 9.98542C8.31674 9.23713 8.46413 8.49616 8.75047 7.80483C9.03682 7.11351 9.45653 6.48536 9.98563 5.95626L10.2737 5.66893C11.3422 4.60033 12.7914 4 14.3025 4C15.8136 4 17.2627 4.60033 18.3312 5.66893C19.3997 6.73753 20 8.18686 20 9.69809C20 11.2093 19.3997 12.6586 18.3312 13.7272L18.3304 13.7264Z" fill="#2567E8"/>
<path d="M12.8627 8.83365L14.0144 9.98542C14.5435 10.5145 14.9632 11.1427 15.2495 11.834C15.5359 12.5253 15.6833 13.2663 15.6833 14.0146C15.6833 14.7629 15.5359 15.5038 15.2495 16.1952C14.9632 16.8865 14.5435 17.5146 14.0144 18.0437L13.7263 18.3311C12.6578 19.3997 11.2086 20 9.69751 20C8.18644 20 6.73725 19.3997 5.66876 18.3311C4.60027 17.2625 4 15.8131 4 14.3019C4 12.7907 4.60027 11.3414 5.66876 10.2728L6.82041 11.4245C6.43982 11.8018 6.13748 12.2506 5.93078 12.7451C5.72407 13.2396 5.61706 13.77 5.61588 14.306C5.61471 14.842 5.7194 15.3729 5.92394 15.8683C6.12848 16.3637 6.42884 16.8138 6.80778 17.1927C7.18673 17.5717 7.63679 17.8721 8.13212 18.0767C8.62746 18.2812 9.15832 18.3859 9.69423 18.3848C10.2301 18.3836 10.7605 18.2766 11.255 18.0698C11.7494 17.8631 12.1981 17.5608 12.5754 17.1801L12.8635 16.892C13.6264 16.1288 14.055 15.0938 14.055 14.0146C14.055 12.9354 13.6264 11.9004 12.8635 11.1372L11.7119 9.98542L12.8635 8.83447L12.8627 8.83365ZM18.3304 13.7264L17.1796 12.5755C17.5602 12.1982 17.8625 11.7494 18.0692 11.2549C18.2759 10.7604 18.3829 10.2299 18.3841 9.69399C18.3853 9.15803 18.2806 8.62712 18.0761 8.13173C17.8715 7.63634 17.5712 7.18624 17.1922 6.80726C16.8133 6.42827 16.3632 6.12788 15.8679 5.92332C15.3725 5.71876 14.8417 5.61406 14.3058 5.61523C13.7699 5.61641 13.2395 5.72343 12.745 5.93016C12.2506 6.13689 11.8019 6.43925 11.4246 6.81989L11.1365 7.10803C10.3736 7.87124 9.94499 8.90624 9.94499 9.98542C9.94499 11.0646 10.3736 12.0996 11.1365 12.8628L12.2881 14.0146L11.1365 15.1655L9.98563 14.0146C9.45653 13.4855 9.03682 12.8573 8.75047 12.166C8.46413 11.4747 8.31674 10.7337 8.31674 9.98542C8.31674 9.23713 8.46413 8.49616 8.75047 7.80483C9.03682 7.11351 9.45653 6.48536 9.98563 5.95626L10.2737 5.66893C11.3422 4.60033 12.7914 4 14.3025 4C15.8136 4 17.2627 4.60033 18.3312 5.66893C19.3997 6.73753 20 8.18686 20 9.69809C20 11.2093 19.3997 12.6586 18.3312 13.7272L18.3304 13.7264Z" fill="#2567E8"/>
</svg>
