<svg width="26" height="26" viewBox="0 0 26 26" fill="none" xmlns="http://www.w3.org/2000/svg">
<g clip-path="url(#clip0_479_1813)">
<path d="M3.25008 3.25H22.7501C23.0374 3.25 23.313 3.36414 23.5161 3.5673C23.7193 3.77047 23.8334 4.04602 23.8334 4.33333V21.6667C23.8334 21.954 23.7193 22.2295 23.5161 22.4327C23.313 22.6359 23.0374 22.75 22.7501 22.75H3.25008C2.96276 22.75 2.68721 22.6359 2.48405 22.4327C2.28088 22.2295 2.16675 21.954 2.16675 21.6667V4.33333C2.16675 4.04602 2.28088 3.77047 2.48405 3.5673C2.68721 3.36414 2.96276 3.25 3.25008 3.25ZM21.6667 7.84117L13.0781 15.5328L4.33341 7.81733V20.5833H21.6667V7.84117ZM4.887 5.41667L13.0662 12.6338L21.1272 5.41667H4.887Z" fill="#2567E8"/>
</g>
<defs>
<clipPath id="clip0_479_1813">
<rect width="26" height="26" fill="white"/>
</clipPath>
</defs>
</svg>
