<svg width="7" height="12" viewBox="0 0 7 12" fill="none" xmlns="http://www.w3.org/2000/svg">
<path d="M1.09033 11.8398C1.38232 11.8398 1.61719 11.7383 1.82031 11.5352L6.6001 6.87598C6.87305 6.60303 6.99365 6.33643 7 6C7 5.66992 6.87305 5.39062 6.6001 5.12402L1.82666 0.458496C1.61719 0.261719 1.37598 0.160156 1.09033 0.160156C0.506348 0.160156 0.0239258 0.629883 0.0239258 1.21387C0.0239258 1.50586 0.150879 1.77246 0.366699 1.99463L4.51172 6.00635L0.366699 10.0054C0.144531 10.2275 0.0239258 10.4941 0.0239258 10.7861C0.0239258 11.3638 0.506348 11.8398 1.09033 11.8398Z" fill="#ABABAB"/>
</svg>
