<svg width="20" height="20" viewBox="0 0 20 20" fill="none" xmlns="http://www.w3.org/2000/svg">
<path d="M20 0H0V20H20V0Z" fill="white" fill-opacity="0.01"/>
<path d="M1.66675 17.5H18.3334" stroke="#2567E8" stroke-width="1.5" stroke-linecap="round" stroke-linejoin="round"/>
<path d="M7.49992 9.16663H4.16659C3.70635 9.16663 3.33325 9.53972 3.33325 9.99996V16.6666C3.33325 17.1269 3.70635 17.5 4.16659 17.5H7.49992C7.96016 17.5 8.33325 17.1269 8.33325 16.6666V9.99996C8.33325 9.53972 7.96016 9.16663 7.49992 9.16663Z" stroke="#2567E8" stroke-width="1.5" stroke-linejoin="round"/>
<path d="M15.8333 1.66663H9.16659C8.70635 1.66663 8.33325 2.03972 8.33325 2.49996V16.6666C8.33325 17.1269 8.70635 17.5 9.16659 17.5H15.8333C16.2935 17.5 16.6666 17.1269 16.6666 16.6666V2.49996C16.6666 2.03972 16.2935 1.66663 15.8333 1.66663Z" stroke="#2567E8" stroke-width="1.5" stroke-linejoin="round"/>
<path d="M11.6667 13.3368H13.3334" stroke="#2567E8" stroke-width="1.5" stroke-linecap="round" stroke-linejoin="round"/>
<path d="M5 13.3368H6.66667" stroke="#2567E8" stroke-width="1.5" stroke-linecap="round" stroke-linejoin="round"/>
<path d="M11.6667 9.58679H13.3334" stroke="#2567E8" stroke-width="1.5" stroke-linecap="round" stroke-linejoin="round"/>
<path d="M11.6667 5.83679H13.3334" stroke="#2567E8" stroke-width="1.5" stroke-linecap="round" stroke-linejoin="round"/>
</svg>
