<svg width="16" height="20" viewBox="0 0 16 20" fill="none" xmlns="http://www.w3.org/2000/svg">
<path d="M14 6H13V5C13 3.67392 12.4732 2.40215 11.5355 1.46447C10.5979 0.526784 9.32608 0 8 0C6.67392 0 5.40215 0.526784 4.46447 1.46447C3.52678 2.40215 3 3.67392 3 5V6H2C1.46957 6 0.960859 6.21071 0.585786 6.58579C0.210714 6.96086 0 7.46957 0 8V18C0 18.5304 0.210714 19.0391 0.585786 19.4142C0.960859 19.7893 1.46957 20 2 20H14C14.5304 20 15.0391 19.7893 15.4142 19.4142C15.7893 19.0391 16 18.5304 16 18V8C16 7.46957 15.7893 6.96086 15.4142 6.58579C15.0391 6.21071 14.5304 6 14 6ZM5 5C5 4.20435 5.31607 3.44129 5.87868 2.87868C6.44129 2.31607 7.20435 2 8 2C8.79565 2 9.55871 2.31607 10.1213 2.87868C10.6839 3.44129 11 4.20435 11 5V6H5V5ZM11.71 11.71L7.71 15.71C7.61704 15.8037 7.50644 15.8781 7.38458 15.9289C7.26272 15.9797 7.13201 16.0058 7 16.0058C6.86799 16.0058 6.73728 15.9797 6.61542 15.9289C6.49356 15.8781 6.38296 15.8037 6.29 15.71L4.29 13.71C4.1017 13.5217 3.99591 13.2663 3.99591 13C3.99591 12.7337 4.1017 12.4783 4.29 12.29C4.4783 12.1017 4.7337 11.9959 5 11.9959C5.2663 11.9959 5.5217 12.1017 5.71 12.29L7 13.59L10.29 10.29C10.4783 10.1017 10.7337 9.99591 11 9.99591C11.2663 9.99591 11.5217 10.1017 11.71 10.29C11.8983 10.4783 12.0041 10.7337 12.0041 11C12.0041 11.2663 11.8983 11.5217 11.71 11.71Z" fill="#2567E8"/>
</svg>
