<svg width="25" height="24" viewBox="0 0 25 24" fill="none" xmlns="http://www.w3.org/2000/svg">
<path d="M12.8266 10.87C12.7266 10.86 12.6066 10.86 12.4966 10.87C10.1166 10.79 8.22656 8.84 8.22656 6.44C8.22656 3.99 10.2066 2 12.6666 2C15.1166 2 17.1066 3.99 17.1066 6.44C17.0966 8.84 15.2066 10.79 12.8266 10.87Z" stroke="#8696BB" stroke-width="1.5" stroke-linecap="round" stroke-linejoin="round"/>
<path d="M7.82647 14.56C5.40647 16.18 5.40647 18.82 7.82647 20.43C10.5765 22.27 15.0865 22.27 17.8365 20.43C20.2565 18.81 20.2565 16.17 17.8365 14.56C15.0965 12.73 10.5865 12.73 7.82647 14.56Z" stroke="#8696BB" stroke-width="1.5" stroke-linecap="round" stroke-linejoin="round"/>
</svg>
