<svg width="16" height="16" viewBox="0 0 16 16" fill="none" xmlns="http://www.w3.org/2000/svg">
<path d="M7.33333 1.33301L12.1987 2.85301C12.3344 2.89537 12.453 2.98 12.5372 3.09453C12.6214 3.20907 12.6667 3.34752 12.6667 3.48967V4.66634H14C14.1768 4.66634 14.3464 4.73658 14.4714 4.8616C14.5964 4.98663 14.6667 5.1562 14.6667 5.33301V10.6663C14.6667 10.8432 14.5964 11.0127 14.4714 11.1377C14.3464 11.2628 14.1768 11.333 14 11.333L11.8533 11.3337C11.5953 11.6737 11.282 11.9737 10.92 12.2203L7.33333 14.6663L3.74667 12.221C3.20835 11.854 2.76783 11.361 2.46343 10.785C2.15902 10.2089 1.99993 9.56721 2 8.91567V3.48967C2.00008 3.34764 2.04552 3.20933 2.12971 3.09493C2.21389 2.98053 2.33241 2.896 2.468 2.85367L7.33333 1.33301ZM7.33333 2.72901L3.33333 3.97967V8.91567C3.33324 9.32383 3.42683 9.72655 3.60691 10.0928C3.78699 10.4591 4.04874 10.7792 4.372 11.0283L4.498 11.119L7.33333 13.053L9.85467 11.333H6.66667C6.48986 11.333 6.32029 11.2628 6.19526 11.1377C6.07024 11.0127 6 10.8432 6 10.6663V5.33301C6 5.1562 6.07024 4.98663 6.19526 4.8616C6.32029 4.73658 6.48986 4.66634 6.66667 4.66634H11.3333V3.97967L7.33333 2.72901ZM7.33333 7.99967V9.99967H13.3333V7.99967H7.33333ZM7.33333 6.66634H13.3333V5.99967H7.33333V6.66634Z" fill="white"/>
<path d="M7.33333 1.33301L12.1987 2.85301C12.3344 2.89537 12.453 2.98 12.5372 3.09453C12.6214 3.20907 12.6667 3.34752 12.6667 3.48967V4.66634H14C14.1768 4.66634 14.3464 4.73658 14.4714 4.8616C14.5964 4.98663 14.6667 5.1562 14.6667 5.33301V10.6663C14.6667 10.8432 14.5964 11.0127 14.4714 11.1377C14.3464 11.2628 14.1768 11.333 14 11.333L11.8533 11.3337C11.5953 11.6737 11.282 11.9737 10.92 12.2203L7.33333 14.6663L3.74667 12.221C3.20835 11.854 2.76783 11.361 2.46343 10.785C2.15902 10.2089 1.99993 9.56721 2 8.91567V3.48967C2.00008 3.34764 2.04552 3.20933 2.12971 3.09493C2.21389 2.98053 2.33241 2.896 2.468 2.85367L7.33333 1.33301ZM7.33333 2.72901L3.33333 3.97967V8.91567C3.33324 9.32383 3.42683 9.72655 3.60691 10.0928C3.78699 10.4591 4.04874 10.7792 4.372 11.0283L4.498 11.119L7.33333 13.053L9.85467 11.333H6.66667C6.48986 11.333 6.32029 11.2628 6.19526 11.1377C6.07024 11.0127 6 10.8432 6 10.6663V5.33301C6 5.1562 6.07024 4.98663 6.19526 4.8616C6.32029 4.73658 6.48986 4.66634 6.66667 4.66634H11.3333V3.97967L7.33333 2.72901ZM7.33333 7.99967V9.99967H13.3333V7.99967H7.33333ZM7.33333 6.66634H13.3333V5.99967H7.33333V6.66634Z" fill="white"/>
</svg>
