<svg width="20" height="20" viewBox="0 0 20 20" fill="none" xmlns="http://www.w3.org/2000/svg">
<path fill-rule="evenodd" clip-rule="evenodd" d="M15.7208 4.26977C16.085 4.39727 16.3283 4.7406 16.3283 5.12643V10.7706C16.3283 12.3481 15.755 13.8539 14.7425 15.0206C14.2333 15.6081 13.5891 16.0656 12.905 16.4356L9.93996 18.0373L6.96996 16.4348C6.28496 16.0648 5.63996 15.6081 5.12996 15.0198C4.11663 13.8531 3.54163 12.3464 3.54163 10.7673V5.12643C3.54163 4.7406 3.78496 4.39727 4.14913 4.26977L9.63413 2.34227C9.82913 2.27393 10.0416 2.27393 10.2358 2.34227L15.7208 4.26977Z" stroke="#2567E8" stroke-width="1.5" stroke-linecap="round" stroke-linejoin="round"/>
<path d="M7.76868 9.93158L9.34534 11.5091L12.5937 8.26074" stroke="#2567E8" stroke-width="1.5" stroke-linecap="round" stroke-linejoin="round"/>
</svg>
