<svg width="24" height="24" viewBox="0 0 24 24" fill="none" xmlns="http://www.w3.org/2000/svg">
<path d="M20 13.8V20.1C20 20.3387 19.9064 20.5676 19.7397 20.7364C19.573 20.9052 19.3469 21 19.1111 21H4.88889C4.65314 21 4.42705 20.9052 4.26035 20.7364C4.09365 20.5676 4 20.3387 4 20.1V13.8C4.4715 13.8 4.92368 13.6104 5.25708 13.2728C5.59048 12.9352 5.77778 12.4774 5.77778 12C5.77778 11.5226 5.59048 11.0648 5.25708 10.7272C4.92368 10.3896 4.4715 10.2 4 10.2V3.9C4 3.66131 4.09365 3.43239 4.26035 3.2636C4.42705 3.09482 4.65314 3 4.88889 3H19.1111C19.3469 3 19.573 3.09482 19.7397 3.2636C19.9064 3.43239 20 3.66131 20 3.9V10.2C19.5285 10.2 19.0763 10.3896 18.7429 10.7272C18.4095 11.0648 18.2222 11.5226 18.2222 12C18.2222 12.4774 18.4095 12.9352 18.7429 13.2728C19.0763 13.6104 19.5285 13.8 20 13.8ZM9.33333 6.6V8.4H14.6667V6.6H9.33333ZM9.33333 15.6V17.4H14.6667V15.6H9.33333Z" fill="#2567E8"/>
<path d="M20 13.8V20.1C20 20.3387 19.9064 20.5676 19.7397 20.7364C19.573 20.9052 19.3469 21 19.1111 21H4.88889C4.65314 21 4.42705 20.9052 4.26035 20.7364C4.09365 20.5676 4 20.3387 4 20.1V13.8C4.4715 13.8 4.92368 13.6104 5.25708 13.2728C5.59048 12.9352 5.77778 12.4774 5.77778 12C5.77778 11.5226 5.59048 11.0648 5.25708 10.7272C4.92368 10.3896 4.4715 10.2 4 10.2V3.9C4 3.66131 4.09365 3.43239 4.26035 3.2636C4.42705 3.09482 4.65314 3 4.88889 3H19.1111C19.3469 3 19.573 3.09482 19.7397 3.2636C19.9064 3.43239 20 3.66131 20 3.9V10.2C19.5285 10.2 19.0763 10.3896 18.7429 10.7272C18.4095 11.0648 18.2222 11.5226 18.2222 12C18.2222 12.4774 18.4095 12.9352 18.7429 13.2728C19.0763 13.6104 19.5285 13.8 20 13.8ZM9.33333 6.6V8.4H14.6667V6.6H9.33333ZM9.33333 15.6V17.4H14.6667V15.6H9.33333Z" fill="#2567E8"/>
</svg>
